<svg xmlns:xlink="http://www.w3.org/1999/xlink" xmlns="http://www.w3.org/2000/svg" id="exportSvg" width="600" height="400"><defs/><g><g id="header-svg"><g id="text-svg"><text transform="translate(0, -2)" fill="rgb(51,51,51)" style="font-family: BentonSans; font-weight: 700; font-size: 19px;"><tspan x="0" dy="19">Shots fired reports jumped during Minneapolis unrest</tspan></text></g><g id="text-svg"><text transform="translate(0, 31)" fill="rgb(51,51,51)" style="font-family: BentonSans; font-weight: 400; font-size: 15px;"><tspan x="0" dy="15">Reports of gunfire-like noise from both 911 calls and ShotSpotter activations </tspan></text><text transform="translate(0, 51)" fill="rgb(51,51,51)" style="font-family: BentonSans; font-weight: 400; font-size: 15px;"><tspan x="0" dy="15">increased exponentially around demonstrations and unrest after George Floyd's </tspan></text><text transform="translate(0, 71)" fill="rgb(51,51,51)" style="font-family: BentonSans; font-weight: 400; font-size: 15px;"><tspan x="0" dy="15">death.</tspan></text></g></g><g id="chart-svg"><g id="group-svg" clip-path="url(#rect-mask-group-0)" transform="translate(0, 100)"><clipPath id="rect-mask-group-0"><rect x="0" y="0" width="600" height="259"/></clipPath><g id="group-svg" transform="translate(26, 34)"><g id="x-svg ticks-svg" transform="translate(0, 212)"><g transform="translate(9.661590545527217, 0)"><text transform="translate(-10, -12) translate(10, 11)" fill="rgb(133, 133, 133)" style="text-anchor: middle; font-family: BentonSans; font-weight: 400; font-size: 12px;"><tspan x="0" dy="12">Jan</tspan></text></g><g transform="translate(117.9019790735658, 0)"><text transform="translate(-10, -12) translate(10, 11)" fill="rgb(133, 133, 133)" style="text-anchor: middle; font-family: BentonSans; font-weight: 400; font-size: 12px;"><tspan x="0" dy="12">Feb</tspan></text></g><g transform="translate(219.1591167288277, 0)"><text transform="translate(-11.5, -12) translate(11.5, 11)" fill="rgb(133, 133, 133)" style="text-anchor: middle; font-family: BentonSans; font-weight: 400; font-size: 12px;"><tspan x="0" dy="12">Mar</tspan></text></g><g transform="translate(327.3995052568663, 0)"><text transform="translate(-10, -12) translate(10, 11)" fill="rgb(133, 133, 133)" style="text-anchor: middle; font-family: BentonSans; font-weight: 400; font-size: 12px;"><tspan x="0" dy="12">Apr</tspan></text></g><g transform="translate(432.14826834851647, 0)"><text transform="translate(-12.5, -12) translate(12.5, 11)" fill="rgb(133, 133, 133)" style="text-anchor: middle; font-family: BentonSans; font-weight: 400; font-size: 12px;"><tspan x="0" dy="12">May</tspan></text></g><g transform="translate(540.388656876555, 0)"><text transform="translate(-10, -12) translate(10, 11)" fill="rgb(133, 133, 133)" style="text-anchor: middle; font-family: BentonSans; font-weight: 400; font-size: 12px;"><tspan x="0" dy="12">Jun</tspan></text></g></g><g id="x-svg axis-svg" transform="translate(0, 207)"><line x1="0" x2="571" y1="0" y2="0" style="stroke: rgb(51, 51, 51); stroke-width: 1;"/></g><g id="free-range-svg"><rect width="1" height="207" transform="translate(515.2222815958088, 0)" fill="rgb(51,51,51)" style="opacity: 0.61; fill: rgb(51, 51, 51);"/></g><g id="y-grid-svg"><g id="tick-svg tick-major-svg" transform="translate(0, 207)"><text transform="translate(-4, 4) translate(-8, -12) translate(8, 0)" fill="rgb(133, 133, 133)" style="text-anchor: end; font-family: BentonSans; font-weight: 400; font-size: 12px;"><tspan x="0" dy="12">0</tspan></text></g><g transform="translate(0, 143.890243902439)"><line x1="0" x2="571" y1="0" y2="0" style="stroke: rgb(238, 238, 238); stroke-width: 1;"/><text transform="translate(-4, 4) translate(-15, -12) translate(15, 0)" fill="rgb(133, 133, 133)" style="text-anchor: end; font-family: BentonSans; font-weight: 400; font-size: 12px;"><tspan x="0" dy="12">50</tspan></text></g><g transform="translate(0, 80.78048780487805)"><line x1="0" x2="571" y1="0" y2="0" style="stroke: rgb(238, 238, 238); stroke-width: 1;"/><text transform="translate(-4, 4) translate(-21, -12) translate(21, 0)" fill="rgb(133, 133, 133)" style="text-anchor: end; font-family: BentonSans; font-weight: 400; font-size: 12px;"><tspan x="0" dy="12">100</tspan></text></g><g transform="translate(0, 17.67073170731706)"><line x1="0" x2="571" y1="0" y2="0" style="stroke: rgb(238, 238, 238); stroke-width: 1;"/><text transform="translate(-4, 4) translate(-20, -12) translate(20, 0)" fill="rgb(133, 133, 133)" style="text-anchor: end; font-family: BentonSans; font-weight: 400; font-size: 12px;"><tspan x="0" dy="12">150</tspan></text></g></g><g id="lines-svg"><g id="activations-svg"><path d="M9.661590545527217,102.23780487804878L13.15321598191556,195.640243902439L16.644841418303898,200.6890243902439L20.13646685469224,194.3780487804878L23.62809229108058,194.3780487804878L27.11971772746892,194.3780487804878L30.611343163857267,204.47560975609755L34.1029686002456,194.3780487804878L37.59459403663395,196.90243902439025L41.08621947302229,196.90243902439025L44.57784490941063,191.85365853658536L48.06947034579897,200.6890243902439L51.56109578218731,194.3780487804878L55.052721218575655,199.4268292682927L58.54434665496399,200.6890243902439L62.035972091352335,200.6890243902439L65.52759752774068,203.21341463414635L69.01922296412901,203.21341463414635L72.51084840051736,203.21341463414635L76.0024738369057,204.47560975609755L79.49409927329405,200.6890243902439L82.98572470968239,194.3780487804878L86.47735014607072,198.16463414634146L89.96897558245905,198.16463414634146L93.46060101884741,184.28048780487805L96.95222645523575,191.85365853658536L100.44385189162408,194.3780487804878L103.93547732801244,198.16463414634146L107.42710276440077,204.47560975609755L110.9187282007891,195.640243902439L114.41035363717745,201.9512195121951L117.9019790735658,194.3780487804878L121.39360450995413,201.9512195121951L124.88522994634248,188.0670731707317L128.3768553827308,203.21341463414635L131.86848081911916,196.90243902439025L135.3601062555075,195.640243902439L138.85173169189585,201.9512195121951L142.34335712828417,190.59146341463415L145.83498256467252,199.4268292682927L149.32660800106086,204.47560975609755L152.8182334374492,204.47560975609755L156.30985887383756,198.16463414634146L159.8014843102259,201.9512195121951L163.29310974661422,203.21341463414635L166.78473518300257,198.16463414634146L170.27636061939089,191.85365853658536L173.76798605577923,198.16463414634146L177.2596114921676,201.9512195121951L180.75123692855593,207L184.24286236494427,203.21341463414635L187.73448780133262,203.21341463414635L191.22611323772094,193.1158536585366L194.71773867410928,195.640243902439L198.20936411049766,198.16463414634146L201.70098954688598,204.47560975609755L205.19261498327432,203.21341463414635L208.68424041966267,201.9512195121951L212.175865856051,195.640243902439L215.66749129243934,201.9512195121951L219.1591167288277,183.0182926829268L222.65074216521603,198.16463414634146L226.14236760160438,198.16463414634146L229.6339930379927,200.6890243902439L233.12561847438104,195.640243902439L236.6172439107694,195.640243902439L240.1088693471577,194.3780487804878L243.60049478354608,188.0670731707317L247.09212021993443,200.6890243902439L250.58374565632275,195.640243902439L254.0753710927111,193.1158536585366L257.5669965290994,201.9512195121951L261.05862196548776,189.3292682926829L264.5502474018761,199.4268292682927L268.04187283826445,195.640243902439L271.5334982746528,191.85365853658536L275.02512371104115,183.0182926829268L278.5167491474295,186.8048780487805L282.00837458381784,193.1158536585366L285.5000000202062,204.47560975609755L288.9916254565945,183.0182926829268L292.4832508929829,188.0670731707317L295.97487632937117,190.59146341463415L299.4665017657595,193.1158536585366L302.9581272021479,185.54268292682926L306.4497526385362,185.54268292682926L309.94137807492456,181.7560975609756L313.43300351131285,194.3780487804878L316.92462894770125,196.90243902439025L320.4162543840896,180.4939024390244L323.9078798204779,186.8048780487805L327.3995052568663,190.59146341463415L330.8911306932546,199.4268292682927L334.3827561296429,203.21341463414635L337.8743815660313,191.85365853658536L341.3660070024196,180.4939024390244L344.85763243880797,194.3780487804878L348.3492578751963,181.7560975609756L351.84088331158466,189.3292682926829L355.33250874797295,184.28048780487805L358.82413418436136,189.3292682926829L362.31575962074965,184.28048780487805L365.807385057138,196.90243902439025L369.2990104935264,186.8048780487805L372.7906359299147,193.1158536585366L376.28226136630303,193.1158536585366L379.7738868026914,193.1158536585366L383.2655122390797,199.4268292682927L386.757137675468,186.8048780487805L390.2487631118564,188.0670731707317L393.74038854824477,194.3780487804878L397.23201398463306,194.3780487804878L400.72363942102146,176.70731707317074L404.21526485740975,199.4268292682927L407.7068902937981,198.16463414634146L411.1985157301865,172.9207317073171L414.6901411665748,174.1829268292683L418.18176660296314,193.1158536585366L421.6733920393514,189.3292682926829L425.16501747573983,193.1158536585366L428.6566429121281,191.85365853658536L432.14826834851647,183.0182926829268L435.63989378490487,181.7560975609756L439.13151922129316,193.1158536585366L442.6231446576815,183.0182926829268L446.11477009406985,190.59146341463415L449.6063955304582,195.640243902439L453.0980209668465,198.16463414634146L456.5896464032349,191.85365853658536L460.08127183962324,196.90243902439025L463.57289727601153,180.4939024390244L467.06452271239993,200.6890243902439L470.5561481487882,196.90243902439025L474.04777358517657,184.28048780487805L477.539399021565,184.28048780487805L481.03102445795327,177.96951219512195L484.5226498943416,186.8048780487805L488.01427533072996,185.54268292682926L491.5059007671183,183.0182926829268L494.9975262035066,179.23170731707316L498.489151639895,174.1829268292683L501.98077707628335,189.3292682926829L505.47240251267164,184.28048780487805L508.96402794906004,170.39634146341464L512.4556533854483,162.8231707317073L515.9472788218367,166.609756097561L519.438904258225,161.5609756097561L522.9305296946134,153.9878048780488L526.4221551310018,103.5L529.9137805673901,0L533.4054060037784,66.89634146341461L536.8970314401668,64.3719512195122L540.388656876555,88.35365853658537L543.8802823129435,142.6280487804878L547.3719077493317,156.5121951219512L550.8635331857201,157.77439024390245L554.3551586221084,130.0060975609756L557.8467840584968,141.3658536585366L561.3384094948851,138.84146341463415" stroke="rgb(98,123,140)" id="activations" style="stroke-width: 2; stroke-linejoin: round; stroke-linecap: round; fill: none; mix-blend-mode: normal;"/></g></g><g id="free-texts-svg"><text transform="translate(481.7825074684485, 89.10487804878049) translate(-27.499984741210938, -9) translate(27.499984741210938, 0)" fill="rgb(51, 51, 51)" style="text-anchor: middle; font-family: BentonSans; font-weight: 400; font-size: 9px;"><tspan x="0" dy="9">Floyd's Death</tspan></text></g></g></g><g id="activations-svg" clip-path="url(#rect-mask-activations-1)" transform="translate(0, 100)"><clipPath id="rect-mask-activations-1"><rect x="0" y="0" width="16" height="20"/></clipPath><path d="M1,10 L15,10" stroke="rgb(98,123,140)" id="activations" style="stroke-width: 2; stroke-linejoin: round; stroke-linecap: round; fill: none; mix-blend-mode: normal;"/></g><g id="activations-svg"><text transform="translate(20, 103.609375)" fill="rgb(51,51,51)" style="font-family: BentonSans; font-weight: 400; font-size: 12px;"><tspan x="0" dy="12">Minneapolis shots fired reports</tspan></text></g></g><g id="after-body-svg"/><g id="above-footer-svg"/><g id="footer-svg"><g id="footer-inner-svg"><g id="footer-main-svg"><g id="text-svg"><text transform="translate(0, 382)" fill="rgb(136,136,136)" style="font-family: BentonSans; font-weight: 400; font-size: 11px;"><tspan x="0" dy="11">Chart:</tspan></text><text transform="translate(34, 382)" fill="rgb(136,136,136)" style="font-family: BentonSans; font-weight: 400; font-size: 11px;"><tspan x="0" dy="11">Jeff Hargarten, Star Tribune</tspan></text></g><g id="text-svg"><text transform="translate(174, 382)" fill="rgb(136,136,136)" style="font-family: BentonSans; font-weight: 400; font-size: 11px;"><tspan x="0" dy="11">​ •</tspan></text></g><g id="text-svg"><text transform="translate(185, 382)" fill="rgb(136,136,136)" style="font-family: BentonSans; font-weight: 400; font-size: 11px;"><tspan x="0" dy="11">Source:</tspan></text><text transform="translate(226, 382)" fill="rgb(136,136,136)" style="font-family: BentonSans; font-weight: 400; font-size: 11px;"><tspan x="0" dy="11">City of Minneapolis</tspan></text></g></g></g></g><g id="below-footer-svg"/></g></svg>