<svg xmlns:xlink="http://www.w3.org/1999/xlink" xmlns="http://www.w3.org/2000/svg" id="exportSvg" width="600" height="400"><defs/><g><g id="header-svg"><g id="text-svg"><text transform="translate(0, -2)" fill="rgb(51,51,51)" style="font-family: BentonSans; font-weight: 700; font-size: 19px;"><tspan x="0" dy="19">Sounds resembling gunshots rang across Minneapolis</tspan></text></g><g id="text-svg"><text transform="translate(0, 31)" fill="rgb(51,51,51)" style="font-family: BentonSans; font-weight: 400; font-size: 15px;"><tspan x="0" dy="15">Reports of gunfire-like noises from both 911 calls and ShotSpotter activations </tspan></text><text transform="translate(0, 51)" fill="rgb(51,51,51)" style="font-family: BentonSans; font-weight: 400; font-size: 15px;"><tspan x="0" dy="15">increased exponentially around chaos following Floyd's death.</tspan></text></g></g><g id="chart-svg"><g id="group-svg" clip-path="url(#rect-mask-group-0)" transform="translate(0, 80)"><clipPath id="rect-mask-group-0"><rect x="0" y="0" width="600" height="279"/></clipPath><g id="group-svg" transform="translate(26, 34)"><g id="x-svg ticks-svg" transform="translate(0, 232)"><g transform="translate(9.661590562247937, 0)"><text transform="translate(-10, -12) translate(10, 11)" fill="rgb(133, 133, 133)" style="text-anchor: middle; font-family: BentonSans; font-weight: 400; font-size: 12px;"><tspan x="0" dy="12">Jan</tspan></text></g><g transform="translate(115.88507743411171, 0)"><text transform="translate(-10, -12) translate(10, 11)" fill="rgb(133, 133, 133)" style="text-anchor: middle; font-family: BentonSans; font-weight: 400; font-size: 12px;"><tspan x="0" dy="12">Feb</tspan></text></g><g transform="translate(215.25543612069393, 0)"><text transform="translate(-11.5, -12) translate(11.5, 11)" fill="rgb(133, 133, 133)" style="text-anchor: middle; font-family: BentonSans; font-weight: 400; font-size: 12px;"><tspan x="0" dy="12">Mar</tspan></text></g><g transform="translate(321.47892299255767, 0)"><text transform="translate(-10, -12) translate(10, 11)" fill="rgb(133, 133, 133)" style="text-anchor: middle; font-family: BentonSans; font-weight: 400; font-size: 12px;"><tspan x="0" dy="12">Apr</tspan></text></g><g transform="translate(424.2758457717807, 0)"><text transform="translate(-12.5, -12) translate(12.5, 11)" fill="rgb(133, 133, 133)" style="text-anchor: middle; font-family: BentonSans; font-weight: 400; font-size: 12px;"><tspan x="0" dy="12">May</tspan></text></g><g transform="translate(530.4993326436445, 0)"><text transform="translate(-10, -12) translate(10, 11)" fill="rgb(133, 133, 133)" style="text-anchor: middle; font-family: BentonSans; font-weight: 400; font-size: 12px;"><tspan x="0" dy="12">Jun</tspan></text></g></g><g id="x-svg axis-svg" transform="translate(0, 227)"><line x1="0" x2="571" y1="0" y2="0" style="stroke: rgb(51, 51, 51); stroke-width: 1;"/></g><g id="free-range-svg"><rect width="1" height="227" transform="translate(505.8018960342566, 0)" fill="rgb(51,51,51)" style="opacity: 0.61; fill: rgb(51, 51, 51);"/></g><g id="y-grid-svg"><g id="tick-svg tick-major-svg" transform="translate(0, 227)"><text transform="translate(-4, 4) translate(-8, -12) translate(8, 0)" fill="rgb(133, 133, 133)" style="text-anchor: end; font-family: BentonSans; font-weight: 400; font-size: 12px;"><tspan x="0" dy="12">0</tspan></text></g><g transform="translate(0, 199.3170731707317)"><line x1="0" x2="571" y1="0" y2="0" style="stroke: rgb(238, 238, 238); stroke-width: 1;"/><text transform="translate(-4, 4) translate(-15, -12) translate(15, 0)" fill="rgb(133, 133, 133)" style="text-anchor: end; font-family: BentonSans; font-weight: 400; font-size: 12px;"><tspan x="0" dy="12">20</tspan></text></g><g transform="translate(0, 171.6341463414634)"><line x1="0" x2="571" y1="0" y2="0" style="stroke: rgb(238, 238, 238); stroke-width: 1;"/><text transform="translate(-4, 4) translate(-15, -12) translate(15, 0)" fill="rgb(133, 133, 133)" style="text-anchor: end; font-family: BentonSans; font-weight: 400; font-size: 12px;"><tspan x="0" dy="12">40</tspan></text></g><g transform="translate(0, 143.9512195121951)"><line x1="0" x2="571" y1="0" y2="0" style="stroke: rgb(238, 238, 238); stroke-width: 1;"/><text transform="translate(-4, 4) translate(-15, -12) translate(15, 0)" fill="rgb(133, 133, 133)" style="text-anchor: end; font-family: BentonSans; font-weight: 400; font-size: 12px;"><tspan x="0" dy="12">60</tspan></text></g><g transform="translate(0, 116.26829268292683)"><line x1="0" x2="571" y1="0" y2="0" style="stroke: rgb(238, 238, 238); stroke-width: 1;"/><text transform="translate(-4, 4) translate(-15, -12) translate(15, 0)" fill="rgb(133, 133, 133)" style="text-anchor: end; font-family: BentonSans; font-weight: 400; font-size: 12px;"><tspan x="0" dy="12">80</tspan></text></g><g transform="translate(0, 88.58536585365854)"><line x1="0" x2="571" y1="0" y2="0" style="stroke: rgb(238, 238, 238); stroke-width: 1;"/><text transform="translate(-4, 4) translate(-21, -12) translate(21, 0)" fill="rgb(133, 133, 133)" style="text-anchor: end; font-family: BentonSans; font-weight: 400; font-size: 12px;"><tspan x="0" dy="12">100</tspan></text></g><g transform="translate(0, 60.90243902439025)"><line x1="0" x2="571" y1="0" y2="0" style="stroke: rgb(238, 238, 238); stroke-width: 1;"/><text transform="translate(-4, 4) translate(-20, -12) translate(20, 0)" fill="rgb(133, 133, 133)" style="text-anchor: end; font-family: BentonSans; font-weight: 400; font-size: 12px;"><tspan x="0" dy="12">120</tspan></text></g><g transform="translate(0, 33.21951219512195)"><line x1="0" x2="571" y1="0" y2="0" style="stroke: rgb(238, 238, 238); stroke-width: 1;"/><text transform="translate(-4, 4) translate(-20, -12) translate(20, 0)" fill="rgb(133, 133, 133)" style="text-anchor: end; font-family: BentonSans; font-weight: 400; font-size: 12px;"><tspan x="0" dy="12">140</tspan></text></g><g transform="translate(0, 5.536585365853654)"><line x1="0" x2="571" y1="0" y2="0" style="stroke: rgb(238, 238, 238); stroke-width: 1;"/><text transform="translate(-4, 4) translate(-20, -12) translate(20, 0)" fill="rgb(133, 133, 133)" style="text-anchor: end; font-family: BentonSans; font-weight: 400; font-size: 12px;"><tspan x="0" dy="12">160</tspan></text></g></g><g id="lines-svg"><g id="gunfire-svg"><path d="M9.661590562247937,112.11585365853658L13.088154654888703,214.54268292682926L16.51471874752947,220.07926829268294L19.94128284017024,213.15853658536585L23.367846932811002,213.15853658536585L26.79441102545177,213.15853658536585L30.220975118092536,224.23170731707316L33.64753921073331,213.15853658536585L37.07410330337407,215.9268292682927L40.50066739601483,215.9268292682927L43.9272314886556,210.390243902439L47.35379558129637,220.07926829268294L50.780359673937134,213.15853658536585L54.2069237665779,218.6951219512195L57.63348785921867,220.07926829268294L61.060051951859435,220.07926829268294L64.48661604450021,222.84756097560975L67.91318013714097,222.84756097560975L71.33974422978174,222.84756097560975L74.7663083224225,224.23170731707316L78.19287241506326,220.07926829268294L81.61943650770404,213.15853658536585L85.04600060034481,217.3109756097561L88.47256469298557,217.3109756097561L91.89912878562633,202.08536585365854L95.3256928782671,210.390243902439L98.75225697090787,213.15853658536585L102.17882106354864,217.3109756097561L105.6053851561894,224.23170731707316L109.03194924883017,214.54268292682926L112.45851334147093,221.46341463414635L115.88507743411171,213.15853658536585L119.31164152675247,221.46341463414635L122.73820561939324,206.2378048780488L126.164769712034,222.84756097560975L129.59133380467478,215.9268292682927L133.01789789731552,214.54268292682926L136.4444619899563,221.46341463414635L139.87102608259707,209.0060975609756L143.29759017523784,218.6951219512195L146.72415426787862,224.23170731707316L150.15071836051936,224.23170731707316L153.57728245316014,217.3109756097561L157.0038465458009,221.46341463414635L160.43041063844166,222.84756097560975L163.85697473108243,217.3109756097561L167.28353882372318,210.390243902439L170.71010291636398,217.3109756097561L174.13666700900475,221.46341463414635L180.98979519428627,222.84756097560975L184.41635928692705,222.84756097560975L187.8429233795678,211.77439024390245L191.26948747220857,214.54268292682926L194.6960515648493,217.3109756097561L198.12261565749012,224.23170731707316L201.5491797501309,222.84756097560975L204.97574384277164,221.46341463414635L208.4023079354124,214.54268292682926L211.82887202805318,221.46341463414635L215.25543612069393,200.7012195121951L218.6820002133347,217.3109756097561L222.10856430597545,217.3109756097561L225.53512839861622,220.07926829268294L228.96169249125703,214.54268292682926L232.38825658389777,214.54268292682926L235.81482067653855,213.15853658536585L239.24138476917932,206.2378048780488L242.66794886182007,220.07926829268294L246.09451295446084,214.54268292682926L249.52107704710158,211.77439024390245L252.94764113974236,221.46341463414635L256.37420523238313,207.6219512195122L259.8007693250239,218.6951219512195L263.2273334176647,214.54268292682926L266.65389751030546,210.390243902439L270.0804616029462,200.7012195121951L273.507025695587,204.85365853658536L276.9335897882277,211.77439024390245L280.3601538808685,224.23170731707316L283.78671797350927,200.7012195121951L287.21328206615004,206.2378048780488L290.63984615879076,209.0060975609756L294.0664102514316,211.77439024390245L297.4929743440723,203.46951219512195L300.9195384367131,203.46951219512195L304.3461025293539,199.3170731707317L307.77266662199463,213.15853658536585L311.1992307146354,215.9268292682927L314.6257948072762,197.9329268292683L318.05235889991695,204.85365853658536L321.47892299255767,209.0060975609756L324.9054870851985,218.6951219512195L328.3320511778392,222.84756097560975L331.75861527048,210.390243902439L335.18517936312077,197.9329268292683L338.61174345576154,213.15853658536585L342.0383075484023,199.3170731707317L345.46487164104303,207.6219512195122L348.89143573368386,202.08536585365854L352.3179998263246,207.6219512195122L355.74456391896535,202.08536585365854L359.1711280116062,215.9268292682927L362.5976921042469,204.85365853658536L366.0242561968877,211.77439024390245L369.45082028952845,211.77439024390245L372.8773843821692,211.77439024390245L376.30394847480994,218.6951219512195L379.7305125674508,204.85365853658536L383.1570766600915,206.2378048780488L386.58364075273226,213.15853658536585L390.010204845373,213.15853658536585L393.4367689380138,193.78048780487805L396.8633330306546,218.6951219512195L400.2898971232953,217.3109756097561L403.71646121593614,189.6280487804878L407.14302530857685,191.0121951219512L410.5695894012176,211.77439024390245L413.9961534938584,207.6219512195122L417.4227175864992,211.77439024390245L420.8492816791399,210.390243902439L424.2758457717807,200.7012195121951L427.7024098644215,199.3170731707317L431.1289739570622,211.77439024390245L434.55553804970305,200.7012195121951L437.98210214234376,209.0060975609756L441.40866623498454,214.54268292682926L444.83523032762525,217.3109756097561L448.2617944202661,210.390243902439L451.68835851290686,215.9268292682927L455.1149226055476,197.9329268292683L458.5414866981884,220.07926829268294L461.9680507908291,215.9268292682927L465.3946148834699,202.08536585365854L468.8211789761107,202.08536585365854L472.24774306875145,195.16463414634146L475.67430716139216,204.85365853658536L479.100871254033,203.46951219512195L482.52743534667377,200.7012195121951L485.9539994393145,196.5487804878049L489.3805635319553,191.0121951219512L492.80712762459603,207.6219512195122L496.2336917172368,202.08536585365854L499.6602558098775,186.859756097561L503.08681990251836,178.5548780487805L506.5133839951591,182.7073170731707L509.93994808779985,177.1707317073171L513.3665121804406,168.8658536585366L516.7930762730814,113.5L520.2196403657222,0L523.646204458363,73.35975609756096L527.0727685510037,70.59146341463415L530.4993326436445,96.89024390243904L533.9258967362853,156.40853658536585L537.352460828926,171.6341463414634L540.7790249215667,173.01829268292684L544.2055890142076,142.5670731707317L547.6321531068484,155.02439024390242L551.058717199489,152.2560975609756L554.4852812921298,185.47560975609755L557.9118453847706,171.6341463414634L561.3384094774113,210.390243902439" stroke="rgb(151,220,255)" id="gunfire" style="stroke-width: 2; stroke-linejoin: round; stroke-linecap: round; fill: none; mix-blend-mode: normal;"/></g></g><g id="free-texts-svg"><text transform="translate(459.865767446208, 78.00121951219514) translate(-32.49998474121094, -9) translate(32.49998474121094, 0)" fill="rgb(51, 51, 51)" style="text-anchor: middle; font-family: BentonSans; font-weight: 400; font-size: 9px;"><tspan x="0" dy="9">Floyd's death ⇨</tspan></text></g></g></g><g id="gunfire-svg" clip-path="url(#rect-mask-gunfire-1)" transform="translate(0, 80)"><clipPath id="rect-mask-gunfire-1"><rect x="0" y="0" width="16" height="20"/></clipPath><path d="M1,10 L15,10" stroke="rgb(151,220,255)" id="gunfire" style="stroke-width: 2; stroke-linejoin: round; stroke-linecap: round; fill: none; mix-blend-mode: normal;"/></g><g id="gunfire-svg"><text transform="translate(20, 83.609375)" fill="rgb(51,51,51)" style="font-family: BentonSans; font-weight: 400; font-size: 12px;"><tspan x="0" dy="12">Minneapolis shots fired reports</tspan></text></g></g><g id="after-body-svg"/><g id="above-footer-svg"/><g id="footer-svg"><g id="footer-inner-svg"><g id="footer-main-svg"><g id="text-svg"><text transform="translate(0, 382)" fill="rgb(136,136,136)" style="font-family: BentonSans; font-weight: 400; font-size: 11px;"><tspan x="0" dy="11">Chart:</tspan></text><text transform="translate(34, 382)" fill="rgb(136,136,136)" style="font-family: BentonSans; font-weight: 400; font-size: 11px;"><tspan x="0" dy="11">Jeff Hargarten, Star Tribune</tspan></text></g><g id="text-svg"><text transform="translate(174, 382)" fill="rgb(136,136,136)" style="font-family: BentonSans; font-weight: 400; font-size: 11px;"><tspan x="0" dy="11">​ •</tspan></text></g><g id="text-svg"><text transform="translate(185, 382)" fill="rgb(136,136,136)" style="font-family: BentonSans; font-weight: 400; font-size: 11px;"><tspan x="0" dy="11">Source:</tspan></text><text transform="translate(226, 382)" fill="rgb(136,136,136)" style="font-family: BentonSans; font-weight: 400; font-size: 11px;"><tspan x="0" dy="11">City of Minneapolis</tspan></text></g></g></g></g><g id="below-footer-svg"/></g></svg>