<svg xmlns:xlink="http://www.w3.org/1999/xlink" xmlns="http://www.w3.org/2000/svg" id="exportSvg" width="600" height="400"><defs/><g><g id="header-svg"><g id="text-svg"><text transform="translate(0, -2)" fill="rgb(51,51,51)" style="font-family: BentonSans; font-weight: 700; font-size: 19px;"><tspan x="0" dy="19">Shots fired reports jumped during Minneapolis unrest</tspan></text></g><g id="text-svg"><text transform="translate(0, 31)" fill="rgb(51,51,51)" style="font-family: BentonSans; font-weight: 400; font-size: 15px;"><tspan x="0" dy="15">Reports of gunfire-like noise from both 911 calls and ShotSpotter activations </tspan></text><text transform="translate(0, 51)" fill="rgb(51,51,51)" style="font-family: BentonSans; font-weight: 400; font-size: 15px;"><tspan x="0" dy="15">increased exponentially around demonstrations and unrest after George Floyd's </tspan></text><text transform="translate(0, 71)" fill="rgb(51,51,51)" style="font-family: BentonSans; font-weight: 400; font-size: 15px;"><tspan x="0" dy="15">death.</tspan></text></g></g><g id="chart-svg"><g id="group-svg" clip-path="url(#rect-mask-group-0)" transform="translate(0, 100)"><clipPath id="rect-mask-group-0"><rect x="0" y="0" width="600" height="259"/></clipPath><g id="group-svg" transform="translate(26, 34)"><g id="x-svg ticks-svg" transform="translate(0, 212)"><g transform="translate(9.661590556744033, 0)"><text transform="translate(-10, -12) translate(10, 11)" fill="rgb(133, 133, 133)" style="text-anchor: middle; font-family: BentonSans; font-weight: 400; font-size: 12px;"><tspan x="0" dy="12">Jan</tspan></text></g><g transform="translate(116.54897422373773, 0)"><text transform="translate(-10, -12) translate(10, 11)" fill="rgb(133, 133, 133)" style="text-anchor: middle; font-family: BentonSans; font-weight: 400; font-size: 12px;"><tspan x="0" dy="12">Feb</tspan></text></g><g transform="translate(216.5403976541512, 0)"><text transform="translate(-11.5, -12) translate(11.5, 11)" fill="rgb(133, 133, 133)" style="text-anchor: middle; font-family: BentonSans; font-weight: 400; font-size: 12px;"><tspan x="0" dy="12">Mar</tspan></text></g><g transform="translate(323.4277813211449, 0)"><text transform="translate(-10, -12) translate(10, 11)" fill="rgb(133, 133, 133)" style="text-anchor: middle; font-family: BentonSans; font-weight: 400; font-size: 12px;"><tspan x="0" dy="12">Apr</tspan></text></g><g transform="translate(426.86718486984853, 0)"><text transform="translate(-12.5, -12) translate(12.5, 11)" fill="rgb(133, 133, 133)" style="text-anchor: middle; font-family: BentonSans; font-weight: 400; font-size: 12px;"><tspan x="0" dy="12">May</tspan></text></g><g transform="translate(533.7545685368422, 0)"><text transform="translate(-10, -12) translate(10, 11)" fill="rgb(133, 133, 133)" style="text-anchor: middle; font-family: BentonSans; font-weight: 400; font-size: 12px;"><tspan x="0" dy="12">Jun</tspan></text></g></g><g id="x-svg axis-svg" transform="translate(0, 207)"><line x1="0" x2="571" y1="0" y2="0" style="stroke: rgb(51, 51, 51); stroke-width: 1;"/></g><g id="free-range-svg"><rect width="1" height="207" transform="translate(508.9027729481386, 0)" fill="rgb(51,51,51)" style="opacity: 0.61; fill: rgb(51, 51, 51);"/></g><g id="y-grid-svg"><g id="tick-svg tick-major-svg" transform="translate(0, 207)"><text transform="translate(-4, 4) translate(-8, -12) translate(8, 0)" fill="rgb(133, 133, 133)" style="text-anchor: end; font-family: BentonSans; font-weight: 400; font-size: 12px;"><tspan x="0" dy="12">0</tspan></text></g><g transform="translate(0, 143.890243902439)"><line x1="0" x2="571" y1="0" y2="0" style="stroke: rgb(238, 238, 238); stroke-width: 1;"/><text transform="translate(-4, 4) translate(-15, -12) translate(15, 0)" fill="rgb(133, 133, 133)" style="text-anchor: end; font-family: BentonSans; font-weight: 400; font-size: 12px;"><tspan x="0" dy="12">50</tspan></text></g><g transform="translate(0, 80.78048780487805)"><line x1="0" x2="571" y1="0" y2="0" style="stroke: rgb(238, 238, 238); stroke-width: 1;"/><text transform="translate(-4, 4) translate(-21, -12) translate(21, 0)" fill="rgb(133, 133, 133)" style="text-anchor: end; font-family: BentonSans; font-weight: 400; font-size: 12px;"><tspan x="0" dy="12">100</tspan></text></g><g transform="translate(0, 17.67073170731706)"><line x1="0" x2="571" y1="0" y2="0" style="stroke: rgb(238, 238, 238); stroke-width: 1;"/><text transform="translate(-4, 4) translate(-20, -12) translate(20, 0)" fill="rgb(133, 133, 133)" style="text-anchor: end; font-family: BentonSans; font-weight: 400; font-size: 12px;"><tspan x="0" dy="12">150</tspan></text></g></g><g id="lines-svg"><g id="gunfire-svg"><path d="M9.661590556744033,102.23780487804878L13.109570675034153,195.640243902439L16.55755079332427,200.6890243902439L20.00553091161439,194.3780487804878L23.453511029904508,194.3780487804878L26.901491148194633,194.3780487804878L30.349471266484752,204.47560975609755L33.79745138477487,194.3780487804878L37.24543150306499,196.90243902439025L40.693411621355104,196.90243902439025L44.14139173964523,191.85365853658536L47.58937185793535,200.6890243902439L51.037351976225466,194.3780487804878L54.48533209451559,199.4268292682927L57.9333122128057,200.6890243902439L61.38129233109583,200.6890243902439L64.82927244938594,203.21341463414635L68.27725256767606,203.21341463414635L71.72523268596619,203.21341463414635L75.17321280425631,204.47560975609755L78.62119292254641,200.6890243902439L82.06917304083655,194.3780487804878L85.51715315912666,198.16463414634146L88.96513327741678,198.16463414634146L92.41311339570689,184.28048780487805L95.86109351399702,191.85365853658536L99.30907363228714,194.3780487804878L102.75705375057726,198.16463414634146L106.20503386886739,204.47560975609755L109.65301398715751,195.640243902439L113.10099410544761,201.9512195121951L116.54897422373773,194.3780487804878L119.99695434202786,201.9512195121951L123.44493446031798,188.0670731707317L126.89291457860809,203.21341463414635L130.3408946968982,196.90243902439025L133.78887481518834,195.640243902439L137.23685493347844,201.9512195121951L140.68483505176857,190.59146341463415L144.1328151700587,199.4268292682927L147.5807952883488,204.47560975609755L151.02877540663894,204.47560975609755L154.47675552492905,198.16463414634146L157.92473564321915,201.9512195121951L161.37271576150928,203.21341463414635L164.82069587979942,198.16463414634146L168.26867599808952,191.85365853658536L171.71665611637965,198.16463414634146L175.16463623466979,201.9512195121951L182.06059647125002,203.21341463414635L185.5085765895401,203.21341463414635L188.95655670783023,193.1158536585366L192.40453682612036,195.640243902439L195.85251694441047,198.16463414634146L199.3004970627006,204.47560975609755L202.74847718099073,203.21341463414635L206.19645729928084,201.9512195121951L209.64443741757097,195.640243902439L213.0924175358611,201.9512195121951L216.5403976541512,183.0182926829268L219.9883777724413,198.16463414634146L223.43635789073141,198.16463414634146L226.88433800902155,200.6890243902439L230.33231812731168,195.640243902439L233.78029824560178,195.640243902439L237.22827836389192,194.3780487804878L240.67625848218205,188.0670731707317L244.12423860047215,200.6890243902439L247.5722187187623,195.640243902439L251.02019883705242,193.1158536585366L254.4681789553425,201.9512195121951L257.9161590736326,189.3292682926829L261.36413919192273,199.4268292682927L264.8121193102129,195.640243902439L268.260099428503,191.85365853658536L271.7080795467931,183.0182926829268L275.1560596650832,186.8048780487805L278.60403978337337,193.1158536585366L282.05201990166347,204.47560975609755L285.5000000199536,183.0182926829268L288.94798013824374,188.0670731707317L292.39596025653384,190.59146341463415L295.84394037482394,193.1158536585366L299.2919204931141,185.54268292682926L302.7399006114042,185.54268292682926L306.18788072969426,181.7560975609756L309.6358608479844,194.3780487804878L313.0838409662745,196.90243902439025L316.5318210845646,180.4939024390244L319.9798012028548,186.8048780487805L323.4277813211449,190.59146341463415L326.875761439435,199.4268292682927L330.32374155772516,203.21341463414635L333.77172167601526,191.85365853658536L337.21970179430537,180.4939024390244L340.6676819125955,194.3780487804878L344.11566203088563,181.7560975609756L347.56364214917573,189.3292682926829L351.0116222674659,184.28048780487805L354.459602385756,189.3292682926829L357.9075825040461,184.28048780487805L361.35556262233627,196.90243902439025L364.80354274062637,186.8048780487805L368.2515228589165,193.1158536585366L371.6995029772065,193.1158536585366L375.1474830954967,193.1158536585366L378.5954632137868,199.4268292682927L382.0434433320769,186.8048780487805L385.49142345036705,188.0670731707317L388.93940356865716,194.3780487804878L392.38738368694726,194.3780487804878L395.8353638052374,176.70731707317074L399.2833439235275,199.4268292682927L402.73132404181763,198.16463414634146L406.1793041601078,172.9207317073171L409.6272842783979,174.1829268292683L413.075264396688,193.1158536585366L416.52324451497816,189.3292682926829L419.97122463326826,193.1158536585366L423.41920475155837,191.85365853658536L426.86718486984853,183.0182926829268L430.31516498813863,181.7560975609756L433.76314510642874,193.1158536585366L437.2111252247189,183.0182926829268L440.65910534300895,190.59146341463415L444.10708546129905,195.640243902439L447.55506557958915,198.16463414634146L451.0030456978793,191.85365853658536L454.4510258161694,196.90243902439025L457.8990059344595,180.4939024390244L461.3469860527497,200.6890243902439L464.7949661710398,196.90243902439025L468.2429462893299,184.28048780487805L471.69092640762005,184.28048780487805L475.13890652591016,177.96951219512195L478.58688664420026,186.8048780487805L482.0348667624904,185.54268292682926L485.4828468807805,183.0182926829268L488.93082699907063,179.23170731707316L492.3788071173608,174.1829268292683L495.8267872356509,189.3292682926829L499.274767353941,184.28048780487805L502.72274747223116,170.39634146341464L506.17072759052127,162.8231707317073L509.6187077088113,166.609756097561L513.0666878271015,161.5609756097561L516.5146679453916,153.9878048780488L519.9626480636817,103.5L523.4106281819719,0L526.858608300262,66.89634146341461L530.3065884185521,64.3719512195122L533.7545685368422,88.35365853658537L537.2025486551323,142.6280487804878L540.6505287734224,156.5121951219512L544.0985088917125,157.77439024390245L547.5464890100027,130.0060975609756L550.9944691282927,141.3658536585366L554.4424492465829,138.84146341463415L557.8904293648731,169.1341463414634L561.3384094831631,185.54268292682926" stroke="rgb(98,123,140)" id="gunfire" style="stroke-width: 2; stroke-linejoin: round; stroke-linecap: round; fill: none; mix-blend-mode: normal;"/></g></g><g id="free-texts-svg"><text transform="translate(475.818495998538, 89.10487804878049) translate(-27.5, -9) translate(27.5, 0)" fill="rgb(51, 51, 51)" style="text-anchor: middle; font-family: BentonSans; font-weight: 400; font-size: 9px;"><tspan x="0" dy="9">Floyd's Death</tspan></text></g></g></g><g id="gunfire-svg" clip-path="url(#rect-mask-gunfire-1)" transform="translate(0, 100)"><clipPath id="rect-mask-gunfire-1"><rect x="0" y="0" width="16" height="20"/></clipPath><path d="M1,10 L15,10" stroke="rgb(98,123,140)" id="gunfire" style="stroke-width: 2; stroke-linejoin: round; stroke-linecap: round; fill: none; mix-blend-mode: normal;"/></g><g id="gunfire-svg"><text transform="translate(20, 103.609375)" fill="rgb(51,51,51)" style="font-family: BentonSans; font-weight: 400; font-size: 12px;"><tspan x="0" dy="12">Minneapolis shots fired reports</tspan></text></g></g><g id="after-body-svg"/><g id="above-footer-svg"/><g id="footer-svg"><g id="footer-inner-svg"><g id="footer-main-svg"><g id="text-svg"><text transform="translate(0, 382)" fill="rgb(136,136,136)" style="font-family: BentonSans; font-weight: 400; font-size: 11px;"><tspan x="0" dy="11">Chart:</tspan></text><text transform="translate(34, 382)" fill="rgb(136,136,136)" style="font-family: BentonSans; font-weight: 400; font-size: 11px;"><tspan x="0" dy="11">Jeff Hargarten, Star Tribune</tspan></text></g><g id="text-svg"><text transform="translate(174, 382)" fill="rgb(136,136,136)" style="font-family: BentonSans; font-weight: 400; font-size: 11px;"><tspan x="0" dy="11">​ •</tspan></text></g><g id="text-svg"><text transform="translate(185, 382)" fill="rgb(136,136,136)" style="font-family: BentonSans; font-weight: 400; font-size: 11px;"><tspan x="0" dy="11">Source:</tspan></text><text transform="translate(226, 382)" fill="rgb(136,136,136)" style="font-family: BentonSans; font-weight: 400; font-size: 11px;"><tspan x="0" dy="11">City of Minneapolis</tspan></text></g></g></g></g><g id="below-footer-svg"/></g></svg>