<svg xmlns:xlink="http://www.w3.org/1999/xlink" xmlns="http://www.w3.org/2000/svg" id="exportSvg" width="600" height="400"><defs/><g><g id="header-svg"><g id="text-svg"><text transform="translate(0, -2)" fill="rgb(51,51,51)" style="font-family: BentonSans; font-weight: 700; font-size: 19px;"><tspan x="0" dy="19">Sounds resembling gunshots rang across Minneapolis</tspan></text></g><g id="text-svg"><text transform="translate(0, 31)" fill="rgb(51,51,51)" style="font-family: BentonSans; font-weight: 400; font-size: 15px;"><tspan x="0" dy="15">Reports of gunfire-like noises from both 911 calls and ShotSpotter activations </tspan></text><text transform="translate(0, 51)" fill="rgb(51,51,51)" style="font-family: BentonSans; font-weight: 400; font-size: 15px;"><tspan x="0" dy="15">increased exponentially around chaos following George Floyd's death.</tspan></text></g></g><g id="chart-svg"><g id="group-svg" clip-path="url(#rect-mask-group-0)" transform="translate(0, 80)"><clipPath id="rect-mask-group-0"><rect x="0" y="0" width="600" height="279"/></clipPath><g id="group-svg" transform="translate(26, 34)"><g id="x-svg ticks-svg" transform="translate(0, 232)"><g transform="translate(9.661590556744033, 0)"><text transform="translate(-10, -12) translate(10, 11)" fill="rgb(133, 133, 133)" style="text-anchor: middle; font-family: BentonSans; font-weight: 400; font-size: 12px;"><tspan x="0" dy="12">Jan</tspan></text></g><g transform="translate(116.54897422373773, 0)"><text transform="translate(-10, -12) translate(10, 11)" fill="rgb(133, 133, 133)" style="text-anchor: middle; font-family: BentonSans; font-weight: 400; font-size: 12px;"><tspan x="0" dy="12">Feb</tspan></text></g><g transform="translate(216.5403976541512, 0)"><text transform="translate(-11.5, -12) translate(11.5, 11)" fill="rgb(133, 133, 133)" style="text-anchor: middle; font-family: BentonSans; font-weight: 400; font-size: 12px;"><tspan x="0" dy="12">Mar</tspan></text></g><g transform="translate(323.4277813211449, 0)"><text transform="translate(-10, -12) translate(10, 11)" fill="rgb(133, 133, 133)" style="text-anchor: middle; font-family: BentonSans; font-weight: 400; font-size: 12px;"><tspan x="0" dy="12">Apr</tspan></text></g><g transform="translate(426.86718486984853, 0)"><text transform="translate(-12.5, -12) translate(12.5, 11)" fill="rgb(133, 133, 133)" style="text-anchor: middle; font-family: BentonSans; font-weight: 400; font-size: 12px;"><tspan x="0" dy="12">May</tspan></text></g><g transform="translate(533.7545685368422, 0)"><text transform="translate(-10, -12) translate(10, 11)" fill="rgb(133, 133, 133)" style="text-anchor: middle; font-family: BentonSans; font-weight: 400; font-size: 12px;"><tspan x="0" dy="12">Jun</tspan></text></g></g><g id="x-svg axis-svg" transform="translate(0, 227)"><line x1="0" x2="571" y1="0" y2="0" style="stroke: rgb(51, 51, 51); stroke-width: 1;"/></g><g id="free-range-svg"><rect width="1" height="227" transform="translate(508.9027729481386, 0)" fill="rgb(51,51,51)" style="opacity: 0.61; fill: rgb(51, 51, 51);"/></g><g id="y-grid-svg"><g id="tick-svg tick-major-svg" transform="translate(0, 227)"><text transform="translate(-4, 4) translate(-8, -12) translate(8, 0)" fill="rgb(133, 133, 133)" style="text-anchor: end; font-family: BentonSans; font-weight: 400; font-size: 12px;"><tspan x="0" dy="12">0</tspan></text></g><g transform="translate(0, 199.3170731707317)"><line x1="0" x2="571" y1="0" y2="0" style="stroke: rgb(238, 238, 238); stroke-width: 1;"/><text transform="translate(-4, 4) translate(-15, -12) translate(15, 0)" fill="rgb(133, 133, 133)" style="text-anchor: end; font-family: BentonSans; font-weight: 400; font-size: 12px;"><tspan x="0" dy="12">20</tspan></text></g><g transform="translate(0, 171.6341463414634)"><line x1="0" x2="571" y1="0" y2="0" style="stroke: rgb(238, 238, 238); stroke-width: 1;"/><text transform="translate(-4, 4) translate(-15, -12) translate(15, 0)" fill="rgb(133, 133, 133)" style="text-anchor: end; font-family: BentonSans; font-weight: 400; font-size: 12px;"><tspan x="0" dy="12">40</tspan></text></g><g transform="translate(0, 143.9512195121951)"><line x1="0" x2="571" y1="0" y2="0" style="stroke: rgb(238, 238, 238); stroke-width: 1;"/><text transform="translate(-4, 4) translate(-15, -12) translate(15, 0)" fill="rgb(133, 133, 133)" style="text-anchor: end; font-family: BentonSans; font-weight: 400; font-size: 12px;"><tspan x="0" dy="12">60</tspan></text></g><g transform="translate(0, 116.26829268292683)"><line x1="0" x2="571" y1="0" y2="0" style="stroke: rgb(238, 238, 238); stroke-width: 1;"/><text transform="translate(-4, 4) translate(-15, -12) translate(15, 0)" fill="rgb(133, 133, 133)" style="text-anchor: end; font-family: BentonSans; font-weight: 400; font-size: 12px;"><tspan x="0" dy="12">80</tspan></text></g><g transform="translate(0, 88.58536585365854)"><line x1="0" x2="571" y1="0" y2="0" style="stroke: rgb(238, 238, 238); stroke-width: 1;"/><text transform="translate(-4, 4) translate(-21, -12) translate(21, 0)" fill="rgb(133, 133, 133)" style="text-anchor: end; font-family: BentonSans; font-weight: 400; font-size: 12px;"><tspan x="0" dy="12">100</tspan></text></g><g transform="translate(0, 60.90243902439025)"><line x1="0" x2="571" y1="0" y2="0" style="stroke: rgb(238, 238, 238); stroke-width: 1;"/><text transform="translate(-4, 4) translate(-20, -12) translate(20, 0)" fill="rgb(133, 133, 133)" style="text-anchor: end; font-family: BentonSans; font-weight: 400; font-size: 12px;"><tspan x="0" dy="12">120</tspan></text></g><g transform="translate(0, 33.21951219512195)"><line x1="0" x2="571" y1="0" y2="0" style="stroke: rgb(238, 238, 238); stroke-width: 1;"/><text transform="translate(-4, 4) translate(-20, -12) translate(20, 0)" fill="rgb(133, 133, 133)" style="text-anchor: end; font-family: BentonSans; font-weight: 400; font-size: 12px;"><tspan x="0" dy="12">140</tspan></text></g><g transform="translate(0, 5.536585365853654)"><line x1="0" x2="571" y1="0" y2="0" style="stroke: rgb(238, 238, 238); stroke-width: 1;"/><text transform="translate(-4, 4) translate(-20, -12) translate(20, 0)" fill="rgb(133, 133, 133)" style="text-anchor: end; font-family: BentonSans; font-weight: 400; font-size: 12px;"><tspan x="0" dy="12">160</tspan></text></g></g><g id="lines-svg"><g id="gunfire-svg"><path d="M9.661590556744033,112.11585365853658L13.109570675034153,214.54268292682926L16.55755079332427,220.07926829268294L20.00553091161439,213.15853658536585L23.453511029904508,213.15853658536585L26.901491148194633,213.15853658536585L30.349471266484752,224.23170731707316L33.79745138477487,213.15853658536585L37.24543150306499,215.9268292682927L40.693411621355104,215.9268292682927L44.14139173964523,210.390243902439L47.58937185793535,220.07926829268294L51.037351976225466,213.15853658536585L54.48533209451559,218.6951219512195L57.9333122128057,220.07926829268294L61.38129233109583,220.07926829268294L64.82927244938594,222.84756097560975L68.27725256767606,222.84756097560975L71.72523268596619,222.84756097560975L75.17321280425631,224.23170731707316L78.62119292254641,220.07926829268294L82.06917304083655,213.15853658536585L85.51715315912666,217.3109756097561L88.96513327741678,217.3109756097561L92.41311339570689,202.08536585365854L95.86109351399702,210.390243902439L99.30907363228714,213.15853658536585L102.75705375057726,217.3109756097561L106.20503386886739,224.23170731707316L109.65301398715751,214.54268292682926L113.10099410544761,221.46341463414635L116.54897422373773,213.15853658536585L119.99695434202786,221.46341463414635L123.44493446031798,206.2378048780488L126.89291457860809,222.84756097560975L130.3408946968982,215.9268292682927L133.78887481518834,214.54268292682926L137.23685493347844,221.46341463414635L140.68483505176857,209.0060975609756L144.1328151700587,218.6951219512195L147.5807952883488,224.23170731707316L151.02877540663894,224.23170731707316L154.47675552492905,217.3109756097561L157.92473564321915,221.46341463414635L161.37271576150928,222.84756097560975L164.82069587979942,217.3109756097561L168.26867599808952,210.390243902439L171.71665611637965,217.3109756097561L175.16463623466979,221.46341463414635L182.06059647125002,222.84756097560975L185.5085765895401,222.84756097560975L188.95655670783023,211.77439024390245L192.40453682612036,214.54268292682926L195.85251694441047,217.3109756097561L199.3004970627006,224.23170731707316L202.74847718099073,222.84756097560975L206.19645729928084,221.46341463414635L209.64443741757097,214.54268292682926L213.0924175358611,221.46341463414635L216.5403976541512,200.7012195121951L219.9883777724413,217.3109756097561L223.43635789073141,217.3109756097561L226.88433800902155,220.07926829268294L230.33231812731168,214.54268292682926L233.78029824560178,214.54268292682926L237.22827836389192,213.15853658536585L240.67625848218205,206.2378048780488L244.12423860047215,220.07926829268294L247.5722187187623,214.54268292682926L251.02019883705242,211.77439024390245L254.4681789553425,221.46341463414635L257.9161590736326,207.6219512195122L261.36413919192273,218.6951219512195L264.8121193102129,214.54268292682926L268.260099428503,210.390243902439L271.7080795467931,200.7012195121951L275.1560596650832,204.85365853658536L278.60403978337337,211.77439024390245L282.05201990166347,224.23170731707316L285.5000000199536,200.7012195121951L288.94798013824374,206.2378048780488L292.39596025653384,209.0060975609756L295.84394037482394,211.77439024390245L299.2919204931141,203.46951219512195L302.7399006114042,203.46951219512195L306.18788072969426,199.3170731707317L309.6358608479844,213.15853658536585L313.0838409662745,215.9268292682927L316.5318210845646,197.9329268292683L319.9798012028548,204.85365853658536L323.4277813211449,209.0060975609756L326.875761439435,218.6951219512195L330.32374155772516,222.84756097560975L333.77172167601526,210.390243902439L337.21970179430537,197.9329268292683L340.6676819125955,213.15853658536585L344.11566203088563,199.3170731707317L347.56364214917573,207.6219512195122L351.0116222674659,202.08536585365854L354.459602385756,207.6219512195122L357.9075825040461,202.08536585365854L361.35556262233627,215.9268292682927L364.80354274062637,204.85365853658536L368.2515228589165,211.77439024390245L371.6995029772065,211.77439024390245L375.1474830954967,211.77439024390245L378.5954632137868,218.6951219512195L382.0434433320769,204.85365853658536L385.49142345036705,206.2378048780488L388.93940356865716,213.15853658536585L392.38738368694726,213.15853658536585L395.8353638052374,193.78048780487805L399.2833439235275,218.6951219512195L402.73132404181763,217.3109756097561L406.1793041601078,189.6280487804878L409.6272842783979,191.0121951219512L413.075264396688,211.77439024390245L416.52324451497816,207.6219512195122L419.97122463326826,211.77439024390245L423.41920475155837,210.390243902439L426.86718486984853,200.7012195121951L430.31516498813863,199.3170731707317L433.76314510642874,211.77439024390245L437.2111252247189,200.7012195121951L440.65910534300895,209.0060975609756L444.10708546129905,214.54268292682926L447.55506557958915,217.3109756097561L451.0030456978793,210.390243902439L454.4510258161694,215.9268292682927L457.8990059344595,197.9329268292683L461.3469860527497,220.07926829268294L464.7949661710398,215.9268292682927L468.2429462893299,202.08536585365854L471.69092640762005,202.08536585365854L475.13890652591016,195.16463414634146L478.58688664420026,204.85365853658536L482.0348667624904,203.46951219512195L485.4828468807805,200.7012195121951L488.93082699907063,196.5487804878049L492.3788071173608,191.0121951219512L495.8267872356509,207.6219512195122L499.274767353941,202.08536585365854L502.72274747223116,186.859756097561L506.17072759052127,178.5548780487805L509.6187077088113,182.7073170731707L513.0666878271015,177.1707317073171L516.5146679453916,168.8658536585366L519.9626480636817,113.5L523.4106281819719,0L526.858608300262,73.35975609756096L530.3065884185521,70.59146341463415L533.7545685368422,96.89024390243904L537.2025486551323,156.40853658536585L540.6505287734224,171.6341463414634L544.0985088917125,173.01829268292684L547.5464890100027,142.5670731707317L550.9944691282927,155.02439024390242L554.4424492465829,152.2560975609756L557.8904293648731,185.47560975609755L561.3384094831631,203.46951219512195" stroke="rgb(98,123,140)" id="gunfire" style="stroke-width: 2; stroke-linejoin: round; stroke-linecap: round; fill: none; mix-blend-mode: normal;"/></g></g><g id="free-texts-svg"><text transform="translate(462.71704355559484, 78.00121951219514) translate(-32.5, -9) translate(32.5, 0)" fill="rgb(51, 51, 51)" style="text-anchor: middle; font-family: BentonSans; font-weight: 400; font-size: 9px;"><tspan x="0" dy="9">Floyd's death ⇨</tspan></text></g></g></g><g id="gunfire-svg" clip-path="url(#rect-mask-gunfire-1)" transform="translate(0, 80)"><clipPath id="rect-mask-gunfire-1"><rect x="0" y="0" width="16" height="20"/></clipPath><path d="M1,10 L15,10" stroke="rgb(98,123,140)" id="gunfire" style="stroke-width: 2; stroke-linejoin: round; stroke-linecap: round; fill: none; mix-blend-mode: normal;"/></g><g id="gunfire-svg"><text transform="translate(20, 83.609375)" fill="rgb(51,51,51)" style="font-family: BentonSans; font-weight: 400; font-size: 12px;"><tspan x="0" dy="12">Minneapolis shots fired reports</tspan></text></g></g><g id="after-body-svg"/><g id="above-footer-svg"/><g id="footer-svg"><g id="footer-inner-svg"><g id="footer-main-svg"><g id="text-svg"><text transform="translate(0, 382)" fill="rgb(136,136,136)" style="font-family: BentonSans; font-weight: 400; font-size: 11px;"><tspan x="0" dy="11">Chart:</tspan></text><text transform="translate(34, 382)" fill="rgb(136,136,136)" style="font-family: BentonSans; font-weight: 400; font-size: 11px;"><tspan x="0" dy="11">Jeff Hargarten, Star Tribune</tspan></text></g><g id="text-svg"><text transform="translate(174, 382)" fill="rgb(136,136,136)" style="font-family: BentonSans; font-weight: 400; font-size: 11px;"><tspan x="0" dy="11">​ •</tspan></text></g><g id="text-svg"><text transform="translate(185, 382)" fill="rgb(136,136,136)" style="font-family: BentonSans; font-weight: 400; font-size: 11px;"><tspan x="0" dy="11">Source:</tspan></text><text transform="translate(226, 382)" fill="rgb(136,136,136)" style="font-family: BentonSans; font-weight: 400; font-size: 11px;"><tspan x="0" dy="11">City of Minneapolis</tspan></text></g></g></g></g><g id="below-footer-svg"/></g></svg>