<svg xmlns:xlink="http://www.w3.org/1999/xlink" xmlns="http://www.w3.org/2000/svg" id="exportSvg" width="600" height="400"><defs/><g><g id="header-svg"><g id="text-svg"><text transform="translate(0, -2)" fill="rgb(51,51,51)" style="font-family: BentonSans; font-weight: 700; font-size: 19px;"><tspan x="0" dy="19">Police and fire calls spiked then dwindled</tspan></text></g><g id="text-svg"><text transform="translate(0, 31)" fill="rgb(51,51,51)" style="font-family: BentonSans; font-weight: 400; font-size: 15px;"><tspan x="0" dy="15">Police incidents and confirmed fire calls increased dramatically during the immediate </tspan></text><text transform="translate(0, 51)" fill="rgb(51,51,51)" style="font-family: BentonSans; font-weight: 400; font-size: 15px;"><tspan x="0" dy="15">unrest after Floyd's death, but have since dropped.</tspan></text></g></g><g id="chart-svg"><g id="group-svg" clip-path="url(#rect-mask-group-0)" transform="translate(0, 80)"><clipPath id="rect-mask-group-0"><rect x="0" y="0" width="600" height="279"/></clipPath><g id="group-svg" transform="translate(26, 34)"><g id="x-svg ticks-svg" transform="translate(0, 232)"><g transform="translate(9.661590545527217, 0)"><text transform="translate(-10, -12) translate(10, 11)" fill="rgb(133, 133, 133)" style="text-anchor: middle; font-family: BentonSans; font-weight: 400; font-size: 12px;"><tspan x="0" dy="12">Jan</tspan></text></g><g transform="translate(117.9019790735658, 0)"><text transform="translate(-10, -12) translate(10, 11)" fill="rgb(133, 133, 133)" style="text-anchor: middle; font-family: BentonSans; font-weight: 400; font-size: 12px;"><tspan x="0" dy="12">Feb</tspan></text></g><g transform="translate(219.1591167288277, 0)"><text transform="translate(-11.5, -12) translate(11.5, 11)" fill="rgb(133, 133, 133)" style="text-anchor: middle; font-family: BentonSans; font-weight: 400; font-size: 12px;"><tspan x="0" dy="12">Mar</tspan></text></g><g transform="translate(327.3995052568663, 0)"><text transform="translate(-10, -12) translate(10, 11)" fill="rgb(133, 133, 133)" style="text-anchor: middle; font-family: BentonSans; font-weight: 400; font-size: 12px;"><tspan x="0" dy="12">Apr</tspan></text></g><g transform="translate(432.14826834851647, 0)"><text transform="translate(-12.5, -12) translate(12.5, 11)" fill="rgb(133, 133, 133)" style="text-anchor: middle; font-family: BentonSans; font-weight: 400; font-size: 12px;"><tspan x="0" dy="12">May</tspan></text></g><g transform="translate(540.388656876555, 0)"><text transform="translate(-10, -12) translate(10, 11)" fill="rgb(133, 133, 133)" style="text-anchor: middle; font-family: BentonSans; font-weight: 400; font-size: 12px;"><tspan x="0" dy="12">Jun</tspan></text></g></g><g id="free-range-svg"><rect width="1" height="227" transform="translate(514.242686681711, 0)" fill="rgb(51,51,51)" style="opacity: 0.72; fill: rgb(51, 51, 51);"/></g><g id="y-grid-svg"><g id="tick-svg tick-major-svg" transform="translate(0, 227)"><text transform="translate(-4, 4) translate(-8, -12) translate(8, 0)" fill="rgb(133, 133, 133)" style="text-anchor: end; font-family: BentonSans; font-weight: 400; font-size: 12px;"><tspan x="0" dy="12">0</tspan></text></g><g transform="translate(0, 196.73333333333335)"><line x1="0" x2="571" y1="0" y2="0" style="stroke: rgb(238, 238, 238); stroke-width: 1;"/><text transform="translate(-4, 4) translate(-15, -12) translate(15, 0)" fill="rgb(133, 133, 133)" style="text-anchor: end; font-family: BentonSans; font-weight: 400; font-size: 12px;"><tspan x="0" dy="12">20</tspan></text></g><g transform="translate(0, 166.46666666666667)"><line x1="0" x2="571" y1="0" y2="0" style="stroke: rgb(238, 238, 238); stroke-width: 1;"/><text transform="translate(-4, 4) translate(-15, -12) translate(15, 0)" fill="rgb(133, 133, 133)" style="text-anchor: end; font-family: BentonSans; font-weight: 400; font-size: 12px;"><tspan x="0" dy="12">40</tspan></text></g><g transform="translate(0, 136.2)"><line x1="0" x2="571" y1="0" y2="0" style="stroke: rgb(238, 238, 238); stroke-width: 1;"/><text transform="translate(-4, 4) translate(-15, -12) translate(15, 0)" fill="rgb(133, 133, 133)" style="text-anchor: end; font-family: BentonSans; font-weight: 400; font-size: 12px;"><tspan x="0" dy="12">60</tspan></text></g><g transform="translate(0, 105.93333333333334)"><line x1="0" x2="571" y1="0" y2="0" style="stroke: rgb(238, 238, 238); stroke-width: 1;"/><text transform="translate(-4, 4) translate(-15, -12) translate(15, 0)" fill="rgb(133, 133, 133)" style="text-anchor: end; font-family: BentonSans; font-weight: 400; font-size: 12px;"><tspan x="0" dy="12">80</tspan></text></g><g transform="translate(0, 75.66666666666669)"><line x1="0" x2="571" y1="0" y2="0" style="stroke: rgb(238, 238, 238); stroke-width: 1;"/><text transform="translate(-4, 4) translate(-21, -12) translate(21, 0)" fill="rgb(133, 133, 133)" style="text-anchor: end; font-family: BentonSans; font-weight: 400; font-size: 12px;"><tspan x="0" dy="12">100</tspan></text></g><g transform="translate(0, 45.39999999999998)"><line x1="0" x2="571" y1="0" y2="0" style="stroke: rgb(238, 238, 238); stroke-width: 1;"/><text transform="translate(-4, 4) translate(-20, -12) translate(20, 0)" fill="rgb(133, 133, 133)" style="text-anchor: end; font-family: BentonSans; font-weight: 400; font-size: 12px;"><tspan x="0" dy="12">120</tspan></text></g><g transform="translate(0, 15.133333333333326)"><line x1="0" x2="571" y1="0" y2="0" style="stroke: rgb(238, 238, 238); stroke-width: 1;"/><text transform="translate(-4, 4) translate(-20, -12) translate(20, 0)" fill="rgb(133, 133, 133)" style="text-anchor: end; font-family: BentonSans; font-weight: 400; font-size: 12px;"><tspan x="0" dy="12">140</tspan></text></g></g><path d="M9.661590545527217,227C10.825465690989997,227,11.98934083645278,227,13.15321598191556,227C14.317091127378339,227,15.480966272841119,227,16.644841418303898,227C17.80871656376668,227,18.97259170922946,227,20.13646685469224,227C21.30034200015502,227,22.464217145617802,227,23.62809229108058,227C24.79196743654336,227,25.95584258200614,227,27.11971772746892,227C28.283592872931703,227,29.447468018394485,227,30.611343163857267,227C31.775218309320046,227,32.93909345478282,227,34.1029686002456,227C35.266843745708385,227,36.43071889117117,227,37.59459403663395,227C38.75846918209673,227,39.92234432755951,227,41.08621947302229,227C42.25009461848507,227,43.41396976394785,227,44.57784490941063,227C45.74172005487341,227,46.90559520033619,227,48.06947034579897,227C49.23334549126175,227,50.397220636724526,227,51.56109578218731,227C52.72497092765009,227,53.88884607311287,227,55.052721218575655,227C56.21659636403843,227,57.38047150950121,227,58.54434665496399,227C59.70822180042677,227,60.87209694588955,227,62.035972091352335,227C63.19984723681512,227,64.3637223822779,227,65.52759752774068,227C66.69147267320346,227,67.85534781866623,227,69.01922296412901,227C70.1830981095918,227,71.34697325505458,227,72.51084840051736,227C73.67472354598014,227,74.83859869144291,227,76.0024738369057,227C77.16634898236848,227,78.33022412783127,227,79.49409927329405,227C80.65797441875684,227,81.8218495642196,227,82.98572470968239,227C84.14959985514517,227,85.31347500060794,227,86.47735014607072,227C87.6412252915335,227,88.80510043699627,227,89.96897558245905,227C91.13285072792183,227,92.29672587338463,227,93.46060101884741,227C94.6244761643102,227,95.78835130977296,227,96.95222645523575,227C98.11610160069853,227,99.2799767461613,227,100.44385189162408,227C101.60772703708686,227,102.77160218254966,227,103.93547732801244,227C105.09935247347522,227,106.26322761893799,227,107.42710276440077,227C108.59097790986355,227,109.75485305532632,227,110.9187282007891,227C112.08260334625189,227,113.24647849171467,227,114.41035363717745,227C115.57422878264023,227,116.73810392810302,227,117.9019790735658,227C119.06585421902858,227,120.22972936449135,227,121.39360450995413,227C122.55747965541691,227,123.7213548008797,227,124.88522994634248,227C126.04910509180526,227,127.21298023726803,227,128.3768553827308,227C129.5407305281936,227,130.70460567365637,227,131.86848081911916,227C133.03235596458194,227,134.19623111004472,227,135.3601062555075,227C136.52398140097029,227,137.68785654643307,227,138.85173169189585,227C140.01560683735863,227,141.1794819828214,227,142.34335712828417,227C143.50723227374695,227,144.67110741920973,227,145.83498256467252,227C146.9988577101353,227,148.16273285559808,227,149.32660800106086,227C150.49048314652364,227,151.65435829198643,227,152.8182334374492,227C153.982108582912,227,155.14598372837477,227,156.30985887383756,227C157.47373401930034,227,158.63760916476312,227,159.8014843102259,227C160.96535945568868,227,162.12923460115144,227,163.29310974661422,227C164.456984892077,227,165.62086003753979,227,166.78473518300257,227C167.94861032846535,227,169.1124854739281,227,170.27636061939089,227C171.44023576485367,227,172.60411091031645,227,173.76798605577923,227C174.93186120124201,227,176.09573634670483,227,177.2596114921676,227C178.4234866376304,227,179.58736178309314,227,180.75123692855593,227C181.9151120740187,227,183.0789872194815,227,184.24286236494427,227C185.40673751040705,227,186.57061265586984,227,187.73448780133262,227C188.8983629467954,227,190.06223809225816,227,191.22611323772094,227C192.38998838318372,227,193.5538635286465,227,194.71773867410928,227C195.88161381957207,227,197.04548896503488,227,198.20936411049766,227C199.37323925596044,227,200.5371144014232,227,201.70098954688598,227C202.86486469234876,227,204.02873983781154,227,205.19261498327432,227C206.3564901287371,227,207.5203652741999,227,208.68424041966267,227C209.84811556512545,227,211.0119907105882,227,212.175865856051,227C213.33974100151377,227,214.50361614697655,227,215.66749129243934,227C216.83136643790212,227,217.99524158336493,227,219.1591167288277,227C220.3229918742905,227,221.48686701975325,227,222.65074216521603,227C223.8146173106788,227,224.9784924561416,227,226.14236760160438,227C227.30624274706716,227,228.4701178925299,227,229.6339930379927,227C230.79786818345548,227,231.96174332891826,227,233.12561847438104,227C234.28949361984382,227,235.4533687653066,227,236.6172439107694,227C237.78111905623217,227,238.94499420169493,227,240.1088693471577,227C241.2727444926205,227,242.4366196380833,227,243.60049478354608,227C244.76436992900886,227,245.92824507447165,227,247.09212021993443,227C248.2559953653972,227,249.41987051085997,227,250.58374565632275,227C251.74762080178553,227,252.9114959472483,227,254.0753710927111,227C255.23924623817388,227,256.40312138363663,227,257.5669965290994,227C258.7308716745622,227,259.894746820025,227,261.05862196548776,227C262.22249711095054,227,263.3863722564133,227,264.5502474018761,227C265.7141225473389,227,266.87799769280167,227,268.04187283826445,227C269.20574798372724,227,270.36962312919,227,271.5334982746528,227C272.6973734201156,227,273.86124856557836,227,275.02512371104115,227C276.18899885650393,227,277.3528740019667,227,278.5167491474295,227C279.6806242928923,227,280.84449943835506,227,282.00837458381784,227C283.1722497292806,227,284.3361248747434,227,285.5000000202062,227C286.66387516566897,227,287.8277503111317,227,288.9916254565945,227C290.15550060205726,227,291.3193757475201,227,292.4832508929829,227C293.64712603844566,227,294.8110011839084,227,295.97487632937117,227C297.13875147483395,227,298.30262662029673,227,299.4665017657595,227C300.6303769112223,227,301.79425205668514,227,302.9581272021479,227C304.1220023476107,227,305.28587749307343,227,306.4497526385362,227C307.613627783999,227,308.7775029294618,227,309.94137807492456,227C311.10525322038734,227,312.26912836585007,227,313.43300351131285,227C314.59687865677563,227,315.76075380223847,227,316.92462894770125,227C318.08850409316403,227,319.2523792386268,227,320.4162543840896,227C321.5801295295524,227,322.7440046750151,227,323.9078798204779,227C325.07175496594067,227,326.2356301114035,227,327.3995052568663,227C328.5633804023291,227,329.7272555477918,227,330.8911306932546,227C332.05500583871736,227,333.21888098418015,227,334.3827561296429,227C335.5466312751057,227,336.7105064205685,227,337.8743815660313,227C339.03825671149406,227,340.20213185695684,227,341.3660070024196,227C342.5298821478824,227,343.6937572933452,227,344.85763243880797,227C346.02150758427075,227,347.18538272973353,227,348.3492578751963,227C349.5131330206591,227,350.6770081661219,227,351.84088331158466,227C353.00475845704744,227,354.16863360251017,227,355.33250874797295,227C356.49638389343573,227,357.6602590388986,227,358.82413418436136,227C359.98800932982414,227,361.15188447528686,227,362.31575962074965,227C363.4796347662124,227,364.6435099116752,227,365.807385057138,227C366.9712602026008,227,368.1351353480636,227,369.2990104935264,227C370.4628856389892,227,371.6267607844519,227,372.7906359299147,227C373.95451107537747,227,375.11838622084025,227,376.28226136630303,227C377.4461365117658,227,378.6100116572286,227,379.7738868026914,227C380.93776194815416,227,382.10163709361694,227,383.2655122390797,227C384.4293873845425,227,385.59326253000523,227,386.757137675468,227C387.9210128209308,227,389.08488796639364,227,390.2487631118564,227C391.4126382573192,227,392.576513402782,227,393.74038854824477,227C394.90426369370755,227,396.0681388391703,227,397.23201398463306,227C398.39588913009584,227,399.5597642755587,227,400.72363942102146,227C401.88751456648424,227,403.05138971194697,227,404.21526485740975,227C405.37914000287253,227,406.5430151483353,227,407.7068902937981,227C408.8707654392609,227,410.0346405847237,227,411.1985157301865,227C412.3623908756493,227,413.526266021112,227,414.6901411665748,227C415.8540163120376,227,417.01789145750035,227,418.18176660296314,227C419.3456417484259,227,420.50951689388864,227,421.6733920393514,227C422.8372671848142,227,424.00114233027705,227,425.16501747573983,227C426.3288926212026,227,427.49276776666534,227,428.6566429121281,227C429.8205180575909,227,430.9843932030537,227,432.14826834851647,227C433.31214349397925,227,434.4760186394421,227,435.63989378490487,227C436.80376893036765,227,437.9676440758304,227,439.13151922129316,227C440.29539436675594,227,441.4592695122187,227,442.6231446576815,227C443.7870198031443,227,444.9508949486071,227,446.11477009406985,227C447.27864523953264,227,448.4425203849954,227,449.6063955304582,227C450.770270675921,227,451.9341458213837,227,453.0980209668465,227C454.2618961123093,227,455.4257712577721,227,456.5896464032349,227C457.7535215486977,227,458.91739669416046,227,460.08127183962324,227C461.245146985086,227,462.40902213054875,227,463.57289727601153,227C464.7367724214743,227,465.90064756693715,227,467.06452271239993,227C468.2283978578627,227,469.39227300332544,227,470.5561481487882,227C471.720023294251,227,472.8838984397138,227,474.04777358517657,227C475.21164873063935,227,476.3755238761022,227,477.539399021565,227C478.70327416702776,227,479.8671493124905,227,481.03102445795327,227C482.19489960341605,227,483.35877474887883,227,484.5226498943416,227C485.6865250398044,227,486.8504001852672,227,488.01427533072996,227C489.17815047619274,227,490.3420256216555,227,491.5059007671183,227C492.6697759125811,227,493.8336510580438,227,494.9975262035066,227C496.1614013489694,227,497.3252764944322,227,498.489151639895,227C499.6530267853578,227,500.81690193082056,227,501.98077707628335,227C503.1446522217461,227,504.30852736720885,227,505.47240251267164,227C506.6362776581344,227,507.80015280359726,227,508.96402794906004,227C510.12790309452276,227,511.29177823998555,227,512.4556533854483,227C513.6195285309111,227,514.7834036763738,227,515.9472788218367,227C517.1111539672994,227,518.2750291127622,227,519.438904258225,227C520.6027794036878,227,521.7666545491505,227,522.9305296946134,227C524.0944048400762,227,525.2582799855389,227,526.4221551310018,227C527.5860302764645,227,528.7499054219273,227,529.9137805673901,227C531.0776557128528,227,532.2415308583156,227,533.4054060037784,227C534.5692811492412,227,535.7331562947039,227,536.8970314401668,227C538.0609065856295,227,539.2247817310923,227,540.388656876555,227C541.5525320220179,227,542.7164071674806,227,543.8802823129435,227C545.0441574584062,227,546.208032603869,227,547.3719077493317,227C548.5357828947946,227,549.6996580402573,227,550.8635331857201,227C552.0274083311829,227,553.1912834766457,227,554.3551586221084,227C555.5190337675713,227,556.682908913034,227,557.8467840584968,227C559.0106592039596,227,560.1745343494224,227,561.3384094948851,227L561.3384094948851,219.43333333333334C560.1745343494224,220.19,559.0106592039596,220.94666666666666,557.8467840584968,220.94666666666666C556.682908913034,220.94666666666666,555.5190337675713,219.43333333333334,554.3551586221084,219.43333333333334C553.1912834766457,219.43333333333334,552.0274083311829,225.48666666666668,550.8635331857201,225.48666666666668C549.6996580402573,225.48666666666668,548.5357828947946,213.38000000000008,547.3719077493317,210.35333333333332C546.208032603869,207.32666666666665,545.0441574584062,205.81333333333333,543.8802823129435,205.81333333333333C542.7164071674806,205.81333333333333,541.5525320220179,207.32666666666665,540.388656876555,207.32666666666665C539.2247817310923,207.32666666666665,538.0609065856295,202.53444444444435,536.8970314401668,198.24666666666667C535.7331562947039,193.95888888888885,534.5692811492412,181.6,533.4054060037784,181.6C532.2415308583156,181.6,531.0776557128528,182.10444444444445,529.9137805673901,183.11333333333334C528.7499054219273,184.12222222222223,527.5860302764645,201.27333333333334,526.4221551310018,207.32666666666665C525.2582799855389,213.38000000000014,524.0944048400762,218.42444444444445,522.9305296946134,219.43333333333334C521.7666545491505,220.44222222222223,520.6027794036878,220.94666666666666,519.438904258225,220.94666666666666C518.2750291127622,220.94666666666666,517.1111539672994,216.40666666666667,515.9472788218367,216.40666666666667C514.7834036763738,216.40666666666667,513.6195285309111,217.92,512.4556533854483,217.92C511.29177823998555,217.92,510.12790309452276,214.89333333333335,508.96402794906004,214.89333333333335C507.80015280359726,214.89333333333335,506.6362776581344,222.46,505.47240251267164,222.46C504.30852736720885,222.46,503.1446522217461,222.46,501.98077707628335,222.46C500.81690193082056,222.46,499.6530267853578,222.46,498.489151639895,222.46C497.3252764944322,222.46,496.1614013489694,225.48666666666668,494.9975262035066,225.48666666666668C493.8336510580438,225.48666666666668,492.6697759125811,216.40666666666667,491.5059007671183,216.40666666666667C490.3420256216555,216.40666666666667,489.17815047619274,223.97333333333333,488.01427533072996,223.97333333333333C486.8504001852672,223.97333333333333,485.6865250398044,218.92888888888888,484.5226498943416,217.92C483.35877474887883,216.9111111111111,482.19489960341605,216.40666666666667,481.03102445795327,216.40666666666667C479.8671493124905,216.40666666666667,478.70327416702776,218.67666666666668,477.539399021565,219.43333333333334C476.3755238761022,220.19000000000003,475.21164873063935,220.94666666666666,474.04777358517657,220.94666666666666C472.8838984397138,220.94666666666666,471.720023294251,220.94666666666666,470.5561481487882,220.94666666666666C469.39227300332544,220.94666666666666,468.2283978578627,221.95555555555558,467.06452271239993,222.46C465.90064756693715,222.96444444444447,464.7367724214743,223.97333333333333,463.57289727601153,223.97333333333333C462.40902213054875,223.97333333333333,461.245146985086,222.46,460.08127183962324,222.46C458.91739669416046,222.46,457.7535215486977,222.46,456.5896464032349,222.46C455.4257712577721,222.46,454.2618961123093,213.38,453.0980209668465,213.38C451.9341458213837,213.38,450.770270675921,220.44222222222226,449.6063955304582,222.46C448.4425203849954,224.4777777777778,447.27864523953264,225.48666666666668,446.11477009406985,225.48666666666668C444.9508949486071,225.48666666666668,443.7870198031443,220.94666666666666,442.6231446576815,219.43333333333334C441.4592695122187,217.92000000000002,440.29539436675594,217.41555555555556,439.13151922129316,216.40666666666667C437.9676440758304,215.39777777777778,436.80376893036765,213.38,435.63989378490487,213.38C434.4760186394421,213.38,433.31214349397925,214.38888888888889,432.14826834851647,214.89333333333335C430.9843932030537,215.39777777777778,429.8205180575909,215.39777777777778,428.6566429121281,216.40666666666667C427.49276776666534,217.41555555555553,426.3288926212026,225.48666666666668,425.16501747573983,225.48666666666668C424.00114233027705,225.48666666666668,422.8372671848142,225.48666666666668,421.6733920393514,225.48666666666668C420.50951689388864,225.48666666666668,419.3456417484259,223.21666666666667,418.18176660296314,222.46C417.01789145750035,221.70333333333332,415.8540163120376,220.94666666666666,414.6901411665748,220.94666666666666C413.526266021112,220.94666666666666,412.3623908756493,220.94666666666666,411.1985157301865,220.94666666666666C410.0346405847237,220.94666666666666,408.8707654392609,222.46,407.7068902937981,222.46C406.5430151483353,222.46,405.37914000287253,217.92,404.21526485740975,217.92C403.05138971194697,217.92,401.88751456648424,220.94666666666666,400.72363942102146,220.94666666666666C399.5597642755587,220.94666666666666,398.39588913009584,219.43333333333334,397.23201398463306,219.43333333333334C396.0681388391703,219.43333333333334,394.90426369370755,219.43333333333334,393.74038854824477,219.43333333333334C392.576513402782,219.43333333333334,391.4126382573192,223.97333333333333,390.2487631118564,223.97333333333333C389.08488796639364,223.97333333333333,387.9210128209308,216.40666666666667,386.757137675468,216.40666666666667C385.59326253000523,216.40666666666667,384.4293873845425,222.96444444444444,383.2655122390797,223.97333333333333C382.10163709361694,224.98222222222222,380.93776194815416,225.48666666666668,379.7738868026914,225.48666666666668C378.6100116572286,225.48666666666668,377.4461365117658,217.92,376.28226136630303,217.92C375.11838622084025,217.92,373.95451107537747,227,372.7906359299147,227C371.6267607844519,227,370.4628856389892,225.9911111111111,369.2990104935264,225.48666666666668C368.1351353480636,224.98222222222222,366.9712602026008,224.98222222222222,365.807385057138,223.97333333333333C364.6435099116752,222.96444444444444,363.4796347662124,216.40666666666667,362.31575962074965,216.40666666666667C361.15188447528686,216.40666666666667,359.98800932982414,223.97333333333333,358.82413418436136,223.97333333333333C357.6602590388986,223.97333333333333,356.49638389343573,223.97333333333333,355.33250874797295,223.97333333333333C354.16863360251017,223.97333333333333,353.00475845704744,217.92,351.84088331158466,217.92C350.6770081661219,217.92,349.5131330206591,223.97333333333333,348.3492578751963,223.97333333333333C347.18538272973353,223.97333333333333,346.02150758427075,221.70333333333332,344.85763243880797,220.94666666666666C343.6937572933452,220.19,342.5298821478824,219.43333333333334,341.3660070024196,219.43333333333334C340.20213185695684,219.43333333333334,339.03825671149406,223.97333333333333,337.8743815660313,223.97333333333333C336.7105064205685,223.97333333333333,335.5466312751057,221.95555555555555,334.3827561296429,220.94666666666666C333.21888098418015,219.93777777777777,332.05500583871736,217.92,330.8911306932546,217.92C329.7272555477918,217.92,328.5633804023291,223.97333333333333,327.3995052568663,223.97333333333333C326.2356301114035,223.97333333333333,325.07175496594067,219.43333333333334,323.9078798204779,219.43333333333334C322.7440046750151,219.43333333333334,321.5801295295524,222.46,320.4162543840896,222.46C319.2523792386268,222.46,318.08850409316403,222.46,316.92462894770125,222.46C315.76075380223847,222.46,314.59687865677563,225.48666666666668,313.43300351131285,225.48666666666668C312.26912836585007,225.48666666666668,311.10525322038734,225.48666666666668,309.94137807492456,225.48666666666668C308.7775029294618,225.48666666666668,307.613627783999,219.43333333333334,306.4497526385362,219.43333333333334C305.28587749307343,219.43333333333334,304.1220023476107,223.97333333333333,302.9581272021479,223.97333333333333C301.79425205668514,223.97333333333333,300.6303769112223,223.97333333333333,299.4665017657595,223.97333333333333C298.30262662029673,223.97333333333333,297.13875147483395,227,295.97487632937117,227C294.8110011839084,227,293.64712603844566,219.43333333333334,292.4832508929829,219.43333333333334C291.3193757475201,219.43333333333334,290.15550060205726,223.97333333333333,288.9916254565945,223.97333333333333C287.8277503111317,223.97333333333333,286.66387516566897,223.97333333333333,285.5000000202062,223.97333333333333C284.3361248747434,223.97333333333333,283.1722497292806,220.94666666666666,282.00837458381784,220.94666666666666C280.84449943835506,220.94666666666666,279.6806242928923,221.70333333333335,278.5167491474295,222.46C277.3528740019667,223.21666666666667,276.18899885650393,225.48666666666668,275.02512371104115,225.48666666666668C273.86124856557836,225.48666666666668,272.6973734201156,224.98222222222222,271.5334982746528,223.97333333333333C270.36962312919,222.96444444444444,269.20574798372724,214.89333333333335,268.04187283826445,214.89333333333335C266.87799769280167,214.89333333333335,265.7141225473389,218.42444444444445,264.5502474018761,219.43333333333334C263.3863722564133,220.44222222222223,262.22249711095054,220.4422222222222,261.05862196548776,220.94666666666666C259.894746820025,221.45111111111112,258.7308716745622,222.46,257.5669965290994,222.46C256.40312138363663,222.46,255.23924623817388,217.92,254.0753710927111,217.92C252.9114959472483,217.92,251.74762080178553,217.92,250.58374565632275,217.92C249.41987051085997,217.92,248.2559953653972,213.38,247.09212021993443,213.38C245.92824507447165,213.38,244.76436992900886,219.43333333333334,243.60049478354608,219.43333333333334C242.4366196380833,219.43333333333334,241.2727444926205,217.92,240.1088693471577,217.92C238.94499420169493,217.92,237.78111905623217,219.68555555555554,236.6172439107694,220.94666666666666C235.4533687653066,222.20777777777778,234.28949361984382,224.4777777777778,233.12561847438104,225.48666666666668C231.96174332891826,226.49555555555557,230.79786818345548,227,229.6339930379927,227C228.4701178925299,227,227.30624274706716,226.24333333333334,226.14236760160438,225.48666666666668C224.9784924561416,224.73000000000002,223.8146173106788,222.46,222.65074216521603,222.46C221.48686701975325,222.46,220.3229918742905,227,219.1591167288277,227C217.99524158336493,227,216.83136643790212,224.73,215.66749129243934,223.97333333333333C214.50361614697655,223.21666666666667,213.33974100151377,222.96444444444447,212.175865856051,222.46C211.0119907105882,221.95555555555558,209.84811556512545,220.94666666666666,208.68424041966267,220.94666666666666C207.5203652741999,220.94666666666666,206.3564901287371,225.48666666666668,205.19261498327432,225.48666666666668C204.02873983781154,225.48666666666668,202.86486469234876,222.46,201.70098954688598,222.46C200.5371144014232,222.46,199.37323925596044,223.97333333333333,198.20936411049766,223.97333333333333C197.04548896503488,223.97333333333333,195.88161381957207,223.4688888888889,194.71773867410928,222.46C193.5538635286465,221.45111111111115,192.38998838318372,217.92,191.22611323772094,217.92C190.06223809225816,217.92,188.8983629467954,218.42444444444445,187.73448780133262,219.43333333333334C186.57061265586984,220.44222222222226,185.40673751040705,227,184.24286236494427,227C183.0789872194815,227,181.9151120740187,224.98222222222222,180.75123692855593,223.97333333333333C179.58736178309314,222.96444444444444,178.4234866376304,220.94666666666666,177.2596114921676,220.94666666666666C176.09573634670483,220.94666666666666,174.93186120124201,227,173.76798605577923,227C172.60411091031645,227,171.44023576485367,225.23444444444445,170.27636061939089,223.97333333333333C169.1124854739281,222.7122222222222,167.94861032846535,219.43333333333334,166.78473518300257,219.43333333333334C165.62086003753979,219.43333333333334,164.456984892077,221.70333333333335,163.29310974661422,222.46C162.12923460115144,223.21666666666667,160.96535945568868,223.97333333333333,159.8014843102259,223.97333333333333C158.63760916476312,223.97333333333333,157.47373401930034,220.94666666666666,156.30985887383756,220.94666666666666C155.14598372837477,220.94666666666666,153.982108582912,225.48666666666668,152.8182334374492,225.48666666666668C151.65435829198643,225.48666666666668,150.49048314652364,223.97333333333333,149.32660800106086,223.97333333333333C148.16273285559808,223.97333333333333,146.9988577101353,225.48666666666668,145.83498256467252,225.48666666666668C144.67110741920973,225.48666666666668,143.50723227374695,222.46,142.34335712828417,222.46C141.1794819828214,222.46,140.01560683735863,222.46,138.85173169189585,222.46C137.68785654643307,222.46,136.52398140097029,220.19,135.3601062555075,219.43333333333334C134.19623111004472,218.67666666666668,133.03235596458194,217.92,131.86848081911916,217.92C130.70460567365637,217.92,129.5407305281936,225.48666666666668,128.3768553827308,225.48666666666668C127.21298023726803,225.48666666666668,126.04910509180526,219.43333333333334,124.88522994634248,219.43333333333334C123.7213548008797,219.43333333333334,122.55747965541691,225.48666666666668,121.39360450995413,225.48666666666668C120.22972936449135,225.48666666666668,119.06585421902858,217.92,117.9019790735658,217.92C116.73810392810302,217.92,115.57422878264023,219.68555555555554,114.41035363717745,220.94666666666666C113.24647849171467,222.20777777777778,112.08260334625189,225.48666666666668,110.9187282007891,225.48666666666668C109.75485305532632,225.48666666666668,108.59097790986355,222.46,107.42710276440077,222.46C106.26322761893799,222.46,105.09935247347522,222.46,103.93547732801244,222.46C102.77160218254966,222.46,101.60772703708686,220.94666666666666,100.44385189162408,220.94666666666666C99.2799767461613,220.94666666666666,98.11610160069853,220.94666666666666,96.95222645523575,220.94666666666666C95.78835130977296,220.94666666666666,94.6244761643102,221.70333333333335,93.46060101884741,222.46C92.29672587338463,223.21666666666667,91.13285072792183,225.48666666666668,89.96897558245905,225.48666666666668C88.80510043699627,225.48666666666668,87.6412252915335,222.46,86.47735014607072,222.46C85.31347500060794,222.46,84.14959985514517,225.48666666666668,82.98572470968239,225.48666666666668C81.8218495642196,225.48666666666668,80.65797441875684,220.94666666666666,79.49409927329405,220.94666666666666C78.33022412783127,220.94666666666666,77.16634898236848,225.48666666666668,76.0024738369057,225.48666666666668C74.83859869144291,225.48666666666668,73.67472354598014,220.94666666666666,72.51084840051736,220.94666666666666C71.34697325505458,220.94666666666666,70.1830981095918,222.96444444444444,69.01922296412901,223.97333333333333C67.85534781866623,224.98222222222222,66.69147267320346,227,65.52759752774068,227C64.3637223822779,227,63.19984723681512,224.73,62.035972091352335,223.97333333333333C60.87209694588955,223.21666666666667,59.70822180042677,223.21666666666667,58.54434665496399,222.46C57.38047150950121,221.70333333333335,56.21659636403843,219.43333333333334,55.052721218575655,219.43333333333334C53.88884607311287,219.43333333333334,52.72497092765009,222.96444444444444,51.56109578218731,223.97333333333333C50.397220636724526,224.98222222222222,49.23334549126175,225.48666666666668,48.06947034579897,225.48666666666668C46.90559520033619,225.48666666666668,45.74172005487341,217.92,44.57784490941063,217.92C43.41396976394785,217.92,42.25009461848507,223.97333333333333,41.08621947302229,223.97333333333333C39.92234432755951,223.97333333333333,38.75846918209673,223.97333333333333,37.59459403663395,223.97333333333333C36.43071889117117,223.97333333333333,35.266843745708385,217.92,34.1029686002456,217.92C32.93909345478282,217.92,31.775218309320046,225.48666666666668,30.611343163857267,225.48666666666668C29.447468018394485,225.48666666666668,28.283592872931703,224.73,27.11971772746892,223.97333333333333C25.95584258200614,223.21666666666667,24.79196743654336,220.94666666666666,23.62809229108058,220.94666666666666C22.464217145617802,220.94666666666666,21.30034200015502,222.46,20.13646685469224,222.46C18.97259170922946,222.46,17.80871656376668,222.46,16.644841418303898,222.46C15.480966272841119,222.46,14.317091127378339,227,13.15321598191556,227C11.98934083645278,227,10.825465690989997,219.43333333333334,9.661590545527217,211.86666666666667Z" id="fires" style="fill: rgb(255, 127, 14); opacity: 0.5; mix-blend-mode: normal;"/><path d="M9.661590545527217,211.86666666666667C10.825465690989997,219.43333333333334,11.98934083645278,227,13.15321598191556,227C14.317091127378339,227,15.480966272841119,222.46,16.644841418303898,222.46C17.80871656376668,222.46,18.97259170922946,222.46,20.13646685469224,222.46C21.30034200015502,222.46,22.464217145617802,220.94666666666666,23.62809229108058,220.94666666666666C24.79196743654336,220.94666666666666,25.95584258200614,223.21666666666667,27.11971772746892,223.97333333333333C28.283592872931703,224.73,29.447468018394485,225.48666666666668,30.611343163857267,225.48666666666668C31.775218309320046,225.48666666666668,32.93909345478282,217.92,34.1029686002456,217.92C35.266843745708385,217.92,36.43071889117117,223.97333333333333,37.59459403663395,223.97333333333333C38.75846918209673,223.97333333333333,39.92234432755951,223.97333333333333,41.08621947302229,223.97333333333333C42.25009461848507,223.97333333333333,43.41396976394785,217.92,44.57784490941063,217.92C45.74172005487341,217.92,46.90559520033619,225.48666666666668,48.06947034579897,225.48666666666668C49.23334549126175,225.48666666666668,50.397220636724526,224.98222222222222,51.56109578218731,223.97333333333333C52.72497092765009,222.96444444444444,53.88884607311287,219.43333333333334,55.052721218575655,219.43333333333334C56.21659636403843,219.43333333333334,57.38047150950121,221.70333333333335,58.54434665496399,222.46C59.70822180042677,223.21666666666667,60.87209694588955,223.21666666666667,62.035972091352335,223.97333333333333C63.19984723681512,224.73,64.3637223822779,227,65.52759752774068,227C66.69147267320346,227,67.85534781866623,224.98222222222222,69.01922296412901,223.97333333333333C70.1830981095918,222.96444444444444,71.34697325505458,220.94666666666666,72.51084840051736,220.94666666666666C73.67472354598014,220.94666666666666,74.83859869144291,225.48666666666668,76.0024738369057,225.48666666666668C77.16634898236848,225.48666666666668,78.33022412783127,220.94666666666666,79.49409927329405,220.94666666666666C80.65797441875684,220.94666666666666,81.8218495642196,225.48666666666668,82.98572470968239,225.48666666666668C84.14959985514517,225.48666666666668,85.31347500060794,222.46,86.47735014607072,222.46C87.6412252915335,222.46,88.80510043699627,225.48666666666668,89.96897558245905,225.48666666666668C91.13285072792183,225.48666666666668,92.29672587338463,223.21666666666667,93.46060101884741,222.46C94.6244761643102,221.70333333333335,95.78835130977296,220.94666666666666,96.95222645523575,220.94666666666666C98.11610160069853,220.94666666666666,99.2799767461613,220.94666666666666,100.44385189162408,220.94666666666666C101.60772703708686,220.94666666666666,102.77160218254966,222.46,103.93547732801244,222.46C105.09935247347522,222.46,106.26322761893799,222.46,107.42710276440077,222.46C108.59097790986355,222.46,109.75485305532632,225.48666666666668,110.9187282007891,225.48666666666668C112.08260334625189,225.48666666666668,113.24647849171467,222.20777777777778,114.41035363717745,220.94666666666666C115.57422878264023,219.68555555555554,116.73810392810302,217.92,117.9019790735658,217.92C119.06585421902858,217.92,120.22972936449135,225.48666666666668,121.39360450995413,225.48666666666668C122.55747965541691,225.48666666666668,123.7213548008797,219.43333333333334,124.88522994634248,219.43333333333334C126.04910509180526,219.43333333333334,127.21298023726803,225.48666666666668,128.3768553827308,225.48666666666668C129.5407305281936,225.48666666666668,130.70460567365637,217.92,131.86848081911916,217.92C133.03235596458194,217.92,134.19623111004472,218.67666666666668,135.3601062555075,219.43333333333334C136.52398140097029,220.19,137.68785654643307,222.46,138.85173169189585,222.46C140.01560683735863,222.46,141.1794819828214,222.46,142.34335712828417,222.46C143.50723227374695,222.46,144.67110741920973,225.48666666666668,145.83498256467252,225.48666666666668C146.9988577101353,225.48666666666668,148.16273285559808,223.97333333333333,149.32660800106086,223.97333333333333C150.49048314652364,223.97333333333333,151.65435829198643,225.48666666666668,152.8182334374492,225.48666666666668C153.982108582912,225.48666666666668,155.14598372837477,220.94666666666666,156.30985887383756,220.94666666666666C157.47373401930034,220.94666666666666,158.63760916476312,223.97333333333333,159.8014843102259,223.97333333333333C160.96535945568868,223.97333333333333,162.12923460115144,223.21666666666667,163.29310974661422,222.46C164.456984892077,221.70333333333335,165.62086003753979,219.43333333333334,166.78473518300257,219.43333333333334C167.94861032846535,219.43333333333334,169.1124854739281,222.7122222222222,170.27636061939089,223.97333333333333C171.44023576485367,225.23444444444445,172.60411091031645,227,173.76798605577923,227C174.93186120124201,227,176.09573634670483,220.94666666666666,177.2596114921676,220.94666666666666C178.4234866376304,220.94666666666666,179.58736178309314,222.96444444444444,180.75123692855593,223.97333333333333C181.9151120740187,224.98222222222222,183.0789872194815,227,184.24286236494427,227C185.40673751040705,227,186.57061265586984,220.44222222222226,187.73448780133262,219.43333333333334C188.8983629467954,218.42444444444445,190.06223809225816,217.92,191.22611323772094,217.92C192.38998838318372,217.92,193.5538635286465,221.45111111111115,194.71773867410928,222.46C195.88161381957207,223.4688888888889,197.04548896503488,223.97333333333333,198.20936411049766,223.97333333333333C199.37323925596044,223.97333333333333,200.5371144014232,222.46,201.70098954688598,222.46C202.86486469234876,222.46,204.02873983781154,225.48666666666668,205.19261498327432,225.48666666666668C206.3564901287371,225.48666666666668,207.5203652741999,220.94666666666666,208.68424041966267,220.94666666666666C209.84811556512545,220.94666666666666,211.0119907105882,221.95555555555558,212.175865856051,222.46C213.33974100151377,222.96444444444447,214.50361614697655,223.21666666666667,215.66749129243934,223.97333333333333C216.83136643790212,224.73,217.99524158336493,227,219.1591167288277,227C220.3229918742905,227,221.48686701975325,222.46,222.65074216521603,222.46C223.8146173106788,222.46,224.9784924561416,224.73000000000002,226.14236760160438,225.48666666666668C227.30624274706716,226.24333333333334,228.4701178925299,227,229.6339930379927,227C230.79786818345548,227,231.96174332891826,226.49555555555557,233.12561847438104,225.48666666666668C234.28949361984382,224.4777777777778,235.4533687653066,222.20777777777778,236.6172439107694,220.94666666666666C237.78111905623217,219.68555555555554,238.94499420169493,217.92,240.1088693471577,217.92C241.2727444926205,217.92,242.4366196380833,219.43333333333334,243.60049478354608,219.43333333333334C244.76436992900886,219.43333333333334,245.92824507447165,213.38,247.09212021993443,213.38C248.2559953653972,213.38,249.41987051085997,217.92,250.58374565632275,217.92C251.74762080178553,217.92,252.9114959472483,217.92,254.0753710927111,217.92C255.23924623817388,217.92,256.40312138363663,222.46,257.5669965290994,222.46C258.7308716745622,222.46,259.894746820025,221.45111111111112,261.05862196548776,220.94666666666666C262.22249711095054,220.4422222222222,263.3863722564133,220.44222222222223,264.5502474018761,219.43333333333334C265.7141225473389,218.42444444444445,266.87799769280167,214.89333333333335,268.04187283826445,214.89333333333335C269.20574798372724,214.89333333333335,270.36962312919,222.96444444444444,271.5334982746528,223.97333333333333C272.6973734201156,224.98222222222222,273.86124856557836,225.48666666666668,275.02512371104115,225.48666666666668C276.18899885650393,225.48666666666668,277.3528740019667,223.21666666666667,278.5167491474295,222.46C279.6806242928923,221.70333333333335,280.84449943835506,220.94666666666666,282.00837458381784,220.94666666666666C283.1722497292806,220.94666666666666,284.3361248747434,223.97333333333333,285.5000000202062,223.97333333333333C286.66387516566897,223.97333333333333,287.8277503111317,223.97333333333333,288.9916254565945,223.97333333333333C290.15550060205726,223.97333333333333,291.3193757475201,219.43333333333334,292.4832508929829,219.43333333333334C293.64712603844566,219.43333333333334,294.8110011839084,227,295.97487632937117,227C297.13875147483395,227,298.30262662029673,223.97333333333333,299.4665017657595,223.97333333333333C300.6303769112223,223.97333333333333,301.79425205668514,223.97333333333333,302.9581272021479,223.97333333333333C304.1220023476107,223.97333333333333,305.28587749307343,219.43333333333334,306.4497526385362,219.43333333333334C307.613627783999,219.43333333333334,308.7775029294618,225.48666666666668,309.94137807492456,225.48666666666668C311.10525322038734,225.48666666666668,312.26912836585007,225.48666666666668,313.43300351131285,225.48666666666668C314.59687865677563,225.48666666666668,315.76075380223847,222.46,316.92462894770125,222.46C318.08850409316403,222.46,319.2523792386268,222.46,320.4162543840896,222.46C321.5801295295524,222.46,322.7440046750151,219.43333333333334,323.9078798204779,219.43333333333334C325.07175496594067,219.43333333333334,326.2356301114035,223.97333333333333,327.3995052568663,223.97333333333333C328.5633804023291,223.97333333333333,329.7272555477918,217.92,330.8911306932546,217.92C332.05500583871736,217.92,333.21888098418015,219.93777777777777,334.3827561296429,220.94666666666666C335.5466312751057,221.95555555555555,336.7105064205685,223.97333333333333,337.8743815660313,223.97333333333333C339.03825671149406,223.97333333333333,340.20213185695684,219.43333333333334,341.3660070024196,219.43333333333334C342.5298821478824,219.43333333333334,343.6937572933452,220.19,344.85763243880797,220.94666666666666C346.02150758427075,221.70333333333332,347.18538272973353,223.97333333333333,348.3492578751963,223.97333333333333C349.5131330206591,223.97333333333333,350.6770081661219,217.92,351.84088331158466,217.92C353.00475845704744,217.92,354.16863360251017,223.97333333333333,355.33250874797295,223.97333333333333C356.49638389343573,223.97333333333333,357.6602590388986,223.97333333333333,358.82413418436136,223.97333333333333C359.98800932982414,223.97333333333333,361.15188447528686,216.40666666666667,362.31575962074965,216.40666666666667C363.4796347662124,216.40666666666667,364.6435099116752,222.96444444444444,365.807385057138,223.97333333333333C366.9712602026008,224.98222222222222,368.1351353480636,224.98222222222222,369.2990104935264,225.48666666666668C370.4628856389892,225.9911111111111,371.6267607844519,227,372.7906359299147,227C373.95451107537747,227,375.11838622084025,217.92,376.28226136630303,217.92C377.4461365117658,217.92,378.6100116572286,225.48666666666668,379.7738868026914,225.48666666666668C380.93776194815416,225.48666666666668,382.10163709361694,224.98222222222222,383.2655122390797,223.97333333333333C384.4293873845425,222.96444444444444,385.59326253000523,216.40666666666667,386.757137675468,216.40666666666667C387.9210128209308,216.40666666666667,389.08488796639364,223.97333333333333,390.2487631118564,223.97333333333333C391.4126382573192,223.97333333333333,392.576513402782,219.43333333333334,393.74038854824477,219.43333333333334C394.90426369370755,219.43333333333334,396.0681388391703,219.43333333333334,397.23201398463306,219.43333333333334C398.39588913009584,219.43333333333334,399.5597642755587,220.94666666666666,400.72363942102146,220.94666666666666C401.88751456648424,220.94666666666666,403.05138971194697,217.92,404.21526485740975,217.92C405.37914000287253,217.92,406.5430151483353,222.46,407.7068902937981,222.46C408.8707654392609,222.46,410.0346405847237,220.94666666666666,411.1985157301865,220.94666666666666C412.3623908756493,220.94666666666666,413.526266021112,220.94666666666666,414.6901411665748,220.94666666666666C415.8540163120376,220.94666666666666,417.01789145750035,221.70333333333332,418.18176660296314,222.46C419.3456417484259,223.21666666666667,420.50951689388864,225.48666666666668,421.6733920393514,225.48666666666668C422.8372671848142,225.48666666666668,424.00114233027705,225.48666666666668,425.16501747573983,225.48666666666668C426.3288926212026,225.48666666666668,427.49276776666534,217.41555555555553,428.6566429121281,216.40666666666667C429.8205180575909,215.39777777777778,430.9843932030537,215.39777777777778,432.14826834851647,214.89333333333335C433.31214349397925,214.38888888888889,434.4760186394421,213.38,435.63989378490487,213.38C436.80376893036765,213.38,437.9676440758304,215.39777777777778,439.13151922129316,216.40666666666667C440.29539436675594,217.41555555555556,441.4592695122187,217.92000000000002,442.6231446576815,219.43333333333334C443.7870198031443,220.94666666666666,444.9508949486071,225.48666666666668,446.11477009406985,225.48666666666668C447.27864523953264,225.48666666666668,448.4425203849954,224.4777777777778,449.6063955304582,222.46C450.770270675921,220.44222222222226,451.9341458213837,213.38,453.0980209668465,213.38C454.2618961123093,213.38,455.4257712577721,222.46,456.5896464032349,222.46C457.7535215486977,222.46,458.91739669416046,222.46,460.08127183962324,222.46C461.245146985086,222.46,462.40902213054875,223.97333333333333,463.57289727601153,223.97333333333333C464.7367724214743,223.97333333333333,465.90064756693715,222.96444444444447,467.06452271239993,222.46C468.2283978578627,221.95555555555558,469.39227300332544,220.94666666666666,470.5561481487882,220.94666666666666C471.720023294251,220.94666666666666,472.8838984397138,220.94666666666666,474.04777358517657,220.94666666666666C475.21164873063935,220.94666666666666,476.3755238761022,220.19000000000003,477.539399021565,219.43333333333334C478.70327416702776,218.67666666666668,479.8671493124905,216.40666666666667,481.03102445795327,216.40666666666667C482.19489960341605,216.40666666666667,483.35877474887883,216.9111111111111,484.5226498943416,217.92C485.6865250398044,218.92888888888888,486.8504001852672,223.97333333333333,488.01427533072996,223.97333333333333C489.17815047619274,223.97333333333333,490.3420256216555,216.40666666666667,491.5059007671183,216.40666666666667C492.6697759125811,216.40666666666667,493.8336510580438,225.48666666666668,494.9975262035066,225.48666666666668C496.1614013489694,225.48666666666668,497.3252764944322,222.46,498.489151639895,222.46C499.6530267853578,222.46,500.81690193082056,222.46,501.98077707628335,222.46C503.1446522217461,222.46,504.30852736720885,222.46,505.47240251267164,222.46C506.6362776581344,222.46,507.80015280359726,214.89333333333335,508.96402794906004,214.89333333333335C510.12790309452276,214.89333333333335,511.29177823998555,217.92,512.4556533854483,217.92C513.6195285309111,217.92,514.7834036763738,216.40666666666667,515.9472788218367,216.40666666666667C517.1111539672994,216.40666666666667,518.2750291127622,220.94666666666666,519.438904258225,220.94666666666666C520.6027794036878,220.94666666666666,521.7666545491505,220.44222222222223,522.9305296946134,219.43333333333334C524.0944048400762,218.42444444444445,525.2582799855389,213.38000000000014,526.4221551310018,207.32666666666665C527.5860302764645,201.27333333333334,528.7499054219273,184.12222222222223,529.9137805673901,183.11333333333334C531.0776557128528,182.10444444444445,532.2415308583156,181.6,533.4054060037784,181.6C534.5692811492412,181.6,535.7331562947039,193.95888888888885,536.8970314401668,198.24666666666667C538.0609065856295,202.53444444444435,539.2247817310923,207.32666666666665,540.388656876555,207.32666666666665C541.5525320220179,207.32666666666665,542.7164071674806,205.81333333333333,543.8802823129435,205.81333333333333C545.0441574584062,205.81333333333333,546.208032603869,207.32666666666665,547.3719077493317,210.35333333333332C548.5357828947946,213.38000000000008,549.6996580402573,225.48666666666668,550.8635331857201,225.48666666666668C552.0274083311829,225.48666666666668,553.1912834766457,219.43333333333334,554.3551586221084,219.43333333333334C555.5190337675713,219.43333333333334,556.682908913034,220.94666666666666,557.8467840584968,220.94666666666666C559.0106592039596,220.94666666666666,560.1745343494224,220.19,561.3384094948851,219.43333333333334L561.3384094948851,196.73333333333335C560.1745343494224,190.55388888888888,559.0106592039596,184.37444444444444,557.8467840584968,180.08666666666667C556.682908913034,175.79888888888877,555.5190337675713,171.00666666666666,554.3551586221084,171.00666666666666C553.1912834766457,171.00666666666666,552.0274083311829,175.54666666666668,550.8635331857201,175.54666666666668C549.6996580402573,175.54666666666668,548.5357828947946,161.92666666666668,547.3719077493317,161.92666666666668C546.208032603869,161.92666666666668,545.0441574584062,166.46666666666667,543.8802823129435,166.46666666666667C542.7164071674806,166.46666666666667,541.5525320220179,154.36000000000004,540.388656876555,149.82C539.2247817310923,145.28000000000011,538.0609065856295,146.2888888888889,536.8970314401668,139.2266666666667C535.7331562947039,132.16444444444426,534.5692811492412,96.09666666666703,533.4054060037784,74.15333333333334C532.2415308583156,52.21000000000035,531.0776557128528,12.611111111111105,529.9137805673901,7.566666666666663C528.7499054219273,2.5222222222222204,527.5860302764645,0,526.4221551310018,0C525.2582799855389,0,524.0944048400762,38.59000000000001,522.9305296946134,59.02000000000001C521.7666545491505,79.45000000000002,520.6027794036878,119.55333333333323,519.438904258225,122.58C518.2750291127622,125.60666666666667,517.1111539672994,125.6066666666667,515.9472788218367,127.12C514.7834036763738,128.63333333333335,513.6195285309111,128.63333333333333,512.4556533854483,131.66C511.29177823998555,134.6866666666665,510.12790309452276,151.33333333333334,508.96402794906004,151.33333333333334C507.80015280359726,151.33333333333334,506.6362776581344,133.17333333333335,505.47240251267164,133.17333333333335C504.30852736720885,133.17333333333335,503.1446522217461,143.76666666666665,501.98077707628335,143.76666666666665C500.81690193082056,143.76666666666665,499.6530267853578,136.2,498.489151639895,133.17333333333335C497.3252764944322,130.14666666666665,496.1614013489694,128.6333333333334,494.9975262035066,125.60666666666667C493.8336510580438,122.58000000000003,492.6697759125811,115.01333333333334,491.5059007671183,115.01333333333334C490.3420256216555,115.01333333333334,489.17815047619274,141.24444444444444,488.01427533072996,148.30666666666667C486.8504001852672,155.3688888888889,485.6865250398044,158.9,484.5226498943416,158.9C483.35877474887883,158.9,482.19489960341605,125.60666666666667,481.03102445795327,125.60666666666667C479.8671493124905,125.60666666666667,478.70327416702776,136.45222222222233,477.539399021565,142.25333333333333C476.3755238761022,148.05444444444453,475.21164873063935,160.41333333333333,474.04777358517657,160.41333333333333C472.8838984397138,160.41333333333333,471.720023294251,142.25333333333333,470.5561481487882,142.25333333333333C469.39227300332544,142.25333333333333,468.2283978578627,143.7666666666668,467.06452271239993,146.79333333333335C465.90064756693715,149.82000000000002,464.7367724214743,160.41333333333333,463.57289727601153,160.41333333333333C462.40902213054875,160.41333333333333,461.245146985086,160.41333333333333,460.08127183962324,160.41333333333333C458.91739669416046,160.41333333333333,457.7535215486977,140.23555555555558,456.5896464032349,139.2266666666667C455.4257712577721,138.2177777777778,454.2618961123093,137.71333333333334,453.0980209668465,137.71333333333334C451.9341458213837,137.71333333333334,450.770270675921,151.33333333333334,449.6063955304582,151.33333333333334C448.4425203849954,151.33333333333334,447.27864523953264,134.1822222222222,446.11477009406985,128.63333333333333C444.9508949486071,123.08444444444444,443.7870198031443,118.04,442.6231446576815,118.04C441.4592695122187,118.04,440.29539436675594,146.79333333333335,439.13151922129316,146.79333333333335C437.9676440758304,146.79333333333335,436.80376893036765,133.1733333333332,435.63989378490487,130.14666666666665C434.4760186394421,127.11999999999999,433.31214349397925,125.60666666666667,432.14826834851647,125.60666666666667C430.9843932030537,125.60666666666667,429.8205180575909,140.74,428.6566429121281,140.74C427.49276776666534,140.74,426.3288926212026,140.74,425.16501747573983,140.74C424.00114233027705,140.74,422.8372671848142,132.66888888888892,421.6733920393514,131.66C420.50951689388864,130.6511111111111,419.3456417484259,130.14666666666665,418.18176660296314,130.14666666666665C417.01789145750035,130.14666666666665,415.8540163120376,140.74,414.6901411665748,140.74C413.526266021112,140.74,412.3623908756493,119.55333333333333,411.1985157301865,119.55333333333333C410.0346405847237,119.55333333333333,408.8707654392609,139.2266666666666,407.7068902937981,142.25333333333333C406.5430151483353,145.28,405.37914000287253,146.79333333333335,404.21526485740975,146.79333333333335C403.05138971194697,146.79333333333335,401.88751456648424,145.28,400.72363942102146,142.25333333333333C399.5597642755587,139.22666666666655,398.39588913009584,127.12,397.23201398463306,127.12C396.0681388391703,127.12,394.90426369370755,128.1288888888889,393.74038854824477,130.14666666666665C392.576513402782,132.16444444444443,391.4126382573192,157.38666666666666,390.2487631118564,157.38666666666666C389.08488796639364,157.38666666666666,387.9210128209308,133.17333333333335,386.757137675468,133.17333333333335C385.59326253000523,133.17333333333335,384.4293873845425,133.67777777777778,383.2655122390797,134.68666666666667C382.10163709361694,135.69555555555556,380.93776194815416,151.33333333333334,379.7738868026914,151.33333333333334C378.6100116572286,151.33333333333334,377.4461365117658,149.82,376.28226136630303,148.30666666666667C375.11838622084025,146.79333333333335,373.95451107537747,142.25333333333333,372.7906359299147,142.25333333333333C371.6267607844519,142.25333333333333,370.4628856389892,142.25333333333333,369.2990104935264,142.25333333333333C368.1351353480636,142.25333333333333,366.9712602026008,152.84666666666666,365.807385057138,152.84666666666666C364.6435099116752,152.84666666666666,363.4796347662124,108.96,362.31575962074965,108.96C361.15188447528686,108.96,359.98800932982414,118.04000000000008,358.82413418436136,122.58C357.6602590388986,127.12000000000008,356.49638389343573,136.2,355.33250874797295,136.2C354.16863360251017,136.2,353.00475845704744,133.17333333333335,351.84088331158466,133.17333333333335C350.6770081661219,133.17333333333335,349.5131330206591,135.1911111111111,348.3492578751963,136.2C347.18538272973353,137.20888888888888,346.02150758427075,137.71333333333337,344.85763243880797,139.2266666666667C343.6937572933452,140.74,342.5298821478824,141.24444444444447,341.3660070024196,145.28C340.20213185695684,149.31555555555553,339.03825671149406,175.54666666666668,337.8743815660313,175.54666666666668C336.7105064205685,175.54666666666668,335.5466312751057,154.36,334.3827561296429,151.33333333333334C333.21888098418015,148.30666666666667,332.05500583871736,149.31555555555562,330.8911306932546,146.79333333333335C329.7272555477918,144.27111111111114,328.5633804023291,138.21777777777768,327.3995052568663,136.2C326.2356301114035,134.18222222222224,325.07175496594067,133.17333333333335,323.9078798204779,133.17333333333335C322.7440046750151,133.17333333333335,321.5801295295524,134.68666666666667,320.4162543840896,137.71333333333334C319.2523792386268,140.74000000000004,318.08850409316403,167.98,316.92462894770125,167.98C315.76075380223847,167.98,314.59687865677563,164.95333333333332,313.43300351131285,158.9C312.26912836585007,152.8466666666669,311.10525322038734,125.60666666666667,309.94137807492456,125.60666666666667C308.7775029294618,125.60666666666667,307.613627783999,128.63333333333333,306.4497526385362,134.68666666666667C305.28587749307343,140.7399999999999,304.1220023476107,167.98,302.9581272021479,167.98C301.79425205668514,167.98,300.6303769112223,162.6833333333334,299.4665017657595,158.9C298.30262662029673,155.1166666666667,297.13875147483395,149.56777777777782,295.97487632937117,145.28C294.8110011839084,140.99222222222227,293.64712603844566,133.17333333333335,292.4832508929829,133.17333333333335C291.3193757475201,133.17333333333335,290.15550060205726,158.9,288.9916254565945,158.9C287.8277503111317,158.9,286.66387516566897,127.12,285.5000000202062,127.12C284.3361248747434,127.12,283.1722497292806,151.33333333333334,282.00837458381784,151.33333333333334C280.84449943835506,151.33333333333334,279.6806242928923,111.98666666666665,278.5167491474295,111.98666666666665C277.3528740019667,111.98666666666665,276.18899885650393,131.66,275.02512371104115,131.66C273.86124856557836,131.66,272.6973734201156,125.60666666666667,271.5334982746528,125.60666666666667C270.36962312919,125.60666666666667,269.20574798372724,128.1288888888889,268.04187283826445,131.66C266.87799769280167,135.1911111111111,265.7141225473389,146.79333333333335,264.5502474018761,146.79333333333335C263.3863722564133,146.79333333333335,262.22249711095054,136.2,261.05862196548776,136.2C259.894746820025,136.2,258.7308716745622,152.84666666666666,257.5669965290994,152.84666666666666C256.40312138363663,152.84666666666666,255.23924623817388,106.94222222222223,254.0753710927111,105.93333333333334C252.9114959472483,104.92444444444443,251.74762080178553,104.41999999999999,250.58374565632275,104.41999999999999C249.41987051085997,104.41999999999999,248.2559953653972,121.06666666666666,247.09212021993443,121.06666666666666C245.92824507447165,121.06666666666666,244.76436992900886,117.53555555555553,243.60049478354608,116.52666666666666C242.4366196380833,115.51777777777778,241.2727444926205,115.01333333333334,240.1088693471577,115.01333333333334C238.94499420169493,115.01333333333334,237.78111905623217,126.6155555555556,236.6172439107694,133.17333333333335C235.4533687653066,139.73111111111115,234.28949361984382,154.36,233.12561847438104,154.36C231.96174332891826,154.36,230.79786818345548,116.52666666666666,229.6339930379927,116.52666666666666C228.4701178925299,116.52666666666666,227.30624274706716,134.68666666666667,226.14236760160438,134.68666666666667C224.9784924561416,134.68666666666667,223.8146173106788,116.52666666666666,222.65074216521603,116.52666666666666C221.48686701975325,116.52666666666666,220.3229918742905,128.1288888888889,219.1591167288277,131.66C217.99524158336493,135.19111111111116,216.83136643790212,134.93888888888887,215.66749129243934,137.71333333333334C214.50361614697655,140.48777777777778,213.33974100151377,145.53222222222223,212.175865856051,148.30666666666667C211.0119907105882,151.0811111111111,209.84811556512545,154.36,208.68424041966267,154.36C207.5203652741999,154.36,206.3564901287371,145.28,205.19261498327432,145.28C204.02873983781154,145.28,202.86486469234876,151.33333333333334,201.70098954688598,151.33333333333334C200.5371144014232,151.33333333333334,199.37323925596044,140.74,198.20936411049766,140.74C197.04548896503488,140.74,195.88161381957207,142.50555555555553,194.71773867410928,143.76666666666665C193.5538635286465,145.02777777777777,192.38998838318372,148.30666666666667,191.22611323772094,148.30666666666667C190.06223809225816,148.30666666666667,188.8983629467954,111.98666666666665,187.73448780133262,111.98666666666665C186.57061265586984,111.98666666666665,185.40673751040705,137.71333333333334,184.24286236494427,140.74C183.0789872194815,143.76666666666668,181.9151120740187,145.28,180.75123692855593,145.28C179.58736178309314,145.28,178.4234866376304,134.68666666666667,177.2596114921676,134.68666666666667C176.09573634670483,134.68666666666667,174.93186120124201,145.28,173.76798605577923,145.28C172.60411091031645,145.28,171.44023576485367,143.26222222222222,170.27636061939089,139.2266666666667C169.1124854739281,135.19111111111118,167.94861032846535,110.47333333333334,166.78473518300257,110.47333333333334C165.62086003753979,110.47333333333334,164.456984892077,129.89444444444442,163.29310974661422,136.2C162.12923460115144,142.5055555555555,160.96535945568868,148.30666666666667,159.8014843102259,148.30666666666667C158.63760916476312,148.30666666666667,157.47373401930034,136.2,156.30985887383756,136.2C155.14598372837477,136.2,153.982108582912,142.25333333333333,152.8182334374492,142.25333333333333C151.65435829198643,142.25333333333333,150.49048314652364,142.25333333333333,149.32660800106086,142.25333333333333C148.16273285559808,142.25333333333333,146.9988577101353,151.33333333333334,145.83498256467252,151.33333333333334C144.67110741920973,151.33333333333334,143.50723227374695,150.32444444444445,142.34335712828417,148.30666666666667C141.1794819828214,146.28888888888892,140.01560683735863,107.44666666666667,138.85173169189585,107.44666666666667C137.68785654643307,107.44666666666667,136.52398140097029,155.87333333333333,135.3601062555075,155.87333333333333C134.19623111004472,155.87333333333333,133.03235596458194,125.60666666666667,131.86848081911916,125.60666666666667C130.70460567365637,125.60666666666667,129.5407305281936,146.79333333333335,128.3768553827308,146.79333333333335C127.21298023726803,146.79333333333335,126.04910509180526,137.71333333333334,124.88522994634248,137.71333333333334C123.7213548008797,137.71333333333334,122.55747965541691,148.30666666666667,121.39360450995413,148.30666666666667C120.22972936449135,148.30666666666667,119.06585421902858,118.04,117.9019790735658,118.04C116.73810392810302,118.04,115.57422878264023,123.84111111111112,114.41035363717745,127.12C113.24647849171467,130.3988888888889,112.08260334625189,132.9211111111111,110.9187282007891,137.71333333333334C109.75485305532632,142.50555555555556,108.59097790986355,155.87333333333333,107.42710276440077,155.87333333333333C106.26322761893799,155.87333333333333,105.09935247347522,152.84666666666666,103.93547732801244,146.79333333333335C102.77160218254966,140.73999999999998,101.60772703708686,113.5,100.44385189162408,113.5C99.2799767461613,113.5,98.11610160069853,115.01333333333334,96.95222645523575,118.04C95.78835130977296,121.06666666666668,94.6244761643102,134.6866666666667,93.46060101884741,137.71333333333334C92.29672587338463,140.74,91.13285072792183,142.25333333333333,89.96897558245905,142.25333333333333C88.80510043699627,142.25333333333333,87.6412252915335,142.25333333333333,86.47735014607072,142.25333333333333C85.31347500060794,142.25333333333333,84.14959985514517,108.96,82.98572470968239,108.96C81.8218495642196,108.96,80.65797441875684,111.48222222222222,79.49409927329405,116.52666666666666C78.33022412783127,121.57111111111114,77.16634898236848,146.79333333333335,76.0024738369057,146.79333333333335C74.83859869144291,146.79333333333335,73.67472354598014,107.44666666666667,72.51084840051736,107.44666666666667C71.34697325505458,107.44666666666667,70.1830981095918,133.17333333333335,69.01922296412901,133.17333333333335C67.85534781866623,133.17333333333335,66.69147267320346,131.66,65.52759752774068,128.63333333333333C64.3637223822779,125.60666666666663,63.19984723681512,101.39333333333333,62.035972091352335,101.39333333333333C60.87209694588955,101.39333333333333,59.70822180042677,116.02222222222221,58.54434665496399,121.06666666666666C57.38047150950121,126.11111111111109,56.21659636403843,127.87666666666668,55.052721218575655,131.66C53.88884607311287,135.44333333333333,52.72497092765009,140.23555555555555,51.56109578218731,143.76666666666665C50.397220636724526,147.29777777777775,49.23334549126175,152.84666666666666,48.06947034579897,152.84666666666666C46.90559520033619,152.84666666666666,45.74172005487341,151.83777777777777,44.57784490941063,149.82C43.41396976394785,147.8022222222222,42.25009461848507,128.63333333333333,41.08621947302229,128.63333333333333C39.92234432755951,128.63333333333333,38.75846918209673,151.33333333333334,37.59459403663395,151.33333333333334C36.43071889117117,151.33333333333334,35.266843745708385,142.25333333333336,34.1029686002456,139.2266666666667C32.93909345478282,136.20000000000002,31.775218309320046,134.6866666666667,30.611343163857267,133.17333333333335C29.447468018394485,131.66,28.283592872931703,130.14666666666665,27.11971772746892,130.14666666666665C25.95584258200614,130.14666666666665,24.79196743654336,132.41666666666666,23.62809229108058,136.2C22.464217145617802,139.98333333333332,21.30034200015502,148.55888888888887,20.13646685469224,152.84666666666666C18.97259170922946,157.13444444444445,17.80871656376668,161.92666666666668,16.644841418303898,161.92666666666668C15.480966272841119,161.92666666666668,14.317091127378339,157.89111111111112,13.15321598191556,149.82C11.98934083645278,141.74888888888887,10.825465690989997,100.38444444444445,9.661590545527217,59.02000000000001Z" id="calls_911" style="fill: rgb(107, 178, 244); opacity: 0.5; mix-blend-mode: normal;"/><path d="M9.661590545527217,211.86666666666667C10.825465690989997,219.43333333333334,11.98934083645278,227,13.15321598191556,227C14.317091127378339,227,15.480966272841119,222.46,16.644841418303898,222.46C17.80871656376668,222.46,18.97259170922946,222.46,20.13646685469224,222.46C21.30034200015502,222.46,22.464217145617802,220.94666666666666,23.62809229108058,220.94666666666666C24.79196743654336,220.94666666666666,25.95584258200614,223.21666666666667,27.11971772746892,223.97333333333333C28.283592872931703,224.73,29.447468018394485,225.48666666666668,30.611343163857267,225.48666666666668C31.775218309320046,225.48666666666668,32.93909345478282,217.92,34.1029686002456,217.92C35.266843745708385,217.92,36.43071889117117,223.97333333333333,37.59459403663395,223.97333333333333C38.75846918209673,223.97333333333333,39.92234432755951,223.97333333333333,41.08621947302229,223.97333333333333C42.25009461848507,223.97333333333333,43.41396976394785,217.92,44.57784490941063,217.92C45.74172005487341,217.92,46.90559520033619,225.48666666666668,48.06947034579897,225.48666666666668C49.23334549126175,225.48666666666668,50.397220636724526,224.98222222222222,51.56109578218731,223.97333333333333C52.72497092765009,222.96444444444444,53.88884607311287,219.43333333333334,55.052721218575655,219.43333333333334C56.21659636403843,219.43333333333334,57.38047150950121,221.70333333333335,58.54434665496399,222.46C59.70822180042677,223.21666666666667,60.87209694588955,223.21666666666667,62.035972091352335,223.97333333333333C63.19984723681512,224.73,64.3637223822779,227,65.52759752774068,227C66.69147267320346,227,67.85534781866623,224.98222222222222,69.01922296412901,223.97333333333333C70.1830981095918,222.96444444444444,71.34697325505458,220.94666666666666,72.51084840051736,220.94666666666666C73.67472354598014,220.94666666666666,74.83859869144291,225.48666666666668,76.0024738369057,225.48666666666668C77.16634898236848,225.48666666666668,78.33022412783127,220.94666666666666,79.49409927329405,220.94666666666666C80.65797441875684,220.94666666666666,81.8218495642196,225.48666666666668,82.98572470968239,225.48666666666668C84.14959985514517,225.48666666666668,85.31347500060794,222.46,86.47735014607072,222.46C87.6412252915335,222.46,88.80510043699627,225.48666666666668,89.96897558245905,225.48666666666668C91.13285072792183,225.48666666666668,92.29672587338463,223.21666666666667,93.46060101884741,222.46C94.6244761643102,221.70333333333335,95.78835130977296,220.94666666666666,96.95222645523575,220.94666666666666C98.11610160069853,220.94666666666666,99.2799767461613,220.94666666666666,100.44385189162408,220.94666666666666C101.60772703708686,220.94666666666666,102.77160218254966,222.46,103.93547732801244,222.46C105.09935247347522,222.46,106.26322761893799,222.46,107.42710276440077,222.46C108.59097790986355,222.46,109.75485305532632,225.48666666666668,110.9187282007891,225.48666666666668C112.08260334625189,225.48666666666668,113.24647849171467,222.20777777777778,114.41035363717745,220.94666666666666C115.57422878264023,219.68555555555554,116.73810392810302,217.92,117.9019790735658,217.92C119.06585421902858,217.92,120.22972936449135,225.48666666666668,121.39360450995413,225.48666666666668C122.55747965541691,225.48666666666668,123.7213548008797,219.43333333333334,124.88522994634248,219.43333333333334C126.04910509180526,219.43333333333334,127.21298023726803,225.48666666666668,128.3768553827308,225.48666666666668C129.5407305281936,225.48666666666668,130.70460567365637,217.92,131.86848081911916,217.92C133.03235596458194,217.92,134.19623111004472,218.67666666666668,135.3601062555075,219.43333333333334C136.52398140097029,220.19,137.68785654643307,222.46,138.85173169189585,222.46C140.01560683735863,222.46,141.1794819828214,222.46,142.34335712828417,222.46C143.50723227374695,222.46,144.67110741920973,225.48666666666668,145.83498256467252,225.48666666666668C146.9988577101353,225.48666666666668,148.16273285559808,223.97333333333333,149.32660800106086,223.97333333333333C150.49048314652364,223.97333333333333,151.65435829198643,225.48666666666668,152.8182334374492,225.48666666666668C153.982108582912,225.48666666666668,155.14598372837477,220.94666666666666,156.30985887383756,220.94666666666666C157.47373401930034,220.94666666666666,158.63760916476312,223.97333333333333,159.8014843102259,223.97333333333333C160.96535945568868,223.97333333333333,162.12923460115144,223.21666666666667,163.29310974661422,222.46C164.456984892077,221.70333333333335,165.62086003753979,219.43333333333334,166.78473518300257,219.43333333333334C167.94861032846535,219.43333333333334,169.1124854739281,222.7122222222222,170.27636061939089,223.97333333333333C171.44023576485367,225.23444444444445,172.60411091031645,227,173.76798605577923,227C174.93186120124201,227,176.09573634670483,220.94666666666666,177.2596114921676,220.94666666666666C178.4234866376304,220.94666666666666,179.58736178309314,222.96444444444444,180.75123692855593,223.97333333333333C181.9151120740187,224.98222222222222,183.0789872194815,227,184.24286236494427,227C185.40673751040705,227,186.57061265586984,220.44222222222226,187.73448780133262,219.43333333333334C188.8983629467954,218.42444444444445,190.06223809225816,217.92,191.22611323772094,217.92C192.38998838318372,217.92,193.5538635286465,221.45111111111115,194.71773867410928,222.46C195.88161381957207,223.4688888888889,197.04548896503488,223.97333333333333,198.20936411049766,223.97333333333333C199.37323925596044,223.97333333333333,200.5371144014232,222.46,201.70098954688598,222.46C202.86486469234876,222.46,204.02873983781154,225.48666666666668,205.19261498327432,225.48666666666668C206.3564901287371,225.48666666666668,207.5203652741999,220.94666666666666,208.68424041966267,220.94666666666666C209.84811556512545,220.94666666666666,211.0119907105882,221.95555555555558,212.175865856051,222.46C213.33974100151377,222.96444444444447,214.50361614697655,223.21666666666667,215.66749129243934,223.97333333333333C216.83136643790212,224.73,217.99524158336493,227,219.1591167288277,227C220.3229918742905,227,221.48686701975325,222.46,222.65074216521603,222.46C223.8146173106788,222.46,224.9784924561416,224.73000000000002,226.14236760160438,225.48666666666668C227.30624274706716,226.24333333333334,228.4701178925299,227,229.6339930379927,227C230.79786818345548,227,231.96174332891826,226.49555555555557,233.12561847438104,225.48666666666668C234.28949361984382,224.4777777777778,235.4533687653066,222.20777777777778,236.6172439107694,220.94666666666666C237.78111905623217,219.68555555555554,238.94499420169493,217.92,240.1088693471577,217.92C241.2727444926205,217.92,242.4366196380833,219.43333333333334,243.60049478354608,219.43333333333334C244.76436992900886,219.43333333333334,245.92824507447165,213.38,247.09212021993443,213.38C248.2559953653972,213.38,249.41987051085997,217.92,250.58374565632275,217.92C251.74762080178553,217.92,252.9114959472483,217.92,254.0753710927111,217.92C255.23924623817388,217.92,256.40312138363663,222.46,257.5669965290994,222.46C258.7308716745622,222.46,259.894746820025,221.45111111111112,261.05862196548776,220.94666666666666C262.22249711095054,220.4422222222222,263.3863722564133,220.44222222222223,264.5502474018761,219.43333333333334C265.7141225473389,218.42444444444445,266.87799769280167,214.89333333333335,268.04187283826445,214.89333333333335C269.20574798372724,214.89333333333335,270.36962312919,222.96444444444444,271.5334982746528,223.97333333333333C272.6973734201156,224.98222222222222,273.86124856557836,225.48666666666668,275.02512371104115,225.48666666666668C276.18899885650393,225.48666666666668,277.3528740019667,223.21666666666667,278.5167491474295,222.46C279.6806242928923,221.70333333333335,280.84449943835506,220.94666666666666,282.00837458381784,220.94666666666666C283.1722497292806,220.94666666666666,284.3361248747434,223.97333333333333,285.5000000202062,223.97333333333333C286.66387516566897,223.97333333333333,287.8277503111317,223.97333333333333,288.9916254565945,223.97333333333333C290.15550060205726,223.97333333333333,291.3193757475201,219.43333333333334,292.4832508929829,219.43333333333334C293.64712603844566,219.43333333333334,294.8110011839084,227,295.97487632937117,227C297.13875147483395,227,298.30262662029673,223.97333333333333,299.4665017657595,223.97333333333333C300.6303769112223,223.97333333333333,301.79425205668514,223.97333333333333,302.9581272021479,223.97333333333333C304.1220023476107,223.97333333333333,305.28587749307343,219.43333333333334,306.4497526385362,219.43333333333334C307.613627783999,219.43333333333334,308.7775029294618,225.48666666666668,309.94137807492456,225.48666666666668C311.10525322038734,225.48666666666668,312.26912836585007,225.48666666666668,313.43300351131285,225.48666666666668C314.59687865677563,225.48666666666668,315.76075380223847,222.46,316.92462894770125,222.46C318.08850409316403,222.46,319.2523792386268,222.46,320.4162543840896,222.46C321.5801295295524,222.46,322.7440046750151,219.43333333333334,323.9078798204779,219.43333333333334C325.07175496594067,219.43333333333334,326.2356301114035,223.97333333333333,327.3995052568663,223.97333333333333C328.5633804023291,223.97333333333333,329.7272555477918,217.92,330.8911306932546,217.92C332.05500583871736,217.92,333.21888098418015,219.93777777777777,334.3827561296429,220.94666666666666C335.5466312751057,221.95555555555555,336.7105064205685,223.97333333333333,337.8743815660313,223.97333333333333C339.03825671149406,223.97333333333333,340.20213185695684,219.43333333333334,341.3660070024196,219.43333333333334C342.5298821478824,219.43333333333334,343.6937572933452,220.19,344.85763243880797,220.94666666666666C346.02150758427075,221.70333333333332,347.18538272973353,223.97333333333333,348.3492578751963,223.97333333333333C349.5131330206591,223.97333333333333,350.6770081661219,217.92,351.84088331158466,217.92C353.00475845704744,217.92,354.16863360251017,223.97333333333333,355.33250874797295,223.97333333333333C356.49638389343573,223.97333333333333,357.6602590388986,223.97333333333333,358.82413418436136,223.97333333333333C359.98800932982414,223.97333333333333,361.15188447528686,216.40666666666667,362.31575962074965,216.40666666666667C363.4796347662124,216.40666666666667,364.6435099116752,222.96444444444444,365.807385057138,223.97333333333333C366.9712602026008,224.98222222222222,368.1351353480636,224.98222222222222,369.2990104935264,225.48666666666668C370.4628856389892,225.9911111111111,371.6267607844519,227,372.7906359299147,227C373.95451107537747,227,375.11838622084025,217.92,376.28226136630303,217.92C377.4461365117658,217.92,378.6100116572286,225.48666666666668,379.7738868026914,225.48666666666668C380.93776194815416,225.48666666666668,382.10163709361694,224.98222222222222,383.2655122390797,223.97333333333333C384.4293873845425,222.96444444444444,385.59326253000523,216.40666666666667,386.757137675468,216.40666666666667C387.9210128209308,216.40666666666667,389.08488796639364,223.97333333333333,390.2487631118564,223.97333333333333C391.4126382573192,223.97333333333333,392.576513402782,219.43333333333334,393.74038854824477,219.43333333333334C394.90426369370755,219.43333333333334,396.0681388391703,219.43333333333334,397.23201398463306,219.43333333333334C398.39588913009584,219.43333333333334,399.5597642755587,220.94666666666666,400.72363942102146,220.94666666666666C401.88751456648424,220.94666666666666,403.05138971194697,217.92,404.21526485740975,217.92C405.37914000287253,217.92,406.5430151483353,222.46,407.7068902937981,222.46C408.8707654392609,222.46,410.0346405847237,220.94666666666666,411.1985157301865,220.94666666666666C412.3623908756493,220.94666666666666,413.526266021112,220.94666666666666,414.6901411665748,220.94666666666666C415.8540163120376,220.94666666666666,417.01789145750035,221.70333333333332,418.18176660296314,222.46C419.3456417484259,223.21666666666667,420.50951689388864,225.48666666666668,421.6733920393514,225.48666666666668C422.8372671848142,225.48666666666668,424.00114233027705,225.48666666666668,425.16501747573983,225.48666666666668C426.3288926212026,225.48666666666668,427.49276776666534,217.41555555555553,428.6566429121281,216.40666666666667C429.8205180575909,215.39777777777778,430.9843932030537,215.39777777777778,432.14826834851647,214.89333333333335C433.31214349397925,214.38888888888889,434.4760186394421,213.38,435.63989378490487,213.38C436.80376893036765,213.38,437.9676440758304,215.39777777777778,439.13151922129316,216.40666666666667C440.29539436675594,217.41555555555556,441.4592695122187,217.92000000000002,442.6231446576815,219.43333333333334C443.7870198031443,220.94666666666666,444.9508949486071,225.48666666666668,446.11477009406985,225.48666666666668C447.27864523953264,225.48666666666668,448.4425203849954,224.4777777777778,449.6063955304582,222.46C450.770270675921,220.44222222222226,451.9341458213837,213.38,453.0980209668465,213.38C454.2618961123093,213.38,455.4257712577721,222.46,456.5896464032349,222.46C457.7535215486977,222.46,458.91739669416046,222.46,460.08127183962324,222.46C461.245146985086,222.46,462.40902213054875,223.97333333333333,463.57289727601153,223.97333333333333C464.7367724214743,223.97333333333333,465.90064756693715,222.96444444444447,467.06452271239993,222.46C468.2283978578627,221.95555555555558,469.39227300332544,220.94666666666666,470.5561481487882,220.94666666666666C471.720023294251,220.94666666666666,472.8838984397138,220.94666666666666,474.04777358517657,220.94666666666666C475.21164873063935,220.94666666666666,476.3755238761022,220.19000000000003,477.539399021565,219.43333333333334C478.70327416702776,218.67666666666668,479.8671493124905,216.40666666666667,481.03102445795327,216.40666666666667C482.19489960341605,216.40666666666667,483.35877474887883,216.9111111111111,484.5226498943416,217.92C485.6865250398044,218.92888888888888,486.8504001852672,223.97333333333333,488.01427533072996,223.97333333333333C489.17815047619274,223.97333333333333,490.3420256216555,216.40666666666667,491.5059007671183,216.40666666666667C492.6697759125811,216.40666666666667,493.8336510580438,225.48666666666668,494.9975262035066,225.48666666666668C496.1614013489694,225.48666666666668,497.3252764944322,222.46,498.489151639895,222.46C499.6530267853578,222.46,500.81690193082056,222.46,501.98077707628335,222.46C503.1446522217461,222.46,504.30852736720885,222.46,505.47240251267164,222.46C506.6362776581344,222.46,507.80015280359726,214.89333333333335,508.96402794906004,214.89333333333335C510.12790309452276,214.89333333333335,511.29177823998555,217.92,512.4556533854483,217.92C513.6195285309111,217.92,514.7834036763738,216.40666666666667,515.9472788218367,216.40666666666667C517.1111539672994,216.40666666666667,518.2750291127622,220.94666666666666,519.438904258225,220.94666666666666C520.6027794036878,220.94666666666666,521.7666545491505,220.44222222222223,522.9305296946134,219.43333333333334C524.0944048400762,218.42444444444445,525.2582799855389,213.38000000000014,526.4221551310018,207.32666666666665C527.5860302764645,201.27333333333334,528.7499054219273,184.12222222222223,529.9137805673901,183.11333333333334C531.0776557128528,182.10444444444445,532.2415308583156,181.6,533.4054060037784,181.6C534.5692811492412,181.6,535.7331562947039,193.95888888888885,536.8970314401668,198.24666666666667C538.0609065856295,202.53444444444435,539.2247817310923,207.32666666666665,540.388656876555,207.32666666666665C541.5525320220179,207.32666666666665,542.7164071674806,205.81333333333333,543.8802823129435,205.81333333333333C545.0441574584062,205.81333333333333,546.208032603869,207.32666666666665,547.3719077493317,210.35333333333332C548.5357828947946,213.38000000000008,549.6996580402573,225.48666666666668,550.8635331857201,225.48666666666668C552.0274083311829,225.48666666666668,553.1912834766457,219.43333333333334,554.3551586221084,219.43333333333334C555.5190337675713,219.43333333333334,556.682908913034,220.94666666666666,557.8467840584968,220.94666666666666C559.0106592039596,220.94666666666666,560.1745343494224,220.19,561.3384094948851,219.43333333333334" stroke="rgb(31,119,180)" id="fires" style="stroke-width: 1; stroke-linejoin: miter; stroke-linecap: butt; fill: none; mix-blend-mode: normal;"/><g id="x-svg axis-svg" transform="translate(0, 227)"><line x1="0" x2="571" y1="0" y2="0" style="stroke: rgb(51, 51, 51); stroke-width: 1;"/></g><g id="free-texts-svg"><text transform="translate(476.9744346280382, 55.39999999999998) translate(-31.5, -10) translate(31.5, 0)" fill="rgb(51, 51, 51)" style="text-anchor: middle; font-family: BentonSans; font-weight: 400; font-size: 10px;"><tspan x="0" dy="10">Floyd's death</tspan></text></g></g></g><rect width="14" height="14" transform="translate(0, 80.40625)" fill="rgb(255,127,14)" id="fires" style="opacity: 0.5; fill: rgb(255, 127, 14);"/><g id="fires-svg"><text transform="translate(18, 81.234375)" fill="rgb(51,51,51)" style="font-family: BentonSans; font-weight: 400; font-size: 12px;"><tspan x="0" dy="12">Confirmed fires</tspan></text></g><rect width="14" height="14" transform="translate(113, 80.40625)" fill="rgb(107,178,244)" id="calls_911" style="opacity: 0.5; fill: rgb(107, 178, 244);"/><g id="calls_911-svg"><text transform="translate(131, 81.234375)" fill="rgb(51,51,51)" style="font-family: BentonSans; font-weight: 400; font-size: 12px;"><tspan x="0" dy="12">Police calls</tspan></text></g></g><g id="after-body-svg"/><g id="above-footer-svg"/><g id="footer-svg"><g id="footer-inner-svg"><g id="footer-main-svg"><g id="text-svg"><text transform="translate(0, 382)" fill="rgb(136,136,136)" style="font-family: BentonSans; font-weight: 400; font-size: 11px;"><tspan x="0" dy="11">Chart:</tspan></text><text transform="translate(34, 382)" fill="rgb(136,136,136)" style="font-family: BentonSans; font-weight: 400; font-size: 11px;"><tspan x="0" dy="11">Jeff Hargarten, Star Tribune</tspan></text></g><g id="text-svg"><text transform="translate(174, 382)" fill="rgb(136,136,136)" style="font-family: BentonSans; font-weight: 400; font-size: 11px;"><tspan x="0" dy="11"></tspan></text></g><g id="text-svg"><text transform="translate(185, 382)" fill="rgb(136,136,136)" style="font-family: BentonSans; font-weight: 400; font-size: 11px;"><tspan x="0" dy="11">Source:</tspan></text><text transform="translate(226, 382)" fill="rgb(136,136,136)" style="font-family: BentonSans; font-weight: 400; font-size: 11px;"><tspan x="0" dy="11">City of Minneapolis</tspan></text></g></g></g></g><g id="below-footer-svg"/></g></svg>