<svg xmlns:xlink="http://www.w3.org/1999/xlink" xmlns="http://www.w3.org/2000/svg" id="exportSvg" width="600" height="400"><defs/><g><g id="header-svg"><g id="text-svg"><text transform="translate(0, -2)" fill="rgb(51,51,51)" style="font-family: BentonSans; font-weight: 700; font-size: 19px;"><tspan x="0" dy="19">A frenzy of reported crimes and fires</tspan></text></g><g id="text-svg"><text transform="translate(0, 31)" fill="rgb(51,51,51)" style="font-family: BentonSans; font-weight: 400; font-size: 15px;"><tspan x="0" dy="15">Reported incidents to police and confirmed fires increased dramatically during the </tspan></text><text transform="translate(0, 51)" fill="rgb(51,51,51)" style="font-family: BentonSans; font-weight: 400; font-size: 15px;"><tspan x="0" dy="15">immediate unrest after Floyd's death, but have since dropped.</tspan></text></g></g><g id="chart-svg"><g id="group-svg" clip-path="url(#rect-mask-group-0)" transform="translate(0, 80)"><clipPath id="rect-mask-group-0"><rect x="0" y="0" width="600" height="279"/></clipPath><g id="group-svg" transform="translate(26, 34)"><g id="x-svg ticks-svg" transform="translate(0, 232)"><g transform="translate(9.661590562247937, 0)"><text transform="translate(-10, -12) translate(10, 11)" fill="rgb(133, 133, 133)" style="text-anchor: middle; font-family: BentonSans; font-weight: 400; font-size: 12px;"><tspan x="0" dy="12">Jan</tspan></text></g><g transform="translate(115.88507743411171, 0)"><text transform="translate(-10, -12) translate(10, 11)" fill="rgb(133, 133, 133)" style="text-anchor: middle; font-family: BentonSans; font-weight: 400; font-size: 12px;"><tspan x="0" dy="12">Feb</tspan></text></g><g transform="translate(215.25543612069393, 0)"><text transform="translate(-11.5, -12) translate(11.5, 11)" fill="rgb(133, 133, 133)" style="text-anchor: middle; font-family: BentonSans; font-weight: 400; font-size: 12px;"><tspan x="0" dy="12">Mar</tspan></text></g><g transform="translate(321.47892299255767, 0)"><text transform="translate(-10, -12) translate(10, 11)" fill="rgb(133, 133, 133)" style="text-anchor: middle; font-family: BentonSans; font-weight: 400; font-size: 12px;"><tspan x="0" dy="12">Apr</tspan></text></g><g transform="translate(424.2758457717807, 0)"><text transform="translate(-12.5, -12) translate(12.5, 11)" fill="rgb(133, 133, 133)" style="text-anchor: middle; font-family: BentonSans; font-weight: 400; font-size: 12px;"><tspan x="0" dy="12">May</tspan></text></g><g transform="translate(530.4993326436445, 0)"><text transform="translate(-10, -12) translate(10, 11)" fill="rgb(133, 133, 133)" style="text-anchor: middle; font-family: BentonSans; font-weight: 400; font-size: 12px;"><tspan x="0" dy="12">Jun</tspan></text></g></g><g id="free-range-svg"><rect width="1" height="227" transform="translate(506.5133839951591, 0)" fill="rgb(51,51,51)" style="opacity: 0.5; fill: rgb(51, 51, 51);"/></g><g id="y-grid-svg"><g id="tick-svg tick-major-svg" transform="translate(0, 227)"><text transform="translate(-4, 4) translate(-8, -12) translate(8, 0)" fill="rgb(133, 133, 133)" style="text-anchor: end; font-family: BentonSans; font-weight: 400; font-size: 12px;"><tspan x="0" dy="12">0</tspan></text></g><g transform="translate(0, 200.1360946745562)"><line x1="0" x2="571" y1="0" y2="0" style="stroke: rgb(238, 238, 238); stroke-width: 1;"/><text transform="translate(-4, 4) translate(-15, -12) translate(15, 0)" fill="rgb(133, 133, 133)" style="text-anchor: end; font-family: BentonSans; font-weight: 400; font-size: 12px;"><tspan x="0" dy="12">20</tspan></text></g><g transform="translate(0, 173.27218934911244)"><line x1="0" x2="571" y1="0" y2="0" style="stroke: rgb(238, 238, 238); stroke-width: 1;"/><text transform="translate(-4, 4) translate(-15, -12) translate(15, 0)" fill="rgb(133, 133, 133)" style="text-anchor: end; font-family: BentonSans; font-weight: 400; font-size: 12px;"><tspan x="0" dy="12">40</tspan></text></g><g transform="translate(0, 146.40828402366864)"><line x1="0" x2="571" y1="0" y2="0" style="stroke: rgb(238, 238, 238); stroke-width: 1;"/><text transform="translate(-4, 4) translate(-15, -12) translate(15, 0)" fill="rgb(133, 133, 133)" style="text-anchor: end; font-family: BentonSans; font-weight: 400; font-size: 12px;"><tspan x="0" dy="12">60</tspan></text></g><g transform="translate(0, 119.54437869822486)"><line x1="0" x2="571" y1="0" y2="0" style="stroke: rgb(238, 238, 238); stroke-width: 1;"/><text transform="translate(-4, 4) translate(-15, -12) translate(15, 0)" fill="rgb(133, 133, 133)" style="text-anchor: end; font-family: BentonSans; font-weight: 400; font-size: 12px;"><tspan x="0" dy="12">80</tspan></text></g><g transform="translate(0, 92.68047337278105)"><line x1="0" x2="571" y1="0" y2="0" style="stroke: rgb(238, 238, 238); stroke-width: 1;"/><text transform="translate(-4, 4) translate(-21, -12) translate(21, 0)" fill="rgb(133, 133, 133)" style="text-anchor: end; font-family: BentonSans; font-weight: 400; font-size: 12px;"><tspan x="0" dy="12">100</tspan></text></g><g transform="translate(0, 65.81656804733728)"><line x1="0" x2="571" y1="0" y2="0" style="stroke: rgb(238, 238, 238); stroke-width: 1;"/><text transform="translate(-4, 4) translate(-20, -12) translate(20, 0)" fill="rgb(133, 133, 133)" style="text-anchor: end; font-family: BentonSans; font-weight: 400; font-size: 12px;"><tspan x="0" dy="12">120</tspan></text></g><g transform="translate(0, 38.95266272189349)"><line x1="0" x2="571" y1="0" y2="0" style="stroke: rgb(238, 238, 238); stroke-width: 1;"/><text transform="translate(-4, 4) translate(-20, -12) translate(20, 0)" fill="rgb(133, 133, 133)" style="text-anchor: end; font-family: BentonSans; font-weight: 400; font-size: 12px;"><tspan x="0" dy="12">140</tspan></text></g><g transform="translate(0, 12.088757396449722)"><line x1="0" x2="571" y1="0" y2="0" style="stroke: rgb(238, 238, 238); stroke-width: 1;"/><text transform="translate(-4, 4) translate(-20, -12) translate(20, 0)" fill="rgb(133, 133, 133)" style="text-anchor: end; font-family: BentonSans; font-weight: 400; font-size: 12px;"><tspan x="0" dy="12">160</tspan></text></g></g><path d="M9.661590562247937,227C10.803778593128193,227,11.945966624008447,227,13.088154654888703,227C14.230342685768958,227,15.372530716649216,227,16.51471874752947,227C17.656906778409727,227,18.799094809289983,227,19.94128284017024,227C21.083470871050494,227,22.225658901930746,227,23.367846932811002,227C24.510034963691258,227,25.652222994571513,227,26.79441102545177,227C27.936599056332025,227,29.07878708721228,227,30.220975118092536,227C31.36316314897279,227,32.50535117985305,227,33.64753921073331,227C34.78972724161356,227,35.93191527249382,227,37.07410330337407,227C38.21629133425433,227,39.35847936513458,227,40.50066739601483,227C41.64285542689509,227,42.785043457775345,227,43.9272314886556,227C45.069419519535856,227,46.21160755041611,227,47.35379558129637,227C48.49598361217662,227,49.63817164305688,227,50.780359673937134,227C51.92254770481739,227,53.064735735697646,227,54.2069237665779,227C55.34911179745816,227,56.49129982833841,227,57.63348785921867,227C58.775675890098924,227,59.91786392097918,227,61.060051951859435,227C62.20223998273969,227,63.344428013619954,227,64.48661604450021,227C65.62880407538046,227,66.77099210626072,227,67.91318013714097,227C69.05536816802123,227,70.19755619890148,227,71.33974422978174,227C72.48193226066199,227,73.62412029154225,227,74.7663083224225,227C75.90849635330275,227,77.05068438418301,227,78.19287241506326,227C79.33506044594353,227,80.47724847682377,227,81.61943650770404,227C82.7616245385843,227,83.90381256946455,227,85.04600060034481,227C86.18818863122506,227,87.33037666210532,227,88.47256469298557,227C89.61475272386582,227,90.75694075474608,227,91.89912878562633,227C93.0413168165066,227,94.18350484738684,227,95.3256928782671,227C96.46788090914735,227,97.61006894002762,227,98.75225697090787,227C99.89444500178813,227,101.03663303266838,227,102.17882106354864,227C103.32100909442889,227,104.46319712530915,227,105.6053851561894,227C106.74757318706966,227,107.88976121794991,227,109.03194924883017,227C110.17413727971042,227,111.31632531059068,227,112.45851334147093,227C113.6007013723512,227,114.74288940323144,227,115.88507743411171,227C117.02726546499196,227,118.16945349587222,227,119.31164152675247,227C120.45382955763273,227,121.59601758851298,227,122.73820561939324,227C123.88039365027349,227,125.02258168115375,227,126.164769712034,227C127.30695774291426,227,128.44914577379453,227,129.59133380467478,227C130.73352183555502,227,131.87570986643527,227,133.01789789731552,227C134.16008592819577,227,135.30227395907605,227,136.4444619899563,227C137.58665002083654,227,138.72883805171682,227,139.87102608259707,227C141.01321411347732,227,142.1554021443576,227,143.29759017523784,227C144.4397782061181,227,145.58196623699837,227,146.72415426787862,227C147.86634229875887,227,149.00853032963911,227,150.15071836051936,227C151.2929063913996,227,152.4350944222799,227,153.57728245316014,227C154.7194704840404,227,155.86165851492066,227,157.0038465458009,227C158.14603457668116,227,159.2882226075614,227,160.43041063844166,227C161.5725986693219,227,162.71478670020218,227,163.85697473108243,227C164.99916276196268,227,166.14135079284293,227,167.28353882372318,227C168.42572685460345,227,169.5679148854837,227,170.71010291636398,227C171.85229094724423,227,172.9944789781245,227,174.13666700900475,227C175.278855039885,227,176.42104307076525,227,177.5632311016455,227C178.70541913252575,227,179.84760716340602,227,180.98979519428627,227C182.13198322516652,227,183.2741712560468,227,184.41635928692705,227C185.5585473178073,227,186.70073534868754,227,187.8429233795678,227C188.98511141044804,227,190.12729944132832,227,191.26948747220857,227C192.41167550308882,227,193.55386353396906,227,194.6960515648493,227C195.8382395957296,227,196.98042762660984,227,198.12261565749012,227C199.26480368837036,227,200.40699171925064,227,201.5491797501309,227C202.69136778101114,227,203.8335558118914,227,204.97574384277164,227C206.11793187365188,227,207.26011990453216,227,208.4023079354124,227C209.54449596629266,227,210.68668399717293,227,211.82887202805318,227C212.97106005893343,227,214.11324808981368,227,215.25543612069393,227C216.39762415157418,227,217.53981218245445,227,218.6820002133347,227C219.82418824421495,227,220.9663762750952,227,222.10856430597545,227C223.2507523368557,227,224.39294036773597,227,225.53512839861622,227C226.6773164294965,227,227.81950446037675,227,228.96169249125703,227C230.10388052213727,227,231.24606855301752,227,232.38825658389777,227C233.53044461477802,227,234.6726326456583,227,235.81482067653855,227C236.9570087074188,227,238.09919673829907,227,239.24138476917932,227C240.38357280005957,227,241.52576083093982,227,242.66794886182007,227C243.8101368927003,227,244.9523249235806,227,246.09451295446084,227C247.2367009853411,227,248.37888901622134,227,249.52107704710158,227C250.66326507798183,227,251.8054531088621,227,252.94764113974236,227C254.0898291706226,227,255.23201720150288,227,256.37420523238313,227C257.5163932632634,227,258.65858129414363,227,259.8007693250239,227C260.9429573559042,227,262.0851453867844,227,263.2273334176647,227C264.36952144854496,227,265.5117094794252,227,266.65389751030546,227C267.7960855411857,227,268.93827357206595,227,270.0804616029462,227C271.22264963382645,227,272.3648376647067,227,273.507025695587,227C274.6492137264672,227,275.7914017573475,227,276.9335897882277,227C278.075777819108,227,279.2179658499882,227,280.3601538808685,227C281.5023419117488,227,282.644529942629,227,283.78671797350927,227C284.92890600438955,227,286.07109403526977,227,287.21328206615004,227C288.35547009703026,227,289.49765812791054,227,290.63984615879076,227C291.78203418967104,227,292.9242222205513,227,294.0664102514316,227C295.2085982823118,227,296.3507863131921,227,297.4929743440723,227C298.6351623749526,227,299.7773504058328,227,300.9195384367131,227C302.06172646759336,227,303.20391449847364,227,304.3461025293539,227C305.48829056023413,227,306.6304785911144,227,307.77266662199463,227C308.9148546528749,227,310.0570426837551,227,311.1992307146354,227C312.3414187455157,227,313.4836067763959,227,314.6257948072762,227C315.76798283815646,227,316.9101708690367,227,318.05235889991695,227C319.1945469307972,227,320.33673496167745,227,321.47892299255767,227C322.62111102343795,227,323.7632990543182,227,324.9054870851985,227C326.0476751160787,227,327.189863146959,227,328.3320511778392,227C329.4742392087195,227,330.6164272395997,227,331.75861527048,227C332.90080330136027,227,334.0429913322405,227,335.18517936312077,227C336.32736739400104,227,337.46955542488126,227,338.61174345576154,227C339.7539314866418,227,340.89611951752204,227,342.0383075484023,227C343.18049557928254,227,344.3226836101628,227,345.46487164104303,227C346.6070596719233,227,347.7492477028036,227,348.89143573368386,227C350.0336237645641,227,351.17581179544436,227,352.3179998263246,227C353.46018785720486,227,354.6023758880851,227,355.74456391896535,227C356.88675194984563,227,358.0289399807259,227,359.1711280116062,227C360.3133160424864,227,361.4555040733667,227,362.5976921042469,227C363.7398801351272,227,364.8820681660074,227,366.0242561968877,227C367.16644422776795,227,368.3086322586482,227,369.45082028952845,227C370.5930083204087,227,371.73519635128895,227,372.8773843821692,227C374.01957241304945,227,375.1617604439297,227,376.30394847480994,227C377.4461365056902,227,378.5883245365705,227,379.7305125674508,227C380.872700598331,227,382.01488862921127,227,383.1570766600915,227C384.29926469097177,227,385.441452721852,227,386.58364075273226,227C387.7258287836125,227,388.86801681449276,227,390.010204845373,227C391.15239287625326,227,392.29458090713354,227,393.4367689380138,227C394.5789569688941,227,395.7211449997743,227,396.8633330306546,227C398.0055210615348,227,399.1477090924151,227,400.2898971232953,227C401.4320851541756,227,402.57427318505586,227,403.71646121593614,227C404.85864924681636,227,406.00083727769663,227,407.14302530857685,227C408.28521333945713,227,409.42740137033735,227,410.5695894012176,227C411.7117774320979,227,412.8539654629781,227,413.9961534938584,227C415.1383415247387,227,416.2805295556189,227,417.4227175864992,227C418.5649056173794,227,419.7070936482597,227,420.8492816791399,227C421.99146971002017,227,423.13365774090045,227,424.2758457717807,227C425.418033802661,227,426.5602218335412,227,427.7024098644215,227C428.8445978953017,227,429.986785926182,227,431.1289739570622,227C432.2711619879425,227,433.41335001882277,227,434.55553804970305,227C435.69772608058327,227,436.83991411146354,227,437.98210214234376,227C439.12429017322404,227,440.26647820410426,227,441.40866623498454,227C442.55085426586476,227,443.69304229674503,227,444.83523032762525,227C445.97741835850553,227,447.1196063893858,227,448.2617944202661,227C449.40398245114636,227,450.5461704820266,227,451.68835851290686,227C452.8305465437871,227,453.97273457466736,227,455.1149226055476,227C456.25711063642785,227,457.39929866730813,227,458.5414866981884,227C459.6836747290686,227,460.8258627599489,227,461.9680507908291,227C463.1102388217094,227,464.2524268525896,227,465.3946148834699,227C466.5368029143502,227,467.6789909452304,227,468.8211789761107,227C469.96336700699095,227,471.10555503787117,227,472.24774306875145,227C473.38993109963167,227,474.53211913051194,227,475.67430716139216,227C476.81649519227244,227,477.9586832231527,227,479.100871254033,227C480.2430592849133,227,481.3852473157935,227,482.52743534667377,227C483.669623377554,227,484.81181140843427,227,485.9539994393145,227C487.09618747019476,227,488.23837550107504,227,489.3805635319553,227C490.52275156283554,227,491.6649395937158,227,492.80712762459603,227C493.9493156554763,227,495.09150368635653,227,496.2336917172368,227C497.37587974811703,227,498.5180677789973,227,499.6602558098775,227C500.8024438407578,227,501.9446318716381,227,503.08681990251836,227C504.2290079333986,227,505.37119596427885,227,506.5133839951591,227C507.65557202603935,227,508.79776005691957,227,509.93994808779985,227C511.0821361186801,227,512.2243241495604,227,513.3665121804406,227C514.5087002113208,227,515.6508882422012,227,516.7930762730814,227C517.9352643039616,227,519.077452334842,227,520.2196403657222,227C521.3618283966024,227,522.5040164274827,227,523.646204458363,227C524.7883924892432,227,525.9305805201235,227,527.0727685510037,227C528.2149565818839,227,529.3571446127643,227,530.4993326436445,227C531.6415206745247,227,532.783708705405,227,533.9258967362853,227C535.0680847671655,227,536.2102727980458,227,537.352460828926,227C538.4946488598063,227,539.6368368906865,227,540.7790249215667,227C541.921212952447,227,543.0634009833273,227,544.2055890142076,227C545.3477770450878,227,546.4899650759681,227,547.6321531068484,227C548.7743411377286,227,549.9165291686088,227,551.058717199489,227C552.2009052303692,227,553.3430932612496,227,554.4852812921298,227C555.62746932301,227,556.7696573538904,227,557.9118453847706,227C559.0540334156508,227,560.1962214465311,227,561.3384094774113,227L561.3384094774113,220.28402366863907C560.1962214465311,218.26923076923077,559.0540334156508,216.25443786982248,557.9118453847706,216.25443786982248C556.7696573538904,216.25443786982248,555.62746932301,216.9260355029586,554.4852812921298,217.5976331360947C553.3430932612496,218.26923076923077,552.2009052303692,219.61242603550298,551.058717199489,220.28402366863907C549.9165291686088,220.95562130177515,548.7743411377286,221.62721893491124,547.6321531068484,221.62721893491124C546.4899650759681,221.62721893491124,545.3477770450878,220.28402366863907,544.2055890142076,220.28402366863907C543.0634009833273,220.28402366863907,541.921212952447,225.65680473372782,540.7790249215667,225.65680473372782C539.6368368906865,225.65680473372782,538.4946488598063,214.91124260355022,537.352460828926,212.22485207100593C536.2102727980458,209.53846153846155,535.0680847671655,208.19526627218934,533.9258967362853,208.19526627218934C532.783708705405,208.19526627218934,531.6415206745247,209.53846153846155,530.4993326436445,209.53846153846155C529.3571446127643,209.53846153846155,528.2149565818839,205.28500986193293,527.0727685510037,201.4792899408284C525.9305805201235,197.67357001972388,524.7883924892432,186.70414201183434,523.646204458363,186.70414201183434C522.5040164274827,186.70414201183434,521.3618283966024,187.1518737672584,520.2196403657222,188.0473372781065C519.077452334842,188.94280078895463,517.9352643039616,204.1656804733728,516.7930762730814,209.53846153846155C515.6508882422012,214.9112426035503,514.5087002113208,219.38856015779095,513.3665121804406,220.28402366863907C512.2243241495604,221.17948717948718,511.0821361186801,221.62721893491124,509.93994808779985,221.62721893491124C508.79776005691957,221.62721893491124,507.65557202603935,217.5976331360947,506.5133839951591,217.5976331360947C505.37119596427885,217.5976331360947,504.2290079333986,218.94082840236686,503.08681990251836,218.94082840236686C501.9446318716381,218.94082840236686,500.8024438407578,216.25443786982248,499.6602558098775,216.25443786982248C498.5180677789973,216.25443786982248,497.37587974811703,222.97041420118344,496.2336917172368,222.97041420118344C495.09150368635653,222.97041420118344,493.9493156554763,222.97041420118344,492.80712762459603,222.97041420118344C491.6649395937158,222.97041420118344,490.52275156283554,222.97041420118344,489.3805635319553,222.97041420118344C488.23837550107504,222.97041420118344,487.09618747019476,225.65680473372782,485.9539994393145,225.65680473372782C484.81181140843427,225.65680473372782,483.669623377554,217.5976331360947,482.52743534667377,217.5976331360947C481.3852473157935,217.5976331360947,480.2430592849133,224.31360946745562,479.100871254033,224.31360946745562C477.9586832231527,224.31360946745562,476.81649519227244,219.836291913215,475.67430716139216,218.94082840236686C474.53211913051194,218.04536489151874,473.38993109963167,217.5976331360947,472.24774306875145,217.5976331360947C471.10555503787117,217.5976331360947,469.96336700699095,219.61242603550298,468.8211789761107,220.28402366863907C467.6789909452304,220.95562130177515,466.5368029143502,221.62721893491124,465.3946148834699,221.62721893491124C464.2524268525896,221.62721893491124,463.1102388217094,221.62721893491124,461.9680507908291,221.62721893491124C460.8258627599489,221.62721893491124,459.6836747290686,222.5226824457594,458.5414866981884,222.97041420118344C457.39929866730813,223.4181459566075,456.25711063642785,224.31360946745562,455.1149226055476,224.31360946745562C453.97273457466736,224.31360946745562,452.8305465437871,222.97041420118344,451.68835851290686,222.97041420118344C450.5461704820266,222.97041420118344,449.40398245114636,222.97041420118344,448.2617944202661,222.97041420118344C447.1196063893858,222.97041420118344,445.97741835850553,214.9112426035503,444.83523032762525,214.9112426035503C443.69304229674503,214.9112426035503,442.55085426586476,221.1794871794872,441.40866623498454,222.97041420118344C440.26647820410426,224.7613412228797,439.12429017322404,225.65680473372782,437.98210214234376,225.65680473372782C436.83991411146354,225.65680473372782,435.69772608058327,221.62721893491124,434.55553804970305,220.28402366863907C433.41335001882277,218.94082840236683,432.2711619879425,218.49309664694283,431.1289739570622,217.5976331360947C429.986785926182,216.70216962524657,428.8445978953017,214.9112426035503,427.7024098644215,214.9112426035503C426.5602218335412,214.9112426035503,425.418033802661,215.80670611439842,424.2758457717807,216.25443786982248C423.13365774090045,216.70216962524654,421.99146971002017,216.70216962524654,420.8492816791399,217.5976331360947C419.7070936482597,218.4930966469428,418.5649056173794,225.65680473372782,417.4227175864992,225.65680473372782C416.2805295556189,225.65680473372782,415.1383415247387,225.65680473372782,413.9961534938584,225.65680473372782C412.8539654629781,225.65680473372782,411.7117774320979,223.64201183431953,410.5695894012176,222.97041420118344C409.42740137033735,222.29881656804736,408.28521333945713,221.62721893491124,407.14302530857685,221.62721893491124C406.00083727769663,221.62721893491124,404.85864924681636,221.62721893491124,403.71646121593614,221.62721893491124C402.57427318505586,221.62721893491124,401.4320851541756,222.97041420118344,400.2898971232953,222.97041420118344C399.1477090924151,222.97041420118344,398.0055210615348,218.94082840236686,396.8633330306546,218.94082840236686C395.7211449997743,218.94082840236686,394.5789569688941,221.62721893491124,393.4367689380138,221.62721893491124C392.29458090713354,221.62721893491124,391.15239287625326,220.28402366863907,390.010204845373,220.28402366863907C388.86801681449276,220.28402366863907,387.7258287836125,220.28402366863907,386.58364075273226,220.28402366863907C385.441452721852,220.28402366863907,384.29926469097177,224.31360946745562,383.1570766600915,224.31360946745562C382.01488862921127,224.31360946745562,380.872700598331,217.5976331360947,379.7305125674508,217.5976331360947C378.5883245365705,217.5976331360947,377.4461365056902,223.41814595660745,376.30394847480994,224.31360946745562C375.1617604439297,225.20907297830377,374.01957241304945,225.65680473372782,372.8773843821692,225.65680473372782C371.73519635128895,225.65680473372782,370.5930083204087,218.94082840236686,369.45082028952845,218.94082840236686C368.3086322586482,218.94082840236686,367.16644422776795,227,366.0242561968877,227C364.8820681660074,227,363.7398801351272,226.10453648915188,362.5976921042469,225.65680473372782C361.4555040733667,225.20907297830377,360.3133160424864,225.20907297830377,359.1711280116062,224.31360946745562C358.0289399807259,223.41814595660745,356.88675194984563,217.5976331360947,355.74456391896535,217.5976331360947C354.6023758880851,217.5976331360947,353.46018785720486,224.31360946745562,352.3179998263246,224.31360946745562C351.17581179544436,224.31360946745562,350.0336237645641,224.31360946745562,348.89143573368386,224.31360946745562C347.7492477028036,224.31360946745562,346.6070596719233,218.94082840236686,345.46487164104303,218.94082840236686C344.3226836101628,218.94082840236686,343.18049557928254,224.31360946745562,342.0383075484023,224.31360946745562C340.89611951752204,224.31360946745562,339.7539314866418,222.29881656804733,338.61174345576154,221.62721893491124C337.46955542488126,220.95562130177515,336.32736739400104,220.28402366863907,335.18517936312077,220.28402366863907C334.0429913322405,220.28402366863907,332.90080330136027,224.31360946745562,331.75861527048,224.31360946745562C330.6164272395997,224.31360946745562,329.4742392087195,222.5226824457594,328.3320511778392,221.62721893491124C327.189863146959,220.73175542406312,326.0476751160787,218.94082840236686,324.9054870851985,218.94082840236686C323.7632990543182,218.94082840236686,322.62111102343795,224.31360946745562,321.47892299255767,224.31360946745562C320.33673496167745,224.31360946745562,319.1945469307972,220.28402366863907,318.05235889991695,220.28402366863907C316.9101708690367,220.28402366863907,315.76798283815646,222.97041420118344,314.6257948072762,222.97041420118344C313.4836067763959,222.97041420118344,312.3414187455157,222.97041420118344,311.1992307146354,222.97041420118344C310.0570426837551,222.97041420118344,308.9148546528749,225.65680473372782,307.77266662199463,225.65680473372782C306.6304785911144,225.65680473372782,305.48829056023413,225.65680473372782,304.3461025293539,225.65680473372782C303.20391449847364,225.65680473372782,302.06172646759336,220.28402366863907,300.9195384367131,220.28402366863907C299.7773504058328,220.28402366863907,298.6351623749526,224.31360946745562,297.4929743440723,224.31360946745562C296.3507863131921,224.31360946745562,295.2085982823118,224.31360946745562,294.0664102514316,224.31360946745562C292.9242222205513,224.31360946745562,291.78203418967104,227,290.63984615879076,227C289.49765812791054,227,288.35547009703026,220.28402366863907,287.21328206615004,220.28402366863907C286.07109403526977,220.28402366863907,284.92890600438955,224.31360946745562,283.78671797350927,224.31360946745562C282.644529942629,224.31360946745562,281.5023419117488,224.31360946745562,280.3601538808685,224.31360946745562C279.2179658499882,224.31360946745562,278.075777819108,221.62721893491124,276.9335897882277,221.62721893491124C275.7914017573475,221.62721893491124,274.6492137264672,222.29881656804736,273.507025695587,222.97041420118344C272.3648376647067,223.64201183431953,271.22264963382645,225.65680473372782,270.0804616029462,225.65680473372782C268.93827357206595,225.65680473372782,267.7960855411857,225.20907297830377,266.65389751030546,224.31360946745562C265.5117094794252,223.41814595660748,264.36952144854496,216.25443786982248,263.2273334176647,216.25443786982248C262.0851453867844,216.25443786982248,260.9429573559042,219.38856015779095,259.8007693250239,220.28402366863907C258.65858129414363,221.17948717948718,257.5163932632634,221.17948717948718,256.37420523238313,221.62721893491124C255.23201720150288,222.0749506903353,254.0898291706226,222.97041420118344,252.94764113974236,222.97041420118344C251.8054531088621,222.97041420118344,250.66326507798183,218.94082840236686,249.52107704710158,218.94082840236686C248.37888901622134,218.94082840236686,247.2367009853411,218.94082840236686,246.09451295446084,218.94082840236686C244.9523249235806,218.94082840236686,243.8101368927003,214.9112426035503,242.66794886182007,214.9112426035503C241.52576083093982,214.9112426035503,240.38357280005957,220.28402366863907,239.24138476917932,220.28402366863907C238.09919673829907,220.28402366863907,236.9570087074188,218.94082840236686,235.81482067653855,218.94082840236686C234.6726326456583,218.94082840236686,233.53044461477802,220.50788954635107,232.38825658389777,221.62721893491124C231.24606855301752,222.7465483234714,230.10388052213727,224.76134122287974,228.96169249125703,225.65680473372782C227.81950446037675,226.55226824457594,226.6773164294965,227,225.53512839861622,227C224.39294036773597,227,223.2507523368557,226.3284023668639,222.10856430597545,225.65680473372782C220.9663762750952,224.98520710059174,219.82418824421495,222.97041420118344,218.6820002133347,222.97041420118344C217.53981218245445,222.97041420118344,216.39762415157418,227,215.25543612069393,227C214.11324808981368,227,212.97106005893343,224.9852071005917,211.82887202805318,224.31360946745562C210.68668399717293,223.64201183431953,209.54449596629266,223.4181459566075,208.4023079354124,222.97041420118344C207.26011990453216,222.5226824457594,206.11793187365188,221.62721893491124,204.97574384277164,221.62721893491124C203.8335558118914,221.62721893491124,202.69136778101114,225.65680473372782,201.5491797501309,225.65680473372782C200.40699171925064,225.65680473372782,199.26480368837036,222.97041420118344,198.12261565749012,222.97041420118344C196.98042762660984,222.97041420118344,195.8382395957296,224.31360946745562,194.6960515648493,224.31360946745562C193.55386353396906,224.31360946745562,192.41167550308882,223.86587771203156,191.26948747220857,222.97041420118344C190.12729944132832,222.07495069033533,188.98511141044804,218.94082840236686,187.8429233795678,218.94082840236686C186.70073534868754,218.94082840236686,185.5585473178073,219.38856015779092,184.41635928692705,220.28402366863907C183.2741712560468,221.1794871794872,182.13198322516652,227,180.98979519428627,227C179.84760716340602,227,178.70541913252575,225.20907297830374,177.5632311016455,224.31360946745562C176.42104307076525,223.4181459566075,175.278855039885,221.62721893491124,174.13666700900475,221.62721893491124C172.9944789781245,221.62721893491124,171.85229094724423,227,170.71010291636398,227C169.5679148854837,227,168.42572685460345,225.4329388560158,167.28353882372318,224.31360946745562C166.14135079284293,223.19428007889547,164.99916276196268,220.28402366863907,163.85697473108243,220.28402366863907C162.71478670020218,220.28402366863907,161.5725986693219,222.29881656804736,160.43041063844166,222.97041420118344C159.2882226075614,223.64201183431953,158.14603457668116,224.31360946745562,157.0038465458009,224.31360946745562C155.86165851492066,224.31360946745562,154.7194704840404,221.62721893491124,153.57728245316014,221.62721893491124C152.4350944222799,221.62721893491124,151.2929063913996,225.65680473372782,150.15071836051936,225.65680473372782C149.00853032963911,225.65680473372782,147.86634229875887,224.31360946745562,146.72415426787862,224.31360946745562C145.58196623699837,224.31360946745562,144.4397782061181,225.65680473372782,143.29759017523784,225.65680473372782C142.1554021443576,225.65680473372782,141.01321411347732,222.97041420118344,139.87102608259707,222.97041420118344C138.72883805171682,222.97041420118344,137.58665002083654,222.97041420118344,136.4444619899563,222.97041420118344C135.30227395907605,222.97041420118344,134.16008592819577,220.95562130177515,133.01789789731552,220.28402366863907C131.87570986643527,219.61242603550298,130.73352183555502,218.94082840236686,129.59133380467478,218.94082840236686C128.44914577379453,218.94082840236686,127.30695774291426,225.65680473372782,126.164769712034,225.65680473372782C125.02258168115375,225.65680473372782,123.88039365027349,220.28402366863907,122.73820561939324,220.28402366863907C121.59601758851298,220.28402366863907,120.45382955763273,225.65680473372782,119.31164152675247,225.65680473372782C118.16945349587222,225.65680473372782,117.02726546499196,218.94082840236686,115.88507743411171,218.94082840236686C114.74288940323144,218.94082840236686,113.6007013723512,220.50788954635107,112.45851334147093,221.62721893491124C111.31632531059068,222.7465483234714,110.17413727971042,225.65680473372782,109.03194924883017,225.65680473372782C107.88976121794991,225.65680473372782,106.74757318706966,222.97041420118344,105.6053851561894,222.97041420118344C104.46319712530915,222.97041420118344,103.32100909442889,222.97041420118344,102.17882106354864,222.97041420118344C101.03663303266838,222.97041420118344,99.89444500178813,221.62721893491124,98.75225697090787,221.62721893491124C97.61006894002762,221.62721893491124,96.46788090914735,221.62721893491124,95.3256928782671,221.62721893491124C94.18350484738684,221.62721893491124,93.0413168165066,222.29881656804736,91.89912878562633,222.97041420118344C90.75694075474608,223.64201183431953,89.61475272386582,225.65680473372782,88.47256469298557,225.65680473372782C87.33037666210532,225.65680473372782,86.18818863122506,222.97041420118344,85.04600060034481,222.97041420118344C83.90381256946455,222.97041420118344,82.7616245385843,225.65680473372782,81.61943650770404,225.65680473372782C80.47724847682377,225.65680473372782,79.33506044594353,221.62721893491124,78.19287241506326,221.62721893491124C77.05068438418301,221.62721893491124,75.90849635330275,225.65680473372782,74.7663083224225,225.65680473372782C73.62412029154225,225.65680473372782,72.48193226066199,221.62721893491124,71.33974422978174,221.62721893491124C70.19755619890148,221.62721893491124,69.05536816802123,223.4181459566075,67.91318013714097,224.31360946745562C66.77099210626072,225.20907297830374,65.62880407538046,227,64.48661604450021,227C63.344428013619954,227,62.20223998273969,224.9852071005917,61.060051951859435,224.31360946745562C59.91786392097918,223.64201183431953,58.775675890098924,223.64201183431953,57.63348785921867,222.97041420118344C56.49129982833841,222.29881656804736,55.34911179745816,220.28402366863907,54.2069237665779,220.28402366863907C53.064735735697646,220.28402366863907,51.92254770481739,223.4181459566075,50.780359673937134,224.31360946745562C49.63817164305688,225.20907297830374,48.49598361217662,225.65680473372782,47.35379558129637,225.65680473372782C46.21160755041611,225.65680473372782,45.069419519535856,218.94082840236686,43.9272314886556,218.94082840236686C42.785043457775345,218.94082840236686,41.64285542689509,224.31360946745562,40.50066739601483,224.31360946745562C39.35847936513458,224.31360946745562,38.21629133425433,224.31360946745562,37.07410330337407,224.31360946745562C35.93191527249382,224.31360946745562,34.78972724161356,218.94082840236686,33.64753921073331,218.94082840236686C32.50535117985305,218.94082840236686,31.36316314897279,225.65680473372782,30.220975118092536,225.65680473372782C29.07878708721228,225.65680473372782,27.936599056332025,224.9852071005917,26.79441102545177,224.31360946745562C25.652222994571513,223.64201183431953,24.510034963691258,221.62721893491124,23.367846932811002,221.62721893491124C22.225658901930746,221.62721893491124,21.083470871050494,222.97041420118344,19.94128284017024,222.97041420118344C18.799094809289983,222.97041420118344,17.656906778409727,222.97041420118344,16.51471874752947,222.97041420118344C15.372530716649216,222.97041420118344,14.230342685768958,227,13.088154654888703,227C11.945966624008447,227,10.803778593128193,220.28402366863907,9.661590562247937,213.5680473372781Z" id="fires" style="fill: rgb(255, 127, 14); opacity: 0.7; mix-blend-mode: normal;"/><path d="M9.661590562247937,213.5680473372781C10.803778593128193,220.28402366863907,11.945966624008447,227,13.088154654888703,227C14.230342685768958,227,15.372530716649216,222.97041420118344,16.51471874752947,222.97041420118344C17.656906778409727,222.97041420118344,18.799094809289983,222.97041420118344,19.94128284017024,222.97041420118344C21.083470871050494,222.97041420118344,22.225658901930746,221.62721893491124,23.367846932811002,221.62721893491124C24.510034963691258,221.62721893491124,25.652222994571513,223.64201183431953,26.79441102545177,224.31360946745562C27.936599056332025,224.9852071005917,29.07878708721228,225.65680473372782,30.220975118092536,225.65680473372782C31.36316314897279,225.65680473372782,32.50535117985305,218.94082840236686,33.64753921073331,218.94082840236686C34.78972724161356,218.94082840236686,35.93191527249382,224.31360946745562,37.07410330337407,224.31360946745562C38.21629133425433,224.31360946745562,39.35847936513458,224.31360946745562,40.50066739601483,224.31360946745562C41.64285542689509,224.31360946745562,42.785043457775345,218.94082840236686,43.9272314886556,218.94082840236686C45.069419519535856,218.94082840236686,46.21160755041611,225.65680473372782,47.35379558129637,225.65680473372782C48.49598361217662,225.65680473372782,49.63817164305688,225.20907297830374,50.780359673937134,224.31360946745562C51.92254770481739,223.4181459566075,53.064735735697646,220.28402366863907,54.2069237665779,220.28402366863907C55.34911179745816,220.28402366863907,56.49129982833841,222.29881656804736,57.63348785921867,222.97041420118344C58.775675890098924,223.64201183431953,59.91786392097918,223.64201183431953,61.060051951859435,224.31360946745562C62.20223998273969,224.9852071005917,63.344428013619954,227,64.48661604450021,227C65.62880407538046,227,66.77099210626072,225.20907297830374,67.91318013714097,224.31360946745562C69.05536816802123,223.4181459566075,70.19755619890148,221.62721893491124,71.33974422978174,221.62721893491124C72.48193226066199,221.62721893491124,73.62412029154225,225.65680473372782,74.7663083224225,225.65680473372782C75.90849635330275,225.65680473372782,77.05068438418301,221.62721893491124,78.19287241506326,221.62721893491124C79.33506044594353,221.62721893491124,80.47724847682377,225.65680473372782,81.61943650770404,225.65680473372782C82.7616245385843,225.65680473372782,83.90381256946455,222.97041420118344,85.04600060034481,222.97041420118344C86.18818863122506,222.97041420118344,87.33037666210532,225.65680473372782,88.47256469298557,225.65680473372782C89.61475272386582,225.65680473372782,90.75694075474608,223.64201183431953,91.89912878562633,222.97041420118344C93.0413168165066,222.29881656804736,94.18350484738684,221.62721893491124,95.3256928782671,221.62721893491124C96.46788090914735,221.62721893491124,97.61006894002762,221.62721893491124,98.75225697090787,221.62721893491124C99.89444500178813,221.62721893491124,101.03663303266838,222.97041420118344,102.17882106354864,222.97041420118344C103.32100909442889,222.97041420118344,104.46319712530915,222.97041420118344,105.6053851561894,222.97041420118344C106.74757318706966,222.97041420118344,107.88976121794991,225.65680473372782,109.03194924883017,225.65680473372782C110.17413727971042,225.65680473372782,111.31632531059068,222.7465483234714,112.45851334147093,221.62721893491124C113.6007013723512,220.50788954635107,114.74288940323144,218.94082840236686,115.88507743411171,218.94082840236686C117.02726546499196,218.94082840236686,118.16945349587222,225.65680473372782,119.31164152675247,225.65680473372782C120.45382955763273,225.65680473372782,121.59601758851298,220.28402366863907,122.73820561939324,220.28402366863907C123.88039365027349,220.28402366863907,125.02258168115375,225.65680473372782,126.164769712034,225.65680473372782C127.30695774291426,225.65680473372782,128.44914577379453,218.94082840236686,129.59133380467478,218.94082840236686C130.73352183555502,218.94082840236686,131.87570986643527,219.61242603550298,133.01789789731552,220.28402366863907C134.16008592819577,220.95562130177515,135.30227395907605,222.97041420118344,136.4444619899563,222.97041420118344C137.58665002083654,222.97041420118344,138.72883805171682,222.97041420118344,139.87102608259707,222.97041420118344C141.01321411347732,222.97041420118344,142.1554021443576,225.65680473372782,143.29759017523784,225.65680473372782C144.4397782061181,225.65680473372782,145.58196623699837,224.31360946745562,146.72415426787862,224.31360946745562C147.86634229875887,224.31360946745562,149.00853032963911,225.65680473372782,150.15071836051936,225.65680473372782C151.2929063913996,225.65680473372782,152.4350944222799,221.62721893491124,153.57728245316014,221.62721893491124C154.7194704840404,221.62721893491124,155.86165851492066,224.31360946745562,157.0038465458009,224.31360946745562C158.14603457668116,224.31360946745562,159.2882226075614,223.64201183431953,160.43041063844166,222.97041420118344C161.5725986693219,222.29881656804736,162.71478670020218,220.28402366863907,163.85697473108243,220.28402366863907C164.99916276196268,220.28402366863907,166.14135079284293,223.19428007889547,167.28353882372318,224.31360946745562C168.42572685460345,225.4329388560158,169.5679148854837,227,170.71010291636398,227C171.85229094724423,227,172.9944789781245,221.62721893491124,174.13666700900475,221.62721893491124C175.278855039885,221.62721893491124,176.42104307076525,223.4181459566075,177.5632311016455,224.31360946745562C178.70541913252575,225.20907297830374,179.84760716340602,227,180.98979519428627,227C182.13198322516652,227,183.2741712560468,221.1794871794872,184.41635928692705,220.28402366863907C185.5585473178073,219.38856015779092,186.70073534868754,218.94082840236686,187.8429233795678,218.94082840236686C188.98511141044804,218.94082840236686,190.12729944132832,222.07495069033533,191.26948747220857,222.97041420118344C192.41167550308882,223.86587771203156,193.55386353396906,224.31360946745562,194.6960515648493,224.31360946745562C195.8382395957296,224.31360946745562,196.98042762660984,222.97041420118344,198.12261565749012,222.97041420118344C199.26480368837036,222.97041420118344,200.40699171925064,225.65680473372782,201.5491797501309,225.65680473372782C202.69136778101114,225.65680473372782,203.8335558118914,221.62721893491124,204.97574384277164,221.62721893491124C206.11793187365188,221.62721893491124,207.26011990453216,222.5226824457594,208.4023079354124,222.97041420118344C209.54449596629266,223.4181459566075,210.68668399717293,223.64201183431953,211.82887202805318,224.31360946745562C212.97106005893343,224.9852071005917,214.11324808981368,227,215.25543612069393,227C216.39762415157418,227,217.53981218245445,222.97041420118344,218.6820002133347,222.97041420118344C219.82418824421495,222.97041420118344,220.9663762750952,224.98520710059174,222.10856430597545,225.65680473372782C223.2507523368557,226.3284023668639,224.39294036773597,227,225.53512839861622,227C226.6773164294965,227,227.81950446037675,226.55226824457594,228.96169249125703,225.65680473372782C230.10388052213727,224.76134122287974,231.24606855301752,222.7465483234714,232.38825658389777,221.62721893491124C233.53044461477802,220.50788954635107,234.6726326456583,218.94082840236686,235.81482067653855,218.94082840236686C236.9570087074188,218.94082840236686,238.09919673829907,220.28402366863907,239.24138476917932,220.28402366863907C240.38357280005957,220.28402366863907,241.52576083093982,214.9112426035503,242.66794886182007,214.9112426035503C243.8101368927003,214.9112426035503,244.9523249235806,218.94082840236686,246.09451295446084,218.94082840236686C247.2367009853411,218.94082840236686,248.37888901622134,218.94082840236686,249.52107704710158,218.94082840236686C250.66326507798183,218.94082840236686,251.8054531088621,222.97041420118344,252.94764113974236,222.97041420118344C254.0898291706226,222.97041420118344,255.23201720150288,222.0749506903353,256.37420523238313,221.62721893491124C257.5163932632634,221.17948717948718,258.65858129414363,221.17948717948718,259.8007693250239,220.28402366863907C260.9429573559042,219.38856015779095,262.0851453867844,216.25443786982248,263.2273334176647,216.25443786982248C264.36952144854496,216.25443786982248,265.5117094794252,223.41814595660748,266.65389751030546,224.31360946745562C267.7960855411857,225.20907297830377,268.93827357206595,225.65680473372782,270.0804616029462,225.65680473372782C271.22264963382645,225.65680473372782,272.3648376647067,223.64201183431953,273.507025695587,222.97041420118344C274.6492137264672,222.29881656804736,275.7914017573475,221.62721893491124,276.9335897882277,221.62721893491124C278.075777819108,221.62721893491124,279.2179658499882,224.31360946745562,280.3601538808685,224.31360946745562C281.5023419117488,224.31360946745562,282.644529942629,224.31360946745562,283.78671797350927,224.31360946745562C284.92890600438955,224.31360946745562,286.07109403526977,220.28402366863907,287.21328206615004,220.28402366863907C288.35547009703026,220.28402366863907,289.49765812791054,227,290.63984615879076,227C291.78203418967104,227,292.9242222205513,224.31360946745562,294.0664102514316,224.31360946745562C295.2085982823118,224.31360946745562,296.3507863131921,224.31360946745562,297.4929743440723,224.31360946745562C298.6351623749526,224.31360946745562,299.7773504058328,220.28402366863907,300.9195384367131,220.28402366863907C302.06172646759336,220.28402366863907,303.20391449847364,225.65680473372782,304.3461025293539,225.65680473372782C305.48829056023413,225.65680473372782,306.6304785911144,225.65680473372782,307.77266662199463,225.65680473372782C308.9148546528749,225.65680473372782,310.0570426837551,222.97041420118344,311.1992307146354,222.97041420118344C312.3414187455157,222.97041420118344,313.4836067763959,222.97041420118344,314.6257948072762,222.97041420118344C315.76798283815646,222.97041420118344,316.9101708690367,220.28402366863907,318.05235889991695,220.28402366863907C319.1945469307972,220.28402366863907,320.33673496167745,224.31360946745562,321.47892299255767,224.31360946745562C322.62111102343795,224.31360946745562,323.7632990543182,218.94082840236686,324.9054870851985,218.94082840236686C326.0476751160787,218.94082840236686,327.189863146959,220.73175542406312,328.3320511778392,221.62721893491124C329.4742392087195,222.5226824457594,330.6164272395997,224.31360946745562,331.75861527048,224.31360946745562C332.90080330136027,224.31360946745562,334.0429913322405,220.28402366863907,335.18517936312077,220.28402366863907C336.32736739400104,220.28402366863907,337.46955542488126,220.95562130177515,338.61174345576154,221.62721893491124C339.7539314866418,222.29881656804733,340.89611951752204,224.31360946745562,342.0383075484023,224.31360946745562C343.18049557928254,224.31360946745562,344.3226836101628,218.94082840236686,345.46487164104303,218.94082840236686C346.6070596719233,218.94082840236686,347.7492477028036,224.31360946745562,348.89143573368386,224.31360946745562C350.0336237645641,224.31360946745562,351.17581179544436,224.31360946745562,352.3179998263246,224.31360946745562C353.46018785720486,224.31360946745562,354.6023758880851,217.5976331360947,355.74456391896535,217.5976331360947C356.88675194984563,217.5976331360947,358.0289399807259,223.41814595660745,359.1711280116062,224.31360946745562C360.3133160424864,225.20907297830377,361.4555040733667,225.20907297830377,362.5976921042469,225.65680473372782C363.7398801351272,226.10453648915188,364.8820681660074,227,366.0242561968877,227C367.16644422776795,227,368.3086322586482,218.94082840236686,369.45082028952845,218.94082840236686C370.5930083204087,218.94082840236686,371.73519635128895,225.65680473372782,372.8773843821692,225.65680473372782C374.01957241304945,225.65680473372782,375.1617604439297,225.20907297830377,376.30394847480994,224.31360946745562C377.4461365056902,223.41814595660745,378.5883245365705,217.5976331360947,379.7305125674508,217.5976331360947C380.872700598331,217.5976331360947,382.01488862921127,224.31360946745562,383.1570766600915,224.31360946745562C384.29926469097177,224.31360946745562,385.441452721852,220.28402366863907,386.58364075273226,220.28402366863907C387.7258287836125,220.28402366863907,388.86801681449276,220.28402366863907,390.010204845373,220.28402366863907C391.15239287625326,220.28402366863907,392.29458090713354,221.62721893491124,393.4367689380138,221.62721893491124C394.5789569688941,221.62721893491124,395.7211449997743,218.94082840236686,396.8633330306546,218.94082840236686C398.0055210615348,218.94082840236686,399.1477090924151,222.97041420118344,400.2898971232953,222.97041420118344C401.4320851541756,222.97041420118344,402.57427318505586,221.62721893491124,403.71646121593614,221.62721893491124C404.85864924681636,221.62721893491124,406.00083727769663,221.62721893491124,407.14302530857685,221.62721893491124C408.28521333945713,221.62721893491124,409.42740137033735,222.29881656804736,410.5695894012176,222.97041420118344C411.7117774320979,223.64201183431953,412.8539654629781,225.65680473372782,413.9961534938584,225.65680473372782C415.1383415247387,225.65680473372782,416.2805295556189,225.65680473372782,417.4227175864992,225.65680473372782C418.5649056173794,225.65680473372782,419.7070936482597,218.4930966469428,420.8492816791399,217.5976331360947C421.99146971002017,216.70216962524654,423.13365774090045,216.70216962524654,424.2758457717807,216.25443786982248C425.418033802661,215.80670611439842,426.5602218335412,214.9112426035503,427.7024098644215,214.9112426035503C428.8445978953017,214.9112426035503,429.986785926182,216.70216962524657,431.1289739570622,217.5976331360947C432.2711619879425,218.49309664694283,433.41335001882277,218.94082840236683,434.55553804970305,220.28402366863907C435.69772608058327,221.62721893491124,436.83991411146354,225.65680473372782,437.98210214234376,225.65680473372782C439.12429017322404,225.65680473372782,440.26647820410426,224.7613412228797,441.40866623498454,222.97041420118344C442.55085426586476,221.1794871794872,443.69304229674503,214.9112426035503,444.83523032762525,214.9112426035503C445.97741835850553,214.9112426035503,447.1196063893858,222.97041420118344,448.2617944202661,222.97041420118344C449.40398245114636,222.97041420118344,450.5461704820266,222.97041420118344,451.68835851290686,222.97041420118344C452.8305465437871,222.97041420118344,453.97273457466736,224.31360946745562,455.1149226055476,224.31360946745562C456.25711063642785,224.31360946745562,457.39929866730813,223.4181459566075,458.5414866981884,222.97041420118344C459.6836747290686,222.5226824457594,460.8258627599489,221.62721893491124,461.9680507908291,221.62721893491124C463.1102388217094,221.62721893491124,464.2524268525896,221.62721893491124,465.3946148834699,221.62721893491124C466.5368029143502,221.62721893491124,467.6789909452304,220.95562130177515,468.8211789761107,220.28402366863907C469.96336700699095,219.61242603550298,471.10555503787117,217.5976331360947,472.24774306875145,217.5976331360947C473.38993109963167,217.5976331360947,474.53211913051194,218.04536489151874,475.67430716139216,218.94082840236686C476.81649519227244,219.836291913215,477.9586832231527,224.31360946745562,479.100871254033,224.31360946745562C480.2430592849133,224.31360946745562,481.3852473157935,217.5976331360947,482.52743534667377,217.5976331360947C483.669623377554,217.5976331360947,484.81181140843427,225.65680473372782,485.9539994393145,225.65680473372782C487.09618747019476,225.65680473372782,488.23837550107504,222.97041420118344,489.3805635319553,222.97041420118344C490.52275156283554,222.97041420118344,491.6649395937158,222.97041420118344,492.80712762459603,222.97041420118344C493.9493156554763,222.97041420118344,495.09150368635653,222.97041420118344,496.2336917172368,222.97041420118344C497.37587974811703,222.97041420118344,498.5180677789973,216.25443786982248,499.6602558098775,216.25443786982248C500.8024438407578,216.25443786982248,501.9446318716381,218.94082840236686,503.08681990251836,218.94082840236686C504.2290079333986,218.94082840236686,505.37119596427885,217.5976331360947,506.5133839951591,217.5976331360947C507.65557202603935,217.5976331360947,508.79776005691957,221.62721893491124,509.93994808779985,221.62721893491124C511.0821361186801,221.62721893491124,512.2243241495604,221.17948717948718,513.3665121804406,220.28402366863907C514.5087002113208,219.38856015779095,515.6508882422012,214.9112426035503,516.7930762730814,209.53846153846155C517.9352643039616,204.1656804733728,519.077452334842,188.94280078895463,520.2196403657222,188.0473372781065C521.3618283966024,187.1518737672584,522.5040164274827,186.70414201183434,523.646204458363,186.70414201183434C524.7883924892432,186.70414201183434,525.9305805201235,197.67357001972388,527.0727685510037,201.4792899408284C528.2149565818839,205.28500986193293,529.3571446127643,209.53846153846155,530.4993326436445,209.53846153846155C531.6415206745247,209.53846153846155,532.783708705405,208.19526627218934,533.9258967362853,208.19526627218934C535.0680847671655,208.19526627218934,536.2102727980458,209.53846153846155,537.352460828926,212.22485207100593C538.4946488598063,214.91124260355022,539.6368368906865,225.65680473372782,540.7790249215667,225.65680473372782C541.921212952447,225.65680473372782,543.0634009833273,220.28402366863907,544.2055890142076,220.28402366863907C545.3477770450878,220.28402366863907,546.4899650759681,221.62721893491124,547.6321531068484,221.62721893491124C548.7743411377286,221.62721893491124,549.9165291686088,220.95562130177515,551.058717199489,220.28402366863907C552.2009052303692,219.61242603550298,553.3430932612496,218.26923076923077,554.4852812921298,217.5976331360947C555.62746932301,216.9260355029586,556.7696573538904,216.25443786982248,557.9118453847706,216.25443786982248C559.0540334156508,216.25443786982248,560.1962214465311,218.26923076923077,561.3384094774113,220.28402366863907L561.3384094774113,167.89940828402368C560.1962214465311,164.54142011834318,559.0540334156508,161.18343195266272,557.9118453847706,161.18343195266272C556.7696573538904,161.18343195266272,555.62746932301,163.86982248520712,554.4852812921298,163.86982248520712C553.3430932612496,163.86982248520712,552.2009052303692,155.81065088757396,551.058717199489,155.81065088757396C549.9165291686088,155.81065088757396,548.7743411377286,167.89940828402368,547.6321531068484,167.89940828402368C546.4899650759681,167.89940828402368,545.3477770450878,155.81065088757396,544.2055890142076,155.81065088757396C543.0634009833273,155.81065088757396,541.921212952447,170.58579881656806,540.7790249215667,170.58579881656806C539.6368368906865,170.58579881656806,538.4946488598063,159.84023668639054,537.352460828926,159.84023668639054C536.2102727980458,159.84023668639054,535.0680847671655,165.2130177514793,533.9258967362853,165.2130177514793C532.783708705405,165.2130177514793,531.6415206745247,159.16863905325442,530.4993326436445,155.81065088757396C529.3571446127643,152.4526627218935,528.2149565818839,152.22879684418146,527.0727685510037,145.06508875739644C525.9305805201235,137.90138067061142,524.7883924892432,102.0828402366864,523.646204458363,77.90532544378698C522.5040164274827,53.72781065088757,521.3618283966024,0,520.2196403657222,0C519.077452334842,0,517.9352643039616,2.238658777120321,516.7930762730814,6.715976331360963C515.6508882422012,11.193293885601605,514.5087002113208,38.504930966469416,513.3665121804406,59.10059171597632C512.2243241495604,79.69625246548323,511.0821361186801,126.70808678500985,509.93994808779985,130.28994082840237C508.79776005691957,133.87179487179486,507.65557202603935,134.31952662721892,506.5133839951591,135.66272189349112C505.37119596427885,137.0059171597633,504.2290079333986,136.55818540433924,503.08681990251836,138.3491124260355C501.9446318716381,140.14003944773182,500.8024438407578,157.15384615384613,499.6602558098775,157.15384615384613C498.5180677789973,157.15384615384613,497.37587974811703,143.72189349112426,496.2336917172368,143.72189349112426C495.09150368635653,143.72189349112426,493.9493156554763,151.78106508875737,492.80712762459603,151.78106508875737C491.6649395937158,151.78106508875737,490.52275156283554,145.06508875739644,489.3805635319553,142.3786982248521C488.23837550107504,139.69230769230765,487.09618747019476,138.57297830374762,485.9539994393145,135.66272189349112C484.81181140843427,132.75246548323474,483.669623377554,124.9171597633136,482.52743534667377,124.9171597633136C481.3852473157935,124.9171597633136,480.2430592849133,151.78106508875743,479.100871254033,157.15384615384613C477.9586832231527,162.52662721893492,476.81649519227244,165.2130177514793,475.67430716139216,165.2130177514793C474.53211913051194,165.2130177514793,473.38993109963167,137.00591715976333,472.24774306875145,137.00591715976333C471.10555503787117,137.00591715976333,469.96336700699095,146.63214990138064,468.8211789761107,151.78106508875737C467.6789909452304,156.9299802761341,466.5368029143502,167.89940828402368,465.3946148834699,167.89940828402368C464.2524268525896,167.89940828402368,463.1102388217094,151.78106508875737,461.9680507908291,151.78106508875737C460.8258627599489,151.78106508875737,459.6836747290686,152.67652859960552,458.5414866981884,154.46745562130178C457.39929866730813,156.2583826429981,456.25711063642785,167.89940828402368,455.1149226055476,167.89940828402368C453.97273457466736,167.89940828402368,452.8305465437871,167.89940828402368,451.68835851290686,167.89940828402368C450.5461704820266,167.89940828402368,449.40398245114636,149.9901380670611,448.2617944202661,149.09467455621302C447.1196063893858,148.1992110453649,445.97741835850553,147.75147928994085,444.83523032762525,147.75147928994085C443.69304229674503,147.75147928994085,442.55085426586476,159.84023668639054,441.40866623498454,159.84023668639054C440.26647820410426,159.84023668639054,439.12429017322404,141.48323471400406,437.98210214234376,137.00591715976333C436.83991411146354,132.5285996055227,435.69772608058327,130.28994082840237,434.55553804970305,130.28994082840237C433.41335001882277,130.28994082840237,432.2711619879425,154.46745562130178,431.1289739570622,154.46745562130178C429.986785926182,154.46745562130178,428.8445978953017,141.48323471400388,427.7024098644215,139.69230769230768C426.5602218335412,137.90138067061145,425.418033802661,137.00591715976333,424.2758457717807,137.00591715976333C423.13365774090045,137.00591715976333,421.99146971002017,150.4378698224852,420.8492816791399,150.4378698224852C419.7070936482597,150.4378698224852,418.5649056173794,149.99013806706114,417.4227175864992,149.09467455621302C416.2805295556189,148.19921104536488,415.1383415247387,143.27416173570023,413.9961534938584,142.3786982248521C412.8539654629781,141.48323471400394,411.7117774320979,141.03550295857988,410.5695894012176,141.03550295857988C409.42740137033735,141.03550295857988,408.28521333945713,150.4378698224852,407.14302530857685,150.4378698224852C406.00083727769663,150.4378698224852,404.85864924681636,131.63313609467457,403.71646121593614,131.63313609467457C402.57427318505586,131.63313609467457,401.4320851541756,149.0946745562129,400.2898971232953,151.78106508875737C399.1477090924151,154.46745562130175,398.0055210615348,155.81065088757396,396.8633330306546,155.81065088757396C395.7211449997743,155.81065088757396,394.5789569688941,154.46745562130175,393.4367689380138,151.78106508875737C392.29458090713354,149.09467455621294,391.15239287625326,138.3491124260355,390.010204845373,138.3491124260355C388.86801681449276,138.3491124260355,387.7258287836125,139.24457593688362,386.58364075273226,141.03550295857988C385.441452721852,142.82642998027617,384.29926469097177,165.2130177514793,383.1570766600915,165.2130177514793C382.01488862921127,165.2130177514793,380.872700598331,143.72189349112426,379.7305125674508,143.72189349112426C378.5883245365705,143.72189349112426,377.4461365056902,144.16962524654832,376.30394847480994,145.06508875739644C375.1617604439297,145.96055226824453,374.01957241304945,159.84023668639054,372.8773843821692,159.84023668639054C371.73519635128895,159.84023668639054,370.5930083204087,158.72090729783037,369.45082028952845,157.15384615384613C368.3086322586482,155.5867850098619,367.16644422776795,150.4378698224852,366.0242561968877,150.4378698224852C364.8820681660074,150.4378698224852,363.7398801351272,150.88560157790926,362.5976921042469,151.78106508875737C361.4555040733667,152.67652859960546,360.3133160424864,161.18343195266272,359.1711280116062,161.18343195266272C358.0289399807259,161.18343195266272,356.88675194984563,122.23076923076923,355.74456391896535,122.23076923076923C354.6023758880851,122.23076923076923,353.46018785720486,130.2899408284023,352.3179998263246,134.31952662721892C351.17581179544436,138.34911242603545,350.0336237645641,146.40828402366864,348.89143573368386,146.40828402366864C347.7492477028036,146.40828402366864,346.6070596719233,143.72189349112426,345.46487164104303,143.72189349112426C344.3226836101628,143.72189349112426,343.18049557928254,145.51282051282053,342.0383075484023,146.40828402366864C340.89611951752204,147.3037475345168,339.7539314866418,147.75147928994082,338.61174345576154,149.09467455621302C337.46955542488126,150.43786982248523,336.32736739400104,150.88560157790928,335.18517936312077,154.46745562130178C334.0429913322405,158.04930966469428,332.90080330136027,181.33136094674558,331.75861527048,181.33136094674558C330.6164272395997,181.33136094674558,329.4742392087195,162.52662721893498,328.3320511778392,159.84023668639054C327.189863146959,157.15384615384616,326.0476751160787,158.0493096646942,324.9054870851985,155.81065088757396C323.7632990543182,153.57199211045364,322.62111102343795,148.19921104536496,321.47892299255767,146.40828402366864C320.33673496167745,144.61735700197238,319.1945469307972,143.72189349112426,318.05235889991695,143.72189349112426C316.9101708690367,143.72189349112426,315.76798283815646,145.06508875739647,314.6257948072762,147.75147928994085C313.4836067763959,150.43786982248523,312.3414187455157,174.6153846153846,311.1992307146354,174.6153846153846C310.0570426837551,174.6153846153846,308.9148546528749,171.92899408284023,307.77266662199463,166.55621301775147C306.6304785911144,161.1834319526628,305.48829056023413,135.66272189349112,304.3461025293539,135.66272189349112C303.20391449847364,135.66272189349112,302.06172646759336,138.79684418145956,300.9195384367131,145.06508875739644C299.7773504058328,151.3333333333332,298.6351623749526,174.6153846153846,297.4929743440723,174.6153846153846C296.3507863131921,174.6153846153846,295.2085982823118,170.1380670611439,294.0664102514316,166.55621301775147C292.9242222205513,162.97435897435895,291.78203418967104,157.15384615384622,290.63984615879076,153.1242603550296C289.49765812791054,149.09467455621314,288.35547009703026,142.3786982248521,287.21328206615004,142.3786982248521C286.07109403526977,142.3786982248521,284.92890600438955,166.55621301775147,283.78671797350927,166.55621301775147C282.644529942629,166.55621301775147,281.5023419117488,138.3491124260355,280.3601538808685,138.3491124260355C279.2179658499882,138.3491124260355,278.075777819108,159.84023668639054,276.9335897882277,159.84023668639054C275.7914017573475,159.84023668639054,274.6492137264672,124.9171597633136,273.507025695587,124.9171597633136C272.3648376647067,124.9171597633136,271.22264963382645,142.3786982248521,270.0804616029462,142.3786982248521C268.93827357206595,142.3786982248521,267.7960855411857,137.00591715976333,266.65389751030546,137.00591715976333C265.5117094794252,137.00591715976333,264.36952144854496,139.24457593688365,263.2273334176647,142.3786982248521C262.0851453867844,145.51282051282053,260.9429573559042,155.81065088757396,259.8007693250239,155.81065088757396C258.65858129414363,155.81065088757396,257.5163932632634,146.40828402366864,256.37420523238313,146.40828402366864C255.23201720150288,146.40828402366864,254.0898291706226,161.18343195266272,252.94764113974236,161.18343195266272C251.8054531088621,161.18343195266272,250.66326507798183,120.439842209073,249.52107704710158,119.54437869822486C248.37888901622134,118.64891518737673,247.2367009853411,118.20118343195266,246.09451295446084,118.20118343195266C244.9523249235806,118.20118343195266,243.8101368927003,132.97633136094674,242.66794886182007,132.97633136094674C241.52576083093982,132.97633136094674,240.38357280005957,129.84220907297828,239.24138476917932,128.94674556213016C238.09919673829907,128.05128205128204,236.9570087074188,127.60355029585799,235.81482067653855,127.60355029585799C234.6726326456583,127.60355029585799,233.53044461477802,137.90138067061142,232.38825658389777,143.72189349112426C231.24606855301752,149.54240631163705,230.10388052213727,162.5266272189349,228.96169249125703,162.5266272189349C227.81950446037675,162.5266272189349,226.6773164294965,128.94674556213016,225.53512839861622,128.94674556213016C224.39294036773597,128.94674556213016,223.2507523368557,145.06508875739644,222.10856430597545,145.06508875739644C220.9663762750952,145.06508875739644,219.82418824421495,128.94674556213016,218.6820002133347,128.94674556213016C217.53981218245445,128.94674556213016,216.39762415157418,137.90138067061142,215.25543612069393,141.03550295857988C214.11324808981368,144.16962524654832,212.97106005893343,145.0650887573965,211.82887202805318,147.75147928994085C210.68668399717293,150.43786982248523,209.54449596629266,154.69132149901378,208.4023079354124,157.15384615384613C207.26011990453216,159.61637080867848,206.11793187365188,162.5266272189349,204.97574384277164,162.5266272189349C203.8335558118914,162.5266272189349,202.69136778101114,154.46745562130178,201.5491797501309,154.46745562130178C200.40699171925064,154.46745562130178,199.26480368837036,159.84023668639054,198.12261565749012,159.84023668639054C196.98042762660984,159.84023668639054,195.8382395957296,150.4378698224852,194.6960515648493,150.4378698224852C193.55386353396906,150.4378698224852,192.41167550308882,152.00493096646946,191.26948747220857,153.1242603550296C190.12729944132832,154.24358974358975,188.98511141044804,157.15384615384613,187.8429233795678,157.15384615384613C186.70073534868754,157.15384615384613,185.5585473178073,124.9171597633136,184.41635928692705,124.9171597633136C183.2741712560468,124.9171597633136,182.13198322516652,147.75147928994082,180.98979519428627,150.4378698224852C179.84760716340602,153.12426035502958,178.70541913252575,154.46745562130178,177.5632311016455,154.46745562130178C176.42104307076525,154.46745562130178,175.278855039885,145.06508875739644,174.13666700900475,145.06508875739644C172.9944789781245,145.06508875739644,171.85229094724423,154.46745562130178,170.71010291636398,154.46745562130178C169.5679148854837,154.46745562130178,168.42572685460345,152.67652859960552,167.28353882372318,149.09467455621302C166.14135079284293,145.51282051282058,164.99916276196268,122.23076923076923,163.85697473108243,122.23076923076923C162.71478670020218,122.23076923076923,161.5725986693219,140.58777120315582,160.43041063844166,146.40828402366864C159.2882226075614,152.22879684418143,158.14603457668116,157.15384615384613,157.0038465458009,157.15384615384613C155.86165851492066,157.15384615384613,154.7194704840404,146.40828402366864,153.57728245316014,146.40828402366864C152.4350944222799,146.40828402366864,151.2929063913996,151.78106508875737,150.15071836051936,151.78106508875737C149.00853032963911,151.78106508875737,147.86634229875887,151.78106508875737,146.72415426787862,151.78106508875737C145.58196623699837,151.78106508875737,144.4397782061181,159.84023668639054,143.29759017523784,159.84023668639054C142.1554021443576,159.84023668639054,141.01321411347732,158.9447731755424,139.87102608259707,157.15384615384613C138.72883805171682,155.36291913214987,137.58665002083654,120.88757396449704,136.4444619899563,120.88757396449704C135.30227395907605,120.88757396449704,134.16008592819577,163.86982248520712,133.01789789731552,163.86982248520712C131.87570986643527,163.86982248520712,130.73352183555502,137.00591715976333,129.59133380467478,137.00591715976333C128.44914577379453,137.00591715976333,127.30695774291426,155.81065088757396,126.164769712034,155.81065088757396C125.02258168115375,155.81065088757396,123.88039365027349,147.75147928994085,122.73820561939324,147.75147928994085C121.59601758851298,147.75147928994085,120.45382955763273,157.15384615384613,119.31164152675247,157.15384615384613C118.16945349587222,157.15384615384613,117.02726546499196,130.28994082840237,115.88507743411171,130.28994082840237C114.74288940323144,130.28994082840237,113.6007013723512,135.4388560157791,112.45851334147093,138.3491124260355C111.31632531059068,141.2593688362919,110.17413727971042,143.49802761341226,109.03194924883017,147.75147928994085C107.88976121794991,152.00493096646946,106.74757318706966,163.86982248520712,105.6053851561894,163.86982248520712C104.46319712530915,163.86982248520712,103.32100909442889,161.18343195266274,102.17882106354864,155.81065088757396C101.03663303266838,150.43786982248517,99.89444500178813,126.2603550295858,98.75225697090787,126.2603550295858C97.61006894002762,126.2603550295858,96.46788090914735,127.60355029585799,95.3256928782671,130.28994082840237C94.18350484738684,132.97633136094674,93.0413168165066,145.0650887573965,91.89912878562633,147.75147928994085C90.75694075474608,150.4378698224852,89.61475272386582,151.78106508875737,88.47256469298557,151.78106508875737C87.33037666210532,151.78106508875737,86.18818863122506,151.33333333333331,85.04600060034481,150.4378698224852C83.90381256946455,149.54240631163708,82.7616245385843,122.23076923076923,81.61943650770404,122.23076923076923C80.47724847682377,122.23076923076923,79.33506044594353,124.46942800788953,78.19287241506326,128.94674556213016C77.05068438418301,133.42406311637077,75.90849635330275,155.81065088757396,74.7663083224225,155.81065088757396C73.62412029154225,155.81065088757396,72.48193226066199,120.88757396449704,71.33974422978174,120.88757396449704C70.19755619890148,120.88757396449704,69.05536816802123,143.72189349112426,67.91318013714097,143.72189349112426C66.77099210626072,143.72189349112426,65.62880407538046,142.37869822485206,64.48661604450021,139.69230769230768C63.344428013619954,137.00591715976327,62.20223998273969,115.51479289940828,61.060051951859435,115.51479289940828C59.91786392097918,115.51479289940828,58.775675890098924,128.4990138067061,57.63348785921867,132.97633136094674C56.49129982833841,137.4536489151874,55.34911179745816,139.02071005917162,54.2069237665779,142.3786982248521C53.064735735697646,145.73668639053255,51.92254770481739,149.99013806706117,50.780359673937134,153.1242603550296C49.63817164305688,156.25838264299804,48.49598361217662,161.18343195266272,47.35379558129637,161.18343195266272C46.21160755041611,161.18343195266272,45.069419519535856,160.2879684418146,43.9272314886556,158.49704142011836C42.785043457775345,156.70611439842213,41.64285542689509,139.69230769230768,40.50066739601483,139.69230769230768C39.35847936513458,139.69230769230768,38.21629133425433,159.84023668639054,37.07410330337407,159.84023668639054C35.93191527249382,159.84023668639054,34.78972724161356,151.7810650887574,33.64753921073331,149.09467455621302C32.50535117985305,146.40828402366864,31.36316314897279,145.06508875739644,30.220975118092536,143.72189349112426C29.07878708721228,142.3786982248521,27.936599056332025,141.03550295857988,26.79441102545177,141.03550295857988C25.652222994571513,141.03550295857988,24.510034963691258,143.05029585798817,23.367846932811002,146.40828402366864C22.225658901930746,149.7662721893491,21.083470871050494,157.3777120315582,19.94128284017024,161.18343195266272C18.799094809289983,164.98915187376724,17.656906778409727,169.24260355029585,16.51471874752947,169.24260355029585C15.372530716649216,169.24260355029585,14.230342685768958,165.66074950690336,13.088154654888703,158.49704142011836C11.945966624008447,151.33333333333337,10.803778593128193,113.94773175542407,9.661590562247937,76.56213017751477Z" id="calls_911" style="fill: rgb(102, 178, 244); opacity: 0.7; mix-blend-mode: normal;"/><path d="M9.661590562247937,213.5680473372781C10.803778593128193,220.28402366863907,11.945966624008447,227,13.088154654888703,227C14.230342685768958,227,15.372530716649216,222.97041420118344,16.51471874752947,222.97041420118344C17.656906778409727,222.97041420118344,18.799094809289983,222.97041420118344,19.94128284017024,222.97041420118344C21.083470871050494,222.97041420118344,22.225658901930746,221.62721893491124,23.367846932811002,221.62721893491124C24.510034963691258,221.62721893491124,25.652222994571513,223.64201183431953,26.79441102545177,224.31360946745562C27.936599056332025,224.9852071005917,29.07878708721228,225.65680473372782,30.220975118092536,225.65680473372782C31.36316314897279,225.65680473372782,32.50535117985305,218.94082840236686,33.64753921073331,218.94082840236686C34.78972724161356,218.94082840236686,35.93191527249382,224.31360946745562,37.07410330337407,224.31360946745562C38.21629133425433,224.31360946745562,39.35847936513458,224.31360946745562,40.50066739601483,224.31360946745562C41.64285542689509,224.31360946745562,42.785043457775345,218.94082840236686,43.9272314886556,218.94082840236686C45.069419519535856,218.94082840236686,46.21160755041611,225.65680473372782,47.35379558129637,225.65680473372782C48.49598361217662,225.65680473372782,49.63817164305688,225.20907297830374,50.780359673937134,224.31360946745562C51.92254770481739,223.4181459566075,53.064735735697646,220.28402366863907,54.2069237665779,220.28402366863907C55.34911179745816,220.28402366863907,56.49129982833841,222.29881656804736,57.63348785921867,222.97041420118344C58.775675890098924,223.64201183431953,59.91786392097918,223.64201183431953,61.060051951859435,224.31360946745562C62.20223998273969,224.9852071005917,63.344428013619954,227,64.48661604450021,227C65.62880407538046,227,66.77099210626072,225.20907297830374,67.91318013714097,224.31360946745562C69.05536816802123,223.4181459566075,70.19755619890148,221.62721893491124,71.33974422978174,221.62721893491124C72.48193226066199,221.62721893491124,73.62412029154225,225.65680473372782,74.7663083224225,225.65680473372782C75.90849635330275,225.65680473372782,77.05068438418301,221.62721893491124,78.19287241506326,221.62721893491124C79.33506044594353,221.62721893491124,80.47724847682377,225.65680473372782,81.61943650770404,225.65680473372782C82.7616245385843,225.65680473372782,83.90381256946455,222.97041420118344,85.04600060034481,222.97041420118344C86.18818863122506,222.97041420118344,87.33037666210532,225.65680473372782,88.47256469298557,225.65680473372782C89.61475272386582,225.65680473372782,90.75694075474608,223.64201183431953,91.89912878562633,222.97041420118344C93.0413168165066,222.29881656804736,94.18350484738684,221.62721893491124,95.3256928782671,221.62721893491124C96.46788090914735,221.62721893491124,97.61006894002762,221.62721893491124,98.75225697090787,221.62721893491124C99.89444500178813,221.62721893491124,101.03663303266838,222.97041420118344,102.17882106354864,222.97041420118344C103.32100909442889,222.97041420118344,104.46319712530915,222.97041420118344,105.6053851561894,222.97041420118344C106.74757318706966,222.97041420118344,107.88976121794991,225.65680473372782,109.03194924883017,225.65680473372782C110.17413727971042,225.65680473372782,111.31632531059068,222.7465483234714,112.45851334147093,221.62721893491124C113.6007013723512,220.50788954635107,114.74288940323144,218.94082840236686,115.88507743411171,218.94082840236686C117.02726546499196,218.94082840236686,118.16945349587222,225.65680473372782,119.31164152675247,225.65680473372782C120.45382955763273,225.65680473372782,121.59601758851298,220.28402366863907,122.73820561939324,220.28402366863907C123.88039365027349,220.28402366863907,125.02258168115375,225.65680473372782,126.164769712034,225.65680473372782C127.30695774291426,225.65680473372782,128.44914577379453,218.94082840236686,129.59133380467478,218.94082840236686C130.73352183555502,218.94082840236686,131.87570986643527,219.61242603550298,133.01789789731552,220.28402366863907C134.16008592819577,220.95562130177515,135.30227395907605,222.97041420118344,136.4444619899563,222.97041420118344C137.58665002083654,222.97041420118344,138.72883805171682,222.97041420118344,139.87102608259707,222.97041420118344C141.01321411347732,222.97041420118344,142.1554021443576,225.65680473372782,143.29759017523784,225.65680473372782C144.4397782061181,225.65680473372782,145.58196623699837,224.31360946745562,146.72415426787862,224.31360946745562C147.86634229875887,224.31360946745562,149.00853032963911,225.65680473372782,150.15071836051936,225.65680473372782C151.2929063913996,225.65680473372782,152.4350944222799,221.62721893491124,153.57728245316014,221.62721893491124C154.7194704840404,221.62721893491124,155.86165851492066,224.31360946745562,157.0038465458009,224.31360946745562C158.14603457668116,224.31360946745562,159.2882226075614,223.64201183431953,160.43041063844166,222.97041420118344C161.5725986693219,222.29881656804736,162.71478670020218,220.28402366863907,163.85697473108243,220.28402366863907C164.99916276196268,220.28402366863907,166.14135079284293,223.19428007889547,167.28353882372318,224.31360946745562C168.42572685460345,225.4329388560158,169.5679148854837,227,170.71010291636398,227C171.85229094724423,227,172.9944789781245,221.62721893491124,174.13666700900475,221.62721893491124C175.278855039885,221.62721893491124,176.42104307076525,223.4181459566075,177.5632311016455,224.31360946745562C178.70541913252575,225.20907297830374,179.84760716340602,227,180.98979519428627,227C182.13198322516652,227,183.2741712560468,221.1794871794872,184.41635928692705,220.28402366863907C185.5585473178073,219.38856015779092,186.70073534868754,218.94082840236686,187.8429233795678,218.94082840236686C188.98511141044804,218.94082840236686,190.12729944132832,222.07495069033533,191.26948747220857,222.97041420118344C192.41167550308882,223.86587771203156,193.55386353396906,224.31360946745562,194.6960515648493,224.31360946745562C195.8382395957296,224.31360946745562,196.98042762660984,222.97041420118344,198.12261565749012,222.97041420118344C199.26480368837036,222.97041420118344,200.40699171925064,225.65680473372782,201.5491797501309,225.65680473372782C202.69136778101114,225.65680473372782,203.8335558118914,221.62721893491124,204.97574384277164,221.62721893491124C206.11793187365188,221.62721893491124,207.26011990453216,222.5226824457594,208.4023079354124,222.97041420118344C209.54449596629266,223.4181459566075,210.68668399717293,223.64201183431953,211.82887202805318,224.31360946745562C212.97106005893343,224.9852071005917,214.11324808981368,227,215.25543612069393,227C216.39762415157418,227,217.53981218245445,222.97041420118344,218.6820002133347,222.97041420118344C219.82418824421495,222.97041420118344,220.9663762750952,224.98520710059174,222.10856430597545,225.65680473372782C223.2507523368557,226.3284023668639,224.39294036773597,227,225.53512839861622,227C226.6773164294965,227,227.81950446037675,226.55226824457594,228.96169249125703,225.65680473372782C230.10388052213727,224.76134122287974,231.24606855301752,222.7465483234714,232.38825658389777,221.62721893491124C233.53044461477802,220.50788954635107,234.6726326456583,218.94082840236686,235.81482067653855,218.94082840236686C236.9570087074188,218.94082840236686,238.09919673829907,220.28402366863907,239.24138476917932,220.28402366863907C240.38357280005957,220.28402366863907,241.52576083093982,214.9112426035503,242.66794886182007,214.9112426035503C243.8101368927003,214.9112426035503,244.9523249235806,218.94082840236686,246.09451295446084,218.94082840236686C247.2367009853411,218.94082840236686,248.37888901622134,218.94082840236686,249.52107704710158,218.94082840236686C250.66326507798183,218.94082840236686,251.8054531088621,222.97041420118344,252.94764113974236,222.97041420118344C254.0898291706226,222.97041420118344,255.23201720150288,222.0749506903353,256.37420523238313,221.62721893491124C257.5163932632634,221.17948717948718,258.65858129414363,221.17948717948718,259.8007693250239,220.28402366863907C260.9429573559042,219.38856015779095,262.0851453867844,216.25443786982248,263.2273334176647,216.25443786982248C264.36952144854496,216.25443786982248,265.5117094794252,223.41814595660748,266.65389751030546,224.31360946745562C267.7960855411857,225.20907297830377,268.93827357206595,225.65680473372782,270.0804616029462,225.65680473372782C271.22264963382645,225.65680473372782,272.3648376647067,223.64201183431953,273.507025695587,222.97041420118344C274.6492137264672,222.29881656804736,275.7914017573475,221.62721893491124,276.9335897882277,221.62721893491124C278.075777819108,221.62721893491124,279.2179658499882,224.31360946745562,280.3601538808685,224.31360946745562C281.5023419117488,224.31360946745562,282.644529942629,224.31360946745562,283.78671797350927,224.31360946745562C284.92890600438955,224.31360946745562,286.07109403526977,220.28402366863907,287.21328206615004,220.28402366863907C288.35547009703026,220.28402366863907,289.49765812791054,227,290.63984615879076,227C291.78203418967104,227,292.9242222205513,224.31360946745562,294.0664102514316,224.31360946745562C295.2085982823118,224.31360946745562,296.3507863131921,224.31360946745562,297.4929743440723,224.31360946745562C298.6351623749526,224.31360946745562,299.7773504058328,220.28402366863907,300.9195384367131,220.28402366863907C302.06172646759336,220.28402366863907,303.20391449847364,225.65680473372782,304.3461025293539,225.65680473372782C305.48829056023413,225.65680473372782,306.6304785911144,225.65680473372782,307.77266662199463,225.65680473372782C308.9148546528749,225.65680473372782,310.0570426837551,222.97041420118344,311.1992307146354,222.97041420118344C312.3414187455157,222.97041420118344,313.4836067763959,222.97041420118344,314.6257948072762,222.97041420118344C315.76798283815646,222.97041420118344,316.9101708690367,220.28402366863907,318.05235889991695,220.28402366863907C319.1945469307972,220.28402366863907,320.33673496167745,224.31360946745562,321.47892299255767,224.31360946745562C322.62111102343795,224.31360946745562,323.7632990543182,218.94082840236686,324.9054870851985,218.94082840236686C326.0476751160787,218.94082840236686,327.189863146959,220.73175542406312,328.3320511778392,221.62721893491124C329.4742392087195,222.5226824457594,330.6164272395997,224.31360946745562,331.75861527048,224.31360946745562C332.90080330136027,224.31360946745562,334.0429913322405,220.28402366863907,335.18517936312077,220.28402366863907C336.32736739400104,220.28402366863907,337.46955542488126,220.95562130177515,338.61174345576154,221.62721893491124C339.7539314866418,222.29881656804733,340.89611951752204,224.31360946745562,342.0383075484023,224.31360946745562C343.18049557928254,224.31360946745562,344.3226836101628,218.94082840236686,345.46487164104303,218.94082840236686C346.6070596719233,218.94082840236686,347.7492477028036,224.31360946745562,348.89143573368386,224.31360946745562C350.0336237645641,224.31360946745562,351.17581179544436,224.31360946745562,352.3179998263246,224.31360946745562C353.46018785720486,224.31360946745562,354.6023758880851,217.5976331360947,355.74456391896535,217.5976331360947C356.88675194984563,217.5976331360947,358.0289399807259,223.41814595660745,359.1711280116062,224.31360946745562C360.3133160424864,225.20907297830377,361.4555040733667,225.20907297830377,362.5976921042469,225.65680473372782C363.7398801351272,226.10453648915188,364.8820681660074,227,366.0242561968877,227C367.16644422776795,227,368.3086322586482,218.94082840236686,369.45082028952845,218.94082840236686C370.5930083204087,218.94082840236686,371.73519635128895,225.65680473372782,372.8773843821692,225.65680473372782C374.01957241304945,225.65680473372782,375.1617604439297,225.20907297830377,376.30394847480994,224.31360946745562C377.4461365056902,223.41814595660745,378.5883245365705,217.5976331360947,379.7305125674508,217.5976331360947C380.872700598331,217.5976331360947,382.01488862921127,224.31360946745562,383.1570766600915,224.31360946745562C384.29926469097177,224.31360946745562,385.441452721852,220.28402366863907,386.58364075273226,220.28402366863907C387.7258287836125,220.28402366863907,388.86801681449276,220.28402366863907,390.010204845373,220.28402366863907C391.15239287625326,220.28402366863907,392.29458090713354,221.62721893491124,393.4367689380138,221.62721893491124C394.5789569688941,221.62721893491124,395.7211449997743,218.94082840236686,396.8633330306546,218.94082840236686C398.0055210615348,218.94082840236686,399.1477090924151,222.97041420118344,400.2898971232953,222.97041420118344C401.4320851541756,222.97041420118344,402.57427318505586,221.62721893491124,403.71646121593614,221.62721893491124C404.85864924681636,221.62721893491124,406.00083727769663,221.62721893491124,407.14302530857685,221.62721893491124C408.28521333945713,221.62721893491124,409.42740137033735,222.29881656804736,410.5695894012176,222.97041420118344C411.7117774320979,223.64201183431953,412.8539654629781,225.65680473372782,413.9961534938584,225.65680473372782C415.1383415247387,225.65680473372782,416.2805295556189,225.65680473372782,417.4227175864992,225.65680473372782C418.5649056173794,225.65680473372782,419.7070936482597,218.4930966469428,420.8492816791399,217.5976331360947C421.99146971002017,216.70216962524654,423.13365774090045,216.70216962524654,424.2758457717807,216.25443786982248C425.418033802661,215.80670611439842,426.5602218335412,214.9112426035503,427.7024098644215,214.9112426035503C428.8445978953017,214.9112426035503,429.986785926182,216.70216962524657,431.1289739570622,217.5976331360947C432.2711619879425,218.49309664694283,433.41335001882277,218.94082840236683,434.55553804970305,220.28402366863907C435.69772608058327,221.62721893491124,436.83991411146354,225.65680473372782,437.98210214234376,225.65680473372782C439.12429017322404,225.65680473372782,440.26647820410426,224.7613412228797,441.40866623498454,222.97041420118344C442.55085426586476,221.1794871794872,443.69304229674503,214.9112426035503,444.83523032762525,214.9112426035503C445.97741835850553,214.9112426035503,447.1196063893858,222.97041420118344,448.2617944202661,222.97041420118344C449.40398245114636,222.97041420118344,450.5461704820266,222.97041420118344,451.68835851290686,222.97041420118344C452.8305465437871,222.97041420118344,453.97273457466736,224.31360946745562,455.1149226055476,224.31360946745562C456.25711063642785,224.31360946745562,457.39929866730813,223.4181459566075,458.5414866981884,222.97041420118344C459.6836747290686,222.5226824457594,460.8258627599489,221.62721893491124,461.9680507908291,221.62721893491124C463.1102388217094,221.62721893491124,464.2524268525896,221.62721893491124,465.3946148834699,221.62721893491124C466.5368029143502,221.62721893491124,467.6789909452304,220.95562130177515,468.8211789761107,220.28402366863907C469.96336700699095,219.61242603550298,471.10555503787117,217.5976331360947,472.24774306875145,217.5976331360947C473.38993109963167,217.5976331360947,474.53211913051194,218.04536489151874,475.67430716139216,218.94082840236686C476.81649519227244,219.836291913215,477.9586832231527,224.31360946745562,479.100871254033,224.31360946745562C480.2430592849133,224.31360946745562,481.3852473157935,217.5976331360947,482.52743534667377,217.5976331360947C483.669623377554,217.5976331360947,484.81181140843427,225.65680473372782,485.9539994393145,225.65680473372782C487.09618747019476,225.65680473372782,488.23837550107504,222.97041420118344,489.3805635319553,222.97041420118344C490.52275156283554,222.97041420118344,491.6649395937158,222.97041420118344,492.80712762459603,222.97041420118344C493.9493156554763,222.97041420118344,495.09150368635653,222.97041420118344,496.2336917172368,222.97041420118344C497.37587974811703,222.97041420118344,498.5180677789973,216.25443786982248,499.6602558098775,216.25443786982248C500.8024438407578,216.25443786982248,501.9446318716381,218.94082840236686,503.08681990251836,218.94082840236686C504.2290079333986,218.94082840236686,505.37119596427885,217.5976331360947,506.5133839951591,217.5976331360947C507.65557202603935,217.5976331360947,508.79776005691957,221.62721893491124,509.93994808779985,221.62721893491124C511.0821361186801,221.62721893491124,512.2243241495604,221.17948717948718,513.3665121804406,220.28402366863907C514.5087002113208,219.38856015779095,515.6508882422012,214.9112426035503,516.7930762730814,209.53846153846155C517.9352643039616,204.1656804733728,519.077452334842,188.94280078895463,520.2196403657222,188.0473372781065C521.3618283966024,187.1518737672584,522.5040164274827,186.70414201183434,523.646204458363,186.70414201183434C524.7883924892432,186.70414201183434,525.9305805201235,197.67357001972388,527.0727685510037,201.4792899408284C528.2149565818839,205.28500986193293,529.3571446127643,209.53846153846155,530.4993326436445,209.53846153846155C531.6415206745247,209.53846153846155,532.783708705405,208.19526627218934,533.9258967362853,208.19526627218934C535.0680847671655,208.19526627218934,536.2102727980458,209.53846153846155,537.352460828926,212.22485207100593C538.4946488598063,214.91124260355022,539.6368368906865,225.65680473372782,540.7790249215667,225.65680473372782C541.921212952447,225.65680473372782,543.0634009833273,220.28402366863907,544.2055890142076,220.28402366863907C545.3477770450878,220.28402366863907,546.4899650759681,221.62721893491124,547.6321531068484,221.62721893491124C548.7743411377286,221.62721893491124,549.9165291686088,220.95562130177515,551.058717199489,220.28402366863907C552.2009052303692,219.61242603550298,553.3430932612496,218.26923076923077,554.4852812921298,217.5976331360947C555.62746932301,216.9260355029586,556.7696573538904,216.25443786982248,557.9118453847706,216.25443786982248C559.0540334156508,216.25443786982248,560.1962214465311,218.26923076923077,561.3384094774113,220.28402366863907" stroke="rgb(102,178,244)" id="fires" style="stroke-width: 1; stroke-linejoin: miter; stroke-linecap: butt; fill: none; mix-blend-mode: normal;"/><g id="x-svg axis-svg" transform="translate(0, 227)"><line x1="0" x2="571" y1="0" y2="0" style="stroke: rgb(51, 51, 51); stroke-width: 1;"/></g><g id="free-texts-svg"><text transform="translate(501.5133839951591, 81.93491124260353) translate(-75.00003051757812, -10) translate(75.00003051757812, 0)" fill="rgb(69, 69, 69)" style="text-anchor: end; font-family: BentonSans; font-weight: 400; font-size: 10px;"><tspan x="0" dy="10">Floyd's death </tspan></text></g></g></g><rect width="14" height="14" transform="translate(0, 80.40625)" fill="rgb(255,127,14)" id="fires" style="opacity: 0.7; fill: rgb(255, 127, 14);"/><g id="fires-svg"><text transform="translate(18, 81.234375)" fill="rgb(51,51,51)" style="font-family: BentonSans; font-weight: 400; font-size: 12px;"><tspan x="0" dy="12">Confirmed fires</tspan></text></g><rect width="14" height="14" transform="translate(113, 80.40625)" fill="rgb(102,178,244)" id="calls_911" style="opacity: 0.7; fill: rgb(102, 178, 244);"/><g id="calls_911-svg"><text transform="translate(131, 81.234375)" fill="rgb(51,51,51)" style="font-family: BentonSans; font-weight: 400; font-size: 12px;"><tspan x="0" dy="12">Police incidents</tspan></text></g></g><g id="after-body-svg"/><g id="above-footer-svg"/><g id="footer-svg"><g id="footer-inner-svg"><g id="footer-main-svg"><g id="text-svg"><text transform="translate(0, 382)" fill="rgb(136,136,136)" style="font-family: BentonSans; font-weight: 400; font-size: 11px;"><tspan x="0" dy="11">Chart:</tspan></text><text transform="translate(34, 382)" fill="rgb(136,136,136)" style="font-family: BentonSans; font-weight: 400; font-size: 11px;"><tspan x="0" dy="11">Jeff Hargarten, Star Tribune</tspan></text></g><g id="text-svg"><text transform="translate(174, 382)" fill="rgb(136,136,136)" style="font-family: BentonSans; font-weight: 400; font-size: 11px;"><tspan x="0" dy="11"></tspan></text></g><g id="text-svg"><text transform="translate(185, 382)" fill="rgb(136,136,136)" style="font-family: BentonSans; font-weight: 400; font-size: 11px;"><tspan x="0" dy="11">Source:</tspan></text><text transform="translate(226, 382)" fill="rgb(136,136,136)" style="font-family: BentonSans; font-weight: 400; font-size: 11px;"><tspan x="0" dy="11">City of Minneapolis</tspan></text></g></g></g></g><g id="below-footer-svg"/></g></svg>