<svg xmlns:xlink="http://www.w3.org/1999/xlink" xmlns="http://www.w3.org/2000/svg" id="exportSvg" width="600" height="400"><defs/><g><g id="header-svg"><g id="text-svg"><text transform="translate(0, -2)" fill="rgb(51,51,51)" style="font-family: BentonSans; font-weight: 700; font-size: 19px;"><tspan x="0" dy="19">A frenzy of Minneapolis police and fire activity</tspan></text></g><g id="text-svg"><text transform="translate(0, 31)" fill="rgb(51,51,51)" style="font-family: BentonSans; font-weight: 400; font-size: 15px;"><tspan x="0" dy="15">Police incidents and confirmed fires increased dramatically during the immediate </tspan></text><text transform="translate(0, 51)" fill="rgb(51,51,51)" style="font-family: BentonSans; font-weight: 400; font-size: 15px;"><tspan x="0" dy="15">unrest after Floyd's death, but have since dropped.</tspan></text></g></g><g id="chart-svg"><g id="group-svg" clip-path="url(#rect-mask-group-0)" transform="translate(0, 80)"><clipPath id="rect-mask-group-0"><rect x="0" y="0" width="600" height="279"/></clipPath><g id="group-svg" transform="translate(26, 34)"><g id="x-svg ticks-svg" transform="translate(0, 232)"><g transform="translate(9.661590562247937, 0)"><text transform="translate(-10, -12) translate(10, 11)" fill="rgb(133, 133, 133)" style="text-anchor: middle; font-family: BentonSans; font-weight: 400; font-size: 12px;"><tspan x="0" dy="12">Jan</tspan></text></g><g transform="translate(115.88507743411171, 0)"><text transform="translate(-10, -12) translate(10, 11)" fill="rgb(133, 133, 133)" style="text-anchor: middle; font-family: BentonSans; font-weight: 400; font-size: 12px;"><tspan x="0" dy="12">Feb</tspan></text></g><g transform="translate(215.25543612069393, 0)"><text transform="translate(-11.5, -12) translate(11.5, 11)" fill="rgb(133, 133, 133)" style="text-anchor: middle; font-family: BentonSans; font-weight: 400; font-size: 12px;"><tspan x="0" dy="12">Mar</tspan></text></g><g transform="translate(321.47892299255767, 0)"><text transform="translate(-10, -12) translate(10, 11)" fill="rgb(133, 133, 133)" style="text-anchor: middle; font-family: BentonSans; font-weight: 400; font-size: 12px;"><tspan x="0" dy="12">Apr</tspan></text></g><g transform="translate(424.2758457717807, 0)"><text transform="translate(-12.5, -12) translate(12.5, 11)" fill="rgb(133, 133, 133)" style="text-anchor: middle; font-family: BentonSans; font-weight: 400; font-size: 12px;"><tspan x="0" dy="12">May</tspan></text></g><g transform="translate(530.4993326436445, 0)"><text transform="translate(-10, -12) translate(10, 11)" fill="rgb(133, 133, 133)" style="text-anchor: middle; font-family: BentonSans; font-weight: 400; font-size: 12px;"><tspan x="0" dy="12">Jun</tspan></text></g></g><g id="free-range-svg"><rect width="1" height="227" transform="translate(504.84055444159907, 0)" fill="rgb(51,51,51)" style="opacity: 0.72; fill: rgb(51, 51, 51);"/></g><g id="y-grid-svg"><g id="tick-svg tick-major-svg" transform="translate(0, 227)"><text transform="translate(-4, 4) translate(-8, -12) translate(8, 0)" fill="rgb(133, 133, 133)" style="text-anchor: end; font-family: BentonSans; font-weight: 400; font-size: 12px;"><tspan x="0" dy="12">0</tspan></text></g><g transform="translate(0, 198.0828025477707)"><line x1="0" x2="571" y1="0" y2="0" style="stroke: rgb(238, 238, 238); stroke-width: 1;"/><text transform="translate(-4, 4) translate(-15, -12) translate(15, 0)" fill="rgb(133, 133, 133)" style="text-anchor: end; font-family: BentonSans; font-weight: 400; font-size: 12px;"><tspan x="0" dy="12">20</tspan></text></g><g transform="translate(0, 169.1656050955414)"><line x1="0" x2="571" y1="0" y2="0" style="stroke: rgb(238, 238, 238); stroke-width: 1;"/><text transform="translate(-4, 4) translate(-15, -12) translate(15, 0)" fill="rgb(133, 133, 133)" style="text-anchor: end; font-family: BentonSans; font-weight: 400; font-size: 12px;"><tspan x="0" dy="12">40</tspan></text></g><g transform="translate(0, 140.24840764331208)"><line x1="0" x2="571" y1="0" y2="0" style="stroke: rgb(238, 238, 238); stroke-width: 1;"/><text transform="translate(-4, 4) translate(-15, -12) translate(15, 0)" fill="rgb(133, 133, 133)" style="text-anchor: end; font-family: BentonSans; font-weight: 400; font-size: 12px;"><tspan x="0" dy="12">60</tspan></text></g><g transform="translate(0, 111.3312101910828)"><line x1="0" x2="571" y1="0" y2="0" style="stroke: rgb(238, 238, 238); stroke-width: 1;"/><text transform="translate(-4, 4) translate(-15, -12) translate(15, 0)" fill="rgb(133, 133, 133)" style="text-anchor: end; font-family: BentonSans; font-weight: 400; font-size: 12px;"><tspan x="0" dy="12">80</tspan></text></g><g transform="translate(0, 82.4140127388535)"><line x1="0" x2="571" y1="0" y2="0" style="stroke: rgb(238, 238, 238); stroke-width: 1;"/><text transform="translate(-4, 4) translate(-21, -12) translate(21, 0)" fill="rgb(133, 133, 133)" style="text-anchor: end; font-family: BentonSans; font-weight: 400; font-size: 12px;"><tspan x="0" dy="12">100</tspan></text></g><g transform="translate(0, 53.496815286624184)"><line x1="0" x2="571" y1="0" y2="0" style="stroke: rgb(238, 238, 238); stroke-width: 1;"/><text transform="translate(-4, 4) translate(-20, -12) translate(20, 0)" fill="rgb(133, 133, 133)" style="text-anchor: end; font-family: BentonSans; font-weight: 400; font-size: 12px;"><tspan x="0" dy="12">120</tspan></text></g><g transform="translate(0, 24.579617834394895)"><line x1="0" x2="571" y1="0" y2="0" style="stroke: rgb(238, 238, 238); stroke-width: 1;"/><text transform="translate(-4, 4) translate(-20, -12) translate(20, 0)" fill="rgb(133, 133, 133)" style="text-anchor: end; font-family: BentonSans; font-weight: 400; font-size: 12px;"><tspan x="0" dy="12">140</tspan></text></g></g><path d="M9.661590562247937,227C10.803778593128193,227,11.945966624008447,227,13.088154654888703,227C14.230342685768958,227,15.372530716649216,227,16.51471874752947,227C17.656906778409727,227,18.799094809289983,227,19.94128284017024,227C21.083470871050494,227,22.225658901930746,227,23.367846932811002,227C24.510034963691258,227,25.652222994571513,227,26.79441102545177,227C27.936599056332025,227,29.07878708721228,227,30.220975118092536,227C31.36316314897279,227,32.50535117985305,227,33.64753921073331,227C34.78972724161356,227,35.93191527249382,227,37.07410330337407,227C38.21629133425433,227,39.35847936513458,227,40.50066739601483,227C41.64285542689509,227,42.785043457775345,227,43.9272314886556,227C45.069419519535856,227,46.21160755041611,227,47.35379558129637,227C48.49598361217662,227,49.63817164305688,227,50.780359673937134,227C51.92254770481739,227,53.064735735697646,227,54.2069237665779,227C55.34911179745816,227,56.49129982833841,227,57.63348785921867,227C58.775675890098924,227,59.91786392097918,227,61.060051951859435,227C62.20223998273969,227,63.344428013619954,227,64.48661604450021,227C65.62880407538046,227,66.77099210626072,227,67.91318013714097,227C69.05536816802123,227,70.19755619890148,227,71.33974422978174,227C72.48193226066199,227,73.62412029154225,227,74.7663083224225,227C75.90849635330275,227,77.05068438418301,227,78.19287241506326,227C79.33506044594353,227,80.47724847682377,227,81.61943650770404,227C82.7616245385843,227,83.90381256946455,227,85.04600060034481,227C86.18818863122506,227,87.33037666210532,227,88.47256469298557,227C89.61475272386582,227,90.75694075474608,227,91.89912878562633,227C93.0413168165066,227,94.18350484738684,227,95.3256928782671,227C96.46788090914735,227,97.61006894002762,227,98.75225697090787,227C99.89444500178813,227,101.03663303266838,227,102.17882106354864,227C103.32100909442889,227,104.46319712530915,227,105.6053851561894,227C106.74757318706966,227,107.88976121794991,227,109.03194924883017,227C110.17413727971042,227,111.31632531059068,227,112.45851334147093,227C113.6007013723512,227,114.74288940323144,227,115.88507743411171,227C117.02726546499196,227,118.16945349587222,227,119.31164152675247,227C120.45382955763273,227,121.59601758851298,227,122.73820561939324,227C123.88039365027349,227,125.02258168115375,227,126.164769712034,227C127.30695774291426,227,128.44914577379453,227,129.59133380467478,227C130.73352183555502,227,131.87570986643527,227,133.01789789731552,227C134.16008592819577,227,135.30227395907605,227,136.4444619899563,227C137.58665002083654,227,138.72883805171682,227,139.87102608259707,227C141.01321411347732,227,142.1554021443576,227,143.29759017523784,227C144.4397782061181,227,145.58196623699837,227,146.72415426787862,227C147.86634229875887,227,149.00853032963911,227,150.15071836051936,227C151.2929063913996,227,152.4350944222799,227,153.57728245316014,227C154.7194704840404,227,155.86165851492066,227,157.0038465458009,227C158.14603457668116,227,159.2882226075614,227,160.43041063844166,227C161.5725986693219,227,162.71478670020218,227,163.85697473108243,227C164.99916276196268,227,166.14135079284293,227,167.28353882372318,227C168.42572685460345,227,169.5679148854837,227,170.71010291636398,227C171.85229094724423,227,172.9944789781245,227,174.13666700900475,227C175.278855039885,227,176.42104307076525,227,177.5632311016455,227C178.70541913252575,227,179.84760716340602,227,180.98979519428627,227C182.13198322516652,227,183.2741712560468,227,184.41635928692705,227C185.5585473178073,227,186.70073534868754,227,187.8429233795678,227C188.98511141044804,227,190.12729944132832,227,191.26948747220857,227C192.41167550308882,227,193.55386353396906,227,194.6960515648493,227C195.8382395957296,227,196.98042762660984,227,198.12261565749012,227C199.26480368837036,227,200.40699171925064,227,201.5491797501309,227C202.69136778101114,227,203.8335558118914,227,204.97574384277164,227C206.11793187365188,227,207.26011990453216,227,208.4023079354124,227C209.54449596629266,227,210.68668399717293,227,211.82887202805318,227C212.97106005893343,227,214.11324808981368,227,215.25543612069393,227C216.39762415157418,227,217.53981218245445,227,218.6820002133347,227C219.82418824421495,227,220.9663762750952,227,222.10856430597545,227C223.2507523368557,227,224.39294036773597,227,225.53512839861622,227C226.6773164294965,227,227.81950446037675,227,228.96169249125703,227C230.10388052213727,227,231.24606855301752,227,232.38825658389777,227C233.53044461477802,227,234.6726326456583,227,235.81482067653855,227C236.9570087074188,227,238.09919673829907,227,239.24138476917932,227C240.38357280005957,227,241.52576083093982,227,242.66794886182007,227C243.8101368927003,227,244.9523249235806,227,246.09451295446084,227C247.2367009853411,227,248.37888901622134,227,249.52107704710158,227C250.66326507798183,227,251.8054531088621,227,252.94764113974236,227C254.0898291706226,227,255.23201720150288,227,256.37420523238313,227C257.5163932632634,227,258.65858129414363,227,259.8007693250239,227C260.9429573559042,227,262.0851453867844,227,263.2273334176647,227C264.36952144854496,227,265.5117094794252,227,266.65389751030546,227C267.7960855411857,227,268.93827357206595,227,270.0804616029462,227C271.22264963382645,227,272.3648376647067,227,273.507025695587,227C274.6492137264672,227,275.7914017573475,227,276.9335897882277,227C278.075777819108,227,279.2179658499882,227,280.3601538808685,227C281.5023419117488,227,282.644529942629,227,283.78671797350927,227C284.92890600438955,227,286.07109403526977,227,287.21328206615004,227C288.35547009703026,227,289.49765812791054,227,290.63984615879076,227C291.78203418967104,227,292.9242222205513,227,294.0664102514316,227C295.2085982823118,227,296.3507863131921,227,297.4929743440723,227C298.6351623749526,227,299.7773504058328,227,300.9195384367131,227C302.06172646759336,227,303.20391449847364,227,304.3461025293539,227C305.48829056023413,227,306.6304785911144,227,307.77266662199463,227C308.9148546528749,227,310.0570426837551,227,311.1992307146354,227C312.3414187455157,227,313.4836067763959,227,314.6257948072762,227C315.76798283815646,227,316.9101708690367,227,318.05235889991695,227C319.1945469307972,227,320.33673496167745,227,321.47892299255767,227C322.62111102343795,227,323.7632990543182,227,324.9054870851985,227C326.0476751160787,227,327.189863146959,227,328.3320511778392,227C329.4742392087195,227,330.6164272395997,227,331.75861527048,227C332.90080330136027,227,334.0429913322405,227,335.18517936312077,227C336.32736739400104,227,337.46955542488126,227,338.61174345576154,227C339.7539314866418,227,340.89611951752204,227,342.0383075484023,227C343.18049557928254,227,344.3226836101628,227,345.46487164104303,227C346.6070596719233,227,347.7492477028036,227,348.89143573368386,227C350.0336237645641,227,351.17581179544436,227,352.3179998263246,227C353.46018785720486,227,354.6023758880851,227,355.74456391896535,227C356.88675194984563,227,358.0289399807259,227,359.1711280116062,227C360.3133160424864,227,361.4555040733667,227,362.5976921042469,227C363.7398801351272,227,364.8820681660074,227,366.0242561968877,227C367.16644422776795,227,368.3086322586482,227,369.45082028952845,227C370.5930083204087,227,371.73519635128895,227,372.8773843821692,227C374.01957241304945,227,375.1617604439297,227,376.30394847480994,227C377.4461365056902,227,378.5883245365705,227,379.7305125674508,227C380.872700598331,227,382.01488862921127,227,383.1570766600915,227C384.29926469097177,227,385.441452721852,227,386.58364075273226,227C387.7258287836125,227,388.86801681449276,227,390.010204845373,227C391.15239287625326,227,392.29458090713354,227,393.4367689380138,227C394.5789569688941,227,395.7211449997743,227,396.8633330306546,227C398.0055210615348,227,399.1477090924151,227,400.2898971232953,227C401.4320851541756,227,402.57427318505586,227,403.71646121593614,227C404.85864924681636,227,406.00083727769663,227,407.14302530857685,227C408.28521333945713,227,409.42740137033735,227,410.5695894012176,227C411.7117774320979,227,412.8539654629781,227,413.9961534938584,227C415.1383415247387,227,416.2805295556189,227,417.4227175864992,227C418.5649056173794,227,419.7070936482597,227,420.8492816791399,227C421.99146971002017,227,423.13365774090045,227,424.2758457717807,227C425.418033802661,227,426.5602218335412,227,427.7024098644215,227C428.8445978953017,227,429.986785926182,227,431.1289739570622,227C432.2711619879425,227,433.41335001882277,227,434.55553804970305,227C435.69772608058327,227,436.83991411146354,227,437.98210214234376,227C439.12429017322404,227,440.26647820410426,227,441.40866623498454,227C442.55085426586476,227,443.69304229674503,227,444.83523032762525,227C445.97741835850553,227,447.1196063893858,227,448.2617944202661,227C449.40398245114636,227,450.5461704820266,227,451.68835851290686,227C452.8305465437871,227,453.97273457466736,227,455.1149226055476,227C456.25711063642785,227,457.39929866730813,227,458.5414866981884,227C459.6836747290686,227,460.8258627599489,227,461.9680507908291,227C463.1102388217094,227,464.2524268525896,227,465.3946148834699,227C466.5368029143502,227,467.6789909452304,227,468.8211789761107,227C469.96336700699095,227,471.10555503787117,227,472.24774306875145,227C473.38993109963167,227,474.53211913051194,227,475.67430716139216,227C476.81649519227244,227,477.9586832231527,227,479.100871254033,227C480.2430592849133,227,481.3852473157935,227,482.52743534667377,227C483.669623377554,227,484.81181140843427,227,485.9539994393145,227C487.09618747019476,227,488.23837550107504,227,489.3805635319553,227C490.52275156283554,227,491.6649395937158,227,492.80712762459603,227C493.9493156554763,227,495.09150368635653,227,496.2336917172368,227C497.37587974811703,227,498.5180677789973,227,499.6602558098775,227C500.8024438407578,227,501.9446318716381,227,503.08681990251836,227C504.2290079333986,227,505.37119596427885,227,506.5133839951591,227C507.65557202603935,227,508.79776005691957,227,509.93994808779985,227C511.0821361186801,227,512.2243241495604,227,513.3665121804406,227C514.5087002113208,227,515.6508882422012,227,516.7930762730814,227C517.9352643039616,227,519.077452334842,227,520.2196403657222,227C521.3618283966024,227,522.5040164274827,227,523.646204458363,227C524.7883924892432,227,525.9305805201235,227,527.0727685510037,227C528.2149565818839,227,529.3571446127643,227,530.4993326436445,227C531.6415206745247,227,532.783708705405,227,533.9258967362853,227C535.0680847671655,227,536.2102727980458,227,537.352460828926,227C538.4946488598063,227,539.6368368906865,227,540.7790249215667,227C541.921212952447,227,543.0634009833273,227,544.2055890142076,227C545.3477770450878,227,546.4899650759681,227,547.6321531068484,227C548.7743411377286,227,549.9165291686088,227,551.058717199489,227C552.2009052303692,227,553.3430932612496,227,554.4852812921298,227C555.62746932301,227,556.7696573538904,227,557.9118453847706,227C559.0540334156508,227,560.1962214465311,227,561.3384094774113,227L561.3384094774113,227C560.1962214465311,227,559.0540334156508,227,557.9118453847706,227C556.7696573538904,227,555.62746932301,227,554.4852812921298,227C553.3430932612496,227,552.2009052303692,219.77070063694268,551.058717199489,219.77070063694268C549.9165291686088,219.77070063694268,548.7743411377286,221.21656050955414,547.6321531068484,221.21656050955414C546.4899650759681,221.21656050955414,545.3477770450878,219.77070063694268,544.2055890142076,219.77070063694268C543.0634009833273,219.77070063694268,541.921212952447,225.55414012738854,540.7790249215667,225.55414012738854C539.6368368906865,225.55414012738854,538.4946488598063,213.98726114649673,537.352460828926,211.0955414012739C536.2102727980458,208.20382165605096,535.0680847671655,206.7579617834395,533.9258967362853,206.7579617834395C532.783708705405,206.7579617834395,531.6415206745247,208.20382165605096,530.4993326436445,208.20382165605096C529.3571446127643,208.20382165605096,528.2149565818839,203.62526539278133,527.0727685510037,199.52866242038218C525.9305805201235,195.43205944798302,524.7883924892432,183.62420382165604,523.646204458363,183.62420382165604C522.5040164274827,183.62420382165604,521.3618283966024,184.10615711252652,520.2196403657222,185.0700636942675C519.077452334842,186.0339702760085,517.9352643039616,202.4203821656051,516.7930762730814,208.20382165605096C515.6508882422012,213.98726114649682,514.5087002113208,218.8067940552017,513.3665121804406,219.77070063694268C512.2243241495604,220.73460721868366,511.0821361186801,221.21656050955414,509.93994808779985,221.21656050955414C508.79776005691957,221.21656050955414,507.65557202603935,216.87898089171975,506.5133839951591,216.87898089171975C505.37119596427885,216.87898089171975,504.2290079333986,218.3248407643312,503.08681990251836,218.3248407643312C501.9446318716381,218.3248407643312,500.8024438407578,215.43312101910828,499.6602558098775,215.43312101910828C498.5180677789973,215.43312101910828,497.37587974811703,222.6624203821656,496.2336917172368,222.6624203821656C495.09150368635653,222.6624203821656,493.9493156554763,222.6624203821656,492.80712762459603,222.6624203821656C491.6649395937158,222.6624203821656,490.52275156283554,222.6624203821656,489.3805635319553,222.6624203821656C488.23837550107504,222.6624203821656,487.09618747019476,225.55414012738854,485.9539994393145,225.55414012738854C484.81181140843427,225.55414012738854,483.669623377554,216.87898089171975,482.52743534667377,216.87898089171975C481.3852473157935,216.87898089171975,480.2430592849133,224.10828025477707,479.100871254033,224.10828025477707C477.9586832231527,224.10828025477707,476.81649519227244,219.28874734607223,475.67430716139216,218.3248407643312C474.53211913051194,217.36093418259023,473.38993109963167,216.87898089171975,472.24774306875145,216.87898089171975C471.10555503787117,216.87898089171975,469.96336700699095,219.04777070063693,468.8211789761107,219.77070063694268C467.6789909452304,220.49363057324842,466.5368029143502,221.21656050955414,465.3946148834699,221.21656050955414C464.2524268525896,221.21656050955414,463.1102388217094,221.21656050955414,461.9680507908291,221.21656050955414C460.8258627599489,221.21656050955414,459.6836747290686,222.18046709129513,458.5414866981884,222.6624203821656C457.39929866730813,223.1443736730361,456.25711063642785,224.10828025477707,455.1149226055476,224.10828025477707C453.97273457466736,224.10828025477707,452.8305465437871,222.6624203821656,451.68835851290686,222.6624203821656C450.5461704820266,222.6624203821656,449.40398245114636,222.6624203821656,448.2617944202661,222.6624203821656C447.1196063893858,222.6624203821656,445.97741835850553,213.98726114649682,444.83523032762525,213.98726114649682C443.69304229674503,213.98726114649682,442.55085426586476,220.7346072186837,441.40866623498454,222.6624203821656C440.26647820410426,224.59023354564755,439.12429017322404,225.55414012738854,437.98210214234376,225.55414012738854C436.83991411146354,225.55414012738854,435.69772608058327,221.21656050955414,434.55553804970305,219.77070063694268C433.41335001882277,218.32484076433119,432.2711619879425,217.84288747346073,431.1289739570622,216.87898089171975C429.986785926182,215.9150743099788,428.8445978953017,213.98726114649682,427.7024098644215,213.98726114649682C426.5602218335412,213.98726114649682,425.418033802661,214.9511677282378,424.2758457717807,215.43312101910828C423.13365774090045,215.91507430997876,421.99146971002017,215.91507430997876,420.8492816791399,216.87898089171975C419.7070936482597,217.8428874734607,418.5649056173794,225.55414012738854,417.4227175864992,225.55414012738854C416.2805295556189,225.55414012738854,415.1383415247387,225.55414012738854,413.9961534938584,225.55414012738854C412.8539654629781,225.55414012738854,411.7117774320979,223.38535031847135,410.5695894012176,222.6624203821656C409.42740137033735,221.93949044585986,408.28521333945713,221.21656050955414,407.14302530857685,221.21656050955414C406.00083727769663,221.21656050955414,404.85864924681636,221.21656050955414,403.71646121593614,221.21656050955414C402.57427318505586,221.21656050955414,401.4320851541756,222.6624203821656,400.2898971232953,222.6624203821656C399.1477090924151,222.6624203821656,398.0055210615348,218.3248407643312,396.8633330306546,218.3248407643312C395.7211449997743,218.3248407643312,394.5789569688941,221.21656050955414,393.4367689380138,221.21656050955414C392.29458090713354,221.21656050955414,391.15239287625326,219.77070063694268,390.010204845373,219.77070063694268C388.86801681449276,219.77070063694268,387.7258287836125,219.77070063694268,386.58364075273226,219.77070063694268C385.441452721852,219.77070063694268,384.29926469097177,224.10828025477707,383.1570766600915,224.10828025477707C382.01488862921127,224.10828025477707,380.872700598331,216.87898089171975,379.7305125674508,216.87898089171975C378.5883245365705,216.87898089171975,377.4461365056902,223.14437367303606,376.30394847480994,224.10828025477707C375.1617604439297,225.07218683651806,374.01957241304945,225.55414012738854,372.8773843821692,225.55414012738854C371.73519635128895,225.55414012738854,370.5930083204087,218.3248407643312,369.45082028952845,218.3248407643312C368.3086322586482,218.3248407643312,367.16644422776795,227,366.0242561968877,227C364.8820681660074,227,363.7398801351272,226.03609341825901,362.5976921042469,225.55414012738854C361.4555040733667,225.07218683651806,360.3133160424864,225.07218683651806,359.1711280116062,224.10828025477707C358.0289399807259,223.14437367303606,356.88675194984563,216.87898089171975,355.74456391896535,216.87898089171975C354.6023758880851,216.87898089171975,353.46018785720486,224.10828025477707,352.3179998263246,224.10828025477707C351.17581179544436,224.10828025477707,350.0336237645641,224.10828025477707,348.89143573368386,224.10828025477707C347.7492477028036,224.10828025477707,346.6070596719233,218.3248407643312,345.46487164104303,218.3248407643312C344.3226836101628,218.3248407643312,343.18049557928254,224.10828025477707,342.0383075484023,224.10828025477707C340.89611951752204,224.10828025477707,339.7539314866418,221.9394904458599,338.61174345576154,221.21656050955414C337.46955542488126,220.4936305732484,336.32736739400104,219.77070063694268,335.18517936312077,219.77070063694268C334.0429913322405,219.77070063694268,332.90080330136027,224.10828025477707,331.75861527048,224.10828025477707C330.6164272395997,224.10828025477707,329.4742392087195,222.18046709129513,328.3320511778392,221.21656050955414C327.189863146959,220.25265392781318,326.0476751160787,218.3248407643312,324.9054870851985,218.3248407643312C323.7632990543182,218.3248407643312,322.62111102343795,224.10828025477707,321.47892299255767,224.10828025477707C320.33673496167745,224.10828025477707,319.1945469307972,219.77070063694268,318.05235889991695,219.77070063694268C316.9101708690367,219.77070063694268,315.76798283815646,222.6624203821656,314.6257948072762,222.6624203821656C313.4836067763959,222.6624203821656,312.3414187455157,222.6624203821656,311.1992307146354,222.6624203821656C310.0570426837551,222.6624203821656,308.9148546528749,225.55414012738854,307.77266662199463,225.55414012738854C306.6304785911144,225.55414012738854,305.48829056023413,225.55414012738854,304.3461025293539,225.55414012738854C303.20391449847364,225.55414012738854,302.06172646759336,219.77070063694268,300.9195384367131,219.77070063694268C299.7773504058328,219.77070063694268,298.6351623749526,224.10828025477707,297.4929743440723,224.10828025477707C296.3507863131921,224.10828025477707,295.2085982823118,224.10828025477707,294.0664102514316,224.10828025477707C292.9242222205513,224.10828025477707,291.78203418967104,227,290.63984615879076,227C289.49765812791054,227,288.35547009703026,219.77070063694268,287.21328206615004,219.77070063694268C286.07109403526977,219.77070063694268,284.92890600438955,224.10828025477707,283.78671797350927,224.10828025477707C282.644529942629,224.10828025477707,281.5023419117488,224.10828025477707,280.3601538808685,224.10828025477707C279.2179658499882,224.10828025477707,278.075777819108,221.21656050955414,276.9335897882277,221.21656050955414C275.7914017573475,221.21656050955414,274.6492137264672,221.9394904458599,273.507025695587,222.6624203821656C272.3648376647067,223.38535031847135,271.22264963382645,225.55414012738854,270.0804616029462,225.55414012738854C268.93827357206595,225.55414012738854,267.7960855411857,225.07218683651806,266.65389751030546,224.10828025477707C265.5117094794252,223.14437367303609,264.36952144854496,215.43312101910828,263.2273334176647,215.43312101910828C262.0851453867844,215.43312101910828,260.9429573559042,218.8067940552017,259.8007693250239,219.77070063694268C258.65858129414363,220.73460721868366,257.5163932632634,220.73460721868366,256.37420523238313,221.21656050955414C255.23201720150288,221.69851380042462,254.0898291706226,222.6624203821656,252.94764113974236,222.6624203821656C251.8054531088621,222.6624203821656,250.66326507798183,218.3248407643312,249.52107704710158,218.3248407643312C248.37888901622134,218.3248407643312,247.2367009853411,218.3248407643312,246.09451295446084,218.3248407643312C244.9523249235806,218.3248407643312,243.8101368927003,213.98726114649682,242.66794886182007,213.98726114649682C241.52576083093982,213.98726114649682,240.38357280005957,219.77070063694268,239.24138476917932,219.77070063694268C238.09919673829907,219.77070063694268,236.9570087074188,218.3248407643312,235.81482067653855,218.3248407643312C234.6726326456583,218.3248407643312,233.53044461477802,220.01167728237792,232.38825658389777,221.21656050955414C231.24606855301752,222.42144373673037,230.10388052213727,224.59023354564758,228.96169249125703,225.55414012738854C227.81950446037675,226.51804670912952,226.6773164294965,227,225.53512839861622,227C224.39294036773597,227,223.2507523368557,226.27707006369428,222.10856430597545,225.55414012738854C220.9663762750952,224.83121019108282,219.82418824421495,222.6624203821656,218.6820002133347,222.6624203821656C217.53981218245445,222.6624203821656,216.39762415157418,227,215.25543612069393,227C214.11324808981368,227,212.97106005893343,224.8312101910828,211.82887202805318,224.10828025477707C210.68668399717293,223.38535031847132,209.54449596629266,223.14437367303609,208.4023079354124,222.6624203821656C207.26011990453216,222.18046709129513,206.11793187365188,221.21656050955414,204.97574384277164,221.21656050955414C203.8335558118914,221.21656050955414,202.69136778101114,225.55414012738854,201.5491797501309,225.55414012738854C200.40699171925064,225.55414012738854,199.26480368837036,222.6624203821656,198.12261565749012,222.6624203821656C196.98042762660984,222.6624203821656,195.8382395957296,224.10828025477707,194.6960515648493,224.10828025477707C193.55386353396906,224.10828025477707,192.41167550308882,223.62632696390656,191.26948747220857,222.6624203821656C190.12729944132832,221.69851380042462,188.98511141044804,218.3248407643312,187.8429233795678,218.3248407643312C186.70073534868754,218.3248407643312,185.5585473178073,218.8067940552017,184.41635928692705,219.77070063694268C183.2741712560468,220.73460721868366,182.13198322516652,227,180.98979519428627,227C179.84760716340602,227,178.70541913252575,225.07218683651806,177.5632311016455,224.10828025477707C176.42104307076525,223.14437367303609,175.278855039885,221.21656050955414,174.13666700900475,221.21656050955414C172.9944789781245,221.21656050955414,171.85229094724423,227,170.71010291636398,227C169.5679148854837,227,168.42572685460345,225.3131634819533,167.28353882372318,224.10828025477707C166.14135079284293,222.90339702760085,164.99916276196268,219.77070063694268,163.85697473108243,219.77070063694268C162.71478670020218,219.77070063694268,161.5725986693219,221.93949044585986,160.43041063844166,222.6624203821656C159.2882226075614,223.38535031847132,158.14603457668116,224.10828025477707,157.0038465458009,224.10828025477707C155.86165851492066,224.10828025477707,154.7194704840404,221.21656050955414,153.57728245316014,221.21656050955414C152.4350944222799,221.21656050955414,151.2929063913996,225.55414012738854,150.15071836051936,225.55414012738854C149.00853032963911,225.55414012738854,147.86634229875887,224.10828025477707,146.72415426787862,224.10828025477707C145.58196623699837,224.10828025477707,144.4397782061181,225.55414012738854,143.29759017523784,225.55414012738854C142.1554021443576,225.55414012738854,141.01321411347732,222.6624203821656,139.87102608259707,222.6624203821656C138.72883805171682,222.6624203821656,137.58665002083654,222.6624203821656,136.4444619899563,222.6624203821656C135.30227395907605,222.6624203821656,134.16008592819577,220.49363057324842,133.01789789731552,219.77070063694268C131.87570986643527,219.04777070063696,130.73352183555502,218.3248407643312,129.59133380467478,218.3248407643312C128.44914577379453,218.3248407643312,127.30695774291426,225.55414012738854,126.164769712034,225.55414012738854C125.02258168115375,225.55414012738854,123.88039365027349,219.77070063694268,122.73820561939324,219.77070063694268C121.59601758851298,219.77070063694268,120.45382955763273,225.55414012738854,119.31164152675247,225.55414012738854C118.16945349587222,225.55414012738854,117.02726546499196,218.3248407643312,115.88507743411171,218.3248407643312C114.74288940323144,218.3248407643312,113.6007013723512,220.01167728237792,112.45851334147093,221.21656050955414C111.31632531059068,222.42144373673037,110.17413727971042,225.55414012738854,109.03194924883017,225.55414012738854C107.88976121794991,225.55414012738854,106.74757318706966,222.6624203821656,105.6053851561894,222.6624203821656C104.46319712530915,222.6624203821656,103.32100909442889,222.6624203821656,102.17882106354864,222.6624203821656C101.03663303266838,222.6624203821656,99.89444500178813,221.21656050955414,98.75225697090787,221.21656050955414C97.61006894002762,221.21656050955414,96.46788090914735,221.21656050955414,95.3256928782671,221.21656050955414C94.18350484738684,221.21656050955414,93.0413168165066,221.93949044585986,91.89912878562633,222.6624203821656C90.75694075474608,223.38535031847132,89.61475272386582,225.55414012738854,88.47256469298557,225.55414012738854C87.33037666210532,225.55414012738854,86.18818863122506,222.6624203821656,85.04600060034481,222.6624203821656C83.90381256946455,222.6624203821656,82.7616245385843,225.55414012738854,81.61943650770404,225.55414012738854C80.47724847682377,225.55414012738854,79.33506044594353,221.21656050955414,78.19287241506326,221.21656050955414C77.05068438418301,221.21656050955414,75.90849635330275,225.55414012738854,74.7663083224225,225.55414012738854C73.62412029154225,225.55414012738854,72.48193226066199,221.21656050955414,71.33974422978174,221.21656050955414C70.19755619890148,221.21656050955414,69.05536816802123,223.14437367303609,67.91318013714097,224.10828025477707C66.77099210626072,225.07218683651806,65.62880407538046,227,64.48661604450021,227C63.344428013619954,227,62.20223998273969,224.83121019108282,61.060051951859435,224.10828025477707C59.91786392097918,223.38535031847135,58.775675890098924,223.38535031847135,57.63348785921867,222.6624203821656C56.49129982833841,221.93949044585986,55.34911179745816,219.77070063694268,54.2069237665779,219.77070063694268C53.064735735697646,219.77070063694268,51.92254770481739,223.14437367303609,50.780359673937134,224.10828025477707C49.63817164305688,225.07218683651806,48.49598361217662,225.55414012738854,47.35379558129637,225.55414012738854C46.21160755041611,225.55414012738854,45.069419519535856,218.3248407643312,43.9272314886556,218.3248407643312C42.785043457775345,218.3248407643312,41.64285542689509,224.10828025477707,40.50066739601483,224.10828025477707C39.35847936513458,224.10828025477707,38.21629133425433,224.10828025477707,37.07410330337407,224.10828025477707C35.93191527249382,224.10828025477707,34.78972724161356,218.3248407643312,33.64753921073331,218.3248407643312C32.50535117985305,218.3248407643312,31.36316314897279,225.55414012738854,30.220975118092536,225.55414012738854C29.07878708721228,225.55414012738854,27.936599056332025,224.83121019108282,26.79441102545177,224.10828025477707C25.652222994571513,223.38535031847132,24.510034963691258,221.21656050955414,23.367846932811002,221.21656050955414C22.225658901930746,221.21656050955414,21.083470871050494,222.6624203821656,19.94128284017024,222.6624203821656C18.799094809289983,222.6624203821656,17.656906778409727,222.6624203821656,16.51471874752947,222.6624203821656C15.372530716649216,222.6624203821656,14.230342685768958,227,13.088154654888703,227C11.945966624008447,227,10.803778593128193,219.77070063694268,9.661590562247937,212.54140127388536Z" id="fires" style="fill: rgb(255, 127, 14); opacity: 0.5; mix-blend-mode: normal;"/><path d="M9.661590562247937,212.54140127388536C10.803778593128193,219.77070063694268,11.945966624008447,227,13.088154654888703,227C14.230342685768958,227,15.372530716649216,222.6624203821656,16.51471874752947,222.6624203821656C17.656906778409727,222.6624203821656,18.799094809289983,222.6624203821656,19.94128284017024,222.6624203821656C21.083470871050494,222.6624203821656,22.225658901930746,221.21656050955414,23.367846932811002,221.21656050955414C24.510034963691258,221.21656050955414,25.652222994571513,223.38535031847132,26.79441102545177,224.10828025477707C27.936599056332025,224.83121019108282,29.07878708721228,225.55414012738854,30.220975118092536,225.55414012738854C31.36316314897279,225.55414012738854,32.50535117985305,218.3248407643312,33.64753921073331,218.3248407643312C34.78972724161356,218.3248407643312,35.93191527249382,224.10828025477707,37.07410330337407,224.10828025477707C38.21629133425433,224.10828025477707,39.35847936513458,224.10828025477707,40.50066739601483,224.10828025477707C41.64285542689509,224.10828025477707,42.785043457775345,218.3248407643312,43.9272314886556,218.3248407643312C45.069419519535856,218.3248407643312,46.21160755041611,225.55414012738854,47.35379558129637,225.55414012738854C48.49598361217662,225.55414012738854,49.63817164305688,225.07218683651806,50.780359673937134,224.10828025477707C51.92254770481739,223.14437367303609,53.064735735697646,219.77070063694268,54.2069237665779,219.77070063694268C55.34911179745816,219.77070063694268,56.49129982833841,221.93949044585986,57.63348785921867,222.6624203821656C58.775675890098924,223.38535031847135,59.91786392097918,223.38535031847135,61.060051951859435,224.10828025477707C62.20223998273969,224.83121019108282,63.344428013619954,227,64.48661604450021,227C65.62880407538046,227,66.77099210626072,225.07218683651806,67.91318013714097,224.10828025477707C69.05536816802123,223.14437367303609,70.19755619890148,221.21656050955414,71.33974422978174,221.21656050955414C72.48193226066199,221.21656050955414,73.62412029154225,225.55414012738854,74.7663083224225,225.55414012738854C75.90849635330275,225.55414012738854,77.05068438418301,221.21656050955414,78.19287241506326,221.21656050955414C79.33506044594353,221.21656050955414,80.47724847682377,225.55414012738854,81.61943650770404,225.55414012738854C82.7616245385843,225.55414012738854,83.90381256946455,222.6624203821656,85.04600060034481,222.6624203821656C86.18818863122506,222.6624203821656,87.33037666210532,225.55414012738854,88.47256469298557,225.55414012738854C89.61475272386582,225.55414012738854,90.75694075474608,223.38535031847132,91.89912878562633,222.6624203821656C93.0413168165066,221.93949044585986,94.18350484738684,221.21656050955414,95.3256928782671,221.21656050955414C96.46788090914735,221.21656050955414,97.61006894002762,221.21656050955414,98.75225697090787,221.21656050955414C99.89444500178813,221.21656050955414,101.03663303266838,222.6624203821656,102.17882106354864,222.6624203821656C103.32100909442889,222.6624203821656,104.46319712530915,222.6624203821656,105.6053851561894,222.6624203821656C106.74757318706966,222.6624203821656,107.88976121794991,225.55414012738854,109.03194924883017,225.55414012738854C110.17413727971042,225.55414012738854,111.31632531059068,222.42144373673037,112.45851334147093,221.21656050955414C113.6007013723512,220.01167728237792,114.74288940323144,218.3248407643312,115.88507743411171,218.3248407643312C117.02726546499196,218.3248407643312,118.16945349587222,225.55414012738854,119.31164152675247,225.55414012738854C120.45382955763273,225.55414012738854,121.59601758851298,219.77070063694268,122.73820561939324,219.77070063694268C123.88039365027349,219.77070063694268,125.02258168115375,225.55414012738854,126.164769712034,225.55414012738854C127.30695774291426,225.55414012738854,128.44914577379453,218.3248407643312,129.59133380467478,218.3248407643312C130.73352183555502,218.3248407643312,131.87570986643527,219.04777070063696,133.01789789731552,219.77070063694268C134.16008592819577,220.49363057324842,135.30227395907605,222.6624203821656,136.4444619899563,222.6624203821656C137.58665002083654,222.6624203821656,138.72883805171682,222.6624203821656,139.87102608259707,222.6624203821656C141.01321411347732,222.6624203821656,142.1554021443576,225.55414012738854,143.29759017523784,225.55414012738854C144.4397782061181,225.55414012738854,145.58196623699837,224.10828025477707,146.72415426787862,224.10828025477707C147.86634229875887,224.10828025477707,149.00853032963911,225.55414012738854,150.15071836051936,225.55414012738854C151.2929063913996,225.55414012738854,152.4350944222799,221.21656050955414,153.57728245316014,221.21656050955414C154.7194704840404,221.21656050955414,155.86165851492066,224.10828025477707,157.0038465458009,224.10828025477707C158.14603457668116,224.10828025477707,159.2882226075614,223.38535031847132,160.43041063844166,222.6624203821656C161.5725986693219,221.93949044585986,162.71478670020218,219.77070063694268,163.85697473108243,219.77070063694268C164.99916276196268,219.77070063694268,166.14135079284293,222.90339702760085,167.28353882372318,224.10828025477707C168.42572685460345,225.3131634819533,169.5679148854837,227,170.71010291636398,227C171.85229094724423,227,172.9944789781245,221.21656050955414,174.13666700900475,221.21656050955414C175.278855039885,221.21656050955414,176.42104307076525,223.14437367303609,177.5632311016455,224.10828025477707C178.70541913252575,225.07218683651806,179.84760716340602,227,180.98979519428627,227C182.13198322516652,227,183.2741712560468,220.73460721868366,184.41635928692705,219.77070063694268C185.5585473178073,218.8067940552017,186.70073534868754,218.3248407643312,187.8429233795678,218.3248407643312C188.98511141044804,218.3248407643312,190.12729944132832,221.69851380042462,191.26948747220857,222.6624203821656C192.41167550308882,223.62632696390656,193.55386353396906,224.10828025477707,194.6960515648493,224.10828025477707C195.8382395957296,224.10828025477707,196.98042762660984,222.6624203821656,198.12261565749012,222.6624203821656C199.26480368837036,222.6624203821656,200.40699171925064,225.55414012738854,201.5491797501309,225.55414012738854C202.69136778101114,225.55414012738854,203.8335558118914,221.21656050955414,204.97574384277164,221.21656050955414C206.11793187365188,221.21656050955414,207.26011990453216,222.18046709129513,208.4023079354124,222.6624203821656C209.54449596629266,223.14437367303609,210.68668399717293,223.38535031847132,211.82887202805318,224.10828025477707C212.97106005893343,224.8312101910828,214.11324808981368,227,215.25543612069393,227C216.39762415157418,227,217.53981218245445,222.6624203821656,218.6820002133347,222.6624203821656C219.82418824421495,222.6624203821656,220.9663762750952,224.83121019108282,222.10856430597545,225.55414012738854C223.2507523368557,226.27707006369428,224.39294036773597,227,225.53512839861622,227C226.6773164294965,227,227.81950446037675,226.51804670912952,228.96169249125703,225.55414012738854C230.10388052213727,224.59023354564758,231.24606855301752,222.42144373673037,232.38825658389777,221.21656050955414C233.53044461477802,220.01167728237792,234.6726326456583,218.3248407643312,235.81482067653855,218.3248407643312C236.9570087074188,218.3248407643312,238.09919673829907,219.77070063694268,239.24138476917932,219.77070063694268C240.38357280005957,219.77070063694268,241.52576083093982,213.98726114649682,242.66794886182007,213.98726114649682C243.8101368927003,213.98726114649682,244.9523249235806,218.3248407643312,246.09451295446084,218.3248407643312C247.2367009853411,218.3248407643312,248.37888901622134,218.3248407643312,249.52107704710158,218.3248407643312C250.66326507798183,218.3248407643312,251.8054531088621,222.6624203821656,252.94764113974236,222.6624203821656C254.0898291706226,222.6624203821656,255.23201720150288,221.69851380042462,256.37420523238313,221.21656050955414C257.5163932632634,220.73460721868366,258.65858129414363,220.73460721868366,259.8007693250239,219.77070063694268C260.9429573559042,218.8067940552017,262.0851453867844,215.43312101910828,263.2273334176647,215.43312101910828C264.36952144854496,215.43312101910828,265.5117094794252,223.14437367303609,266.65389751030546,224.10828025477707C267.7960855411857,225.07218683651806,268.93827357206595,225.55414012738854,270.0804616029462,225.55414012738854C271.22264963382645,225.55414012738854,272.3648376647067,223.38535031847135,273.507025695587,222.6624203821656C274.6492137264672,221.9394904458599,275.7914017573475,221.21656050955414,276.9335897882277,221.21656050955414C278.075777819108,221.21656050955414,279.2179658499882,224.10828025477707,280.3601538808685,224.10828025477707C281.5023419117488,224.10828025477707,282.644529942629,224.10828025477707,283.78671797350927,224.10828025477707C284.92890600438955,224.10828025477707,286.07109403526977,219.77070063694268,287.21328206615004,219.77070063694268C288.35547009703026,219.77070063694268,289.49765812791054,227,290.63984615879076,227C291.78203418967104,227,292.9242222205513,224.10828025477707,294.0664102514316,224.10828025477707C295.2085982823118,224.10828025477707,296.3507863131921,224.10828025477707,297.4929743440723,224.10828025477707C298.6351623749526,224.10828025477707,299.7773504058328,219.77070063694268,300.9195384367131,219.77070063694268C302.06172646759336,219.77070063694268,303.20391449847364,225.55414012738854,304.3461025293539,225.55414012738854C305.48829056023413,225.55414012738854,306.6304785911144,225.55414012738854,307.77266662199463,225.55414012738854C308.9148546528749,225.55414012738854,310.0570426837551,222.6624203821656,311.1992307146354,222.6624203821656C312.3414187455157,222.6624203821656,313.4836067763959,222.6624203821656,314.6257948072762,222.6624203821656C315.76798283815646,222.6624203821656,316.9101708690367,219.77070063694268,318.05235889991695,219.77070063694268C319.1945469307972,219.77070063694268,320.33673496167745,224.10828025477707,321.47892299255767,224.10828025477707C322.62111102343795,224.10828025477707,323.7632990543182,218.3248407643312,324.9054870851985,218.3248407643312C326.0476751160787,218.3248407643312,327.189863146959,220.25265392781318,328.3320511778392,221.21656050955414C329.4742392087195,222.18046709129513,330.6164272395997,224.10828025477707,331.75861527048,224.10828025477707C332.90080330136027,224.10828025477707,334.0429913322405,219.77070063694268,335.18517936312077,219.77070063694268C336.32736739400104,219.77070063694268,337.46955542488126,220.4936305732484,338.61174345576154,221.21656050955414C339.7539314866418,221.9394904458599,340.89611951752204,224.10828025477707,342.0383075484023,224.10828025477707C343.18049557928254,224.10828025477707,344.3226836101628,218.3248407643312,345.46487164104303,218.3248407643312C346.6070596719233,218.3248407643312,347.7492477028036,224.10828025477707,348.89143573368386,224.10828025477707C350.0336237645641,224.10828025477707,351.17581179544436,224.10828025477707,352.3179998263246,224.10828025477707C353.46018785720486,224.10828025477707,354.6023758880851,216.87898089171975,355.74456391896535,216.87898089171975C356.88675194984563,216.87898089171975,358.0289399807259,223.14437367303606,359.1711280116062,224.10828025477707C360.3133160424864,225.07218683651806,361.4555040733667,225.07218683651806,362.5976921042469,225.55414012738854C363.7398801351272,226.03609341825901,364.8820681660074,227,366.0242561968877,227C367.16644422776795,227,368.3086322586482,218.3248407643312,369.45082028952845,218.3248407643312C370.5930083204087,218.3248407643312,371.73519635128895,225.55414012738854,372.8773843821692,225.55414012738854C374.01957241304945,225.55414012738854,375.1617604439297,225.07218683651806,376.30394847480994,224.10828025477707C377.4461365056902,223.14437367303606,378.5883245365705,216.87898089171975,379.7305125674508,216.87898089171975C380.872700598331,216.87898089171975,382.01488862921127,224.10828025477707,383.1570766600915,224.10828025477707C384.29926469097177,224.10828025477707,385.441452721852,219.77070063694268,386.58364075273226,219.77070063694268C387.7258287836125,219.77070063694268,388.86801681449276,219.77070063694268,390.010204845373,219.77070063694268C391.15239287625326,219.77070063694268,392.29458090713354,221.21656050955414,393.4367689380138,221.21656050955414C394.5789569688941,221.21656050955414,395.7211449997743,218.3248407643312,396.8633330306546,218.3248407643312C398.0055210615348,218.3248407643312,399.1477090924151,222.6624203821656,400.2898971232953,222.6624203821656C401.4320851541756,222.6624203821656,402.57427318505586,221.21656050955414,403.71646121593614,221.21656050955414C404.85864924681636,221.21656050955414,406.00083727769663,221.21656050955414,407.14302530857685,221.21656050955414C408.28521333945713,221.21656050955414,409.42740137033735,221.93949044585986,410.5695894012176,222.6624203821656C411.7117774320979,223.38535031847135,412.8539654629781,225.55414012738854,413.9961534938584,225.55414012738854C415.1383415247387,225.55414012738854,416.2805295556189,225.55414012738854,417.4227175864992,225.55414012738854C418.5649056173794,225.55414012738854,419.7070936482597,217.8428874734607,420.8492816791399,216.87898089171975C421.99146971002017,215.91507430997876,423.13365774090045,215.91507430997876,424.2758457717807,215.43312101910828C425.418033802661,214.9511677282378,426.5602218335412,213.98726114649682,427.7024098644215,213.98726114649682C428.8445978953017,213.98726114649682,429.986785926182,215.9150743099788,431.1289739570622,216.87898089171975C432.2711619879425,217.84288747346073,433.41335001882277,218.32484076433119,434.55553804970305,219.77070063694268C435.69772608058327,221.21656050955414,436.83991411146354,225.55414012738854,437.98210214234376,225.55414012738854C439.12429017322404,225.55414012738854,440.26647820410426,224.59023354564755,441.40866623498454,222.6624203821656C442.55085426586476,220.7346072186837,443.69304229674503,213.98726114649682,444.83523032762525,213.98726114649682C445.97741835850553,213.98726114649682,447.1196063893858,222.6624203821656,448.2617944202661,222.6624203821656C449.40398245114636,222.6624203821656,450.5461704820266,222.6624203821656,451.68835851290686,222.6624203821656C452.8305465437871,222.6624203821656,453.97273457466736,224.10828025477707,455.1149226055476,224.10828025477707C456.25711063642785,224.10828025477707,457.39929866730813,223.1443736730361,458.5414866981884,222.6624203821656C459.6836747290686,222.18046709129513,460.8258627599489,221.21656050955414,461.9680507908291,221.21656050955414C463.1102388217094,221.21656050955414,464.2524268525896,221.21656050955414,465.3946148834699,221.21656050955414C466.5368029143502,221.21656050955414,467.6789909452304,220.49363057324842,468.8211789761107,219.77070063694268C469.96336700699095,219.04777070063693,471.10555503787117,216.87898089171975,472.24774306875145,216.87898089171975C473.38993109963167,216.87898089171975,474.53211913051194,217.36093418259023,475.67430716139216,218.3248407643312C476.81649519227244,219.28874734607223,477.9586832231527,224.10828025477707,479.100871254033,224.10828025477707C480.2430592849133,224.10828025477707,481.3852473157935,216.87898089171975,482.52743534667377,216.87898089171975C483.669623377554,216.87898089171975,484.81181140843427,225.55414012738854,485.9539994393145,225.55414012738854C487.09618747019476,225.55414012738854,488.23837550107504,222.6624203821656,489.3805635319553,222.6624203821656C490.52275156283554,222.6624203821656,491.6649395937158,222.6624203821656,492.80712762459603,222.6624203821656C493.9493156554763,222.6624203821656,495.09150368635653,222.6624203821656,496.2336917172368,222.6624203821656C497.37587974811703,222.6624203821656,498.5180677789973,215.43312101910828,499.6602558098775,215.43312101910828C500.8024438407578,215.43312101910828,501.9446318716381,218.3248407643312,503.08681990251836,218.3248407643312C504.2290079333986,218.3248407643312,505.37119596427885,216.87898089171975,506.5133839951591,216.87898089171975C507.65557202603935,216.87898089171975,508.79776005691957,221.21656050955414,509.93994808779985,221.21656050955414C511.0821361186801,221.21656050955414,512.2243241495604,220.73460721868366,513.3665121804406,219.77070063694268C514.5087002113208,218.8067940552017,515.6508882422012,213.98726114649682,516.7930762730814,208.20382165605096C517.9352643039616,202.4203821656051,519.077452334842,186.0339702760085,520.2196403657222,185.0700636942675C521.3618283966024,184.10615711252652,522.5040164274827,183.62420382165604,523.646204458363,183.62420382165604C524.7883924892432,183.62420382165604,525.9305805201235,195.43205944798302,527.0727685510037,199.52866242038218C528.2149565818839,203.62526539278133,529.3571446127643,208.20382165605096,530.4993326436445,208.20382165605096C531.6415206745247,208.20382165605096,532.783708705405,206.7579617834395,533.9258967362853,206.7579617834395C535.0680847671655,206.7579617834395,536.2102727980458,208.20382165605096,537.352460828926,211.0955414012739C538.4946488598063,213.98726114649673,539.6368368906865,225.55414012738854,540.7790249215667,225.55414012738854C541.921212952447,225.55414012738854,543.0634009833273,219.77070063694268,544.2055890142076,219.77070063694268C545.3477770450878,219.77070063694268,546.4899650759681,221.21656050955414,547.6321531068484,221.21656050955414C548.7743411377286,221.21656050955414,549.9165291686088,219.77070063694268,551.058717199489,219.77070063694268C552.2009052303692,219.77070063694268,553.3430932612496,227,554.4852812921298,227C555.62746932301,227,556.7696573538904,227,557.9118453847706,227C559.0540334156508,227,560.1962214465311,227,561.3384094774113,227L561.3384094774113,174.94904458598725C560.1962214465311,172.05732484076432,559.0540334156508,169.1656050955414,557.9118453847706,169.1656050955414C556.7696573538904,169.1656050955414,555.62746932301,169.1656050955414,554.4852812921298,169.1656050955414C553.3430932612496,169.1656050955414,552.2009052303692,150.36942675159236,551.058717199489,150.36942675159236C549.9165291686088,150.36942675159236,548.7743411377286,163.38216560509554,547.6321531068484,163.38216560509554C546.4899650759681,163.38216560509554,545.3477770450878,150.36942675159236,544.2055890142076,150.36942675159236C543.0634009833273,150.36942675159236,541.921212952447,167.71974522292993,540.7790249215667,167.71974522292993C539.6368368906865,167.71974522292993,538.4946488598063,154.70700636942675,537.352460828926,154.70700636942675C536.2102727980458,154.70700636942675,535.0680847671655,160.4904458598726,533.9258967362853,160.4904458598726C532.783708705405,160.4904458598726,531.6415206745247,153.50212314225053,530.4993326436445,150.36942675159236C529.3571446127643,147.2367303609342,528.2149565818839,147.47770700636943,527.0727685510037,141.69426751592357C525.9305805201235,135.9108280254777,524.7883924892432,98.80042462845012,523.646204458363,75.18471337579618C522.5040164274827,51.56900212314225,521.3618283966024,0,520.2196403657222,0C519.077452334842,0,517.9352643039616,1.445859872611464,516.7930762730814,4.337579617834393C515.6508882422012,7.229299363057322,514.5087002113208,34.70063694267513,513.3665121804406,54.94267515923565C512.2243241495604,75.18471337579616,511.0821361186801,122.8980891719745,509.93994808779985,125.78980891719745C508.79776005691957,128.6815286624204,507.65557202603935,128.44055201698512,506.5133839951591,130.12738853503186C505.37119596427885,131.81422505307856,504.2290079333986,132.29617834394918,503.08681990251836,135.9108280254777C501.9446318716381,139.5254777070064,500.8024438407578,151.81528662420382,499.6602558098775,151.81528662420382C498.5180677789973,151.81528662420382,497.37587974811703,137.35668789808915,496.2336917172368,137.35668789808915C495.09150368635653,137.35668789808915,493.9493156554763,147.47770700636943,492.80712762459603,147.47770700636943C491.6649395937158,147.47770700636943,490.52275156283554,138.8025477707006,489.3805635319553,135.9108280254777C488.23837550107504,133.0191082802547,487.09618747019476,132.7781316348196,485.9539994393145,130.12738853503186C484.81181140843427,127.4766454352442,483.669623377554,120.00636942675159,482.52743534667377,120.00636942675159C481.3852473157935,120.00636942675159,480.2430592849133,145.0679405520171,479.100871254033,151.81528662420382C477.9586832231527,158.56263269639066,476.81649519227244,161.93630573248407,475.67430716139216,161.93630573248407C474.53211913051194,161.93630573248407,473.38993109963167,130.12738853503186,472.24774306875145,130.12738853503186C471.10555503787117,130.12738853503186,469.96336700699095,140.48938428874735,468.8211789761107,146.03184713375796C467.6789909452304,151.57430997876858,466.5368029143502,163.38216560509554,465.3946148834699,163.38216560509554C464.2524268525896,163.38216560509554,463.1102388217094,146.03184713375796,461.9680507908291,146.03184713375796C460.8258627599489,146.03184713375796,459.6836747290686,146.99575371549895,458.5414866981884,148.9235668789809C457.39929866730813,150.85138004246292,456.25711063642785,163.38216560509554,455.1149226055476,163.38216560509554C453.97273457466736,163.38216560509554,452.8305465437871,163.38216560509554,451.68835851290686,163.38216560509554C450.5461704820266,163.38216560509554,449.40398245114636,144.104033970276,448.2617944202661,143.14012738853503C447.1196063893858,142.17622080679405,445.97741835850553,141.69426751592357,444.83523032762525,141.69426751592357C443.69304229674503,141.69426751592357,442.55085426586476,154.70700636942675,441.40866623498454,154.70700636942675C440.26647820410426,154.70700636942675,439.12429017322404,138.32059447983016,437.98210214234376,133.01910828025478C436.83991411146354,127.71762208067949,435.69772608058327,122.89808917197452,434.55553804970305,122.89808917197452C433.41335001882277,122.89808917197452,432.2711619879425,150.36942675159236,431.1289739570622,150.36942675159236C429.986785926182,150.36942675159236,428.8445978953017,134.9469214437367,427.7024098644215,133.01910828025478C426.5602218335412,131.09129511677284,425.418033802661,130.12738853503186,424.2758457717807,130.12738853503186C423.13365774090045,130.12738853503186,421.99146971002017,144.5859872611465,420.8492816791399,144.5859872611465C419.7070936482597,144.5859872611465,418.5649056173794,144.5859872611465,417.4227175864992,144.5859872611465C416.2805295556189,144.5859872611465,415.1383415247387,136.8747346072187,413.9961534938584,135.9108280254777C412.8539654629781,134.94692144373673,411.7117774320979,134.46496815286622,410.5695894012176,134.46496815286622C409.42740137033735,134.46496815286622,408.28521333945713,144.5859872611465,407.14302530857685,144.5859872611465C406.00083727769663,144.5859872611465,404.85864924681636,124.34394904458598,403.71646121593614,124.34394904458598C402.57427318505586,124.34394904458598,401.4320851541756,143.14012738853495,400.2898971232953,146.03184713375796C399.1477090924151,148.9235668789809,398.0055210615348,150.36942675159236,396.8633330306546,150.36942675159236C395.7211449997743,150.36942675159236,394.5789569688941,148.9235668789809,393.4367689380138,146.03184713375796C392.29458090713354,143.14012738853498,391.15239287625326,131.5732484076433,390.010204845373,131.5732484076433C388.86801681449276,131.5732484076433,387.7258287836125,132.53715498938428,386.58364075273226,134.46496815286622C385.441452721852,136.3927813163482,384.29926469097177,160.4904458598726,383.1570766600915,160.4904458598726C382.01488862921127,160.4904458598726,380.872700598331,137.35668789808915,379.7305125674508,137.35668789808915C378.5883245365705,137.35668789808915,377.4461365056902,137.83864118895966,376.30394847480994,138.80254777070064C375.1617604439297,139.7664543524416,374.01957241304945,154.70700636942675,372.8773843821692,154.70700636942675C371.73519635128895,154.70700636942675,370.5930083204087,153.2611464968153,369.45082028952845,151.81528662420382C368.3086322586482,150.36942675159236,367.16644422776795,146.03184713375796,366.0242561968877,146.03184713375796C364.8820681660074,146.03184713375796,363.7398801351272,146.03184713375796,362.5976921042469,146.03184713375796C361.4555040733667,146.03184713375796,360.3133160424864,156.15286624203821,359.1711280116062,156.15286624203821C358.0289399807259,156.15286624203821,356.88675194984563,114.22292993630573,355.74456391896535,114.22292993630573C354.6023758880851,114.22292993630573,353.46018785720486,122.89808917197449,352.3179998263246,127.23566878980891C351.17581179544436,131.57324840764326,350.0336237645641,140.24840764331208,348.89143573368386,140.24840764331208C347.7492477028036,140.24840764331208,346.6070596719233,137.35668789808915,345.46487164104303,137.35668789808915C344.3226836101628,137.35668789808915,343.18049557928254,139.2845010615711,342.0383075484023,140.24840764331208C340.89611951752204,141.21231422505306,339.7539314866418,141.69426751592357,338.61174345576154,143.14012738853503C337.46955542488126,144.5859872611465,336.32736739400104,145.06794055201698,335.18517936312077,148.9235668789809C334.0429913322405,152.7791932059448,332.90080330136027,177.84076433121018,331.75861527048,177.84076433121018C330.6164272395997,177.84076433121018,329.4742392087195,157.59872611464974,328.3320511778392,154.70700636942675C327.189863146959,151.81528662420382,326.0476751160787,152.77919320594472,324.9054870851985,150.36942675159236C323.7632990543182,147.9596602972399,322.62111102343795,142.1762208067941,321.47892299255767,140.24840764331208C320.33673496167745,138.32059447983013,319.1945469307972,137.35668789808915,318.05235889991695,137.35668789808915C316.9101708690367,137.35668789808915,315.76798283815646,138.8025477707006,314.6257948072762,141.69426751592357C313.4836067763959,144.58598726114653,312.3414187455157,170.61146496815286,311.1992307146354,170.61146496815286C310.0570426837551,170.61146496815286,308.9148546528749,167.71974522292993,307.77266662199463,161.93630573248407C306.6304785911144,156.1528662420383,305.48829056023413,130.12738853503186,304.3461025293539,130.12738853503186C303.20391449847364,130.12738853503186,302.06172646759336,133.01910828025478,300.9195384367131,138.80254777070064C299.7773504058328,144.5859872611464,298.6351623749526,170.61146496815286,297.4929743440723,170.61146496815286C296.3507863131921,170.61146496815286,295.2085982823118,165.55095541401266,294.0664102514316,161.93630573248407C292.9242222205513,158.32165605095537,291.78203418967104,153.0201698513801,290.63984615879076,148.9235668789809C289.49765812791054,144.82696390658182,288.35547009703026,137.35668789808915,287.21328206615004,137.35668789808915C286.07109403526977,137.35668789808915,284.92890600438955,161.93630573248407,283.78671797350927,161.93630573248407C282.644529942629,161.93630573248407,281.5023419117488,131.5732484076433,280.3601538808685,131.5732484076433C279.2179658499882,131.5732484076433,278.075777819108,154.70700636942675,276.9335897882277,154.70700636942675C275.7914017573475,154.70700636942675,274.6492137264672,117.11464968152866,273.507025695587,117.11464968152866C272.3648376647067,117.11464968152866,271.22264963382645,135.9108280254777,270.0804616029462,135.9108280254777C268.93827357206595,135.9108280254777,267.7960855411857,130.12738853503186,266.65389751030546,130.12738853503186C265.5117094794252,130.12738853503186,264.36952144854496,132.5371549893843,263.2273334176647,135.9108280254777C262.0851453867844,139.28450106157112,260.9429573559042,150.36942675159236,259.8007693250239,150.36942675159236C258.65858129414363,150.36942675159236,257.5163932632634,140.24840764331208,256.37420523238313,140.24840764331208C255.23201720150288,140.24840764331208,254.0898291706226,156.15286624203821,252.94764113974236,156.15286624203821C251.8054531088621,156.15286624203821,250.66326507798183,112.29511677282379,249.52107704710158,111.3312101910828C248.37888901622134,110.36730360934183,247.2367009853411,109.88535031847134,246.09451295446084,109.88535031847134C244.9523249235806,109.88535031847134,243.8101368927003,125.78980891719745,242.66794886182007,125.78980891719745C241.52576083093982,125.78980891719745,240.38357280005957,122.41613588110403,239.24138476917932,121.45222929936305C238.09919673829907,120.48832271762208,236.9570087074188,120.00636942675159,235.81482067653855,120.00636942675159C234.6726326456583,120.00636942675159,233.53044461477802,131.09129511677278,232.38825658389777,137.35668789808915C231.24606855301752,143.62208067940549,230.10388052213727,157.59872611464968,228.96169249125703,157.59872611464968C227.81950446037675,157.59872611464968,226.6773164294965,121.45222929936305,225.53512839861622,121.45222929936305C224.39294036773597,121.45222929936305,223.2507523368557,138.80254777070064,222.10856430597545,138.80254777070064C220.9663762750952,138.80254777070064,219.82418824421495,121.45222929936305,218.6820002133347,121.45222929936305C217.53981218245445,121.45222929936305,216.39762415157418,132.5371549893843,215.25543612069393,135.9108280254777C214.11324808981368,139.28450106157112,212.97106005893343,139.0435244161359,211.82887202805318,141.69426751592357C210.68668399717293,144.34501061571126,209.54449596629266,149.16454352441613,208.4023079354124,151.81528662420382C207.26011990453216,154.4660297239915,206.11793187365188,157.59872611464968,204.97574384277164,157.59872611464968C203.8335558118914,157.59872611464968,202.69136778101114,148.9235668789809,201.5491797501309,148.9235668789809C200.40699171925064,148.9235668789809,199.26480368837036,154.70700636942675,198.12261565749012,154.70700636942675C196.98042762660984,154.70700636942675,195.8382395957296,144.5859872611465,194.6960515648493,144.5859872611465C193.55386353396906,144.5859872611465,192.41167550308882,146.2728237791932,191.26948747220857,147.47770700636943C190.12729944132832,148.68259023354565,188.98511141044804,151.81528662420382,187.8429233795678,151.81528662420382C186.70073534868754,151.81528662420382,185.5585473178073,117.11464968152866,184.41635928692705,117.11464968152866C183.2741712560468,117.11464968152866,182.13198322516652,141.69426751592357,180.98979519428627,144.5859872611465C179.84760716340602,147.47770700636943,178.70541913252575,148.9235668789809,177.5632311016455,148.9235668789809C176.42104307076525,148.9235668789809,175.278855039885,138.80254777070064,174.13666700900475,138.80254777070064C172.9944789781245,138.80254777070064,171.85229094724423,148.9235668789809,170.71010291636398,148.9235668789809C169.5679148854837,148.9235668789809,168.42572685460345,146.99575371549895,167.28353882372318,143.14012738853503C166.14135079284293,139.2845010615712,164.99916276196268,114.22292993630573,163.85697473108243,114.22292993630573C162.71478670020218,114.22292993630573,161.5725986693219,133.9830148619957,160.43041063844166,140.24840764331208C159.2882226075614,146.51380042462839,158.14603457668116,151.81528662420382,157.0038465458009,151.81528662420382C155.86165851492066,151.81528662420382,154.7194704840404,140.24840764331208,153.57728245316014,140.24840764331208C152.4350944222799,140.24840764331208,151.2929063913996,146.03184713375796,150.15071836051936,146.03184713375796C149.00853032963911,146.03184713375796,147.86634229875887,146.03184713375796,146.72415426787862,146.03184713375796C145.58196623699837,146.03184713375796,144.4397782061181,154.70700636942675,143.29759017523784,154.70700636942675C142.1554021443576,154.70700636942675,141.01321411347732,153.74309978768576,139.87102608259707,151.81528662420382C138.72883805171682,149.88747346072188,137.58665002083654,112.77707006369427,136.4444619899563,112.77707006369427C135.30227395907605,112.77707006369427,134.16008592819577,159.04458598726114,133.01789789731552,159.04458598726114C131.87570986643527,159.04458598726114,130.73352183555502,130.12738853503186,129.59133380467478,130.12738853503186C128.44914577379453,130.12738853503186,127.30695774291426,150.36942675159236,126.164769712034,150.36942675159236C125.02258168115375,150.36942675159236,123.88039365027349,141.69426751592357,122.73820561939324,141.69426751592357C121.59601758851298,141.69426751592357,120.45382955763273,151.81528662420382,119.31164152675247,151.81528662420382C118.16945349587222,151.81528662420382,117.02726546499196,122.89808917197452,115.88507743411171,122.89808917197452C114.74288940323144,122.89808917197452,113.6007013723512,128.4405520169851,112.45851334147093,131.5732484076433C111.31632531059068,134.70594479830146,110.17413727971042,137.11571125265394,109.03194924883017,141.69426751592357C107.88976121794991,146.27282377919323,106.74757318706966,159.04458598726114,105.6053851561894,159.04458598726114C104.46319712530915,159.04458598726114,103.32100909442889,156.15286624203821,102.17882106354864,150.36942675159236C101.03663303266838,144.58598726114647,99.89444500178813,118.56050955414013,98.75225697090787,118.56050955414013C97.61006894002762,118.56050955414013,96.46788090914735,120.00636942675159,95.3256928782671,122.89808917197452C94.18350484738684,125.78980891719746,93.0413168165066,138.80254777070064,91.89912878562633,141.69426751592357C90.75694075474608,144.5859872611465,89.61475272386582,146.03184713375796,88.47256469298557,146.03184713375796C87.33037666210532,146.03184713375796,86.18818863122506,146.03184713375796,85.04600060034481,146.03184713375796C83.90381256946455,146.03184713375796,82.7616245385843,114.22292993630573,81.61943650770404,114.22292993630573C80.47724847682377,114.22292993630573,79.33506044594353,116.63269639065817,78.19287241506326,121.45222929936305C77.05068438418301,126.27176220806791,75.90849635330275,150.36942675159236,74.7663083224225,150.36942675159236C73.62412029154225,150.36942675159236,72.48193226066199,112.77707006369427,71.33974422978174,112.77707006369427C70.19755619890148,112.77707006369427,69.05536816802123,137.35668789808915,67.91318013714097,137.35668789808915C66.77099210626072,137.35668789808915,65.62880407538046,135.91082802547768,64.48661604450021,133.01910828025478C63.344428013619954,130.12738853503186,62.20223998273969,106.99363057324841,61.060051951859435,106.99363057324841C59.91786392097918,106.99363057324841,58.775675890098924,120.97027600849256,57.63348785921867,125.78980891719745C56.49129982833841,130.60934182590233,55.34911179745816,132.29617834394904,54.2069237665779,135.9108280254777C53.064735735697646,139.5254777070064,51.92254770481739,144.10403397027602,50.780359673937134,147.47770700636943C49.63817164305688,150.85138004246284,48.49598361217662,156.15286624203821,47.35379558129637,156.15286624203821C46.21160755041611,156.15286624203821,45.069419519535856,155.18895966029723,43.9272314886556,153.2611464968153C42.785043457775345,151.33333333333334,41.64285542689509,133.01910828025478,40.50066739601483,133.01910828025478C39.35847936513458,133.01910828025478,38.21629133425433,154.70700636942675,37.07410330337407,154.70700636942675C35.93191527249382,154.70700636942675,34.78972724161356,146.03184713375796,33.64753921073331,143.14012738853503C32.50535117985305,140.2484076433121,31.36316314897279,138.8025477707006,30.220975118092536,137.35668789808915C29.07878708721228,135.91082802547768,27.936599056332025,134.46496815286622,26.79441102545177,134.46496815286622C25.652222994571513,134.46496815286622,24.510034963691258,136.6337579617834,23.367846932811002,140.24840764331208C22.225658901930746,143.86305732484075,21.083470871050494,152.05626326963906,19.94128284017024,156.15286624203821C18.799094809289983,160.24946921443737,17.656906778409727,164.828025477707,16.51471874752947,164.828025477707C15.372530716649216,164.828025477707,14.230342685768958,160.9723991507431,13.088154654888703,153.2611464968153C11.945966624008447,145.54989384288749,10.803778593128193,106.02972399150744,9.661590562247937,66.50955414012739Z" id="calls_911" style="fill: rgb(107, 178, 244); opacity: 0.5; mix-blend-mode: normal;"/><path d="M9.661590562247937,212.54140127388536C10.803778593128193,219.77070063694268,11.945966624008447,227,13.088154654888703,227C14.230342685768958,227,15.372530716649216,222.6624203821656,16.51471874752947,222.6624203821656C17.656906778409727,222.6624203821656,18.799094809289983,222.6624203821656,19.94128284017024,222.6624203821656C21.083470871050494,222.6624203821656,22.225658901930746,221.21656050955414,23.367846932811002,221.21656050955414C24.510034963691258,221.21656050955414,25.652222994571513,223.38535031847132,26.79441102545177,224.10828025477707C27.936599056332025,224.83121019108282,29.07878708721228,225.55414012738854,30.220975118092536,225.55414012738854C31.36316314897279,225.55414012738854,32.50535117985305,218.3248407643312,33.64753921073331,218.3248407643312C34.78972724161356,218.3248407643312,35.93191527249382,224.10828025477707,37.07410330337407,224.10828025477707C38.21629133425433,224.10828025477707,39.35847936513458,224.10828025477707,40.50066739601483,224.10828025477707C41.64285542689509,224.10828025477707,42.785043457775345,218.3248407643312,43.9272314886556,218.3248407643312C45.069419519535856,218.3248407643312,46.21160755041611,225.55414012738854,47.35379558129637,225.55414012738854C48.49598361217662,225.55414012738854,49.63817164305688,225.07218683651806,50.780359673937134,224.10828025477707C51.92254770481739,223.14437367303609,53.064735735697646,219.77070063694268,54.2069237665779,219.77070063694268C55.34911179745816,219.77070063694268,56.49129982833841,221.93949044585986,57.63348785921867,222.6624203821656C58.775675890098924,223.38535031847135,59.91786392097918,223.38535031847135,61.060051951859435,224.10828025477707C62.20223998273969,224.83121019108282,63.344428013619954,227,64.48661604450021,227C65.62880407538046,227,66.77099210626072,225.07218683651806,67.91318013714097,224.10828025477707C69.05536816802123,223.14437367303609,70.19755619890148,221.21656050955414,71.33974422978174,221.21656050955414C72.48193226066199,221.21656050955414,73.62412029154225,225.55414012738854,74.7663083224225,225.55414012738854C75.90849635330275,225.55414012738854,77.05068438418301,221.21656050955414,78.19287241506326,221.21656050955414C79.33506044594353,221.21656050955414,80.47724847682377,225.55414012738854,81.61943650770404,225.55414012738854C82.7616245385843,225.55414012738854,83.90381256946455,222.6624203821656,85.04600060034481,222.6624203821656C86.18818863122506,222.6624203821656,87.33037666210532,225.55414012738854,88.47256469298557,225.55414012738854C89.61475272386582,225.55414012738854,90.75694075474608,223.38535031847132,91.89912878562633,222.6624203821656C93.0413168165066,221.93949044585986,94.18350484738684,221.21656050955414,95.3256928782671,221.21656050955414C96.46788090914735,221.21656050955414,97.61006894002762,221.21656050955414,98.75225697090787,221.21656050955414C99.89444500178813,221.21656050955414,101.03663303266838,222.6624203821656,102.17882106354864,222.6624203821656C103.32100909442889,222.6624203821656,104.46319712530915,222.6624203821656,105.6053851561894,222.6624203821656C106.74757318706966,222.6624203821656,107.88976121794991,225.55414012738854,109.03194924883017,225.55414012738854C110.17413727971042,225.55414012738854,111.31632531059068,222.42144373673037,112.45851334147093,221.21656050955414C113.6007013723512,220.01167728237792,114.74288940323144,218.3248407643312,115.88507743411171,218.3248407643312C117.02726546499196,218.3248407643312,118.16945349587222,225.55414012738854,119.31164152675247,225.55414012738854C120.45382955763273,225.55414012738854,121.59601758851298,219.77070063694268,122.73820561939324,219.77070063694268C123.88039365027349,219.77070063694268,125.02258168115375,225.55414012738854,126.164769712034,225.55414012738854C127.30695774291426,225.55414012738854,128.44914577379453,218.3248407643312,129.59133380467478,218.3248407643312C130.73352183555502,218.3248407643312,131.87570986643527,219.04777070063696,133.01789789731552,219.77070063694268C134.16008592819577,220.49363057324842,135.30227395907605,222.6624203821656,136.4444619899563,222.6624203821656C137.58665002083654,222.6624203821656,138.72883805171682,222.6624203821656,139.87102608259707,222.6624203821656C141.01321411347732,222.6624203821656,142.1554021443576,225.55414012738854,143.29759017523784,225.55414012738854C144.4397782061181,225.55414012738854,145.58196623699837,224.10828025477707,146.72415426787862,224.10828025477707C147.86634229875887,224.10828025477707,149.00853032963911,225.55414012738854,150.15071836051936,225.55414012738854C151.2929063913996,225.55414012738854,152.4350944222799,221.21656050955414,153.57728245316014,221.21656050955414C154.7194704840404,221.21656050955414,155.86165851492066,224.10828025477707,157.0038465458009,224.10828025477707C158.14603457668116,224.10828025477707,159.2882226075614,223.38535031847132,160.43041063844166,222.6624203821656C161.5725986693219,221.93949044585986,162.71478670020218,219.77070063694268,163.85697473108243,219.77070063694268C164.99916276196268,219.77070063694268,166.14135079284293,222.90339702760085,167.28353882372318,224.10828025477707C168.42572685460345,225.3131634819533,169.5679148854837,227,170.71010291636398,227C171.85229094724423,227,172.9944789781245,221.21656050955414,174.13666700900475,221.21656050955414C175.278855039885,221.21656050955414,176.42104307076525,223.14437367303609,177.5632311016455,224.10828025477707C178.70541913252575,225.07218683651806,179.84760716340602,227,180.98979519428627,227C182.13198322516652,227,183.2741712560468,220.73460721868366,184.41635928692705,219.77070063694268C185.5585473178073,218.8067940552017,186.70073534868754,218.3248407643312,187.8429233795678,218.3248407643312C188.98511141044804,218.3248407643312,190.12729944132832,221.69851380042462,191.26948747220857,222.6624203821656C192.41167550308882,223.62632696390656,193.55386353396906,224.10828025477707,194.6960515648493,224.10828025477707C195.8382395957296,224.10828025477707,196.98042762660984,222.6624203821656,198.12261565749012,222.6624203821656C199.26480368837036,222.6624203821656,200.40699171925064,225.55414012738854,201.5491797501309,225.55414012738854C202.69136778101114,225.55414012738854,203.8335558118914,221.21656050955414,204.97574384277164,221.21656050955414C206.11793187365188,221.21656050955414,207.26011990453216,222.18046709129513,208.4023079354124,222.6624203821656C209.54449596629266,223.14437367303609,210.68668399717293,223.38535031847132,211.82887202805318,224.10828025477707C212.97106005893343,224.8312101910828,214.11324808981368,227,215.25543612069393,227C216.39762415157418,227,217.53981218245445,222.6624203821656,218.6820002133347,222.6624203821656C219.82418824421495,222.6624203821656,220.9663762750952,224.83121019108282,222.10856430597545,225.55414012738854C223.2507523368557,226.27707006369428,224.39294036773597,227,225.53512839861622,227C226.6773164294965,227,227.81950446037675,226.51804670912952,228.96169249125703,225.55414012738854C230.10388052213727,224.59023354564758,231.24606855301752,222.42144373673037,232.38825658389777,221.21656050955414C233.53044461477802,220.01167728237792,234.6726326456583,218.3248407643312,235.81482067653855,218.3248407643312C236.9570087074188,218.3248407643312,238.09919673829907,219.77070063694268,239.24138476917932,219.77070063694268C240.38357280005957,219.77070063694268,241.52576083093982,213.98726114649682,242.66794886182007,213.98726114649682C243.8101368927003,213.98726114649682,244.9523249235806,218.3248407643312,246.09451295446084,218.3248407643312C247.2367009853411,218.3248407643312,248.37888901622134,218.3248407643312,249.52107704710158,218.3248407643312C250.66326507798183,218.3248407643312,251.8054531088621,222.6624203821656,252.94764113974236,222.6624203821656C254.0898291706226,222.6624203821656,255.23201720150288,221.69851380042462,256.37420523238313,221.21656050955414C257.5163932632634,220.73460721868366,258.65858129414363,220.73460721868366,259.8007693250239,219.77070063694268C260.9429573559042,218.8067940552017,262.0851453867844,215.43312101910828,263.2273334176647,215.43312101910828C264.36952144854496,215.43312101910828,265.5117094794252,223.14437367303609,266.65389751030546,224.10828025477707C267.7960855411857,225.07218683651806,268.93827357206595,225.55414012738854,270.0804616029462,225.55414012738854C271.22264963382645,225.55414012738854,272.3648376647067,223.38535031847135,273.507025695587,222.6624203821656C274.6492137264672,221.9394904458599,275.7914017573475,221.21656050955414,276.9335897882277,221.21656050955414C278.075777819108,221.21656050955414,279.2179658499882,224.10828025477707,280.3601538808685,224.10828025477707C281.5023419117488,224.10828025477707,282.644529942629,224.10828025477707,283.78671797350927,224.10828025477707C284.92890600438955,224.10828025477707,286.07109403526977,219.77070063694268,287.21328206615004,219.77070063694268C288.35547009703026,219.77070063694268,289.49765812791054,227,290.63984615879076,227C291.78203418967104,227,292.9242222205513,224.10828025477707,294.0664102514316,224.10828025477707C295.2085982823118,224.10828025477707,296.3507863131921,224.10828025477707,297.4929743440723,224.10828025477707C298.6351623749526,224.10828025477707,299.7773504058328,219.77070063694268,300.9195384367131,219.77070063694268C302.06172646759336,219.77070063694268,303.20391449847364,225.55414012738854,304.3461025293539,225.55414012738854C305.48829056023413,225.55414012738854,306.6304785911144,225.55414012738854,307.77266662199463,225.55414012738854C308.9148546528749,225.55414012738854,310.0570426837551,222.6624203821656,311.1992307146354,222.6624203821656C312.3414187455157,222.6624203821656,313.4836067763959,222.6624203821656,314.6257948072762,222.6624203821656C315.76798283815646,222.6624203821656,316.9101708690367,219.77070063694268,318.05235889991695,219.77070063694268C319.1945469307972,219.77070063694268,320.33673496167745,224.10828025477707,321.47892299255767,224.10828025477707C322.62111102343795,224.10828025477707,323.7632990543182,218.3248407643312,324.9054870851985,218.3248407643312C326.0476751160787,218.3248407643312,327.189863146959,220.25265392781318,328.3320511778392,221.21656050955414C329.4742392087195,222.18046709129513,330.6164272395997,224.10828025477707,331.75861527048,224.10828025477707C332.90080330136027,224.10828025477707,334.0429913322405,219.77070063694268,335.18517936312077,219.77070063694268C336.32736739400104,219.77070063694268,337.46955542488126,220.4936305732484,338.61174345576154,221.21656050955414C339.7539314866418,221.9394904458599,340.89611951752204,224.10828025477707,342.0383075484023,224.10828025477707C343.18049557928254,224.10828025477707,344.3226836101628,218.3248407643312,345.46487164104303,218.3248407643312C346.6070596719233,218.3248407643312,347.7492477028036,224.10828025477707,348.89143573368386,224.10828025477707C350.0336237645641,224.10828025477707,351.17581179544436,224.10828025477707,352.3179998263246,224.10828025477707C353.46018785720486,224.10828025477707,354.6023758880851,216.87898089171975,355.74456391896535,216.87898089171975C356.88675194984563,216.87898089171975,358.0289399807259,223.14437367303606,359.1711280116062,224.10828025477707C360.3133160424864,225.07218683651806,361.4555040733667,225.07218683651806,362.5976921042469,225.55414012738854C363.7398801351272,226.03609341825901,364.8820681660074,227,366.0242561968877,227C367.16644422776795,227,368.3086322586482,218.3248407643312,369.45082028952845,218.3248407643312C370.5930083204087,218.3248407643312,371.73519635128895,225.55414012738854,372.8773843821692,225.55414012738854C374.01957241304945,225.55414012738854,375.1617604439297,225.07218683651806,376.30394847480994,224.10828025477707C377.4461365056902,223.14437367303606,378.5883245365705,216.87898089171975,379.7305125674508,216.87898089171975C380.872700598331,216.87898089171975,382.01488862921127,224.10828025477707,383.1570766600915,224.10828025477707C384.29926469097177,224.10828025477707,385.441452721852,219.77070063694268,386.58364075273226,219.77070063694268C387.7258287836125,219.77070063694268,388.86801681449276,219.77070063694268,390.010204845373,219.77070063694268C391.15239287625326,219.77070063694268,392.29458090713354,221.21656050955414,393.4367689380138,221.21656050955414C394.5789569688941,221.21656050955414,395.7211449997743,218.3248407643312,396.8633330306546,218.3248407643312C398.0055210615348,218.3248407643312,399.1477090924151,222.6624203821656,400.2898971232953,222.6624203821656C401.4320851541756,222.6624203821656,402.57427318505586,221.21656050955414,403.71646121593614,221.21656050955414C404.85864924681636,221.21656050955414,406.00083727769663,221.21656050955414,407.14302530857685,221.21656050955414C408.28521333945713,221.21656050955414,409.42740137033735,221.93949044585986,410.5695894012176,222.6624203821656C411.7117774320979,223.38535031847135,412.8539654629781,225.55414012738854,413.9961534938584,225.55414012738854C415.1383415247387,225.55414012738854,416.2805295556189,225.55414012738854,417.4227175864992,225.55414012738854C418.5649056173794,225.55414012738854,419.7070936482597,217.8428874734607,420.8492816791399,216.87898089171975C421.99146971002017,215.91507430997876,423.13365774090045,215.91507430997876,424.2758457717807,215.43312101910828C425.418033802661,214.9511677282378,426.5602218335412,213.98726114649682,427.7024098644215,213.98726114649682C428.8445978953017,213.98726114649682,429.986785926182,215.9150743099788,431.1289739570622,216.87898089171975C432.2711619879425,217.84288747346073,433.41335001882277,218.32484076433119,434.55553804970305,219.77070063694268C435.69772608058327,221.21656050955414,436.83991411146354,225.55414012738854,437.98210214234376,225.55414012738854C439.12429017322404,225.55414012738854,440.26647820410426,224.59023354564755,441.40866623498454,222.6624203821656C442.55085426586476,220.7346072186837,443.69304229674503,213.98726114649682,444.83523032762525,213.98726114649682C445.97741835850553,213.98726114649682,447.1196063893858,222.6624203821656,448.2617944202661,222.6624203821656C449.40398245114636,222.6624203821656,450.5461704820266,222.6624203821656,451.68835851290686,222.6624203821656C452.8305465437871,222.6624203821656,453.97273457466736,224.10828025477707,455.1149226055476,224.10828025477707C456.25711063642785,224.10828025477707,457.39929866730813,223.1443736730361,458.5414866981884,222.6624203821656C459.6836747290686,222.18046709129513,460.8258627599489,221.21656050955414,461.9680507908291,221.21656050955414C463.1102388217094,221.21656050955414,464.2524268525896,221.21656050955414,465.3946148834699,221.21656050955414C466.5368029143502,221.21656050955414,467.6789909452304,220.49363057324842,468.8211789761107,219.77070063694268C469.96336700699095,219.04777070063693,471.10555503787117,216.87898089171975,472.24774306875145,216.87898089171975C473.38993109963167,216.87898089171975,474.53211913051194,217.36093418259023,475.67430716139216,218.3248407643312C476.81649519227244,219.28874734607223,477.9586832231527,224.10828025477707,479.100871254033,224.10828025477707C480.2430592849133,224.10828025477707,481.3852473157935,216.87898089171975,482.52743534667377,216.87898089171975C483.669623377554,216.87898089171975,484.81181140843427,225.55414012738854,485.9539994393145,225.55414012738854C487.09618747019476,225.55414012738854,488.23837550107504,222.6624203821656,489.3805635319553,222.6624203821656C490.52275156283554,222.6624203821656,491.6649395937158,222.6624203821656,492.80712762459603,222.6624203821656C493.9493156554763,222.6624203821656,495.09150368635653,222.6624203821656,496.2336917172368,222.6624203821656C497.37587974811703,222.6624203821656,498.5180677789973,215.43312101910828,499.6602558098775,215.43312101910828C500.8024438407578,215.43312101910828,501.9446318716381,218.3248407643312,503.08681990251836,218.3248407643312C504.2290079333986,218.3248407643312,505.37119596427885,216.87898089171975,506.5133839951591,216.87898089171975C507.65557202603935,216.87898089171975,508.79776005691957,221.21656050955414,509.93994808779985,221.21656050955414C511.0821361186801,221.21656050955414,512.2243241495604,220.73460721868366,513.3665121804406,219.77070063694268C514.5087002113208,218.8067940552017,515.6508882422012,213.98726114649682,516.7930762730814,208.20382165605096C517.9352643039616,202.4203821656051,519.077452334842,186.0339702760085,520.2196403657222,185.0700636942675C521.3618283966024,184.10615711252652,522.5040164274827,183.62420382165604,523.646204458363,183.62420382165604C524.7883924892432,183.62420382165604,525.9305805201235,195.43205944798302,527.0727685510037,199.52866242038218C528.2149565818839,203.62526539278133,529.3571446127643,208.20382165605096,530.4993326436445,208.20382165605096C531.6415206745247,208.20382165605096,532.783708705405,206.7579617834395,533.9258967362853,206.7579617834395C535.0680847671655,206.7579617834395,536.2102727980458,208.20382165605096,537.352460828926,211.0955414012739C538.4946488598063,213.98726114649673,539.6368368906865,225.55414012738854,540.7790249215667,225.55414012738854C541.921212952447,225.55414012738854,543.0634009833273,219.77070063694268,544.2055890142076,219.77070063694268C545.3477770450878,219.77070063694268,546.4899650759681,221.21656050955414,547.6321531068484,221.21656050955414C548.7743411377286,221.21656050955414,549.9165291686088,219.77070063694268,551.058717199489,219.77070063694268C552.2009052303692,219.77070063694268,553.3430932612496,227,554.4852812921298,227C555.62746932301,227,556.7696573538904,227,557.9118453847706,227C559.0540334156508,227,560.1962214465311,227,561.3384094774113,227" stroke="rgb(31,119,180)" id="fires" style="stroke-width: 1; stroke-linejoin: miter; stroke-linecap: butt; fill: none; mix-blend-mode: normal;"/><g id="x-svg axis-svg" transform="translate(0, 227)"><line x1="0" x2="571" y1="0" y2="0" style="stroke: rgb(51, 51, 51); stroke-width: 1;"/></g><g id="free-texts-svg"><text transform="translate(455.7347034019435, 72.50955414012739) translate(-37.50001525878906, -10) translate(37.50001525878906, 0)" fill="rgb(51, 51, 51)" style="text-anchor: middle; font-family: BentonSans; font-weight: 400; font-size: 10px;"><tspan x="0" dy="10">Floyd's death </tspan></text></g></g></g><rect width="14" height="14" transform="translate(0, 80.40625)" fill="rgb(255,127,14)" id="fires" style="opacity: 0.5; fill: rgb(255, 127, 14);"/><g id="fires-svg"><text transform="translate(18, 81.234375)" fill="rgb(51,51,51)" style="font-family: BentonSans; font-weight: 400; font-size: 12px;"><tspan x="0" dy="12">Confirmed fires</tspan></text></g><rect width="14" height="14" transform="translate(113, 80.40625)" fill="rgb(107,178,244)" id="calls_911" style="opacity: 0.5; fill: rgb(107, 178, 244);"/><g id="calls_911-svg"><text transform="translate(131, 81.234375)" fill="rgb(51,51,51)" style="font-family: BentonSans; font-weight: 400; font-size: 12px;"><tspan x="0" dy="12">Police incidents</tspan></text></g></g><g id="after-body-svg"/><g id="above-footer-svg"/><g id="footer-svg"><g id="footer-inner-svg"><g id="footer-main-svg"><g id="text-svg"><text transform="translate(0, 382)" fill="rgb(136,136,136)" style="font-family: BentonSans; font-weight: 400; font-size: 11px;"><tspan x="0" dy="11">Chart:</tspan></text><text transform="translate(34, 382)" fill="rgb(136,136,136)" style="font-family: BentonSans; font-weight: 400; font-size: 11px;"><tspan x="0" dy="11">Jeff Hargarten, Star Tribune</tspan></text></g><g id="text-svg"><text transform="translate(174, 382)" fill="rgb(136,136,136)" style="font-family: BentonSans; font-weight: 400; font-size: 11px;"><tspan x="0" dy="11"></tspan></text></g><g id="text-svg"><text transform="translate(185, 382)" fill="rgb(136,136,136)" style="font-family: BentonSans; font-weight: 400; font-size: 11px;"><tspan x="0" dy="11">Source:</tspan></text><text transform="translate(226, 382)" fill="rgb(136,136,136)" style="font-family: BentonSans; font-weight: 400; font-size: 11px;"><tspan x="0" dy="11">City of Minneapolis</tspan></text></g></g></g></g><g id="below-footer-svg"/></g></svg>