<svg xmlns:xlink="http://www.w3.org/1999/xlink" xmlns="http://www.w3.org/2000/svg" id="exportSvg" width="600" height="400"><defs/><g><g id="header-svg"><g id="text-svg"><text transform="translate(0, -2)" fill="rgb(51,51,51)" style="font-family: BentonSans; font-weight: 700; font-size: 19px;"><tspan x="0" dy="19">A frenzy of Minneapolis police and fire activity</tspan></text></g><g id="text-svg"><text transform="translate(0, 31)" fill="rgb(51,51,51)" style="font-family: BentonSans; font-weight: 400; font-size: 15px;"><tspan x="0" dy="15">Police incidents and fires increased dramatically during the immediate unrest after </tspan></text><text transform="translate(0, 51)" fill="rgb(51,51,51)" style="font-family: BentonSans; font-weight: 400; font-size: 15px;"><tspan x="0" dy="15">Floyd's death, but have since dropped.</tspan></text></g></g><g id="chart-svg"><g id="group-svg" clip-path="url(#rect-mask-group-0)" transform="translate(0, 80)"><clipPath id="rect-mask-group-0"><rect x="0" y="0" width="600" height="279"/></clipPath><g id="group-svg" transform="translate(26, 34)"><g id="x-svg ticks-svg" transform="translate(0, 232)"><g transform="translate(9.661590556744033, 0)"><text transform="translate(-10, -12) translate(10, 11)" fill="rgb(133, 133, 133)" style="text-anchor: middle; font-family: BentonSans; font-weight: 400; font-size: 12px;"><tspan x="0" dy="12">Jan</tspan></text></g><g transform="translate(116.54897422373773, 0)"><text transform="translate(-10, -12) translate(10, 11)" fill="rgb(133, 133, 133)" style="text-anchor: middle; font-family: BentonSans; font-weight: 400; font-size: 12px;"><tspan x="0" dy="12">Feb</tspan></text></g><g transform="translate(216.5403976541512, 0)"><text transform="translate(-11.5, -12) translate(11.5, 11)" fill="rgb(133, 133, 133)" style="text-anchor: middle; font-family: BentonSans; font-weight: 400; font-size: 12px;"><tspan x="0" dy="12">Mar</tspan></text></g><g transform="translate(323.4277813211449, 0)"><text transform="translate(-10, -12) translate(10, 11)" fill="rgb(133, 133, 133)" style="text-anchor: middle; font-family: BentonSans; font-weight: 400; font-size: 12px;"><tspan x="0" dy="12">Apr</tspan></text></g><g transform="translate(426.86718486984853, 0)"><text transform="translate(-12.5, -12) translate(12.5, 11)" fill="rgb(133, 133, 133)" style="text-anchor: middle; font-family: BentonSans; font-weight: 400; font-size: 12px;"><tspan x="0" dy="12">May</tspan></text></g><g transform="translate(533.7545685368422, 0)"><text transform="translate(-10, -12) translate(10, 11)" fill="rgb(133, 133, 133)" style="text-anchor: middle; font-family: BentonSans; font-weight: 400; font-size: 12px;"><tspan x="0" dy="12">Jun</tspan></text></g></g><g id="free-range-svg"><rect width="1" height="227" transform="translate(507.93542297050726, 0)" fill="rgb(51,51,51)" style="opacity: 0.72; fill: rgb(51, 51, 51);"/></g><g id="y-grid-svg"><g id="tick-svg tick-major-svg" transform="translate(0, 227)"><text transform="translate(-4, 4) translate(-8, -12) translate(8, 0)" fill="rgb(133, 133, 133)" style="text-anchor: end; font-family: BentonSans; font-weight: 400; font-size: 12px;"><tspan x="0" dy="12">0</tspan></text></g><g transform="translate(0, 198.0828025477707)"><line x1="0" x2="571" y1="0" y2="0" style="stroke: rgb(238, 238, 238); stroke-width: 1;"/><text transform="translate(-4, 4) translate(-15, -12) translate(15, 0)" fill="rgb(133, 133, 133)" style="text-anchor: end; font-family: BentonSans; font-weight: 400; font-size: 12px;"><tspan x="0" dy="12">20</tspan></text></g><g transform="translate(0, 169.1656050955414)"><line x1="0" x2="571" y1="0" y2="0" style="stroke: rgb(238, 238, 238); stroke-width: 1;"/><text transform="translate(-4, 4) translate(-15, -12) translate(15, 0)" fill="rgb(133, 133, 133)" style="text-anchor: end; font-family: BentonSans; font-weight: 400; font-size: 12px;"><tspan x="0" dy="12">40</tspan></text></g><g transform="translate(0, 140.24840764331208)"><line x1="0" x2="571" y1="0" y2="0" style="stroke: rgb(238, 238, 238); stroke-width: 1;"/><text transform="translate(-4, 4) translate(-15, -12) translate(15, 0)" fill="rgb(133, 133, 133)" style="text-anchor: end; font-family: BentonSans; font-weight: 400; font-size: 12px;"><tspan x="0" dy="12">60</tspan></text></g><g transform="translate(0, 111.3312101910828)"><line x1="0" x2="571" y1="0" y2="0" style="stroke: rgb(238, 238, 238); stroke-width: 1;"/><text transform="translate(-4, 4) translate(-15, -12) translate(15, 0)" fill="rgb(133, 133, 133)" style="text-anchor: end; font-family: BentonSans; font-weight: 400; font-size: 12px;"><tspan x="0" dy="12">80</tspan></text></g><g transform="translate(0, 82.4140127388535)"><line x1="0" x2="571" y1="0" y2="0" style="stroke: rgb(238, 238, 238); stroke-width: 1;"/><text transform="translate(-4, 4) translate(-21, -12) translate(21, 0)" fill="rgb(133, 133, 133)" style="text-anchor: end; font-family: BentonSans; font-weight: 400; font-size: 12px;"><tspan x="0" dy="12">100</tspan></text></g><g transform="translate(0, 53.496815286624184)"><line x1="0" x2="571" y1="0" y2="0" style="stroke: rgb(238, 238, 238); stroke-width: 1;"/><text transform="translate(-4, 4) translate(-20, -12) translate(20, 0)" fill="rgb(133, 133, 133)" style="text-anchor: end; font-family: BentonSans; font-weight: 400; font-size: 12px;"><tspan x="0" dy="12">120</tspan></text></g><g transform="translate(0, 24.579617834394895)"><line x1="0" x2="571" y1="0" y2="0" style="stroke: rgb(238, 238, 238); stroke-width: 1;"/><text transform="translate(-4, 4) translate(-20, -12) translate(20, 0)" fill="rgb(133, 133, 133)" style="text-anchor: end; font-family: BentonSans; font-weight: 400; font-size: 12px;"><tspan x="0" dy="12">140</tspan></text></g></g><path d="M9.661590556744033,227C10.81091726284074,227,11.960243968937446,227,13.109570675034153,227C14.25889738113086,227,15.408224087227564,227,16.55755079332427,227C17.706877499420976,227,18.856204205517685,227,20.00553091161439,227C21.154857617711095,227,22.304184323807803,227,23.453511029904508,227C24.602837736001216,227,25.752164442097925,227,26.901491148194633,227C28.05081785429134,227,29.200144560388047,227,30.349471266484752,227C31.498797972581457,227,32.64812467867816,227,33.79745138477487,227C34.946778090871575,227,36.096104796968284,227,37.24543150306499,227C38.394758209161694,227,39.5440849152584,227,40.693411621355104,227C41.84273832745181,227,42.99206503354852,227,44.14139173964523,227C45.29071844574194,227,46.44004515183864,227,47.58937185793535,227C48.738698564032056,227,49.88802527012876,227,51.037351976225466,227C52.186678682322174,227,53.33600538841888,227,54.48533209451559,227C55.63465880061229,227,56.783985506709,227,57.9333122128057,227C59.08263891890241,227,60.23196562499912,227,61.38129233109583,227C62.53061903719253,227,63.67994574328924,227,64.82927244938594,227C65.97859915548264,227,67.12792586157936,227,68.27725256767606,227C69.42657927377277,227,70.57590597986948,227,71.72523268596619,227C72.87455939206289,227,74.02388609815961,227,75.17321280425631,227C76.32253951035301,227,77.47186621644971,227,78.62119292254641,227C79.77051962864313,227,80.91984633473983,227,82.06917304083655,227C83.21849974693325,227,84.36782645302996,227,85.51715315912666,227C86.66647986522337,227,87.81580657132008,227,88.96513327741678,227C90.11445998351348,227,91.26378668961019,227,92.41311339570689,227C93.5624401018036,227,94.7117668079003,227,95.86109351399702,227C97.01042022009372,227,98.15974692619044,227,99.30907363228714,227C100.45840033838384,227,101.60772704448055,227,102.75705375057726,227C103.90638045667397,227,105.05570716277067,227,106.20503386886739,227C107.35436057496409,227,108.5036872810608,227,109.65301398715751,227C110.80234069325421,227,111.95166739935091,227,113.10099410544761,227C114.25032081154431,227,115.39964751764103,227,116.54897422373773,227C117.69830092983445,227,118.84762763593115,227,119.99695434202786,227C121.14628104812456,227,122.29560775422128,227,123.44493446031798,227C124.59426116641468,227,125.74358787251138,227,126.89291457860809,227C128.0422412847048,227,129.1915679908015,227,130.3408946968982,227C131.4902214029949,227,132.63954810909163,227,133.78887481518834,227C134.93820152128504,227,136.08752822738174,227,137.23685493347844,227C138.38618163957514,227,139.53550834567187,227,140.68483505176857,227C141.83416175786527,227,142.983488463962,227,144.1328151700587,227C145.2821418761554,227,146.4314685822521,227,147.5807952883488,227C148.7301219944455,227,149.87944870054224,227,151.02877540663894,227C152.17810211273564,227,153.32742881883235,227,154.47675552492905,227C155.62608223102575,227,156.77540893712245,227,157.92473564321915,227C159.07406234931585,227,160.22338905541258,227,161.37271576150928,227C162.52204246760598,227,163.67136917370271,227,164.82069587979942,227C165.97002258589612,227,167.11934929199282,227,168.26867599808952,227C169.41800270418622,227,170.56732941028295,227,171.71665611637965,227C172.86598282247635,227,174.01530952857308,227,175.16463623466979,227C176.3139629407665,227,177.4632896468632,227,178.6126163529599,227C179.7619430590566,227,180.91126976515332,227,182.06059647125002,227C183.20992317734672,227,184.3592498834434,227,185.5085765895401,227C186.6579032956368,227,187.80723000173353,227,188.95655670783023,227C190.10588341392693,227,191.25521012002366,227,192.40453682612036,227C193.55386353221706,227,194.70319023831377,227,195.85251694441047,227C197.00184365050717,227,198.1511703566039,227,199.3004970627006,227C200.4498237687973,227,201.59915047489403,227,202.74847718099073,227C203.89780388708743,227,205.04713059318414,227,206.19645729928084,227C207.34578400537754,227,208.49511071147427,227,209.64443741757097,227C210.79376412366767,227,211.9430908297644,227,213.0924175358611,227C214.2417442419578,227,215.3910709480545,227,216.5403976541512,227C217.6897243602479,227,218.8390510663446,227,219.9883777724413,227C221.137704478538,227,222.2870311846347,227,223.43635789073141,227C224.58568459682812,227,225.73501130292485,227,226.88433800902155,227C228.03366471511825,227,229.18299142121498,227,230.33231812731168,227C231.48164483340838,227,232.63097153950508,227,233.78029824560178,227C234.9296249516985,227,236.07895165779522,227,237.22827836389192,227C238.37760506998862,227,239.52693177608535,227,240.67625848218205,227C241.82558518827875,227,242.97491189437545,227,244.12423860047215,227C245.27356530656886,227,246.42289201266559,227,247.5722187187623,227C248.721545424859,227,249.87087213095572,227,251.02019883705242,227C252.16952554314912,227,253.3188522492458,227,254.4681789553425,227C255.6175056614392,227,256.7668323675359,227,257.9161590736326,227C259.06548577972933,227,260.21481248582603,227,261.36413919192273,227C262.51346589801943,227,263.6627926041162,227,264.8121193102129,227C265.9614460163096,227,267.1107727224063,227,268.260099428503,227C269.4094261345997,227,270.5587528406964,227,271.7080795467931,227C272.8574062528898,227,274.0067329589865,227,275.1560596650832,227C276.3053863711799,227,277.45471307727666,227,278.60403978337337,227C279.75336648947007,227,280.90269319556677,227,282.05201990166347,227C283.2013466077602,227,284.3506733138569,227,285.5000000199536,227C286.6493267260503,227,287.79865343214703,227,288.94798013824374,227C290.09730684434044,227,291.24663355043714,227,292.39596025653384,227C293.54528696263054,227,294.69461366872724,227,295.84394037482394,227C296.99326708092065,227,298.1425937870174,227,299.2919204931141,227C300.4412471992108,227,301.5905739053075,227,302.7399006114042,227C303.8892273175009,227,305.03855402359756,227,306.18788072969426,227C307.33720743579096,227,308.4865341418877,227,309.6358608479844,227C310.7851875540811,227,311.9345142601778,227,313.0838409662745,227C314.2331676723712,227,315.3824943784679,227,316.5318210845646,227C317.6811477906613,227,318.8304744967581,227,319.9798012028548,227C321.1291279089515,227,322.2784546150482,227,323.4277813211449,227C324.5771080272416,227,325.7264347333383,227,326.875761439435,227C328.0250881455317,227,329.17441485162846,227,330.32374155772516,227C331.47306826382186,227,332.62239496991856,227,333.77172167601526,227C334.92104838211196,227,336.07037508820866,227,337.21970179430537,227C338.36902850040207,227,339.5183552064988,227,340.6676819125955,227C341.8170086186922,227,342.96633532478893,227,344.11566203088563,227C345.26498873698233,227,346.41431544307903,227,347.56364214917573,227C348.71296885527244,227,349.8622955613692,227,351.0116222674659,227C352.1609489735626,227,353.3102756796593,227,354.459602385756,227C355.6089290918527,227,356.7582557979494,227,357.9075825040461,227C359.0569092101428,227,360.20623591623956,227,361.35556262233627,227C362.50488932843297,227,363.65421603452967,227,364.80354274062637,227C365.95286944672307,227,367.1021961528198,227,368.2515228589165,227C369.4008495650132,227,370.5501762711098,227,371.6995029772065,227C372.8488296833032,227,373.9981563894,227,375.1474830954967,227C376.2968098015934,227,377.4461365076901,227,378.5954632137868,227C379.7447899198835,227,380.8941166259802,227,382.0434433320769,227C383.1927700381736,227,384.34209674427035,227,385.49142345036705,227C386.64075015646375,227,387.79007686256045,227,388.93940356865716,227C390.08873027475386,227,391.23805698085056,227,392.38738368694726,227C393.53671039304396,227,394.6860370991407,227,395.8353638052374,227C396.9846905113341,227,398.1340172174308,227,399.2833439235275,227C400.4326706296242,227,401.5819973357209,227,402.73132404181763,227C403.88065074791433,227,405.0299774540111,227,406.1793041601078,227C407.3286308662045,227,408.4779575723012,227,409.6272842783979,227C410.7766109844946,227,411.9259376905913,227,413.075264396688,227C414.2245911027847,227,415.37391780888146,227,416.52324451497816,227C417.67257122107486,227,418.82189792717156,227,419.97122463326826,227C421.12055133936497,227,422.26987804546167,227,423.41920475155837,227C424.56853145765507,227,425.7178581637518,227,426.86718486984853,227C428.01651157594523,227,429.16583828204193,227,430.31516498813863,227C431.46449169423533,227,432.61381840033204,227,433.76314510642874,227C434.91247181252544,227,436.0617985186222,227,437.2111252247189,227C438.3604519308156,227,439.50977863691224,227,440.65910534300895,227C441.80843204910565,227,442.95775875520235,227,444.10708546129905,227C445.25641216739575,227,446.40573887349245,227,447.55506557958915,227C448.70439228568586,227,449.8537189917826,227,451.0030456978793,227C452.152372403976,227,453.3016991100727,227,454.4510258161694,227C455.6003525222661,227,456.7496792283628,227,457.8990059344595,227C459.0483326405562,227,460.197659346653,227,461.3469860527497,227C462.4963127588464,227,463.6456394649431,227,464.7949661710398,227C465.9442928771365,227,467.0936195832332,227,468.2429462893299,227C469.3922729954266,227,470.54159970152335,227,471.69092640762005,227C472.84025311371676,227,473.98957981981346,227,475.13890652591016,227C476.28823323200686,227,477.43755993810356,227,478.58688664420026,227C479.73621335029696,227,480.8855400563937,227,482.0348667624904,227C483.1841934685871,227,484.3335201746838,227,485.4828468807805,227C486.63217358687723,227,487.78150029297393,227,488.93082699907063,227C490.08015370516733,227,491.2294804112641,227,492.3788071173608,227C493.5281338234575,227,494.6774605295542,227,495.8267872356509,227C496.9761139417476,227,498.1254406478443,227,499.274767353941,227C500.4240940600377,227,501.57342076613446,227,502.72274747223116,227C503.87207417832786,227,505.02140088442457,227,506.17072759052127,227C507.32005429661797,227,508.4693810027146,227,509.6187077088113,227C510.7680344149081,227,511.9173611210048,227,513.0666878271015,227C514.2160145331982,227,515.3653412392949,227,516.5146679453916,227C517.6639946514883,227,518.813321357585,227,519.9626480636817,227C521.1119747697785,227,522.2613014758751,227,523.4106281819719,227C524.5599548880685,227,525.7092815941653,227,526.858608300262,227C528.0079350063587,227,529.1572617124554,227,530.3065884185521,227C531.4559151246488,227,532.6052418307455,227,533.7545685368422,227C534.9038952429389,227,536.0532219490356,227,537.2025486551323,227C538.351875361229,227,539.5012020673257,227,540.6505287734224,227C541.7998554795191,227,542.9491821856158,227,544.0985088917125,227C545.2478355978093,227,546.3971623039059,227,547.5464890100027,227C548.6958157160993,227,549.8451424221961,227,550.9944691282927,227C552.1437958343895,227,553.2931225404861,227,554.4424492465829,227C555.5917759526797,227,556.7411026587763,227,557.8904293648731,227C559.0397560709697,227,560.1890827770665,227,561.3384094831631,227L561.3384094831631,227C560.1890827770665,227,559.0397560709697,227,557.8904293648731,227C556.7411026587763,227,555.5917759526797,219.77070063694268,554.4424492465829,219.77070063694268C553.2931225404861,219.77070063694268,552.1437958343895,221.21656050955414,550.9944691282927,221.21656050955414C549.8451424221961,221.21656050955414,548.6958157160993,219.77070063694268,547.5464890100027,219.77070063694268C546.3971623039059,219.77070063694268,545.2478355978093,225.55414012738854,544.0985088917125,225.55414012738854C542.9491821856158,225.55414012738854,541.7998554795191,213.9872611464969,540.6505287734224,211.0955414012739C539.5012020673257,208.20382165605096,538.351875361229,206.7579617834395,537.2025486551323,206.7579617834395C536.0532219490356,206.7579617834395,534.9038952429389,208.20382165605096,533.7545685368422,208.20382165605096C532.6052418307455,208.20382165605096,531.4559151246488,203.62526539278122,530.3065884185521,199.52866242038218C529.1572617124554,195.432059447983,528.0079350063587,183.62420382165604,526.858608300262,183.62420382165604C525.7092815941653,183.62420382165604,524.5599548880685,184.10615711252652,523.4106281819719,185.0700636942675C522.2613014758751,186.03397027600852,521.1119747697785,202.4203821656051,519.9626480636817,208.20382165605096C518.813321357585,213.98726114649682,517.6639946514883,218.80679405520166,516.5146679453916,219.77070063694268C515.3653412392949,220.73460721868366,514.2160145331982,221.21656050955414,513.0666878271015,221.21656050955414C511.9173611210048,221.21656050955414,510.7680344149081,216.87898089171975,509.6187077088113,216.87898089171975C508.4693810027146,216.87898089171975,507.32005429661797,218.3248407643312,506.17072759052127,218.3248407643312C505.02140088442457,218.3248407643312,503.87207417832786,215.43312101910828,502.72274747223116,215.43312101910828C501.57342076613446,215.43312101910828,500.4240940600377,222.6624203821656,499.274767353941,222.6624203821656C498.1254406478443,222.6624203821656,496.9761139417476,222.6624203821656,495.8267872356509,222.6624203821656C494.6774605295542,222.6624203821656,493.5281338234575,222.6624203821656,492.3788071173608,222.6624203821656C491.2294804112641,222.6624203821656,490.08015370516733,225.55414012738854,488.93082699907063,225.55414012738854C487.78150029297393,225.55414012738854,486.63217358687723,216.87898089171975,485.4828468807805,216.87898089171975C484.3335201746838,216.87898089171975,483.1841934685871,224.10828025477707,482.0348667624904,224.10828025477707C480.8855400563937,224.10828025477707,479.73621335029696,219.2887473460722,478.58688664420026,218.3248407643312C477.43755993810356,217.36093418259023,476.28823323200686,216.87898089171975,475.13890652591016,216.87898089171975C473.98957981981346,216.87898089171975,472.84025311371676,219.04777070063696,471.69092640762005,219.77070063694268C470.54159970152335,220.49363057324842,469.3922729954266,221.21656050955414,468.2429462893299,221.21656050955414C467.0936195832332,221.21656050955414,465.9442928771365,221.21656050955414,464.7949661710398,221.21656050955414C463.6456394649431,221.21656050955414,462.4963127588464,222.18046709129513,461.3469860527497,222.6624203821656C460.197659346653,223.14437367303609,459.0483326405562,224.10828025477707,457.8990059344595,224.10828025477707C456.7496792283628,224.10828025477707,455.6003525222661,222.6624203821656,454.4510258161694,222.6624203821656C453.3016991100727,222.6624203821656,452.152372403976,222.6624203821656,451.0030456978793,222.6624203821656C449.8537189917826,222.6624203821656,448.70439228568586,213.98726114649682,447.55506557958915,213.98726114649682C446.40573887349245,213.98726114649682,445.25641216739575,220.73460721868366,444.10708546129905,222.6624203821656C442.95775875520235,224.59023354564755,441.80843204910565,225.55414012738854,440.65910534300895,225.55414012738854C439.50977863691224,225.55414012738854,438.3604519308156,221.21656050955414,437.2111252247189,219.77070063694268C436.0617985186222,218.32484076433119,434.91247181252544,217.84288747346073,433.76314510642874,216.87898089171975C432.61381840033204,215.9150743099788,431.46449169423533,213.98726114649682,430.31516498813863,213.98726114649682C429.16583828204193,213.98726114649682,428.01651157594523,214.9511677282378,426.86718486984853,215.43312101910828C425.7178581637518,215.91507430997876,424.56853145765507,215.91507430997876,423.41920475155837,216.87898089171975C422.26987804546167,217.8428874734607,421.12055133936497,225.55414012738854,419.97122463326826,225.55414012738854C418.82189792717156,225.55414012738854,417.67257122107486,225.55414012738854,416.52324451497816,225.55414012738854C415.37391780888146,225.55414012738854,414.2245911027847,223.38535031847135,413.075264396688,222.6624203821656C411.9259376905913,221.9394904458599,410.7766109844946,221.21656050955414,409.6272842783979,221.21656050955414C408.4779575723012,221.21656050955414,407.3286308662045,221.21656050955414,406.1793041601078,221.21656050955414C405.0299774540111,221.21656050955414,403.88065074791433,222.6624203821656,402.73132404181763,222.6624203821656C401.5819973357209,222.6624203821656,400.4326706296242,218.3248407643312,399.2833439235275,218.3248407643312C398.1340172174308,218.3248407643312,396.9846905113341,221.21656050955414,395.8353638052374,221.21656050955414C394.6860370991407,221.21656050955414,393.53671039304396,219.77070063694268,392.38738368694726,219.77070063694268C391.23805698085056,219.77070063694268,390.08873027475386,219.77070063694268,388.93940356865716,219.77070063694268C387.79007686256045,219.77070063694268,386.64075015646375,224.10828025477707,385.49142345036705,224.10828025477707C384.34209674427035,224.10828025477707,383.1927700381736,216.87898089171975,382.0434433320769,216.87898089171975C380.8941166259802,216.87898089171975,379.7447899198835,223.14437367303609,378.5954632137868,224.10828025477707C377.4461365076901,225.07218683651806,376.2968098015934,225.55414012738854,375.1474830954967,225.55414012738854C373.9981563894,225.55414012738854,372.8488296833032,218.3248407643312,371.6995029772065,218.3248407643312C370.5501762711098,218.3248407643312,369.4008495650132,227,368.2515228589165,227C367.1021961528198,227,365.95286944672307,226.03609341825901,364.80354274062637,225.55414012738854C363.65421603452967,225.07218683651806,362.50488932843297,225.07218683651806,361.35556262233627,224.10828025477707C360.20623591623956,223.14437367303609,359.0569092101428,216.87898089171975,357.9075825040461,216.87898089171975C356.7582557979494,216.87898089171975,355.6089290918527,224.10828025477707,354.459602385756,224.10828025477707C353.3102756796593,224.10828025477707,352.1609489735626,224.10828025477707,351.0116222674659,224.10828025477707C349.8622955613692,224.10828025477707,348.71296885527244,218.3248407643312,347.56364214917573,218.3248407643312C346.41431544307903,218.3248407643312,345.26498873698233,224.10828025477707,344.11566203088563,224.10828025477707C342.96633532478893,224.10828025477707,341.8170086186922,221.93949044585986,340.6676819125955,221.21656050955414C339.5183552064988,220.4936305732484,338.36902850040207,219.77070063694268,337.21970179430537,219.77070063694268C336.07037508820866,219.77070063694268,334.92104838211196,224.10828025477707,333.77172167601526,224.10828025477707C332.62239496991856,224.10828025477707,331.47306826382186,222.1804670912951,330.32374155772516,221.21656050955414C329.17441485162846,220.25265392781316,328.0250881455317,218.3248407643312,326.875761439435,218.3248407643312C325.7264347333383,218.3248407643312,324.5771080272416,224.10828025477707,323.4277813211449,224.10828025477707C322.2784546150482,224.10828025477707,321.1291279089515,219.77070063694268,319.9798012028548,219.77070063694268C318.8304744967581,219.77070063694268,317.6811477906613,222.6624203821656,316.5318210845646,222.6624203821656C315.3824943784679,222.6624203821656,314.2331676723712,222.6624203821656,313.0838409662745,222.6624203821656C311.9345142601778,222.6624203821656,310.7851875540811,225.55414012738854,309.6358608479844,225.55414012738854C308.4865341418877,225.55414012738854,307.33720743579096,225.55414012738854,306.18788072969426,225.55414012738854C305.03855402359756,225.55414012738854,303.8892273175009,219.77070063694268,302.7399006114042,219.77070063694268C301.5905739053075,219.77070063694268,300.4412471992108,224.10828025477707,299.2919204931141,224.10828025477707C298.1425937870174,224.10828025477707,296.99326708092065,224.10828025477707,295.84394037482394,224.10828025477707C294.69461366872724,224.10828025477707,293.54528696263054,227,292.39596025653384,227C291.24663355043714,227,290.09730684434044,219.77070063694268,288.94798013824374,219.77070063694268C287.79865343214703,219.77070063694268,286.6493267260503,224.10828025477707,285.5000000199536,224.10828025477707C284.3506733138569,224.10828025477707,283.2013466077602,224.10828025477707,282.05201990166347,224.10828025477707C280.90269319556677,224.10828025477707,279.75336648947007,221.21656050955414,278.60403978337337,221.21656050955414C277.45471307727666,221.21656050955414,276.3053863711799,221.93949044585986,275.1560596650832,222.6624203821656C274.0067329589865,223.38535031847132,272.8574062528898,225.55414012738854,271.7080795467931,225.55414012738854C270.5587528406964,225.55414012738854,269.4094261345997,225.07218683651806,268.260099428503,224.10828025477707C267.1107727224063,223.14437367303609,265.9614460163096,215.43312101910828,264.8121193102129,215.43312101910828C263.6627926041162,215.43312101910828,262.51346589801943,218.8067940552017,261.36413919192273,219.77070063694268C260.21481248582603,220.73460721868364,259.06548577972933,220.73460721868366,257.9161590736326,221.21656050955414C256.7668323675359,221.69851380042462,255.6175056614392,222.6624203821656,254.4681789553425,222.6624203821656C253.3188522492458,222.6624203821656,252.16952554314912,218.3248407643312,251.02019883705242,218.3248407643312C249.87087213095572,218.3248407643312,248.721545424859,218.3248407643312,247.5722187187623,218.3248407643312C246.42289201266559,218.3248407643312,245.27356530656886,213.98726114649682,244.12423860047215,213.98726114649682C242.97491189437545,213.98726114649682,241.82558518827875,219.77070063694268,240.67625848218205,219.77070063694268C239.52693177608535,219.77070063694268,238.37760506998862,218.3248407643312,237.22827836389192,218.3248407643312C236.07895165779522,218.3248407643312,234.9296249516985,220.01167728237792,233.78029824560178,221.21656050955414C232.63097153950508,222.42144373673037,231.48164483340838,224.59023354564758,230.33231812731168,225.55414012738854C229.18299142121498,226.51804670912952,228.03366471511825,227,226.88433800902155,227C225.73501130292485,227,224.58568459682812,226.27707006369428,223.43635789073141,225.55414012738854C222.2870311846347,224.83121019108282,221.137704478538,222.6624203821656,219.9883777724413,222.6624203821656C218.8390510663446,222.6624203821656,217.6897243602479,227,216.5403976541512,227C215.3910709480545,227,214.2417442419578,224.8312101910828,213.0924175358611,224.10828025477707C211.9430908297644,223.38535031847132,210.79376412366767,223.14437367303609,209.64443741757097,222.6624203821656C208.49511071147427,222.18046709129513,207.34578400537754,221.21656050955414,206.19645729928084,221.21656050955414C205.04713059318414,221.21656050955414,203.89780388708743,225.55414012738854,202.74847718099073,225.55414012738854C201.59915047489403,225.55414012738854,200.4498237687973,222.6624203821656,199.3004970627006,222.6624203821656C198.1511703566039,222.6624203821656,197.00184365050717,224.10828025477707,195.85251694441047,224.10828025477707C194.70319023831377,224.10828025477707,193.55386353221706,223.62632696390656,192.40453682612036,222.6624203821656C191.25521012002366,221.69851380042462,190.10588341392693,218.3248407643312,188.95655670783023,218.3248407643312C187.80723000173353,218.3248407643312,186.6579032956368,218.8067940552017,185.5085765895401,219.77070063694268C184.3592498834434,220.73460721868364,183.20992317734672,227,182.06059647125002,227C180.91126976515332,227,179.7619430590566,225.07218683651806,178.6126163529599,224.10828025477707C177.4632896468632,223.14437367303609,176.3139629407665,221.21656050955414,175.16463623466979,221.21656050955414C174.01530952857308,221.21656050955414,172.86598282247635,227,171.71665611637965,227C170.56732941028295,227,169.41800270418622,225.3131634819533,168.26867599808952,224.10828025477707C167.11934929199282,222.90339702760085,165.97002258589612,219.77070063694268,164.82069587979942,219.77070063694268C163.67136917370271,219.77070063694268,162.52204246760598,221.93949044585986,161.37271576150928,222.6624203821656C160.22338905541258,223.38535031847135,159.07406234931585,224.10828025477707,157.92473564321915,224.10828025477707C156.77540893712245,224.10828025477707,155.62608223102575,221.21656050955414,154.47675552492905,221.21656050955414C153.32742881883235,221.21656050955414,152.17810211273564,225.55414012738854,151.02877540663894,225.55414012738854C149.87944870054224,225.55414012738854,148.7301219944455,224.10828025477707,147.5807952883488,224.10828025477707C146.4314685822521,224.10828025477707,145.2821418761554,225.55414012738854,144.1328151700587,225.55414012738854C142.983488463962,225.55414012738854,141.83416175786527,222.6624203821656,140.68483505176857,222.6624203821656C139.53550834567187,222.6624203821656,138.38618163957514,222.6624203821656,137.23685493347844,222.6624203821656C136.08752822738174,222.6624203821656,134.93820152128504,220.4936305732484,133.78887481518834,219.77070063694268C132.63954810909163,219.04777070063693,131.4902214029949,218.3248407643312,130.3408946968982,218.3248407643312C129.1915679908015,218.3248407643312,128.0422412847048,225.55414012738854,126.89291457860809,225.55414012738854C125.74358787251138,225.55414012738854,124.59426116641468,219.77070063694268,123.44493446031798,219.77070063694268C122.29560775422128,219.77070063694268,121.14628104812456,225.55414012738854,119.99695434202786,225.55414012738854C118.84762763593115,225.55414012738854,117.69830092983445,218.3248407643312,116.54897422373773,218.3248407643312C115.39964751764103,218.3248407643312,114.25032081154431,220.01167728237792,113.10099410544761,221.21656050955414C111.95166739935091,222.42144373673037,110.80234069325421,225.55414012738854,109.65301398715751,225.55414012738854C108.5036872810608,225.55414012738854,107.35436057496409,222.6624203821656,106.20503386886739,222.6624203821656C105.05570716277067,222.6624203821656,103.90638045667397,222.6624203821656,102.75705375057726,222.6624203821656C101.60772704448055,222.6624203821656,100.45840033838384,221.21656050955414,99.30907363228714,221.21656050955414C98.15974692619044,221.21656050955414,97.01042022009372,221.21656050955414,95.86109351399702,221.21656050955414C94.7117668079003,221.21656050955414,93.5624401018036,221.93949044585986,92.41311339570689,222.6624203821656C91.26378668961019,223.38535031847132,90.11445998351348,225.55414012738854,88.96513327741678,225.55414012738854C87.81580657132008,225.55414012738854,86.66647986522337,222.6624203821656,85.51715315912666,222.6624203821656C84.36782645302996,222.6624203821656,83.21849974693325,225.55414012738854,82.06917304083655,225.55414012738854C80.91984633473983,225.55414012738854,79.77051962864313,221.21656050955414,78.62119292254641,221.21656050955414C77.47186621644971,221.21656050955414,76.32253951035301,225.55414012738854,75.17321280425631,225.55414012738854C74.02388609815961,225.55414012738854,72.87455939206289,221.21656050955414,71.72523268596619,221.21656050955414C70.57590597986948,221.21656050955414,69.42657927377277,223.14437367303609,68.27725256767606,224.10828025477707C67.12792586157936,225.07218683651806,65.97859915548264,227,64.82927244938594,227C63.67994574328924,227,62.53061903719253,224.8312101910828,61.38129233109583,224.10828025477707C60.23196562499912,223.38535031847132,59.08263891890241,223.38535031847135,57.9333122128057,222.6624203821656C56.783985506709,221.9394904458599,55.63465880061229,219.77070063694268,54.48533209451559,219.77070063694268C53.33600538841888,219.77070063694268,52.186678682322174,223.14437367303609,51.037351976225466,224.10828025477707C49.88802527012876,225.07218683651806,48.738698564032056,225.55414012738854,47.58937185793535,225.55414012738854C46.44004515183864,225.55414012738854,45.29071844574194,218.3248407643312,44.14139173964523,218.3248407643312C42.99206503354852,218.3248407643312,41.84273832745181,224.10828025477707,40.693411621355104,224.10828025477707C39.5440849152584,224.10828025477707,38.394758209161694,224.10828025477707,37.24543150306499,224.10828025477707C36.096104796968284,224.10828025477707,34.946778090871575,218.3248407643312,33.79745138477487,218.3248407643312C32.64812467867816,218.3248407643312,31.498797972581457,225.55414012738854,30.349471266484752,225.55414012738854C29.200144560388047,225.55414012738854,28.05081785429134,224.8312101910828,26.901491148194633,224.10828025477707C25.752164442097925,223.38535031847132,24.602837736001216,221.21656050955414,23.453511029904508,221.21656050955414C22.304184323807803,221.21656050955414,21.154857617711095,222.6624203821656,20.00553091161439,222.6624203821656C18.856204205517685,222.6624203821656,17.706877499420976,222.6624203821656,16.55755079332427,222.6624203821656C15.408224087227564,222.6624203821656,14.25889738113086,227,13.109570675034153,227C11.960243968937446,227,10.81091726284074,219.77070063694268,9.661590556744033,212.54140127388536Z" id="fires" style="fill: rgb(255, 127, 14); opacity: 0.5; mix-blend-mode: normal;"/><path d="M9.661590556744033,212.54140127388536C10.81091726284074,219.77070063694268,11.960243968937446,227,13.109570675034153,227C14.25889738113086,227,15.408224087227564,222.6624203821656,16.55755079332427,222.6624203821656C17.706877499420976,222.6624203821656,18.856204205517685,222.6624203821656,20.00553091161439,222.6624203821656C21.154857617711095,222.6624203821656,22.304184323807803,221.21656050955414,23.453511029904508,221.21656050955414C24.602837736001216,221.21656050955414,25.752164442097925,223.38535031847132,26.901491148194633,224.10828025477707C28.05081785429134,224.8312101910828,29.200144560388047,225.55414012738854,30.349471266484752,225.55414012738854C31.498797972581457,225.55414012738854,32.64812467867816,218.3248407643312,33.79745138477487,218.3248407643312C34.946778090871575,218.3248407643312,36.096104796968284,224.10828025477707,37.24543150306499,224.10828025477707C38.394758209161694,224.10828025477707,39.5440849152584,224.10828025477707,40.693411621355104,224.10828025477707C41.84273832745181,224.10828025477707,42.99206503354852,218.3248407643312,44.14139173964523,218.3248407643312C45.29071844574194,218.3248407643312,46.44004515183864,225.55414012738854,47.58937185793535,225.55414012738854C48.738698564032056,225.55414012738854,49.88802527012876,225.07218683651806,51.037351976225466,224.10828025477707C52.186678682322174,223.14437367303609,53.33600538841888,219.77070063694268,54.48533209451559,219.77070063694268C55.63465880061229,219.77070063694268,56.783985506709,221.9394904458599,57.9333122128057,222.6624203821656C59.08263891890241,223.38535031847135,60.23196562499912,223.38535031847132,61.38129233109583,224.10828025477707C62.53061903719253,224.8312101910828,63.67994574328924,227,64.82927244938594,227C65.97859915548264,227,67.12792586157936,225.07218683651806,68.27725256767606,224.10828025477707C69.42657927377277,223.14437367303609,70.57590597986948,221.21656050955414,71.72523268596619,221.21656050955414C72.87455939206289,221.21656050955414,74.02388609815961,225.55414012738854,75.17321280425631,225.55414012738854C76.32253951035301,225.55414012738854,77.47186621644971,221.21656050955414,78.62119292254641,221.21656050955414C79.77051962864313,221.21656050955414,80.91984633473983,225.55414012738854,82.06917304083655,225.55414012738854C83.21849974693325,225.55414012738854,84.36782645302996,222.6624203821656,85.51715315912666,222.6624203821656C86.66647986522337,222.6624203821656,87.81580657132008,225.55414012738854,88.96513327741678,225.55414012738854C90.11445998351348,225.55414012738854,91.26378668961019,223.38535031847132,92.41311339570689,222.6624203821656C93.5624401018036,221.93949044585986,94.7117668079003,221.21656050955414,95.86109351399702,221.21656050955414C97.01042022009372,221.21656050955414,98.15974692619044,221.21656050955414,99.30907363228714,221.21656050955414C100.45840033838384,221.21656050955414,101.60772704448055,222.6624203821656,102.75705375057726,222.6624203821656C103.90638045667397,222.6624203821656,105.05570716277067,222.6624203821656,106.20503386886739,222.6624203821656C107.35436057496409,222.6624203821656,108.5036872810608,225.55414012738854,109.65301398715751,225.55414012738854C110.80234069325421,225.55414012738854,111.95166739935091,222.42144373673037,113.10099410544761,221.21656050955414C114.25032081154431,220.01167728237792,115.39964751764103,218.3248407643312,116.54897422373773,218.3248407643312C117.69830092983445,218.3248407643312,118.84762763593115,225.55414012738854,119.99695434202786,225.55414012738854C121.14628104812456,225.55414012738854,122.29560775422128,219.77070063694268,123.44493446031798,219.77070063694268C124.59426116641468,219.77070063694268,125.74358787251138,225.55414012738854,126.89291457860809,225.55414012738854C128.0422412847048,225.55414012738854,129.1915679908015,218.3248407643312,130.3408946968982,218.3248407643312C131.4902214029949,218.3248407643312,132.63954810909163,219.04777070063693,133.78887481518834,219.77070063694268C134.93820152128504,220.4936305732484,136.08752822738174,222.6624203821656,137.23685493347844,222.6624203821656C138.38618163957514,222.6624203821656,139.53550834567187,222.6624203821656,140.68483505176857,222.6624203821656C141.83416175786527,222.6624203821656,142.983488463962,225.55414012738854,144.1328151700587,225.55414012738854C145.2821418761554,225.55414012738854,146.4314685822521,224.10828025477707,147.5807952883488,224.10828025477707C148.7301219944455,224.10828025477707,149.87944870054224,225.55414012738854,151.02877540663894,225.55414012738854C152.17810211273564,225.55414012738854,153.32742881883235,221.21656050955414,154.47675552492905,221.21656050955414C155.62608223102575,221.21656050955414,156.77540893712245,224.10828025477707,157.92473564321915,224.10828025477707C159.07406234931585,224.10828025477707,160.22338905541258,223.38535031847135,161.37271576150928,222.6624203821656C162.52204246760598,221.93949044585986,163.67136917370271,219.77070063694268,164.82069587979942,219.77070063694268C165.97002258589612,219.77070063694268,167.11934929199282,222.90339702760085,168.26867599808952,224.10828025477707C169.41800270418622,225.3131634819533,170.56732941028295,227,171.71665611637965,227C172.86598282247635,227,174.01530952857308,221.21656050955414,175.16463623466979,221.21656050955414C176.3139629407665,221.21656050955414,177.4632896468632,223.14437367303609,178.6126163529599,224.10828025477707C179.7619430590566,225.07218683651806,180.91126976515332,227,182.06059647125002,227C183.20992317734672,227,184.3592498834434,220.73460721868364,185.5085765895401,219.77070063694268C186.6579032956368,218.8067940552017,187.80723000173353,218.3248407643312,188.95655670783023,218.3248407643312C190.10588341392693,218.3248407643312,191.25521012002366,221.69851380042462,192.40453682612036,222.6624203821656C193.55386353221706,223.62632696390656,194.70319023831377,224.10828025477707,195.85251694441047,224.10828025477707C197.00184365050717,224.10828025477707,198.1511703566039,222.6624203821656,199.3004970627006,222.6624203821656C200.4498237687973,222.6624203821656,201.59915047489403,225.55414012738854,202.74847718099073,225.55414012738854C203.89780388708743,225.55414012738854,205.04713059318414,221.21656050955414,206.19645729928084,221.21656050955414C207.34578400537754,221.21656050955414,208.49511071147427,222.18046709129513,209.64443741757097,222.6624203821656C210.79376412366767,223.14437367303609,211.9430908297644,223.38535031847132,213.0924175358611,224.10828025477707C214.2417442419578,224.8312101910828,215.3910709480545,227,216.5403976541512,227C217.6897243602479,227,218.8390510663446,222.6624203821656,219.9883777724413,222.6624203821656C221.137704478538,222.6624203821656,222.2870311846347,224.83121019108282,223.43635789073141,225.55414012738854C224.58568459682812,226.27707006369428,225.73501130292485,227,226.88433800902155,227C228.03366471511825,227,229.18299142121498,226.51804670912952,230.33231812731168,225.55414012738854C231.48164483340838,224.59023354564758,232.63097153950508,222.42144373673037,233.78029824560178,221.21656050955414C234.9296249516985,220.01167728237792,236.07895165779522,218.3248407643312,237.22827836389192,218.3248407643312C238.37760506998862,218.3248407643312,239.52693177608535,219.77070063694268,240.67625848218205,219.77070063694268C241.82558518827875,219.77070063694268,242.97491189437545,213.98726114649682,244.12423860047215,213.98726114649682C245.27356530656886,213.98726114649682,246.42289201266559,218.3248407643312,247.5722187187623,218.3248407643312C248.721545424859,218.3248407643312,249.87087213095572,218.3248407643312,251.02019883705242,218.3248407643312C252.16952554314912,218.3248407643312,253.3188522492458,222.6624203821656,254.4681789553425,222.6624203821656C255.6175056614392,222.6624203821656,256.7668323675359,221.69851380042462,257.9161590736326,221.21656050955414C259.06548577972933,220.73460721868366,260.21481248582603,220.73460721868364,261.36413919192273,219.77070063694268C262.51346589801943,218.8067940552017,263.6627926041162,215.43312101910828,264.8121193102129,215.43312101910828C265.9614460163096,215.43312101910828,267.1107727224063,223.14437367303609,268.260099428503,224.10828025477707C269.4094261345997,225.07218683651806,270.5587528406964,225.55414012738854,271.7080795467931,225.55414012738854C272.8574062528898,225.55414012738854,274.0067329589865,223.38535031847132,275.1560596650832,222.6624203821656C276.3053863711799,221.93949044585986,277.45471307727666,221.21656050955414,278.60403978337337,221.21656050955414C279.75336648947007,221.21656050955414,280.90269319556677,224.10828025477707,282.05201990166347,224.10828025477707C283.2013466077602,224.10828025477707,284.3506733138569,224.10828025477707,285.5000000199536,224.10828025477707C286.6493267260503,224.10828025477707,287.79865343214703,219.77070063694268,288.94798013824374,219.77070063694268C290.09730684434044,219.77070063694268,291.24663355043714,227,292.39596025653384,227C293.54528696263054,227,294.69461366872724,224.10828025477707,295.84394037482394,224.10828025477707C296.99326708092065,224.10828025477707,298.1425937870174,224.10828025477707,299.2919204931141,224.10828025477707C300.4412471992108,224.10828025477707,301.5905739053075,219.77070063694268,302.7399006114042,219.77070063694268C303.8892273175009,219.77070063694268,305.03855402359756,225.55414012738854,306.18788072969426,225.55414012738854C307.33720743579096,225.55414012738854,308.4865341418877,225.55414012738854,309.6358608479844,225.55414012738854C310.7851875540811,225.55414012738854,311.9345142601778,222.6624203821656,313.0838409662745,222.6624203821656C314.2331676723712,222.6624203821656,315.3824943784679,222.6624203821656,316.5318210845646,222.6624203821656C317.6811477906613,222.6624203821656,318.8304744967581,219.77070063694268,319.9798012028548,219.77070063694268C321.1291279089515,219.77070063694268,322.2784546150482,224.10828025477707,323.4277813211449,224.10828025477707C324.5771080272416,224.10828025477707,325.7264347333383,218.3248407643312,326.875761439435,218.3248407643312C328.0250881455317,218.3248407643312,329.17441485162846,220.25265392781316,330.32374155772516,221.21656050955414C331.47306826382186,222.1804670912951,332.62239496991856,224.10828025477707,333.77172167601526,224.10828025477707C334.92104838211196,224.10828025477707,336.07037508820866,219.77070063694268,337.21970179430537,219.77070063694268C338.36902850040207,219.77070063694268,339.5183552064988,220.4936305732484,340.6676819125955,221.21656050955414C341.8170086186922,221.93949044585986,342.96633532478893,224.10828025477707,344.11566203088563,224.10828025477707C345.26498873698233,224.10828025477707,346.41431544307903,218.3248407643312,347.56364214917573,218.3248407643312C348.71296885527244,218.3248407643312,349.8622955613692,224.10828025477707,351.0116222674659,224.10828025477707C352.1609489735626,224.10828025477707,353.3102756796593,224.10828025477707,354.459602385756,224.10828025477707C355.6089290918527,224.10828025477707,356.7582557979494,216.87898089171975,357.9075825040461,216.87898089171975C359.0569092101428,216.87898089171975,360.20623591623956,223.14437367303609,361.35556262233627,224.10828025477707C362.50488932843297,225.07218683651806,363.65421603452967,225.07218683651806,364.80354274062637,225.55414012738854C365.95286944672307,226.03609341825901,367.1021961528198,227,368.2515228589165,227C369.4008495650132,227,370.5501762711098,218.3248407643312,371.6995029772065,218.3248407643312C372.8488296833032,218.3248407643312,373.9981563894,225.55414012738854,375.1474830954967,225.55414012738854C376.2968098015934,225.55414012738854,377.4461365076901,225.07218683651806,378.5954632137868,224.10828025477707C379.7447899198835,223.14437367303609,380.8941166259802,216.87898089171975,382.0434433320769,216.87898089171975C383.1927700381736,216.87898089171975,384.34209674427035,224.10828025477707,385.49142345036705,224.10828025477707C386.64075015646375,224.10828025477707,387.79007686256045,219.77070063694268,388.93940356865716,219.77070063694268C390.08873027475386,219.77070063694268,391.23805698085056,219.77070063694268,392.38738368694726,219.77070063694268C393.53671039304396,219.77070063694268,394.6860370991407,221.21656050955414,395.8353638052374,221.21656050955414C396.9846905113341,221.21656050955414,398.1340172174308,218.3248407643312,399.2833439235275,218.3248407643312C400.4326706296242,218.3248407643312,401.5819973357209,222.6624203821656,402.73132404181763,222.6624203821656C403.88065074791433,222.6624203821656,405.0299774540111,221.21656050955414,406.1793041601078,221.21656050955414C407.3286308662045,221.21656050955414,408.4779575723012,221.21656050955414,409.6272842783979,221.21656050955414C410.7766109844946,221.21656050955414,411.9259376905913,221.9394904458599,413.075264396688,222.6624203821656C414.2245911027847,223.38535031847135,415.37391780888146,225.55414012738854,416.52324451497816,225.55414012738854C417.67257122107486,225.55414012738854,418.82189792717156,225.55414012738854,419.97122463326826,225.55414012738854C421.12055133936497,225.55414012738854,422.26987804546167,217.8428874734607,423.41920475155837,216.87898089171975C424.56853145765507,215.91507430997876,425.7178581637518,215.91507430997876,426.86718486984853,215.43312101910828C428.01651157594523,214.9511677282378,429.16583828204193,213.98726114649682,430.31516498813863,213.98726114649682C431.46449169423533,213.98726114649682,432.61381840033204,215.9150743099788,433.76314510642874,216.87898089171975C434.91247181252544,217.84288747346073,436.0617985186222,218.32484076433119,437.2111252247189,219.77070063694268C438.3604519308156,221.21656050955414,439.50977863691224,225.55414012738854,440.65910534300895,225.55414012738854C441.80843204910565,225.55414012738854,442.95775875520235,224.59023354564755,444.10708546129905,222.6624203821656C445.25641216739575,220.73460721868366,446.40573887349245,213.98726114649682,447.55506557958915,213.98726114649682C448.70439228568586,213.98726114649682,449.8537189917826,222.6624203821656,451.0030456978793,222.6624203821656C452.152372403976,222.6624203821656,453.3016991100727,222.6624203821656,454.4510258161694,222.6624203821656C455.6003525222661,222.6624203821656,456.7496792283628,224.10828025477707,457.8990059344595,224.10828025477707C459.0483326405562,224.10828025477707,460.197659346653,223.14437367303609,461.3469860527497,222.6624203821656C462.4963127588464,222.18046709129513,463.6456394649431,221.21656050955414,464.7949661710398,221.21656050955414C465.9442928771365,221.21656050955414,467.0936195832332,221.21656050955414,468.2429462893299,221.21656050955414C469.3922729954266,221.21656050955414,470.54159970152335,220.49363057324842,471.69092640762005,219.77070063694268C472.84025311371676,219.04777070063696,473.98957981981346,216.87898089171975,475.13890652591016,216.87898089171975C476.28823323200686,216.87898089171975,477.43755993810356,217.36093418259023,478.58688664420026,218.3248407643312C479.73621335029696,219.2887473460722,480.8855400563937,224.10828025477707,482.0348667624904,224.10828025477707C483.1841934685871,224.10828025477707,484.3335201746838,216.87898089171975,485.4828468807805,216.87898089171975C486.63217358687723,216.87898089171975,487.78150029297393,225.55414012738854,488.93082699907063,225.55414012738854C490.08015370516733,225.55414012738854,491.2294804112641,222.6624203821656,492.3788071173608,222.6624203821656C493.5281338234575,222.6624203821656,494.6774605295542,222.6624203821656,495.8267872356509,222.6624203821656C496.9761139417476,222.6624203821656,498.1254406478443,222.6624203821656,499.274767353941,222.6624203821656C500.4240940600377,222.6624203821656,501.57342076613446,215.43312101910828,502.72274747223116,215.43312101910828C503.87207417832786,215.43312101910828,505.02140088442457,218.3248407643312,506.17072759052127,218.3248407643312C507.32005429661797,218.3248407643312,508.4693810027146,216.87898089171975,509.6187077088113,216.87898089171975C510.7680344149081,216.87898089171975,511.9173611210048,221.21656050955414,513.0666878271015,221.21656050955414C514.2160145331982,221.21656050955414,515.3653412392949,220.73460721868366,516.5146679453916,219.77070063694268C517.6639946514883,218.80679405520166,518.813321357585,213.98726114649682,519.9626480636817,208.20382165605096C521.1119747697785,202.4203821656051,522.2613014758751,186.03397027600852,523.4106281819719,185.0700636942675C524.5599548880685,184.10615711252652,525.7092815941653,183.62420382165604,526.858608300262,183.62420382165604C528.0079350063587,183.62420382165604,529.1572617124554,195.432059447983,530.3065884185521,199.52866242038218C531.4559151246488,203.62526539278122,532.6052418307455,208.20382165605096,533.7545685368422,208.20382165605096C534.9038952429389,208.20382165605096,536.0532219490356,206.7579617834395,537.2025486551323,206.7579617834395C538.351875361229,206.7579617834395,539.5012020673257,208.20382165605096,540.6505287734224,211.0955414012739C541.7998554795191,213.9872611464969,542.9491821856158,225.55414012738854,544.0985088917125,225.55414012738854C545.2478355978093,225.55414012738854,546.3971623039059,219.77070063694268,547.5464890100027,219.77070063694268C548.6958157160993,219.77070063694268,549.8451424221961,221.21656050955414,550.9944691282927,221.21656050955414C552.1437958343895,221.21656050955414,553.2931225404861,219.77070063694268,554.4424492465829,219.77070063694268C555.5917759526797,219.77070063694268,556.7411026587763,227,557.8904293648731,227C559.0397560709697,227,560.1890827770665,227,561.3384094831631,227L561.3384094831631,209.64968152866243C560.1890827770665,202.42038216560502,559.0397560709697,195.1910828025476,557.8904293648731,186.515923566879C556.7411026587763,177.8407643312101,555.5917759526797,157.59872611464968,554.4424492465829,157.59872611464968C553.2931225404861,157.59872611464968,552.1437958343895,164.828025477707,550.9944691282927,164.828025477707C549.8451424221961,164.828025477707,548.6958157160993,151.81528662420382,547.5464890100027,151.81528662420382C546.3971623039059,151.81528662420382,545.2478355978093,173.5031847133758,544.0985088917125,173.5031847133758C542.9491821856158,173.5031847133758,541.7998554795191,159.04458598726114,540.6505287734224,159.04458598726114C539.5012020673257,159.04458598726114,538.351875361229,163.38216560509554,537.2025486551323,163.38216560509554C536.0532219490356,163.38216560509554,534.9038952429389,153.98407643312106,533.7545685368422,150.36942675159236C532.6052418307455,146.75477707006377,531.4559151246488,147.47770700636943,530.3065884185521,141.69426751592357C529.1572617124554,135.9108280254775,528.0079350063587,98.80042462845054,526.858608300262,75.18471337579618C525.7092815941653,51.56900212314259,524.5599548880685,0,523.4106281819719,0C522.2613014758751,0,521.1119747697785,1.4458598726114644,519.9626480636817,4.337579617834393C518.813321357585,7.229299363057322,517.6639946514883,34.70063694267469,516.5146679453916,54.94267515923565C515.3653412392949,75.18471337579594,514.2160145331982,122.89808917197465,513.0666878271015,125.78980891719745C511.9173611210048,128.6815286624204,510.7680344149081,128.4405520169851,509.6187077088113,130.12738853503186C508.4693810027146,131.81422505307853,507.32005429661797,132.29617834394912,506.17072759052127,135.9108280254777C505.02140088442457,139.5254777070064,503.87207417832786,151.81528662420382,502.72274747223116,151.81528662420382C501.57342076613446,151.81528662420382,500.4240940600377,137.35668789808915,499.274767353941,137.35668789808915C498.1254406478443,137.35668789808915,496.9761139417476,147.47770700636943,495.8267872356509,147.47770700636943C494.6774605295542,147.47770700636943,493.5281338234575,138.80254777070064,492.3788071173608,135.9108280254777C491.2294804112641,133.01910828025476,490.08015370516733,132.77813163481957,488.93082699907063,130.12738853503186C487.78150029297393,127.47664543524418,486.63217358687723,120.00636942675159,485.4828468807805,120.00636942675159C484.3335201746838,120.00636942675159,483.1841934685871,145.0679405520171,482.0348667624904,151.81528662420382C480.8855400563937,158.56263269639066,479.73621335029696,161.93630573248407,478.58688664420026,161.93630573248407C477.43755993810356,161.93630573248407,476.28823323200686,130.12738853503186,475.13890652591016,130.12738853503186C473.98957981981346,130.12738853503186,472.84025311371676,140.4893842887474,471.69092640762005,146.03184713375796C470.54159970152335,151.5743099787686,469.3922729954266,163.38216560509554,468.2429462893299,163.38216560509554C467.0936195832332,163.38216560509554,465.9442928771365,146.03184713375796,464.7949661710398,146.03184713375796C463.6456394649431,146.03184713375796,462.4963127588464,146.99575371549895,461.3469860527497,148.9235668789809C460.197659346653,150.85138004246286,459.0483326405562,163.38216560509554,457.8990059344595,163.38216560509554C456.7496792283628,163.38216560509554,455.6003525222661,163.38216560509554,454.4510258161694,163.38216560509554C453.3016991100727,163.38216560509554,452.152372403976,144.104033970276,451.0030456978793,143.14012738853503C449.8537189917826,142.17622080679405,448.70439228568586,141.69426751592357,447.55506557958915,141.69426751592357C446.40573887349245,141.69426751592357,445.25641216739575,154.70700636942675,444.10708546129905,154.70700636942675C442.95775875520235,154.70700636942675,441.80843204910565,138.32059447983016,440.65910534300895,133.01910828025478C439.50977863691224,127.71762208067949,438.3604519308156,122.89808917197452,437.2111252247189,122.89808917197452C436.0617985186222,122.89808917197452,434.91247181252544,150.36942675159236,433.76314510642874,150.36942675159236C432.61381840033204,150.36942675159236,431.46449169423533,134.94692144373673,430.31516498813863,133.01910828025478C429.16583828204193,131.09129511677284,428.01651157594523,130.12738853503186,426.86718486984853,130.12738853503186C425.7178581637518,130.12738853503186,424.56853145765507,144.5859872611465,423.41920475155837,144.5859872611465C422.26987804546167,144.5859872611465,421.12055133936497,144.5859872611465,419.97122463326826,144.5859872611465C418.82189792717156,144.5859872611465,417.67257122107486,136.8747346072187,416.52324451497816,135.9108280254777C415.37391780888146,134.94692144373673,414.2245911027847,134.46496815286622,413.075264396688,134.46496815286622C411.9259376905913,134.46496815286622,410.7766109844946,144.5859872611465,409.6272842783979,144.5859872611465C408.4779575723012,144.5859872611465,407.3286308662045,124.34394904458598,406.1793041601078,124.34394904458598C405.0299774540111,124.34394904458598,403.88065074791433,143.14012738853498,402.73132404181763,146.03184713375796C401.5819973357209,148.9235668789809,400.4326706296242,150.36942675159236,399.2833439235275,150.36942675159236C398.1340172174308,150.36942675159236,396.9846905113341,148.9235668789809,395.8353638052374,146.03184713375796C394.6860370991407,143.14012738853498,393.53671039304396,131.5732484076433,392.38738368694726,131.5732484076433C391.23805698085056,131.5732484076433,390.08873027475386,132.53715498938428,388.93940356865716,134.46496815286622C387.79007686256045,136.39278131634816,386.64075015646375,160.4904458598726,385.49142345036705,160.4904458598726C384.34209674427035,160.4904458598726,383.1927700381736,137.35668789808915,382.0434433320769,137.35668789808915C380.8941166259802,137.35668789808915,379.7447899198835,137.83864118895966,378.5954632137868,138.80254777070064C377.4461365076901,139.76645435244163,376.2968098015934,154.70700636942675,375.1474830954967,154.70700636942675C373.9981563894,154.70700636942675,372.8488296833032,153.26114649681531,371.6995029772065,151.81528662420382C370.5501762711098,150.36942675159236,369.4008495650132,146.03184713375796,368.2515228589165,146.03184713375796C367.1021961528198,146.03184713375796,365.95286944672307,146.03184713375796,364.80354274062637,146.03184713375796C363.65421603452967,146.03184713375796,362.50488932843297,156.15286624203821,361.35556262233627,156.15286624203821C360.20623591623956,156.15286624203821,359.0569092101428,114.22292993630573,357.9075825040461,114.22292993630573C356.7582557979494,114.22292993630573,355.6089290918527,122.89808917197452,354.459602385756,127.23566878980891C353.3102756796593,131.5732484076433,352.1609489735626,140.24840764331208,351.0116222674659,140.24840764331208C349.8622955613692,140.24840764331208,348.71296885527244,137.35668789808915,347.56364214917573,137.35668789808915C346.41431544307903,137.35668789808915,345.26498873698233,139.2845010615711,344.11566203088563,140.24840764331208C342.96633532478893,141.21231422505306,341.8170086186922,141.6942675159236,340.6676819125955,143.14012738853503C339.5183552064988,144.5859872611465,338.36902850040207,145.06794055201698,337.21970179430537,148.9235668789809C336.07037508820866,152.77919320594472,334.92104838211196,177.84076433121018,333.77172167601526,177.84076433121018C332.62239496991856,177.84076433121018,331.47306826382186,157.59872611464962,330.32374155772516,154.70700636942675C329.17441485162846,151.81528662420382,328.0250881455317,152.77919320594484,326.875761439435,150.36942675159236C325.7264347333383,147.9596602972399,324.5771080272416,142.17622080679402,323.4277813211449,140.24840764331208C322.2784546150482,138.32059447983013,321.1291279089515,137.35668789808915,319.9798012028548,137.35668789808915C318.8304744967581,137.35668789808915,317.6811477906613,138.8025477707006,316.5318210845646,141.69426751592357C315.3824943784679,144.58598726114647,314.2331676723712,170.61146496815286,313.0838409662745,170.61146496815286C311.9345142601778,170.61146496815286,310.7851875540811,167.71974522292993,309.6358608479844,161.93630573248407C308.4865341418877,156.15286624203813,307.33720743579096,130.12738853503186,306.18788072969426,130.12738853503186C305.03855402359756,130.12738853503186,303.8892273175009,133.01910828025478,302.7399006114042,138.80254777070064C301.5905739053075,144.58598726114658,300.4412471992108,170.61146496815286,299.2919204931141,170.61146496815286C298.1425937870174,170.61146496815286,296.99326708092065,165.55095541401278,295.84394037482394,161.93630573248407C294.69461366872724,158.32165605095543,293.54528696263054,153.02016985138005,292.39596025653384,148.9235668789809C291.24663355043714,144.82696390658174,290.09730684434044,137.35668789808915,288.94798013824374,137.35668789808915C287.79865343214703,137.35668789808915,286.6493267260503,161.93630573248407,285.5000000199536,161.93630573248407C284.3506733138569,161.93630573248407,283.2013466077602,131.5732484076433,282.05201990166347,131.5732484076433C280.90269319556677,131.5732484076433,279.75336648947007,154.70700636942675,278.60403978337337,154.70700636942675C277.45471307727666,154.70700636942675,276.3053863711799,117.11464968152866,275.1560596650832,117.11464968152866C274.0067329589865,117.11464968152866,272.8574062528898,135.9108280254777,271.7080795467931,135.9108280254777C270.5587528406964,135.9108280254777,269.4094261345997,130.12738853503186,268.260099428503,130.12738853503186C267.1107727224063,130.12738853503186,265.9614460163096,132.53715498938436,264.8121193102129,135.9108280254777C263.6627926041162,139.28450106157112,262.51346589801943,150.36942675159236,261.36413919192273,150.36942675159236C260.21481248582603,150.36942675159236,259.06548577972933,140.24840764331208,257.9161590736326,140.24840764331208C256.7668323675359,140.24840764331208,255.6175056614392,156.15286624203821,254.4681789553425,156.15286624203821C253.3188522492458,156.15286624203821,252.16952554314912,112.29511677282376,251.02019883705242,111.3312101910828C249.87087213095572,110.36730360934183,248.721545424859,109.88535031847134,247.5722187187623,109.88535031847134C246.42289201266559,109.88535031847134,245.27356530656886,125.78980891719745,244.12423860047215,125.78980891719745C242.97491189437545,125.78980891719745,241.82558518827875,122.41613588110403,240.67625848218205,121.45222929936305C239.52693177608535,120.48832271762208,238.37760506998862,120.00636942675159,237.22827836389192,120.00636942675159C236.07895165779522,120.00636942675159,234.9296249516985,131.09129511677276,233.78029824560178,137.35668789808915C232.63097153950508,143.62208067940549,231.48164483340838,157.59872611464968,230.33231812731168,157.59872611464968C229.18299142121498,157.59872611464968,228.03366471511825,121.45222929936305,226.88433800902155,121.45222929936305C225.73501130292485,121.45222929936305,224.58568459682812,138.80254777070064,223.43635789073141,138.80254777070064C222.2870311846347,138.80254777070064,221.137704478538,121.45222929936305,219.9883777724413,121.45222929936305C218.8390510663446,121.45222929936305,217.6897243602479,132.5371549893843,216.5403976541512,135.9108280254777C215.3910709480545,139.28450106157112,214.2417442419578,139.0435244161359,213.0924175358611,141.69426751592357C211.9430908297644,144.34501061571126,210.79376412366767,149.16454352441613,209.64443741757097,151.81528662420382C208.49511071147427,154.4660297239915,207.34578400537754,157.59872611464968,206.19645729928084,157.59872611464968C205.04713059318414,157.59872611464968,203.89780388708743,148.9235668789809,202.74847718099073,148.9235668789809C201.59915047489403,148.9235668789809,200.4498237687973,154.70700636942675,199.3004970627006,154.70700636942675C198.1511703566039,154.70700636942675,197.00184365050717,144.5859872611465,195.85251694441047,144.5859872611465C194.70319023831377,144.5859872611465,193.55386353221706,146.2728237791932,192.40453682612036,147.47770700636943C191.25521012002366,148.68259023354565,190.10588341392693,151.81528662420382,188.95655670783023,151.81528662420382C187.80723000173353,151.81528662420382,186.6579032956368,117.11464968152866,185.5085765895401,117.11464968152866C184.3592498834434,117.11464968152866,183.20992317734672,141.69426751592363,182.06059647125002,144.5859872611465C180.91126976515332,147.47770700636943,179.7619430590566,148.9235668789809,178.6126163529599,148.9235668789809C177.4632896468632,148.9235668789809,176.3139629407665,138.80254777070064,175.16463623466979,138.80254777070064C174.01530952857308,138.80254777070064,172.86598282247635,148.9235668789809,171.71665611637965,148.9235668789809C170.56732941028295,148.9235668789809,169.41800270418622,146.99575371549895,168.26867599808952,143.14012738853503C167.11934929199282,139.28450106157115,165.97002258589612,114.22292993630573,164.82069587979942,114.22292993630573C163.67136917370271,114.22292993630573,162.52204246760598,133.98301486199574,161.37271576150928,140.24840764331208C160.22338905541258,146.5138004246284,159.07406234931585,151.81528662420382,157.92473564321915,151.81528662420382C156.77540893712245,151.81528662420382,155.62608223102575,140.24840764331208,154.47675552492905,140.24840764331208C153.32742881883235,140.24840764331208,152.17810211273564,146.03184713375796,151.02877540663894,146.03184713375796C149.87944870054224,146.03184713375796,148.7301219944455,146.03184713375796,147.5807952883488,146.03184713375796C146.4314685822521,146.03184713375796,145.2821418761554,154.70700636942675,144.1328151700587,154.70700636942675C142.983488463962,154.70700636942675,141.83416175786527,153.74309978768576,140.68483505176857,151.81528662420382C139.53550834567187,149.88747346072188,138.38618163957514,112.77707006369427,137.23685493347844,112.77707006369427C136.08752822738174,112.77707006369427,134.93820152128504,159.04458598726114,133.78887481518834,159.04458598726114C132.63954810909163,159.04458598726114,131.4902214029949,130.12738853503186,130.3408946968982,130.12738853503186C129.1915679908015,130.12738853503186,128.0422412847048,150.36942675159236,126.89291457860809,150.36942675159236C125.74358787251138,150.36942675159236,124.59426116641468,141.69426751592357,123.44493446031798,141.69426751592357C122.29560775422128,141.69426751592357,121.14628104812456,151.81528662420382,119.99695434202786,151.81528662420382C118.84762763593115,151.81528662420382,117.69830092983445,122.89808917197452,116.54897422373773,122.89808917197452C115.39964751764103,122.89808917197452,114.25032081154431,128.4405520169851,113.10099410544761,131.5732484076433C111.95166739935091,134.70594479830146,110.80234069325421,137.11571125265394,109.65301398715751,141.69426751592357C108.5036872810608,146.27282377919323,107.35436057496409,159.04458598726114,106.20503386886739,159.04458598726114C105.05570716277067,159.04458598726114,103.90638045667397,156.15286624203821,102.75705375057726,150.36942675159236C101.60772704448055,144.58598726114653,100.45840033838384,118.56050955414013,99.30907363228714,118.56050955414013C98.15974692619044,118.56050955414013,97.01042022009372,120.00636942675159,95.86109351399702,122.89808917197452C94.7117668079003,125.78980891719746,93.5624401018036,138.8025477707006,92.41311339570689,141.69426751592357C91.26378668961019,144.5859872611465,90.11445998351348,146.03184713375796,88.96513327741678,146.03184713375796C87.81580657132008,146.03184713375796,86.66647986522337,146.03184713375796,85.51715315912666,146.03184713375796C84.36782645302996,146.03184713375796,83.21849974693325,114.22292993630573,82.06917304083655,114.22292993630573C80.91984633473983,114.22292993630573,79.77051962864313,116.63269639065817,78.62119292254641,121.45222929936305C77.47186621644971,126.2717622080679,76.32253951035301,150.36942675159236,75.17321280425631,150.36942675159236C74.02388609815961,150.36942675159236,72.87455939206289,112.77707006369427,71.72523268596619,112.77707006369427C70.57590597986948,112.77707006369427,69.42657927377277,137.35668789808915,68.27725256767606,137.35668789808915C67.12792586157936,137.35668789808915,65.97859915548264,135.91082802547768,64.82927244938594,133.01910828025478C63.67994574328924,130.12738853503188,62.53061903719253,106.99363057324841,61.38129233109583,106.99363057324841C60.23196562499912,106.99363057324841,59.08263891890241,120.97027600849256,57.9333122128057,125.78980891719745C56.783985506709,130.6093418259023,55.63465880061229,132.29617834394907,54.48533209451559,135.9108280254777C53.33600538841888,139.5254777070064,52.186678682322174,144.10403397027602,51.037351976225466,147.47770700636943C49.88802527012876,150.85138004246284,48.738698564032056,156.15286624203821,47.58937185793535,156.15286624203821C46.44004515183864,156.15286624203821,45.29071844574194,155.18895966029723,44.14139173964523,153.2611464968153C42.99206503354852,151.33333333333334,41.84273832745181,133.01910828025478,40.693411621355104,133.01910828025478C39.5440849152584,133.01910828025478,38.394758209161694,154.70700636942675,37.24543150306499,154.70700636942675C36.096104796968284,154.70700636942675,34.946778090871575,146.03184713375796,33.79745138477487,143.14012738853503C32.64812467867816,140.2484076433121,31.498797972581457,138.8025477707006,30.349471266484752,137.35668789808915C29.200144560388047,135.91082802547768,28.05081785429134,134.46496815286622,26.901491148194633,134.46496815286622C25.752164442097925,134.46496815286622,24.602837736001216,136.6337579617834,23.453511029904508,140.24840764331208C22.304184323807803,143.86305732484075,21.154857617711095,152.05626326963906,20.00553091161439,156.15286624203821C18.856204205517685,160.24946921443737,17.706877499420976,164.828025477707,16.55755079332427,164.828025477707C15.408224087227564,164.828025477707,14.25889738113086,160.9723991507431,13.109570675034153,153.2611464968153C11.960243968937446,145.54989384288749,10.81091726284074,106.02972399150744,9.661590556744033,66.50955414012739Z" id="calls_911" style="fill: rgb(107, 178, 244); opacity: 0.5; mix-blend-mode: normal;"/><path d="M9.661590556744033,212.54140127388536C10.81091726284074,219.77070063694268,11.960243968937446,227,13.109570675034153,227C14.25889738113086,227,15.408224087227564,222.6624203821656,16.55755079332427,222.6624203821656C17.706877499420976,222.6624203821656,18.856204205517685,222.6624203821656,20.00553091161439,222.6624203821656C21.154857617711095,222.6624203821656,22.304184323807803,221.21656050955414,23.453511029904508,221.21656050955414C24.602837736001216,221.21656050955414,25.752164442097925,223.38535031847132,26.901491148194633,224.10828025477707C28.05081785429134,224.8312101910828,29.200144560388047,225.55414012738854,30.349471266484752,225.55414012738854C31.498797972581457,225.55414012738854,32.64812467867816,218.3248407643312,33.79745138477487,218.3248407643312C34.946778090871575,218.3248407643312,36.096104796968284,224.10828025477707,37.24543150306499,224.10828025477707C38.394758209161694,224.10828025477707,39.5440849152584,224.10828025477707,40.693411621355104,224.10828025477707C41.84273832745181,224.10828025477707,42.99206503354852,218.3248407643312,44.14139173964523,218.3248407643312C45.29071844574194,218.3248407643312,46.44004515183864,225.55414012738854,47.58937185793535,225.55414012738854C48.738698564032056,225.55414012738854,49.88802527012876,225.07218683651806,51.037351976225466,224.10828025477707C52.186678682322174,223.14437367303609,53.33600538841888,219.77070063694268,54.48533209451559,219.77070063694268C55.63465880061229,219.77070063694268,56.783985506709,221.9394904458599,57.9333122128057,222.6624203821656C59.08263891890241,223.38535031847135,60.23196562499912,223.38535031847132,61.38129233109583,224.10828025477707C62.53061903719253,224.8312101910828,63.67994574328924,227,64.82927244938594,227C65.97859915548264,227,67.12792586157936,225.07218683651806,68.27725256767606,224.10828025477707C69.42657927377277,223.14437367303609,70.57590597986948,221.21656050955414,71.72523268596619,221.21656050955414C72.87455939206289,221.21656050955414,74.02388609815961,225.55414012738854,75.17321280425631,225.55414012738854C76.32253951035301,225.55414012738854,77.47186621644971,221.21656050955414,78.62119292254641,221.21656050955414C79.77051962864313,221.21656050955414,80.91984633473983,225.55414012738854,82.06917304083655,225.55414012738854C83.21849974693325,225.55414012738854,84.36782645302996,222.6624203821656,85.51715315912666,222.6624203821656C86.66647986522337,222.6624203821656,87.81580657132008,225.55414012738854,88.96513327741678,225.55414012738854C90.11445998351348,225.55414012738854,91.26378668961019,223.38535031847132,92.41311339570689,222.6624203821656C93.5624401018036,221.93949044585986,94.7117668079003,221.21656050955414,95.86109351399702,221.21656050955414C97.01042022009372,221.21656050955414,98.15974692619044,221.21656050955414,99.30907363228714,221.21656050955414C100.45840033838384,221.21656050955414,101.60772704448055,222.6624203821656,102.75705375057726,222.6624203821656C103.90638045667397,222.6624203821656,105.05570716277067,222.6624203821656,106.20503386886739,222.6624203821656C107.35436057496409,222.6624203821656,108.5036872810608,225.55414012738854,109.65301398715751,225.55414012738854C110.80234069325421,225.55414012738854,111.95166739935091,222.42144373673037,113.10099410544761,221.21656050955414C114.25032081154431,220.01167728237792,115.39964751764103,218.3248407643312,116.54897422373773,218.3248407643312C117.69830092983445,218.3248407643312,118.84762763593115,225.55414012738854,119.99695434202786,225.55414012738854C121.14628104812456,225.55414012738854,122.29560775422128,219.77070063694268,123.44493446031798,219.77070063694268C124.59426116641468,219.77070063694268,125.74358787251138,225.55414012738854,126.89291457860809,225.55414012738854C128.0422412847048,225.55414012738854,129.1915679908015,218.3248407643312,130.3408946968982,218.3248407643312C131.4902214029949,218.3248407643312,132.63954810909163,219.04777070063693,133.78887481518834,219.77070063694268C134.93820152128504,220.4936305732484,136.08752822738174,222.6624203821656,137.23685493347844,222.6624203821656C138.38618163957514,222.6624203821656,139.53550834567187,222.6624203821656,140.68483505176857,222.6624203821656C141.83416175786527,222.6624203821656,142.983488463962,225.55414012738854,144.1328151700587,225.55414012738854C145.2821418761554,225.55414012738854,146.4314685822521,224.10828025477707,147.5807952883488,224.10828025477707C148.7301219944455,224.10828025477707,149.87944870054224,225.55414012738854,151.02877540663894,225.55414012738854C152.17810211273564,225.55414012738854,153.32742881883235,221.21656050955414,154.47675552492905,221.21656050955414C155.62608223102575,221.21656050955414,156.77540893712245,224.10828025477707,157.92473564321915,224.10828025477707C159.07406234931585,224.10828025477707,160.22338905541258,223.38535031847135,161.37271576150928,222.6624203821656C162.52204246760598,221.93949044585986,163.67136917370271,219.77070063694268,164.82069587979942,219.77070063694268C165.97002258589612,219.77070063694268,167.11934929199282,222.90339702760085,168.26867599808952,224.10828025477707C169.41800270418622,225.3131634819533,170.56732941028295,227,171.71665611637965,227C172.86598282247635,227,174.01530952857308,221.21656050955414,175.16463623466979,221.21656050955414C176.3139629407665,221.21656050955414,177.4632896468632,223.14437367303609,178.6126163529599,224.10828025477707C179.7619430590566,225.07218683651806,180.91126976515332,227,182.06059647125002,227C183.20992317734672,227,184.3592498834434,220.73460721868364,185.5085765895401,219.77070063694268C186.6579032956368,218.8067940552017,187.80723000173353,218.3248407643312,188.95655670783023,218.3248407643312C190.10588341392693,218.3248407643312,191.25521012002366,221.69851380042462,192.40453682612036,222.6624203821656C193.55386353221706,223.62632696390656,194.70319023831377,224.10828025477707,195.85251694441047,224.10828025477707C197.00184365050717,224.10828025477707,198.1511703566039,222.6624203821656,199.3004970627006,222.6624203821656C200.4498237687973,222.6624203821656,201.59915047489403,225.55414012738854,202.74847718099073,225.55414012738854C203.89780388708743,225.55414012738854,205.04713059318414,221.21656050955414,206.19645729928084,221.21656050955414C207.34578400537754,221.21656050955414,208.49511071147427,222.18046709129513,209.64443741757097,222.6624203821656C210.79376412366767,223.14437367303609,211.9430908297644,223.38535031847132,213.0924175358611,224.10828025477707C214.2417442419578,224.8312101910828,215.3910709480545,227,216.5403976541512,227C217.6897243602479,227,218.8390510663446,222.6624203821656,219.9883777724413,222.6624203821656C221.137704478538,222.6624203821656,222.2870311846347,224.83121019108282,223.43635789073141,225.55414012738854C224.58568459682812,226.27707006369428,225.73501130292485,227,226.88433800902155,227C228.03366471511825,227,229.18299142121498,226.51804670912952,230.33231812731168,225.55414012738854C231.48164483340838,224.59023354564758,232.63097153950508,222.42144373673037,233.78029824560178,221.21656050955414C234.9296249516985,220.01167728237792,236.07895165779522,218.3248407643312,237.22827836389192,218.3248407643312C238.37760506998862,218.3248407643312,239.52693177608535,219.77070063694268,240.67625848218205,219.77070063694268C241.82558518827875,219.77070063694268,242.97491189437545,213.98726114649682,244.12423860047215,213.98726114649682C245.27356530656886,213.98726114649682,246.42289201266559,218.3248407643312,247.5722187187623,218.3248407643312C248.721545424859,218.3248407643312,249.87087213095572,218.3248407643312,251.02019883705242,218.3248407643312C252.16952554314912,218.3248407643312,253.3188522492458,222.6624203821656,254.4681789553425,222.6624203821656C255.6175056614392,222.6624203821656,256.7668323675359,221.69851380042462,257.9161590736326,221.21656050955414C259.06548577972933,220.73460721868366,260.21481248582603,220.73460721868364,261.36413919192273,219.77070063694268C262.51346589801943,218.8067940552017,263.6627926041162,215.43312101910828,264.8121193102129,215.43312101910828C265.9614460163096,215.43312101910828,267.1107727224063,223.14437367303609,268.260099428503,224.10828025477707C269.4094261345997,225.07218683651806,270.5587528406964,225.55414012738854,271.7080795467931,225.55414012738854C272.8574062528898,225.55414012738854,274.0067329589865,223.38535031847132,275.1560596650832,222.6624203821656C276.3053863711799,221.93949044585986,277.45471307727666,221.21656050955414,278.60403978337337,221.21656050955414C279.75336648947007,221.21656050955414,280.90269319556677,224.10828025477707,282.05201990166347,224.10828025477707C283.2013466077602,224.10828025477707,284.3506733138569,224.10828025477707,285.5000000199536,224.10828025477707C286.6493267260503,224.10828025477707,287.79865343214703,219.77070063694268,288.94798013824374,219.77070063694268C290.09730684434044,219.77070063694268,291.24663355043714,227,292.39596025653384,227C293.54528696263054,227,294.69461366872724,224.10828025477707,295.84394037482394,224.10828025477707C296.99326708092065,224.10828025477707,298.1425937870174,224.10828025477707,299.2919204931141,224.10828025477707C300.4412471992108,224.10828025477707,301.5905739053075,219.77070063694268,302.7399006114042,219.77070063694268C303.8892273175009,219.77070063694268,305.03855402359756,225.55414012738854,306.18788072969426,225.55414012738854C307.33720743579096,225.55414012738854,308.4865341418877,225.55414012738854,309.6358608479844,225.55414012738854C310.7851875540811,225.55414012738854,311.9345142601778,222.6624203821656,313.0838409662745,222.6624203821656C314.2331676723712,222.6624203821656,315.3824943784679,222.6624203821656,316.5318210845646,222.6624203821656C317.6811477906613,222.6624203821656,318.8304744967581,219.77070063694268,319.9798012028548,219.77070063694268C321.1291279089515,219.77070063694268,322.2784546150482,224.10828025477707,323.4277813211449,224.10828025477707C324.5771080272416,224.10828025477707,325.7264347333383,218.3248407643312,326.875761439435,218.3248407643312C328.0250881455317,218.3248407643312,329.17441485162846,220.25265392781316,330.32374155772516,221.21656050955414C331.47306826382186,222.1804670912951,332.62239496991856,224.10828025477707,333.77172167601526,224.10828025477707C334.92104838211196,224.10828025477707,336.07037508820866,219.77070063694268,337.21970179430537,219.77070063694268C338.36902850040207,219.77070063694268,339.5183552064988,220.4936305732484,340.6676819125955,221.21656050955414C341.8170086186922,221.93949044585986,342.96633532478893,224.10828025477707,344.11566203088563,224.10828025477707C345.26498873698233,224.10828025477707,346.41431544307903,218.3248407643312,347.56364214917573,218.3248407643312C348.71296885527244,218.3248407643312,349.8622955613692,224.10828025477707,351.0116222674659,224.10828025477707C352.1609489735626,224.10828025477707,353.3102756796593,224.10828025477707,354.459602385756,224.10828025477707C355.6089290918527,224.10828025477707,356.7582557979494,216.87898089171975,357.9075825040461,216.87898089171975C359.0569092101428,216.87898089171975,360.20623591623956,223.14437367303609,361.35556262233627,224.10828025477707C362.50488932843297,225.07218683651806,363.65421603452967,225.07218683651806,364.80354274062637,225.55414012738854C365.95286944672307,226.03609341825901,367.1021961528198,227,368.2515228589165,227C369.4008495650132,227,370.5501762711098,218.3248407643312,371.6995029772065,218.3248407643312C372.8488296833032,218.3248407643312,373.9981563894,225.55414012738854,375.1474830954967,225.55414012738854C376.2968098015934,225.55414012738854,377.4461365076901,225.07218683651806,378.5954632137868,224.10828025477707C379.7447899198835,223.14437367303609,380.8941166259802,216.87898089171975,382.0434433320769,216.87898089171975C383.1927700381736,216.87898089171975,384.34209674427035,224.10828025477707,385.49142345036705,224.10828025477707C386.64075015646375,224.10828025477707,387.79007686256045,219.77070063694268,388.93940356865716,219.77070063694268C390.08873027475386,219.77070063694268,391.23805698085056,219.77070063694268,392.38738368694726,219.77070063694268C393.53671039304396,219.77070063694268,394.6860370991407,221.21656050955414,395.8353638052374,221.21656050955414C396.9846905113341,221.21656050955414,398.1340172174308,218.3248407643312,399.2833439235275,218.3248407643312C400.4326706296242,218.3248407643312,401.5819973357209,222.6624203821656,402.73132404181763,222.6624203821656C403.88065074791433,222.6624203821656,405.0299774540111,221.21656050955414,406.1793041601078,221.21656050955414C407.3286308662045,221.21656050955414,408.4779575723012,221.21656050955414,409.6272842783979,221.21656050955414C410.7766109844946,221.21656050955414,411.9259376905913,221.9394904458599,413.075264396688,222.6624203821656C414.2245911027847,223.38535031847135,415.37391780888146,225.55414012738854,416.52324451497816,225.55414012738854C417.67257122107486,225.55414012738854,418.82189792717156,225.55414012738854,419.97122463326826,225.55414012738854C421.12055133936497,225.55414012738854,422.26987804546167,217.8428874734607,423.41920475155837,216.87898089171975C424.56853145765507,215.91507430997876,425.7178581637518,215.91507430997876,426.86718486984853,215.43312101910828C428.01651157594523,214.9511677282378,429.16583828204193,213.98726114649682,430.31516498813863,213.98726114649682C431.46449169423533,213.98726114649682,432.61381840033204,215.9150743099788,433.76314510642874,216.87898089171975C434.91247181252544,217.84288747346073,436.0617985186222,218.32484076433119,437.2111252247189,219.77070063694268C438.3604519308156,221.21656050955414,439.50977863691224,225.55414012738854,440.65910534300895,225.55414012738854C441.80843204910565,225.55414012738854,442.95775875520235,224.59023354564755,444.10708546129905,222.6624203821656C445.25641216739575,220.73460721868366,446.40573887349245,213.98726114649682,447.55506557958915,213.98726114649682C448.70439228568586,213.98726114649682,449.8537189917826,222.6624203821656,451.0030456978793,222.6624203821656C452.152372403976,222.6624203821656,453.3016991100727,222.6624203821656,454.4510258161694,222.6624203821656C455.6003525222661,222.6624203821656,456.7496792283628,224.10828025477707,457.8990059344595,224.10828025477707C459.0483326405562,224.10828025477707,460.197659346653,223.14437367303609,461.3469860527497,222.6624203821656C462.4963127588464,222.18046709129513,463.6456394649431,221.21656050955414,464.7949661710398,221.21656050955414C465.9442928771365,221.21656050955414,467.0936195832332,221.21656050955414,468.2429462893299,221.21656050955414C469.3922729954266,221.21656050955414,470.54159970152335,220.49363057324842,471.69092640762005,219.77070063694268C472.84025311371676,219.04777070063696,473.98957981981346,216.87898089171975,475.13890652591016,216.87898089171975C476.28823323200686,216.87898089171975,477.43755993810356,217.36093418259023,478.58688664420026,218.3248407643312C479.73621335029696,219.2887473460722,480.8855400563937,224.10828025477707,482.0348667624904,224.10828025477707C483.1841934685871,224.10828025477707,484.3335201746838,216.87898089171975,485.4828468807805,216.87898089171975C486.63217358687723,216.87898089171975,487.78150029297393,225.55414012738854,488.93082699907063,225.55414012738854C490.08015370516733,225.55414012738854,491.2294804112641,222.6624203821656,492.3788071173608,222.6624203821656C493.5281338234575,222.6624203821656,494.6774605295542,222.6624203821656,495.8267872356509,222.6624203821656C496.9761139417476,222.6624203821656,498.1254406478443,222.6624203821656,499.274767353941,222.6624203821656C500.4240940600377,222.6624203821656,501.57342076613446,215.43312101910828,502.72274747223116,215.43312101910828C503.87207417832786,215.43312101910828,505.02140088442457,218.3248407643312,506.17072759052127,218.3248407643312C507.32005429661797,218.3248407643312,508.4693810027146,216.87898089171975,509.6187077088113,216.87898089171975C510.7680344149081,216.87898089171975,511.9173611210048,221.21656050955414,513.0666878271015,221.21656050955414C514.2160145331982,221.21656050955414,515.3653412392949,220.73460721868366,516.5146679453916,219.77070063694268C517.6639946514883,218.80679405520166,518.813321357585,213.98726114649682,519.9626480636817,208.20382165605096C521.1119747697785,202.4203821656051,522.2613014758751,186.03397027600852,523.4106281819719,185.0700636942675C524.5599548880685,184.10615711252652,525.7092815941653,183.62420382165604,526.858608300262,183.62420382165604C528.0079350063587,183.62420382165604,529.1572617124554,195.432059447983,530.3065884185521,199.52866242038218C531.4559151246488,203.62526539278122,532.6052418307455,208.20382165605096,533.7545685368422,208.20382165605096C534.9038952429389,208.20382165605096,536.0532219490356,206.7579617834395,537.2025486551323,206.7579617834395C538.351875361229,206.7579617834395,539.5012020673257,208.20382165605096,540.6505287734224,211.0955414012739C541.7998554795191,213.9872611464969,542.9491821856158,225.55414012738854,544.0985088917125,225.55414012738854C545.2478355978093,225.55414012738854,546.3971623039059,219.77070063694268,547.5464890100027,219.77070063694268C548.6958157160993,219.77070063694268,549.8451424221961,221.21656050955414,550.9944691282927,221.21656050955414C552.1437958343895,221.21656050955414,553.2931225404861,219.77070063694268,554.4424492465829,219.77070063694268C555.5917759526797,219.77070063694268,556.7411026587763,227,557.8904293648731,227C559.0397560709697,227,560.1890827770665,227,561.3384094831631,227" stroke="rgb(31,119,180)" id="fires" style="stroke-width: 1; stroke-linejoin: miter; stroke-linecap: butt; fill: none; mix-blend-mode: normal;"/><g id="x-svg axis-svg" transform="translate(0, 227)"><line x1="0" x2="571" y1="0" y2="0" style="stroke: rgb(51, 51, 51); stroke-width: 1;"/></g><g id="free-texts-svg"><text transform="translate(458.4601603606404, 72.50955414012739) translate(-37.50001525878906, -10) translate(37.50001525878906, 0)" fill="rgb(51, 51, 51)" style="text-anchor: middle; font-family: BentonSans; font-weight: 400; font-size: 10px;"><tspan x="0" dy="10">Floyd's death </tspan></text></g></g></g><rect width="14" height="14" transform="translate(0, 80.40625)" fill="rgb(255,127,14)" id="fires" style="opacity: 0.5; fill: rgb(255, 127, 14);"/><g id="fires-svg"><text transform="translate(18, 81.234375)" fill="rgb(51,51,51)" style="font-family: BentonSans; font-weight: 400; font-size: 12px;"><tspan x="0" dy="12">Confirmed fires</tspan></text></g><rect width="14" height="14" transform="translate(113, 80.40625)" fill="rgb(107,178,244)" id="calls_911" style="opacity: 0.5; fill: rgb(107, 178, 244);"/><g id="calls_911-svg"><text transform="translate(131, 81.234375)" fill="rgb(51,51,51)" style="font-family: BentonSans; font-weight: 400; font-size: 12px;"><tspan x="0" dy="12">Police calls</tspan></text></g></g><g id="after-body-svg"/><g id="above-footer-svg"/><g id="footer-svg"><g id="footer-inner-svg"><g id="footer-main-svg"><g id="text-svg"><text transform="translate(0, 382)" fill="rgb(136,136,136)" style="font-family: BentonSans; font-weight: 400; font-size: 11px;"><tspan x="0" dy="11">Chart:</tspan></text><text transform="translate(34, 382)" fill="rgb(136,136,136)" style="font-family: BentonSans; font-weight: 400; font-size: 11px;"><tspan x="0" dy="11">Jeff Hargarten, Star Tribune</tspan></text></g><g id="text-svg"><text transform="translate(174, 382)" fill="rgb(136,136,136)" style="font-family: BentonSans; font-weight: 400; font-size: 11px;"><tspan x="0" dy="11"></tspan></text></g><g id="text-svg"><text transform="translate(185, 382)" fill="rgb(136,136,136)" style="font-family: BentonSans; font-weight: 400; font-size: 11px;"><tspan x="0" dy="11">Source:</tspan></text><text transform="translate(226, 382)" fill="rgb(136,136,136)" style="font-family: BentonSans; font-weight: 400; font-size: 11px;"><tspan x="0" dy="11">City of Minneapolis</tspan></text></g></g></g></g><g id="below-footer-svg"/></g></svg>