<svg xmlns:xlink="http://www.w3.org/1999/xlink" xmlns="http://www.w3.org/2000/svg" id="exportSvg" width="600" height="400"><defs/><g><g id="header-svg"><g id="text-svg"><text transform="translate(0, -2)" fill="rgb(51,51,51)" style="font-family: BentonSans; font-weight: 700; font-size: 19px;"><tspan x="0" dy="19">Thousands of 311 calls made after initial damage </tspan></text></g><g id="text-svg"><text transform="translate(0, 31)" fill="rgb(51,51,51)" style="font-family: BentonSans; font-weight: 400; font-size: 15px;"><tspan x="0" dy="15">Nonemergency calls to 311 concerning property, streets, sidewalks and public safety </tspan></text><text transform="translate(0, 51)" fill="rgb(51,51,51)" style="font-family: BentonSans; font-weight: 400; font-size: 15px;"><tspan x="0" dy="15">had increased as COVID-19 lockdowns eased and warmer weather returned, but </tspan></text><text transform="translate(0, 71)" fill="rgb(51,51,51)" style="font-family: BentonSans; font-weight: 400; font-size: 15px;"><tspan x="0" dy="15">peaked after the first two nights of unrest.</tspan></text></g></g><g id="chart-svg"><g id="group-svg" clip-path="url(#rect-mask-group-0)" transform="translate(0, 100)"><clipPath id="rect-mask-group-0"><rect x="0" y="0" width="600" height="259"/></clipPath><g id="group-svg" transform="translate(39, 34)"><g id="x-svg ticks-svg" transform="translate(0, 212)"><g transform="translate(9.653979270359423, 0)"><text transform="translate(-10, -12) translate(10, 11)" fill="rgb(133, 133, 133)" style="text-anchor: middle; font-family: BentonSans; font-weight: 400; font-size: 12px;"><tspan x="0" dy="12">Jan</tspan></text></g><g transform="translate(116.01992377016072, 0)"><text transform="translate(-10, -12) translate(10, 11)" fill="rgb(133, 133, 133)" style="text-anchor: middle; font-family: BentonSans; font-weight: 400; font-size: 12px;"><tspan x="0" dy="12">Feb</tspan></text></g><g transform="translate(215.5235492699748, 0)"><text transform="translate(-11.500007629394531, -12) translate(11.500007629394531, 11)" fill="rgb(133, 133, 133)" style="text-anchor: middle; font-family: BentonSans; font-weight: 400; font-size: 12px;"><tspan x="0" dy="12">Mar</tspan></text></g><g transform="translate(321.8894937697761, 0)"><text transform="translate(-10, -12) translate(10, 11)" fill="rgb(133, 133, 133)" style="text-anchor: middle; font-family: BentonSans; font-weight: 400; font-size: 12px;"><tspan x="0" dy="12">Apr</tspan></text></g><g transform="translate(424.8242787695838, 0)"><text transform="translate(-12.5, -12) translate(12.5, 11)" fill="rgb(133, 133, 133)" style="text-anchor: middle; font-family: BentonSans; font-weight: 400; font-size: 12px;"><tspan x="0" dy="12">May</tspan></text></g><g transform="translate(531.1902232693851, 0)"><text transform="translate(-10, -12) translate(10, 11)" fill="rgb(133, 133, 133)" style="text-anchor: middle; font-family: BentonSans; font-weight: 400; font-size: 12px;"><tspan x="0" dy="12">Jun</tspan></text></g></g><g id="free-range-svg"><rect width="1" height="207" transform="translate(505.49703376353034, 0)" fill="rgb(51,51,51)" style="opacity: 0.72; fill: rgb(51, 51, 51);"/></g><g id="y-grid-svg"><g id="tick-svg tick-major-svg" transform="translate(0, 207)"><text transform="translate(-4, 4) translate(-8, -12) translate(8, 0)" fill="rgb(133, 133, 133)" style="text-anchor: end; font-family: BentonSans; font-weight: 400; font-size: 12px;"><tspan x="0" dy="12">0</tspan></text></g><g transform="translate(0, 158.17924528301887)"><line x1="0" x2="558" y1="0" y2="0" style="stroke: rgb(238, 238, 238); stroke-width: 1;"/><text transform="translate(-4, 4) translate(-23, -12) translate(23, 0)" fill="rgb(133, 133, 133)" style="text-anchor: end; font-family: BentonSans; font-weight: 400; font-size: 12px;"><tspan x="0" dy="12">500</tspan></text></g><g transform="translate(0, 109.35849056603773)"><line x1="0" x2="558" y1="0" y2="0" style="stroke: rgb(238, 238, 238); stroke-width: 1;"/><text transform="translate(-4, 4) translate(-32, -12) translate(32, 0)" fill="rgb(133, 133, 133)" style="text-anchor: end; font-family: BentonSans; font-weight: 400; font-size: 12px;"><tspan x="0" dy="12">1,000</tspan></text></g><g transform="translate(0, 60.53773584905662)"><line x1="0" x2="558" y1="0" y2="0" style="stroke: rgb(238, 238, 238); stroke-width: 1;"/><text transform="translate(-4, 4) translate(-31, -12) translate(31, 0)" fill="rgb(133, 133, 133)" style="text-anchor: end; font-family: BentonSans; font-weight: 400; font-size: 12px;"><tspan x="0" dy="12">1,500</tspan></text></g><g transform="translate(0, 11.71698113207546)"><line x1="0" x2="558" y1="0" y2="0" style="stroke: rgb(238, 238, 238); stroke-width: 1;"/><text transform="translate(-4, 4) translate(-34, -12) translate(34, 0)" fill="rgb(133, 133, 133)" style="text-anchor: end; font-family: BentonSans; font-weight: 400; font-size: 12px;"><tspan x="0" dy="12">2,000</tspan></text></g></g><path d="M9.653979270359423,207C10.79769910369062,207,11.941418937021817,207,13.085138770353014,207C14.22885860368421,207,15.372578437015406,207,16.516298270346603,207C17.6600181036778,207,18.803737937008997,207,19.947457770340193,207C21.09117760367139,207,22.234897437002587,207,23.378617270333784,207C24.52233710366498,207,25.66605693699618,207,26.809776770327378,207C27.953496603658575,207,29.09721643698977,207,30.240936270320965,207C31.384656103652162,207,32.52837593698336,207,33.672095770314556,207C34.81581560364575,207,35.95953543697694,207,37.10325527030814,207C38.246975103639336,207,39.39069493697053,207,40.53441477030173,207C41.67813460363293,207,42.821854436964124,207,43.96557427029532,207C45.10929410362652,207,46.253013936957714,207,47.39673377028891,207C48.54045360362011,207,49.68417343695131,207,50.82789327028251,207C51.971613103613706,207,53.1153329369449,207,54.2590527702761,207C55.402772603607296,207,56.54649243693849,207,57.69021227026969,207C58.83393210360089,207,59.977651936932084,207,61.12137177026328,207C62.26509160359448,207,63.40881143692567,207,64.55253127025686,207C65.69625110358807,207,66.83997093691926,207,67.98369077025046,207C69.12741060358165,207,70.27113043691286,207,71.41485027024405,207C72.55857010357524,207,73.70228993690644,207,74.84600977023763,207C75.98972960356883,207,77.13344943690002,207,78.27716927023123,207C79.42088910356242,207,80.56460893689362,207,81.70832877022481,207C82.85204860355601,207,83.9957684368872,207,85.13948827021841,207C86.2832081035496,207,87.4269279368808,207,88.57064777021199,207C89.7143676035432,207,90.85808743687438,207,92.00180727020559,207C93.14552710353679,207,94.28924693686798,207,95.43296677019919,207C96.57668660353038,207,97.72040643686158,207,98.86412627019277,207C100.00784610352397,207,101.15156593685516,207,102.29528577018637,207C103.43900560351756,207,104.58272543684876,207,105.72644527017995,207C106.87016510351116,207,108.01388493684235,207,109.15760477017355,207C110.30132460350474,207,111.44504443683594,207,112.58876427016713,207C113.73248410349832,207,114.87620393682953,207,116.01992377016072,207C117.1636436034919,207,118.30736343682311,207,119.4510832701543,207C120.5948031034855,207,121.7385229368167,207,122.8822427701479,207C124.02596260347909,207,125.16968243681029,207,126.31340227014148,207C127.45712210347268,207,128.60084193680387,207,129.74456177013508,207C130.88828160346628,207,132.03200143679746,207,133.17572127012866,207C134.31944110345987,207,135.46316093679104,207,136.60688077012225,207C137.75060060345345,207,138.89432043678465,207,140.03804027011586,207C141.18176010344706,207,142.32547993677824,207,143.46919977010944,207C144.61291960344064,207,145.75663943677182,207,146.90035927010302,207C148.04407910343423,207,149.1877989367654,207,150.3315187700966,207C151.4752386034278,207,152.61895843675902,207,153.76267827009022,207C154.90639810342142,207,156.0501179367526,207,157.1938377700838,207C158.337557603415,207,159.48127743674618,207,160.6249972700774,207C161.7687171034086,207,162.91243693673977,207,164.05615677007097,207C165.19987660340217,207,166.34359643673338,207,167.48731627006458,207C168.6310361033958,207,169.77475593672696,207,170.91847577005817,207C172.06219560338937,207,173.20591543672055,207,174.34963527005175,207C175.49335510338295,207,176.63707493671413,207,177.78079477004533,207C178.92451460337654,207,180.06823443670774,207,181.21195427003894,207C182.35567410337015,207,183.49939393670132,207,184.64311377003253,207C185.78683360336373,207,186.9305534366949,207,188.0742732700261,207C189.21799310335732,207,190.36171293668852,207,191.50543277001972,207C192.64915260335093,207,193.7928724366821,207,194.9365922700133,207C196.0803121033445,207,197.2240319366757,207,198.3677517700069,207C199.5114716033381,207,200.65519143666927,207,201.79891127000047,207C202.94263110333168,207,204.08635093666288,207,205.2300707699941,207C206.3737906033253,207,207.51751043665647,207,208.66123026998767,207C209.80495010331884,207,210.94866993665005,207,212.09238976998122,207C213.23610960331243,207,214.3798294366436,207,215.5235492699748,207C216.667269103306,207,217.81098893663722,207,218.95470876996842,207C220.09842860329962,207,221.2421484366308,207,222.385868269962,207C223.5295881032932,207,224.67330793662438,207,225.8170277699556,207C226.9607476032868,207,228.10446743661797,207,229.24818726994917,207C230.39190710328037,207,231.53562693661158,207,232.67934676994278,207C233.823066603274,207,234.96678643660516,207,236.11050626993637,207C237.25422610326757,207,238.39794593659875,207,239.54166576992995,207C240.68538560326115,207,241.82910543659233,207,242.97282526992353,207C244.11654510325474,207,245.26026493658594,207,246.40398476991714,207C247.54770460324835,207,248.69142443657952,207,249.83514426991073,207C250.97886410324193,207,252.1225839365731,207,253.2663037699043,207C254.41002360323552,207,255.55374343656672,207,256.6974632698979,207C257.8411831032291,207,258.9849029365603,207,260.1286227698915,207C262.4160624365539,207,264.7035021032163,207,266.9909417698787,207C268.1346616032099,207,269.27838143654105,207,270.42210126987226,207C271.56582110320346,207,272.70954093653467,207,273.85326076986587,207C274.9969806031971,207,276.1407004365282,207,277.2844202698594,207C278.42814010319063,207,279.57185993652183,207,280.71557976985304,207C281.85929960318424,207,283.00301943651544,207,284.14673926984665,207C285.29045910317785,207,286.434178936509,207,287.5778987698402,207C288.7216186031714,207,289.8653384365026,207,291.0090582698338,207C292.152778103165,207,293.29649793649617,207,294.44021776982737,207C295.5839376031586,207,296.7276574364898,207,297.871377269821,207C299.0150971031522,207,300.15881693648333,207,301.30253676981454,207C302.44625660314574,207,303.589976436477,207,304.7336962698082,207C305.8774161031394,207,307.02113593647056,207,308.16485576980176,207C309.30857560313297,207,310.45229543646417,207,311.5960152697954,207C312.7397351031266,207,313.8834549364577,207,315.0271747697889,207C316.17089460312013,207,317.31461443645134,207,318.45833426978254,207C319.60205410311374,207,320.7457739364449,207,321.8894937697761,207C323.0332136031073,207,324.1769334364385,207,325.3206532697697,207C326.4643731031009,207,327.60809293643206,207,328.75181276976326,207C329.89553260309447,207,331.0392524364257,207,332.18297226975693,207C333.32669210308813,207,334.4704119364193,207,335.6141317697505,207C336.7578516030817,207,337.9015714364129,207,339.0452912697441,207C340.1890111030753,207,341.33273093640645,207,342.47645076973765,207C343.62017060306886,207,344.76389043640006,207,345.90761026973126,207C347.05133010306247,207,348.1950499363936,207,349.3387697697248,207C350.482489603056,207,351.6262094363872,207,352.76992926971843,207C353.91364910304964,207,355.0573689363808,207,356.201088769712,207C357.3448086030432,207,358.48852843637445,207,359.63224826970566,207C360.77596810303686,207,361.919687936368,207,363.0634077696992,207C364.2071276030304,207,365.3508474363616,207,366.4945672696928,207C367.638287103024,207,368.7820069363552,207,369.9257267696864,207C371.0694466030176,207,372.2131664363488,207,373.35688626968,207C374.5006061030112,207,375.64432593634234,207,376.78804576967354,207C377.93176560300475,207,379.07548543633595,207,380.21920526966716,207C381.36292510299836,207,382.50664493632956,207,383.65036476966077,207C384.794084602992,207,385.9378044363232,207,387.0815242696544,207C388.2252441029856,207,389.36896393631673,207,390.51268376964794,207C391.65640360297914,207,392.80012343631034,207,393.94384326964155,207C395.08756310297275,207,396.2312829363039,207,397.3750027696351,207C398.5187226029663,207,399.6624424362975,207,400.8061622696287,207C403.09360193629107,207,405.3810416029535,207,407.6684812696158,207C408.81220110294703,207,409.9559209362783,207,411.0996407696095,207C412.2433606029407,207,413.38708043627184,207,414.53080026960305,207C415.67452010293425,207,416.81823993626546,207,417.96195976959666,207C419.10567960292786,207,420.249399436259,207,421.3931192695902,207C422.5368391029214,207,423.6805589362526,207,424.8242787695838,207C425.96799860291503,207,427.1117184362462,207,428.2554382695774,207C429.3991581029086,207,430.5428779362398,207,431.686597769571,207C432.8303176029022,207,433.97403743623335,207,435.11775726956455,207C436.26147710289575,207,437.405196936227,207,438.5489167695582,207C439.6926366028894,207,440.83635643622057,207,441.9800762695518,207C443.123796102883,207,444.2675159362142,207,445.4112357695454,207C446.5549556028766,207,447.69867543620774,207,448.84239526953894,207C449.98611510287014,207,451.12983493620135,207,452.27355476953255,207C453.41727460286376,207,454.5609944361949,207,455.7047142695261,207C456.8484341028573,207,457.9921539361885,207,459.1358737695197,207C460.2795936028509,207,461.42331343618207,207,462.5670332695133,207C463.7107531028445,207,464.85447293617574,207,465.99819276950694,207C467.14191260283815,207,468.2856324361693,207,469.4293522695005,207C470.5730721028317,207,471.7167919361629,207,472.8605117694941,207C474.0042316028253,207,475.14795143615646,207,476.29167126948767,207C477.43539110281887,207,478.5791109361501,207,479.7228307694813,207C480.8665506028125,207,482.0102704361436,207,483.15399026947483,207C484.29771010280604,207,485.44142993613724,207,486.58514976946844,207C487.72886960279965,207,488.87258943613085,207,490.01630926946206,207C491.16002910279326,207,492.30374893612446,207,493.44746876945567,207C494.5911886027869,207,495.734908436118,207,496.8786282694492,207C498.0223481027804,207,499.16606793611163,207,500.30978776944283,207C501.45350760277404,207,502.5972274361052,207,503.7409472694364,207C504.8846671027676,207,506.0283869360988,207,507.17210676943,207C508.3158266027612,207,509.45954643609235,207,510.60326626942356,207C511.74698610275476,207,512.890705936086,207,514.0344257694172,207C515.1781456027484,207,516.3218654360796,207,517.4655852694108,207C518.6093051027419,207,519.7530249360732,207,520.8967447694043,207C522.0404646027355,207,523.1841844360667,207,524.3279042693979,207C525.4716241027292,207,526.6153439360603,207,527.7590637693916,207C528.9027836027227,207,530.046503436054,207,531.1902232693851,207C532.3339431027163,207,533.4776629360475,207,534.6213827693787,207C535.7651026027099,207,536.9088224360411,207,538.0525422693723,207C539.1962621027035,207,540.3399819360347,207,541.4837017693659,207C542.627421602697,207,543.7711414360283,207,544.9148612693594,207C546.0585811026906,207,547.2023009360219,207,548.346020769353,207L548.346020769353,204.85188679245283C547.2023009360219,192.69551886792453,546.0585811026906,180.53915094339624,544.9148612693594,175.85235849056605C543.7711414360283,171.16556603773586,542.627421602697,168.82216981132075,541.4837017693659,168.82216981132075C540.3399819360347,168.82216981132075,539.1962621027035,171.0679245283019,538.0525422693723,171.0679245283019C536.9088224360411,171.0679245283019,535.7651026027099,157.20283018867923,534.6213827693787,157.20283018867923C533.4776629360475,157.20283018867923,532.3339431027163,168.8872641509434,531.1902232693851,176.04764150943396C530.046503436054,183.20801886792452,528.9027836027227,200.16509433962264,527.7590637693916,200.16509433962264C526.6153439360603,200.16509433962264,525.4716241027292,185.82806603773608,524.3279042693979,175.26650943396226C523.1841844360667,164.70495283018877,522.0404646027355,153.99693396226417,520.8967447694043,136.79575471698115C519.7530249360732,119.59457547169814,518.6093051027419,94.85872641509434,517.4655852694108,72.05943396226414C516.3218654360796,49.26014150943394,515.1781456027484,0,514.0344257694172,0C512.890705936086,0,511.74698610275476,5.728301886792453,510.60326626942356,17.184905660377353C509.45954643609235,28.64150943396188,508.3158266027612,114.82641509434002,507.17210676943,139.04150943396226C506.0283869360988,163.2566037735849,504.8846671027676,173.8018867924528,503.7409472694364,175.36415094339623C502.5972274361052,176.92641509433963,501.45350760277404,177.70754716981133,500.30978776944283,177.70754716981133C499.16606793611163,177.70754716981133,498.0223481027804,10.154716981132083,496.8786282694492,10.154716981132083C495.734908436118,10.154716981132083,494.5911886027869,30.464150943396312,493.44746876945567,40.6188679245283C492.30374893612446,50.77358490566046,491.16002910279326,71.08301886792452,490.01630926946206,71.08301886792452C488.87258943613085,71.08301886792452,487.72886960279965,21.871698113207543,486.58514976946844,21.871698113207543C485.44142993613724,21.871698113207543,484.29771010280604,32.807547169811315,483.15399026947483,54.67924528301887C482.0102704361436,76.55094339622607,480.8665506028125,192.93962264150943,479.7228307694813,192.93962264150943C478.5791109361501,192.93962264150943,477.43539110281887,189.81509433962265,476.29167126948767,183.56603773584905C475.14795143615646,177.31698113207557,474.0042316028253,74.20754716981106,472.8605117694941,57.02264150943398C471.7167919361629,39.837735849056614,470.5730721028317,31.245283018867923,469.4293522695005,31.245283018867923C468.2856324361693,31.245283018867923,467.14191260283815,34.369811320754714,465.99819276950694,40.6188679245283C464.85447293617574,46.8679245283021,463.7107531028445,72.25471698113208,462.5670332695133,72.25471698113208C461.42331343618207,72.25471698113208,460.2795936028509,34.76037735849056,459.1358737695197,34.76037735849056C457.9921539361885,34.76037735849056,456.8484341028573,190.59622641509435,455.7047142695261,190.59622641509435C454.5609944361949,190.59622641509435,453.41727460286376,188.25283018867924,452.27355476953255,183.56603773584905C451.12983493620135,178.87924528301878,449.98611510287014,71.4735849056606,448.84239526953894,58.19433962264151C447.69867543620774,44.91509433962263,446.5549556028766,38.27547169811319,445.4112357695454,38.27547169811319C444.2675159362142,38.27547169811319,443.123796102883,43.54811320754712,441.9800762695518,46.47735849056602C440.83635643622057,49.40660377358487,439.6926366028894,52.53113207547177,438.5489167695582,55.85094339622643C437.405196936227,59.1707547169812,436.26147710289575,59.36603773584907,435.11775726956455,66.39622641509436C433.97403743623335,73.42641509433942,432.8303176029022,191.76792452830188,431.686597769571,191.76792452830188C430.5428779362398,191.76792452830188,429.3991581029086,187.47169811320754,428.2554382695774,178.87924528301886C427.1117184362462,170.28679245283033,425.96799860291503,38.861320754716985,424.8242787695838,38.861320754716985C423.6805589362526,38.861320754716985,422.5368391029214,201.53207547169814,421.3931192695902,201.72735849056605C420.249399436259,201.92264150943396,419.10567960292786,202.02028301886793,417.96195976959666,202.02028301886793C416.81823993626546,202.02028301886793,415.67452010293425,201.14150943396226,414.53080026960305,201.14150943396226C413.38708043627184,201.14150943396226,412.2433606029407,201.7924528301887,411.0996407696095,202.50849056603772C409.9559209362783,203.22452830188678,408.81220110294703,205.4377358490566,407.6684812696158,205.4377358490566C405.3810416029535,205.4377358490566,403.09360193629107,199.4816037735849,400.8061622696287,199.4816037735849C399.6624424362975,199.4816037735849,398.5187226029663,201.5320754716981,397.3750027696351,202.3132075471698C396.2312829363039,203.0943396226415,395.08756310297275,204.1683962264151,393.94384326964155,204.1683962264151C392.80012343631034,204.1683962264151,391.65640360297914,202.9478773584906,390.51268376964794,202.02028301886793C389.36896393631673,201.0926886792453,388.2252441029856,198.60283018867923,387.0815242696544,198.60283018867923C385.9378044363232,198.60283018867923,384.794084602992,206.186320754717,383.65036476966077,206.31650943396227C382.50664493632956,206.44669811320753,381.36292510299836,206.51179245283018,380.21920526966716,206.51179245283018C379.07548543633595,206.51179245283018,377.93176560300475,202.50849056603772,376.78804576967354,202.50849056603772C375.64432593634234,202.50849056603772,374.5006061030112,204.26603773584907,373.35688626968,204.26603773584907C372.2131664363488,204.26603773584907,371.0694466030176,204.26603773584907,369.9257267696864,204.26603773584907C368.7820069363552,204.26603773584907,367.638287103024,204.46132075471698,366.4945672696928,204.46132075471698C365.3508474363616,204.46132075471698,364.2071276030304,203.58254716981133,363.0634077696992,203.58254716981133C361.919687936368,203.58254716981133,360.77596810303686,206.41415094339624,359.63224826970566,206.41415094339624C358.48852843637445,206.41415094339624,357.3448086030432,206.28396226415094,356.201088769712,206.02358490566039C355.0573689363808,205.76320754716983,353.91364910304964,202.99669811320754,352.76992926971843,202.99669811320754C351.6262094363872,202.99669811320754,350.482489603056,203.19198113207548,349.3387697697248,203.19198113207548C348.1950499363936,203.19198113207548,347.05133010306247,203.02924528301887,345.90761026973126,202.80141509433963C344.76389043640006,202.57358490566037,343.62017060306886,202.05283018867925,342.47645076973765,201.825C341.33273093640645,201.59716981132075,340.1890111030753,201.43443396226414,339.0452912697441,201.43443396226414C337.9015714364129,201.43443396226414,336.7578516030817,206.41415094339624,335.6141317697505,206.41415094339624C334.4704119364193,206.41415094339624,333.32669210308813,206.26768867924528,332.18297226975693,206.12122641509433C331.0392524364257,205.97476415094337,329.89553260309447,205.92594339622642,328.75181276976326,205.53537735849056C327.60809293643206,205.14481132075474,326.4643731031009,204.39622641509433,325.3206532697697,203.58254716981133C324.1769334364385,202.7688679245283,323.0332136031073,200.65330188679246,321.8894937697761,200.65330188679246C320.7457739364449,200.65330188679246,319.60205410311374,200.6858490566038,318.45833426978254,200.7509433962264C317.31461443645134,200.81603773584902,316.17089460312013,201.6948113207547,315.0271747697889,202.6061320754717C313.8834549364577,203.51745283018866,312.7397351031266,206.02358490566039,311.5960152697954,206.2188679245283C310.45229543646417,206.4141509433962,309.30857560313297,206.51179245283018,308.16485576980176,206.51179245283018C307.02113593647056,206.51179245283018,305.8774161031394,204.93325471698114,304.7336962698082,204.26603773584907C303.589976436477,203.59882075471697,302.44625660314574,202.50849056603772,301.30253676981454,202.50849056603772C300.15881693648333,202.50849056603772,299.0150971031522,205.53537735849056,297.871377269821,205.53537735849056C296.7276574364898,205.53537735849056,295.5839376031586,203.35471698113207,294.44021776982737,202.6061320754717C293.29649793649617,201.85754716981134,292.152778103165,201.0438679245283,291.0090582698338,201.0438679245283C289.8653384365026,201.0438679245283,288.7216186031714,205.82830188679245,287.5778987698402,205.82830188679245C286.434178936509,205.82830188679245,285.29045910317785,205.45400943396226,284.14673926984665,205.1448113207547C283.00301943651544,204.83561320754717,281.85929960318424,204.29858490566036,280.71557976985304,203.97311320754716C279.57185993652183,203.64764150943395,278.42814010319063,203.4686320754717,277.2844202698594,203.19198113207548C276.1407004365282,202.91533018867926,274.9969806031971,202.3132075471698,273.85326076986587,202.3132075471698C272.70954093653467,202.3132075471698,271.56582110320346,202.70377358490566,270.42210126987226,202.70377358490566C269.27838143654105,202.70377358490566,268.1346616032099,201.23915094339623,266.9909417698787,201.23915094339623C264.7035021032163,201.23915094339623,262.4160624365539,206.41415094339624,260.1286227698915,206.41415094339624C258.9849029365603,206.41415094339624,257.8411831032291,203.43608490566038,256.6974632698979,202.41084905660378C255.55374343656672,201.38561320754715,254.41002360323552,200.2627358490566,253.2663037699043,200.2627358490566C252.1225839365731,200.2627358490566,250.97886410324193,202.11792452830187,249.83514426991073,202.50849056603772C248.69142443657952,202.89905660377357,247.54770460324835,203.0943396226415,246.40398476991714,203.0943396226415C245.26026493658594,203.0943396226415,244.11654510325474,200.84858490566037,242.97282526992353,200.84858490566037C241.82910543659233,200.84858490566037,240.68538560326115,205.63301886792453,239.54166576992995,205.82830188679245C238.39794593659875,206.02358490566036,237.25422610326757,206.12122641509433,236.11050626993637,206.12122641509433C234.96678643660516,206.12122641509433,233.823066603274,201.23915094339623,232.67934676994278,201.23915094339623C231.53562693661158,201.23915094339623,230.39190710328037,201.23915094339623,229.24818726994917,201.23915094339623C228.10446743661797,201.23915094339623,226.9607476032868,203.19198113207548,225.8170277699556,203.19198113207548C224.67330793662438,203.19198113207548,223.5295881032932,201.14150943396226,222.385868269962,201.14150943396226C221.2421484366308,201.14150943396226,220.09842860329962,201.43443396226414,218.95470876996842,202.02028301886793C217.81098893663722,202.60613207547172,216.667269103306,206.51179245283018,215.5235492699748,206.51179245283018C214.3798294366436,206.51179245283018,213.23610960331243,206.31650943396227,212.09238976998122,205.92594339622642C210.94866993665005,205.53537735849056,209.80495010331884,203.19198113207548,208.66123026998767,203.19198113207548C207.51751043665647,203.19198113207548,206.3737906033253,203.2245283018868,205.2300707699941,203.28962264150942C204.08635093666288,203.35471698113204,202.94263110333168,203.87547169811322,201.79891127000047,203.87547169811322C200.65519143666927,203.87547169811322,199.5114716033381,202.08537735849058,198.3677517700069,202.02028301886793C197.2240319366757,201.95518867924528,196.0803121033445,201.92264150943396,194.9365922700133,201.92264150943396C193.7928724366821,201.92264150943396,192.64915260335093,204.85188679245283,191.50543277001972,205.4377358490566C190.36171293668852,206.02358490566039,189.21799310335732,206.31650943396227,188.0742732700261,206.31650943396227C186.9305534366949,206.31650943396227,185.78683360336373,203.58254716981133,184.64311377003253,203.58254716981133C183.49939393670132,203.58254716981133,182.35567410337015,205.82830188679245,181.21195427003894,205.82830188679245C180.06823443670774,205.82830188679245,178.92451460337654,204.55896226415092,177.78079477004533,203.97311320754716C176.63707493671413,203.3872641509434,175.49335510338295,202.3132075471698,174.34963527005175,202.3132075471698C173.20591543672055,202.3132075471698,172.06219560338937,204.88443396226415,170.91847577005817,205.53537735849056C169.77475593672696,206.18632075471697,168.6310361033958,206.51179245283018,167.48731627006458,206.51179245283018C166.34359643673338,206.51179245283018,165.19987660340217,206.47924528301886,164.05615677007097,206.41415094339624C162.91243693673977,206.34905660377362,161.7687171034086,204.83561320754717,160.6249972700774,204.26603773584907C159.48127743674618,203.69646226415097,158.337557603415,202.99669811320754,157.1938377700838,202.99669811320754C156.0501179367526,202.99669811320754,154.90639810342142,205.04716981132074,153.76267827009022,205.04716981132074C152.61895843675902,205.04716981132074,151.4752386034278,204.68915094339624,150.3315187700966,204.26603773584907C149.1877989367654,203.8429245283019,148.04407910343423,202.50849056603772,146.90035927010302,202.50849056603772C145.75663943677182,202.50849056603772,144.61291960344064,205.86084905660377,143.46919977010944,206.12122641509433C142.32547993677824,206.38160377358489,141.18176010344706,206.51179245283018,140.03804027011586,206.51179245283018C138.89432043678465,206.51179245283018,137.75060060345345,202.50849056603772,136.60688077012225,202.50849056603772C135.46316093679104,202.50849056603772,134.31944110345987,202.99669811320757,133.17572127012866,203.19198113207548C132.03200143679746,203.3872641509434,130.88828160346628,203.68018867924528,129.74456177013508,203.68018867924528C128.60084193680387,203.68018867924528,127.45712210347268,203.4686320754717,126.31340227014148,203.19198113207548C125.16968243681029,202.91533018867926,124.02596260347909,202.02028301886793,122.8822427701479,202.02028301886793C121.7385229368167,202.02028301886793,120.5948031034855,204.72169811320754,119.4510832701543,205.24245283018868C118.30736343682311,205.76320754716983,117.1636436034919,206.02358490566039,116.01992377016072,206.02358490566039C114.87620393682953,206.02358490566039,113.73248410349832,205.45400943396226,112.58876427016713,204.85188679245283C111.44504443683594,204.2497641509434,110.30132460350474,202.41084905660378,109.15760477017355,202.41084905660378C108.01388493684235,202.41084905660378,106.87016510351116,204.26603773584907,105.72644527017995,204.26603773584907C104.58272543684876,204.26603773584907,103.43900560351756,203.19198113207545,102.29528577018637,202.6061320754717C101.15156593685516,202.0202830188679,100.00784610352397,200.7509433962264,98.86412627019277,200.7509433962264C97.72040643686158,200.7509433962264,96.57668660353038,205.24245283018868,95.43296677019919,205.24245283018868C94.28924693686798,205.24245283018868,93.14552710353679,205.01462264150945,92.00180727020559,204.55896226415095C90.85808743687438,204.10330188679245,89.7143676035432,201.72735849056605,88.57064777021199,201.72735849056605C87.4269279368808,201.72735849056605,86.2832081035496,203.0943396226415,85.13948827021841,203.0943396226415C83.9957684368872,203.0943396226415,82.85204860355601,202.6061320754717,81.70832877022481,202.6061320754717C80.56460893689362,202.6061320754717,79.42088910356242,202.67122641509434,78.27716927023123,202.80141509433963C77.13344943690002,202.93160377358492,75.98972960356883,203.69646226415094,74.84600977023763,204.1683962264151C73.70228993690644,204.64033018867926,72.55857010357524,205.43773584905662,71.41485027024405,205.63301886792453C70.27113043691286,205.82830188679245,69.12741060358165,205.92594339622642,67.98369077025046,205.92594339622642C66.83997093691926,205.92594339622642,65.69625110358807,205.6330188679245,64.55253127025686,205.04716981132074C63.40881143692567,204.46132075471698,62.26509160359448,202.41084905660378,61.12137177026328,202.41084905660378C59.977651936932084,202.41084905660378,58.83393210360089,203.19198113207548,57.69021227026969,203.19198113207548C56.54649243693849,203.19198113207548,55.402772603607296,203.12688679245284,54.2590527702761,202.99669811320754C53.1153329369449,202.86650943396225,51.971613103613706,202.21556603773584,50.82789327028251,202.21556603773584C49.68417343695131,202.21556603773584,48.54045360362011,205.86084905660377,47.39673377028891,206.12122641509433C46.253013936957714,206.38160377358489,45.10929410362652,206.51179245283018,43.96557427029532,206.51179245283018C42.821854436964124,206.51179245283018,41.67813460363293,202.70377358490566,40.53441477030173,202.70377358490566C39.39069493697053,202.70377358490566,38.246975103639336,203.19198113207548,37.10325527030814,203.19198113207548C35.95953543697694,203.19198113207548,34.81581560364575,203.19198113207548,33.672095770314556,203.19198113207548C32.52837593698336,203.19198113207548,31.384656103652162,201.92264150943396,30.240936270320965,201.92264150943396C29.09721643698977,201.92264150943396,27.953496603658575,202.11792452830187,26.809776770327378,202.50849056603772C25.66605693699618,202.89905660377357,24.52233710366498,205.82830188679245,23.378617270333784,205.82830188679245C22.234897437002587,205.82830188679245,21.09117760367139,205.66556603773586,19.947457770340193,205.34009433962265C18.803737937008997,205.01462264150945,17.6600181036778,203.25707547169813,16.516298270346603,203.19198113207548C15.372578437015406,203.12688679245284,14.22885860368421,203.0943396226415,13.085138770353014,203.0943396226415C11.941418937021817,203.0943396226415,10.79769910369062,204.31485849056605,9.653979270359423,205.53537735849056Z" id="calls_311" style="fill: rgb(84, 193, 76); opacity: 0.5; mix-blend-mode: normal;"/><g id="x-svg axis-svg" transform="translate(0, 207)"><line x1="0" x2="558" y1="0" y2="0" style="stroke: rgb(51, 51, 51); stroke-width: 1;"/></g><g id="free-texts-svg"><text transform="translate(465.87417160040434, 21.28301886792454) translate(-31.499984741210938, -10) translate(31.499984741210938, 0)" fill="rgb(51, 51, 51)" style="text-anchor: middle; font-family: BentonSans; font-weight: 400; font-size: 10px;"><tspan x="0" dy="10">Floyd's death</tspan></text></g></g></g><rect width="14" height="14" transform="translate(0, 100.40625)" fill="rgb(84,193,76)" id="calls_311" style="opacity: 0.5; fill: rgb(84, 193, 76);"/><g id="calls_311-svg"><text transform="translate(18, 101.234375)" fill="rgb(51,51,51)" style="font-family: BentonSans; font-weight: 400; font-size: 12px;"><tspan x="0" dy="12">311 calls for property, streets, sidewalks, public safety</tspan></text></g></g><g id="after-body-svg"/><g id="above-footer-svg"/><g id="footer-svg"><g id="footer-inner-svg"><g id="footer-main-svg"><g id="text-svg"><text transform="translate(0, 382)" fill="rgb(136,136,136)" style="font-family: BentonSans; font-weight: 400; font-size: 11px;"><tspan x="0" dy="11">Chart:</tspan></text><text transform="translate(34, 382)" fill="rgb(136,136,136)" style="font-family: BentonSans; font-weight: 400; font-size: 11px;"><tspan x="0" dy="11">Jeff Hargarten, Star Tribune</tspan></text></g><g id="text-svg"><text transform="translate(174, 382)" fill="rgb(136,136,136)" style="font-family: BentonSans; font-weight: 400; font-size: 11px;"><tspan x="0" dy="11">​ •</tspan></text></g><g id="text-svg"><text transform="translate(185, 382)" fill="rgb(136,136,136)" style="font-family: BentonSans; font-weight: 400; font-size: 11px;"><tspan x="0" dy="11">Source:</tspan></text><text transform="translate(226, 382)" fill="rgb(136,136,136)" style="font-family: BentonSans; font-weight: 400; font-size: 11px;"><tspan x="0" dy="11">City of Minneapolis</tspan></text></g></g></g></g><g id="below-footer-svg"/></g></svg>