<svg xmlns:xlink="http://www.w3.org/1999/xlink" xmlns="http://www.w3.org/2000/svg" id="exportSvg" width="600" height="400"><defs/><g><g id="header-svg"><g id="text-svg"><text transform="translate(0, -2)" fill="rgb(51,51,51)" style="font-family: BentonSans; font-weight: 700; font-size: 19px;"><tspan x="0" dy="19">Volume of police and fire reports deflated in June</tspan></text></g><g id="text-svg"><text transform="translate(0, 31)" fill="rgb(51,51,51)" style="font-family: BentonSans; font-weight: 400; font-size: 15px;"><tspan x="0" dy="15">Following the uprising, filed police and fire reports between.2019 and 2020 show a </tspan></text><text transform="translate(0, 51)" fill="rgb(51,51,51)" style="font-family: BentonSans; font-weight: 400; font-size: 15px;"><tspan x="0" dy="15">decline through June's first half.</tspan></text></g></g><g id="chart-svg"><g id="group-svg" clip-path="url(#rect-mask-group-0)" transform="translate(0, 104)"><clipPath id="rect-mask-group-0"><rect x="0" y="0" width="600" height="236"/></clipPath><g id="group-svg" transform="translate(46, 34)"><g id="x-svg ticks-svg" transform="translate(0, 189)"><g transform="translate(9.649737319852498, 0)"><text transform="translate(-9.999998092651367, -12) translate(9.999998092651367, 11)" fill="rgb(133, 133, 133)" style="text-anchor: middle; font-family: BentonSans; font-weight: 400; font-size: 12px;"><tspan x="0" dy="12">Jan</tspan></text></g><g transform="translate(118.08866026343293, 0)"><text transform="translate(-10, -12) translate(10, 11)" fill="rgb(133, 133, 133)" style="text-anchor: middle; font-family: BentonSans; font-weight: 400; font-size: 12px;"><tspan x="0" dy="12">Feb</tspan></text></g><g transform="translate(219.53152366226624, 0)"><text transform="translate(-11.5, -12) translate(11.5, 11)" fill="rgb(133, 133, 133)" style="text-anchor: middle; font-family: BentonSans; font-weight: 400; font-size: 12px;"><tspan x="0" dy="12">Mar</tspan></text></g><g transform="translate(327.97044660584663, 0)"><text transform="translate(-10, -12) translate(10, 11)" fill="rgb(133, 133, 133)" style="text-anchor: middle; font-family: BentonSans; font-weight: 400; font-size: 12px;"><tspan x="0" dy="12">Apr</tspan></text></g><g transform="translate(432.91133977705357, 0)"><text transform="translate(-12.5, -12) translate(12.5, 11)" fill="rgb(133, 133, 133)" style="text-anchor: middle; font-family: BentonSans; font-weight: 400; font-size: 12px;"><tspan x="0" dy="12">May</tspan></text></g><g transform="translate(541.350262720634, 0)"><text transform="translate(-10, -12) translate(10, 11)" fill="rgb(133, 133, 133)" style="text-anchor: middle; font-family: BentonSans; font-weight: 400; font-size: 12px;"><tspan x="0" dy="12">Jun</tspan></text></g></g><g id="x-svg axis-svg" transform="translate(0, 92)"><line x1="0" x2="551" y1="0" y2="0" style="stroke: rgb(51, 51, 51); stroke-width: 1;"/></g><g id="y-grid-svg"><g transform="translate(0, 184)"><line x1="0" x2="551" y1="0" y2="0" style="stroke: rgb(238, 238, 238); stroke-width: 1;"/><text transform="translate(-4, 4) translate(-41, -12) translate(41, 0)" fill="rgb(133, 133, 133)" style="text-anchor: end; font-family: BentonSans; font-weight: 400; font-size: 12px;"><tspan x="0" dy="12">−100%</tspan></text></g><g transform="translate(0, 138)"><line x1="0" x2="551" y1="0" y2="0" style="stroke: rgb(238, 238, 238); stroke-width: 1;"/><text transform="translate(-4, 4) translate(-35, -12) translate(35, 0)" fill="rgb(133, 133, 133)" style="text-anchor: end; font-family: BentonSans; font-weight: 400; font-size: 12px;"><tspan x="0" dy="12">−50%</tspan></text></g><g id="tick-svg tick-major-svg" transform="translate(0, 92)"><text transform="translate(-4, 4) translate(-28, -12) translate(28, 0)" fill="rgb(133, 133, 133)" style="text-anchor: end; font-family: BentonSans; font-weight: 400; font-size: 12px;"><tspan x="0" dy="12">+0%</tspan></text></g><g transform="translate(0, 46)"><line x1="0" x2="551" y1="0" y2="0" style="stroke: rgb(238, 238, 238); stroke-width: 1;"/><text transform="translate(-4, 4) translate(-35, -12) translate(35, 0)" fill="rgb(133, 133, 133)" style="text-anchor: end; font-family: BentonSans; font-weight: 400; font-size: 12px;"><tspan x="0" dy="12">+50%</tspan></text></g><g><line x1="0" x2="551" y1="0" y2="0" style="stroke: rgb(238, 238, 238); stroke-width: 1;"/><text transform="translate(-4, 4) translate(-41, -12) translate(41, 0)" fill="rgb(133, 133, 133)" style="text-anchor: end; font-family: BentonSans; font-weight: 400; font-size: 12px;"><tspan x="0" dy="12">+100%</tspan></text></g></g><g id="lines-svg"><g id="fire-svg"><path d="M9.649737319852498,81.788C45.79604496771264,92.59800000000001,81.94235261557279,103.40800000000002,118.08866026343293,103.40800000000002C151.90294806304402,103.40800000000002,185.71723586265514,77.372,219.53152366226624,77.372C255.67783131012638,77.372,291.8241389579865,92.828,327.97044660584663,92.828C362.9507443295823,92.828,397.9310420533179,28.97999999999999,432.91133977705357,28.97999999999999C469.0576474249137,28.97999999999999,505.20395507277385,69,541.350262720634,109.02000000000001" stroke="rgb(255,127,14)" id="fire" style="stroke-width: 2; stroke-linejoin: round; stroke-linecap: round; fill: none; mix-blend-mode: normal;"/></g><g id="police-svg"><path d="M9.649737319852498,71.024C45.79604496771264,70.79622068965517,81.94235261557279,70.56844137931034,118.08866026343293,70.38C151.90294806304402,70.20371612903226,185.71723586265514,69.92,219.53152366226624,69.92C255.67783131012638,69.92,291.8241389579865,97.06,327.97044660584663,97.06C362.9507443295823,97.06,397.9310420533179,96.968,432.91133977705357,96.968C469.0576474249137,96.968,505.20395507277385,119.692,541.350262720634,142.416" stroke="rgb(48,133,230)" id="police" style="stroke-width: 2; stroke-linejoin: round; stroke-linecap: round; fill: none; mix-blend-mode: normal;"/></g><g id="stops-svg"><path d="M9.649737319852498,96.968C45.79604496771264,79.62599999999999,81.94235261557279,62.28399999999998,118.08866026343293,62.28399999999998C151.90294806304402,62.28399999999998,185.71723586265514,92,219.53152366226624,92C255.67783131012638,92,291.8241389579865,87.39999999999999,327.97044660584663,87.39999999999999C362.9507443295823,87.39999999999999,397.9310420533179,89.68311792702274,432.91133977705357,92.644C469.0576474249137,95.70357814207651,505.20395507277385,100.70578907103825,541.350262720634,105.708" stroke="rgb(148,103,189)" id="stops" style="stroke-width: 2; stroke-linejoin: round; stroke-linecap: round; fill: none; mix-blend-mode: normal;"/></g><g id="force-svg"><path d="M9.649737319852498,105.34C45.79604496771264,100.01891915708812,81.94235261557279,94.69783831417625,118.08866026343293,87.768C151.90294806304402,81.28524802867383,185.71723586265514,65.50399999999999,219.53152366226624,65.50399999999999C255.67783131012638,65.50399999999999,291.8241389579865,113.16,327.97044660584663,113.16C362.9507443295823,113.16,397.9310420533179,80.40800000000002,432.91133977705357,80.40800000000002C469.0576474249137,80.40800000000002,505.20395507277385,113.988,541.350262720634,147.56799999999998" stroke="rgb(214,39,40)" id="force" style="stroke-width: 2; stroke-linejoin: round; stroke-linecap: round; fill: none; mix-blend-mode: normal;"/></g></g></g></g><g id="fire-svg" clip-path="url(#rect-mask-fire-1)" transform="translate(0, 104)"><clipPath id="rect-mask-fire-1"><rect x="0" y="0" width="16" height="20"/></clipPath><path d="M1,10 L15,10" stroke="rgb(255,127,14)" id="fire" style="stroke-width: 2; stroke-linejoin: round; stroke-linecap: round; fill: none; mix-blend-mode: normal;"/></g><g id="fire-svg"><text transform="translate(20, 107.609375)" fill="rgb(51,51,51)" style="font-family: BentonSans; font-weight: 400; font-size: 12px;"><tspan x="0" dy="12">Fires</tspan></text></g><g id="police-svg" clip-path="url(#rect-mask-police-2)" transform="translate(56, 104)"><clipPath id="rect-mask-police-2"><rect x="0" y="0" width="16" height="20"/></clipPath><path d="M1,10 L15,10" stroke="rgb(48,133,230)" id="police" style="stroke-width: 2; stroke-linejoin: round; stroke-linecap: round; fill: none; mix-blend-mode: normal;"/></g><g id="police-svg"><text transform="translate(76, 107.609375)" fill="rgb(51,51,51)" style="font-family: BentonSans; font-weight: 400; font-size: 12px;"><tspan x="0" dy="12">Police calls</tspan></text></g><g id="stops-svg" clip-path="url(#rect-mask-stops-3)" transform="translate(145, 104)"><clipPath id="rect-mask-stops-3"><rect x="0" y="0" width="16" height="20"/></clipPath><path d="M1,10 L15,10" stroke="rgb(148,103,189)" id="stops" style="stroke-width: 2; stroke-linejoin: round; stroke-linecap: round; fill: none; mix-blend-mode: normal;"/></g><g id="stops-svg"><text transform="translate(165, 107.609375)" fill="rgb(51,51,51)" style="font-family: BentonSans; font-weight: 400; font-size: 12px;"><tspan x="0" dy="12">Police stops</tspan></text></g><g id="force-svg" clip-path="url(#rect-mask-force-4)" transform="translate(240, 104)"><clipPath id="rect-mask-force-4"><rect x="0" y="0" width="16" height="20"/></clipPath><path d="M1,10 L15,10" stroke="rgb(214,39,40)" id="force" style="stroke-width: 2; stroke-linejoin: round; stroke-linecap: round; fill: none; mix-blend-mode: normal;"/></g><g id="force-svg"><text transform="translate(260, 107.609375)" fill="rgb(51,51,51)" style="font-family: BentonSans; font-weight: 400; font-size: 12px;"><tspan x="0" dy="12">Police use-of-force</tspan></text></g></g><g id="after-body-svg"/><g id="above-footer-svg"><g id="text-svg"><text transform="translate(0, 363)" fill="rgb(101,101,101)" style="font-family: BentonSans; font-weight: 400; font-style: italic; font-size: 12px;"><tspan x="0" dy="12">Data for both years runs through June 14.</tspan></text></g></g><g id="footer-svg"><g id="footer-inner-svg"><g id="footer-main-svg"><g id="text-svg"><text transform="translate(0, 382)" fill="rgb(136,136,136)" style="font-family: BentonSans; font-weight: 400; font-size: 11px;"><tspan x="0" dy="11">Chart:</tspan></text><text transform="translate(34, 382)" fill="rgb(136,136,136)" style="font-family: BentonSans; font-weight: 400; font-size: 11px;"><tspan x="0" dy="11">Jeff Hargarten, Star Tribune</tspan></text></g><g id="text-svg"><text transform="translate(174, 382)" fill="rgb(136,136,136)" style="font-family: BentonSans; font-weight: 400; font-size: 11px;"><tspan x="0" dy="11">​ •</tspan></text></g><g id="text-svg"><text transform="translate(185, 382)" fill="rgb(136,136,136)" style="font-family: BentonSans; font-weight: 400; font-size: 11px;"><tspan x="0" dy="11">Source:</tspan></text><text transform="translate(226, 382)" fill="rgb(136,136,136)" style="font-family: BentonSans; font-weight: 400; font-size: 11px;"><tspan x="0" dy="11">City of Minneapolis</tspan></text></g></g></g></g><g id="below-footer-svg"/></g></svg>